G75*
%MOIN*%
%OFA0B0*%
%FSLAX25Y25*%
%IPPOS*%
%LPD*%
%AMOC8*
5,1,8,0,0,1.08239X$1,22.5*
%
%ADD10C,0.01000*%
%ADD11C,0.05600*%
%ADD12C,0.06400*%
%ADD13OC8,0.06400*%
%ADD14C,0.10400*%
%ADD15C,0.23400*%
D10*
X0001500Y0029000D02*
X0001500Y0169000D01*
X0029000Y0196461D01*
X0029000Y0196500D02*
X0169000Y0196500D01*
X0196500Y0169000D01*
X0196500Y0029000D01*
X0169000Y0001500D01*
X0029000Y0001500D01*
X0001500Y0029000D01*
D11*
X0022084Y0022091D02*
X0025761Y0025768D01*
X0018801Y0032727D02*
X0015124Y0029051D01*
X0029044Y0015131D02*
X0032721Y0018808D01*
X0084000Y0019100D02*
X0084000Y0013900D01*
X0094000Y0013900D02*
X0094000Y0019100D01*
X0104000Y0019100D02*
X0104000Y0013900D01*
X0114000Y0013900D02*
X0114000Y0019100D01*
X0165273Y0018801D02*
X0168949Y0015124D01*
X0175909Y0022084D02*
X0172232Y0025761D01*
X0179192Y0032721D02*
X0182869Y0029044D01*
X0184100Y0084000D02*
X0178900Y0084000D01*
X0178900Y0094000D02*
X0184100Y0094000D01*
X0184100Y0104000D02*
X0178900Y0104000D01*
X0178900Y0114000D02*
X0184100Y0114000D01*
X0149000Y0113900D02*
X0149000Y0119100D01*
X0139000Y0119100D02*
X0139000Y0113900D01*
X0129000Y0113900D02*
X0129000Y0119100D01*
X0114000Y0121400D02*
X0114000Y0126600D01*
X0104000Y0126600D02*
X0104000Y0121400D01*
X0094000Y0121400D02*
X0094000Y0126600D01*
X0084000Y0126600D02*
X0084000Y0121400D01*
X0084000Y0146400D02*
X0084000Y0151600D01*
X0094000Y0151600D02*
X0094000Y0146400D01*
X0104000Y0146400D02*
X0104000Y0151600D01*
X0114000Y0151600D02*
X0114000Y0146400D01*
X0114000Y0178900D02*
X0114000Y0184100D01*
X0104000Y0184100D02*
X0104000Y0178900D01*
X0094000Y0178900D02*
X0094000Y0184100D01*
X0084000Y0184100D02*
X0084000Y0178900D01*
X0032727Y0179199D02*
X0029051Y0182876D01*
X0022091Y0175916D02*
X0025768Y0172239D01*
X0018808Y0165279D02*
X0015131Y0168956D01*
X0013900Y0114000D02*
X0019100Y0114000D01*
X0019100Y0104000D02*
X0013900Y0104000D01*
X0013900Y0094000D02*
X0019100Y0094000D01*
X0019100Y0084000D02*
X0013900Y0084000D01*
X0165279Y0179192D02*
X0168956Y0182869D01*
X0175916Y0175909D02*
X0172239Y0172232D01*
X0179199Y0165273D02*
X0182876Y0168949D01*
D12*
X0064000Y0101500D03*
D13*
X0064000Y0111500D03*
X0064000Y0121500D03*
X0054000Y0121500D03*
X0054000Y0111500D03*
X0054000Y0101500D03*
D14*
X0129000Y0164000D03*
X0149000Y0164000D03*
D15*
X0043331Y0154669D03*
X0154669Y0043331D03*
M02*
