%
M48
M72
T01C0.0157
T02C0.0320
T03C0.0400
T04C0.1181
%
T01
X900Y15900
X3400Y13400
X6900Y18150
X5150Y18900
X10150Y17150
X10150Y16150
X14900Y17525
X14900Y18900
X900Y6650
X900Y3900
X3900Y900
X5900Y1650
X14650Y900
X18900Y4650
X18150Y6150
X19150Y10900
X16150Y9838
X14775Y10775
X18900Y16400
X900Y13400
X12775Y2775
X12775Y3525
X11650Y4150
X11900Y5150
X8900Y5150
X6775Y6650
X6025Y6650
X8900Y4275
X7400Y9275
X11650Y6900
X10650Y9275
X8400Y11400
X11400Y13650
X13025Y15275
X12150Y14900
X12150Y12400
X4650Y11775
X5650Y12900
X4150Y4400
X12650Y13650
X15525Y12150
X16650Y8650
X2400Y8900
X16650Y11650
X6025Y16525
X6025Y15525
X8900Y13900
X8025Y13275
X7650Y2650
X14025Y6900
X6775Y6150
X6775Y7150
X6775Y7650
X6775Y8150
X6025Y7150
X6025Y7650
X6025Y6150
X6025Y5650
X7025Y5650
X6775Y8650
X5900Y8150
X5525Y8525
X7275Y6150
X7275Y6650
X7275Y7150
X7275Y7650
X7275Y8150
X7275Y8650
X6275Y8900
X7525Y5150
X15275Y10275
X15650Y7150
X4900Y3650
X6650Y5400
X18400Y14400
X18400Y14900
X17900Y14900
X16900Y14900
X18400Y12900
X16900Y13400
X17900Y12900
X17400Y12900
X18400Y13400
X16900Y12900
X16900Y14400
X16900Y13900
X17400Y14900
X18400Y13900
X13650Y10150
T02
X17408Y17407
X16712Y18103
X18104Y16711
X2393Y17408
X1697Y16712
X3089Y18104
X2392Y2393
X3088Y1697
X1696Y3089
X17407Y2392
X18103Y3088
X16711Y1696
X18150Y11400
X18150Y10400
X18150Y9400
X18150Y8400
X1650Y11400
X1650Y10400
X1650Y9400
X1650Y8400
X11400Y18150
X10400Y18150
X9400Y18150
X8400Y18150
X11400Y1650
X10400Y1650
X9400Y1650
X8400Y1650
X14900Y16400
X12900Y16400
X11400Y14900
X10400Y14900
X9400Y14900
X8400Y14900
X11400Y12400
X10400Y12400
X9400Y12400
X8400Y12400
X12900Y11650
X14900Y11650
X13900Y11650
T03
X6400Y10150
X6400Y11150
X6400Y12150
X5400Y10150
X5400Y11150
X5400Y12150
T04
X4333Y15467
X15467Y4333
M30
