solid case
facet normal 0.9406552135532438 -0.33936377121770317 -3.093229844363343e-14
outer loop
vertex 92.68212373764618 2.9327651418498134e-13 -7.927647696068598e-13
vertex 92.72371674395495 0.11528831758020565 14.670541932096661
vertex 92.68212373764631 -3.158362460453645e-13 13.499999999999888
endloop
endfacet
facet normal 0.9406552135532438 -0.33936377121770317 -3.093229844363343e-14
outer loop
vertex 92.72371674395495 0.11528831758020565 14.670541932096661
vertex 92.68212373764618 2.9327651418498134e-13 -7.927647696068598e-13
vertex 112.80073682534906 55.76516969534836 1.5333078189291773e-12
endloop
endfacet
facet normal 0.9406552135532438 -0.33936377121770317 -3.093229844363343e-14
outer loop
vertex 92.72371674395495 0.11528831758020565 14.670541932096661
vertex 112.80073682534906 55.76516969534836 1.5333078189291773e-12
vertex 92.84689736697372 0.4567228049318654 15.796100594190438
endloop
endfacet
facet normal 0.9406552135532438 -0.33936377121770317 -3.093229844363343e-14
outer loop
vertex 92.84689736697372 0.4567228049318654 15.796100594190438
vertex 112.80073682534906 55.76516969534836 1.5333078189291773e-12
vertex 93.04693184444082 1.0111823261842654 16.83342139811753
endloop
endfacet
facet normal 0.9406552135532438 -0.33936377121770317 -3.093229844363343e-14
outer loop
vertex 93.04693184444082 1.0111823261842654 16.83342139811753
vertex 112.80073682534906 55.76516969534836 1.5333078189291773e-12
vertex 93.31613296356764 1.7573593128802871 17.742640687119227
endloop
endfacet
facet normal 0.9406552135532438 -0.33936377121770317 -3.093229844363343e-14
outer loop
vertex 93.31613296356764 1.7573593128802871 17.742640687119227
vertex 112.80073682534906 55.76516969534836 1.5333078189291773e-12
vertex 93.64415547631592 2.6665786018818594 18.48881767381524
endloop
endfacet
facet normal 0.9406552135532438 -0.33936377121770317 -3.093229844363343e-14
outer loop
vertex 93.64415547631592 2.6665786018818594 18.48881767381524
vertex 112.80073682534906 55.76516969534836 1.5333078189291773e-12
vertex 94.01839366147789 3.7038994058088686 19.04327719506772
endloop
endfacet
facet normal 0.9406552135532438 -0.33936377121770317 -3.093229844363343e-14
outer loop
vertex 94.01839366147789 3.7038994058088686 19.04327719506772
vertex 112.80073682534906 55.76516969534836 1.5333078189291773e-12
vertex 94.42446575547285 4.829458067902629 19.38471168241942
endloop
endfacet
facet normal 0.9406552135532438 -0.33936377121770317 -3.093229844363343e-14
outer loop
vertex 94.42446575547285 4.829458067902629 19.38471168241942
vertex 112.80073682534906 55.76516969534836 1.5333078189291773e-12
vertex 94.84676663545666 5.9999999999994476 19.50000000000007
endloop
endfacet
facet normal 0.9406552135532438 -0.33936377121770317 -3.093229844363343e-14
outer loop
vertex 94.84676663545666 5.9999999999994476 19.50000000000007
vertex 112.80073682534906 55.76516969534836 1.5333078189291773e-12
vertex 107.25870054916501 40.40364392555634 19.500000000001528
endloop
endfacet
facet normal 0.9406552135532438 -0.33936377121770317 -3.093229844363343e-14
outer loop
vertex 107.25870054916501 40.40364392555634 19.500000000001528
vertex 112.80073682534906 55.76516969534836 1.5333078189291773e-12
vertex 112.80073682534956 55.76516969534773 14.000000000002524
endloop
endfacet
facet normal -0.9999956091788347 0.0029633803420043847 6.231205032133618e-15
outer loop
vertex 87.32532644799203 41.21437037253257 19.500000000001826
vertex 87.32442964728438 40.91174409228038 19.384711682421237
vertex 87.32096088633335 39.74120729982393 19.500000000001826
endloop
endfacet
facet normal -0.9999956091788347 0.0029633803420043847 6.231205032133618e-15
outer loop
vertex 87.32442964728438 40.91174409228038 19.384711682421237
vertex 87.32532644799203 41.21437037253257 19.500000000001826
vertex 87.32776510569751 42.03729781224738 19.043277195069603
endloop
endfacet
facet normal -0.9999956091788347 0.0029633803420043847 6.231205032133618e-15
outer loop
vertex 87.32776510569751 42.03729781224738 19.043277195069603
vertex 87.32532644799203 41.21437037253257 19.500000000001826
vertex 87.3387411683854 45.74118095489702 17.388848719008294
endloop
endfacet
facet normal -0.9999956091788347 0.0029633803420043847 6.231205032133618e-15
outer loop
vertex 87.32776510569751 42.03729781224738 19.043277195069603
vertex 87.3387411683854 45.74118095489702 17.388848719008294
vertex 87.33083908177625 43.07461406148435 18.488817673817177
endloop
endfacet
facet normal -0.9999956091788347 0.0029633803420043847 6.231205032133618e-15
outer loop
vertex 87.33083908177625 43.07461406148435 18.488817673817177
vertex 87.3387411683854 45.74118095489702 17.388848719008294
vertex 87.33353344434369 43.98382935826677 17.74264068712121
endloop
endfacet
facet normal -0.9999956091788347 0.0029633803420043847 6.231205032133618e-15
outer loop
vertex 87.33353344434369 43.98382935826677 17.74264068712121
vertex 87.3387411683854 45.74118095489702 17.388848719008294
vertex 87.33574465055793 44.73000306863305 16.833421398119555
endloop
endfacet
facet normal -0.9999956091788347 0.0029633803420043847 6.231205032133618e-15
outer loop
vertex 87.33574465055793 44.73000306863305 16.833421398119555
vertex 87.3387411683854 45.74118095489702 17.388848719008294
vertex 87.33738772500352 45.28446015535292 15.796100594192495
endloop
endfacet
facet normal -0.9999956091788347 0.0029633803420043847 6.231205032133618e-15
outer loop
vertex 87.33738772500352 45.28446015535292 15.796100594192495
vertex 87.3387411683854 45.74118095489702 17.388848719008294
vertex 87.33839952525146 45.62589314352692 14.67054193209873
endloop
endfacet
facet normal -0.9999956091788347 0.0029633803420043847 6.231205032133618e-15
outer loop
vertex 87.33839952525146 45.62589314352692 14.67054193209873
vertex 87.3387411683854 45.74118095489702 17.388848719008294
vertex 87.33874116838548 45.74118095489713 13.500000000001966
endloop
endfacet
facet normal 3.609619197288994e-15 -0.9987684868376563 0.049613603981350646
outer loop
vertex 92.68212373764631 -3.158362460453645e-13 13.499999999999888
vertex 2.255973186038318e-14 0.0 -6.411861437636384e-28
vertex 92.68212373764618 2.9327651418498134e-13 -7.927647696068598e-13
endloop
endfacet
facet normal 3.108624468950182e-15 -1.0 -5.209434866381326e-14
outer loop
vertex 2.255973186038318e-14 0.0 -6.411861437636384e-28
vertex 92.68212373764631 -3.158362460453645e-13 13.499999999999888
vertex 3.186562125279124e-13 -6.31672492090729e-13 13.50000000000068
endloop
endfacet
facet normal 7.268116754324069e-05 0.02452633142948315 0.9996991816461885
outer loop
vertex 87.32096088633335 39.74120729982393 19.500000000001826
vertex 2.566169499118587e-13 41.170520726716056 19.384711682419997
vertex 2.425171174991192e-13 39.99997365495651 19.500000000000597
endloop
endfacet
facet normal 0.0005786539498335006 0.19526734414704092 0.9807498811977331
outer loop
vertex 2.566169499118587e-13 41.170520726716056 19.384711682419997
vertex 87.32096088633335 39.74120729982393 19.500000000001826
vertex 87.32442964728438 40.91174409228038 19.384711682421237
endloop
endfacet
facet normal 0.25881904510251796 0.965925826289069 3.99873445906322e-14
outer loop
vertex 91.55036864698984 61.45918868760368 1.9935350609492068e-12
vertex 112.80073682534956 55.76516969534773 14.000000000002524
vertex 112.80073682534906 55.76516969534836 1.5333078189291773e-12
endloop
endfacet
facet normal 0.25881904510251796 0.965925826289069 3.99873445906322e-14
outer loop
vertex 112.80073682534956 55.76516969534773 14.000000000002524
vertex 91.55036864698984 61.45918868760368 1.9935350609492068e-12
vertex 91.55036864699012 61.45918868760318 11.888848719009314
endloop
endfacet
facet normal 0.25881904510251796 0.965925826289069 3.99873445906322e-14
outer loop
vertex 112.80073682534956 55.76516969534773 14.000000000002524
vertex 91.55036864699012 61.45918868760318 11.888848719009314
vertex 93.4822202995682 60.94155059739809 14.000000000002942
endloop
endfacet
facet normal 0.002095700338863187 0.7071961392603671 0.7070143058349819
outer loop
vertex 1.8470780460688727e-13 44.24263297083422 17.74264068711993
vertex 87.33574465055793 44.73000306863305 16.833421398119555
vertex 2.4956703370548895e-13 44.98881323387423 16.833421398118265
endloop
endfacet
facet normal 0.0024639607040661624 0.8314659614681517 0.5555702330196345
outer loop
vertex 87.33574465055793 44.73000306863305 16.833421398119555
vertex 1.8470780460688727e-13 44.24263297083422 17.74264068711993
vertex 87.33353344434369 43.98382935826677 17.74264068712121
endloop
endfacet
facet normal 4.904999775810982e-15 -0.9799402429150474 0.19929154602139573
outer loop
vertex 92.72371674395495 0.11528831758020565 14.670541932096661
vertex 3.186562125279124e-13 -6.31672492090729e-13 13.50000000000068
vertex 92.68212373764631 -3.158362460453645e-13 13.499999999999888
endloop
endfacet
facet normal 3.604148149861281e-15 -0.9987954562051745 0.049067674327378304
outer loop
vertex 3.186562125279124e-13 -6.31672492090729e-13 13.50000000000068
vertex 92.72371674395495 0.11528831758020565 14.670541932096661
vertex 2.975064639088032e-13 0.11528831757993493 14.670541932097448
endloop
endfacet
facet normal 0.0029598114810903534 0.9987912935544329 0.0490631372402872
outer loop
vertex 1.5791812302268225e-13 45.99999999999944 13.500000000000666
vertex 87.33874116838518 45.741180954897786 1.2870155904117894e-12
vertex -1.6073808950523016e-13 46.00000000000001 -1.5346604716464677e-14
endloop
endfacet
facet normal 0.0029633803420082696 0.9999956091788347 4.532414850223093e-14
outer loop
vertex 87.33874116838518 45.741180954897786 1.2870155904117894e-12
vertex 1.5791812302268225e-13 45.99999999999944 13.500000000000666
vertex 87.33874116838548 45.74118095489713 13.500000000001966
endloop
endfacet
facet normal -0.6428535209427031 0.359479462382356 0.6763977134326089
outer loop
vertex 89.27059282096367 45.223542864691865 19.500000000001922
vertex 91.55036864699012 61.45918868760318 11.888848719009314
vertex 87.3387411683854 45.74118095489702 17.388848719008294
endloop
endfacet
facet normal -0.6244122664984313 0.40171250412744486 0.6698778884796466
outer loop
vertex 91.55036864699012 61.45918868760318 11.888848719009314
vertex 89.27059282096367 45.223542864691865 19.500000000001922
vertex 93.4822202995682 60.94155059739809 14.000000000002942
endloop
endfacet
facet normal 0.044192897866419244 0.1649301401711325 0.9853146891431686
outer loop
vertex 107.25870054916501 40.40364392555634 19.500000000001528
vertex 93.4822202995682 60.94155059739809 14.000000000002942
vertex 89.27059282096367 45.223542864691865 19.500000000001922
endloop
endfacet
facet normal 0.08287353049486529 0.30928822640937226 0.9473503950217479
outer loop
vertex 93.4822202995682 60.94155059739809 14.000000000002942
vertex 107.25870054916501 40.40364392555634 19.500000000001528
vertex 112.80073682534956 55.76516969534773 14.000000000002524
endloop
endfacet
facet normal 0.0005781268251645857 0.19508946540939393 0.9807852804032344
outer loop
vertex 87.32442964728438 40.91174409228038 19.384711682421237
vertex 2.6084689963568053e-13 42.29608433095845 19.043277195068345
vertex 2.566169499118587e-13 41.170520726716056 19.384711682419997
endloop
endfacet
facet normal 0.0011345042999250793 0.38283959114209226 0.9238141373426524
outer loop
vertex 2.6084689963568053e-13 42.29608433095845 19.043277195068345
vertex 87.32442964728438 40.91174409228038 19.384711682421237
vertex 87.32776510569751 42.03729781224738 19.043277195069603
endloop
endfacet
facet normal 0.002906460677527777 0.9807880124533618 0.1950549335805536
outer loop
vertex 1.4522827385121672e-13 45.88471117620622 14.670541932097434
vertex 87.33874116838548 45.74118095489713 13.500000000001966
vertex 1.5791812302268225e-13 45.99999999999944 13.500000000000666
endloop
endfacet
facet normal 0.002959810820604824 0.9987910706729415 0.04906767432745956
outer loop
vertex 87.33874116838548 45.74118095489713 13.500000000001966
vertex 1.4522827385121672e-13 45.88471117620622 14.670541932097434
vertex 87.33839952525146 45.62589314352692 14.67054193209873
endloop
endfacet
facet normal 0.0016467447621313993 0.5556956386050141 0.8313841744146048
outer loop
vertex 2.368771845340234e-13 43.33340968959563 18.488817673815905
vertex 87.33353344434369 43.98382935826677 17.74264068712121
vertex 1.8470780460688727e-13 44.24263297083422 17.74264068711993
endloop
endfacet
facet normal 0.002095426335058404 0.7071036764071194 0.7071067811865547
outer loop
vertex 87.33353344434369 43.98382935826677 17.74264068712121
vertex 2.368771845340234e-13 43.33340968959563 18.488817673815905
vertex 87.33083908177625 43.07461406148435 18.488817673817177
endloop
endfacet
facet normal 7.896343165960726e-15 -0.19509032201615492 0.9807852804032251
outer loop
vertex 4.3286485507110224e-13 4.829458067902358 19.384711682420118
vertex 94.84676663545666 5.9999999999994476 19.50000000000007
vertex 3.680056259725006e-13 5.999999999999131 19.50000000000075
endloop
endfacet
facet normal 4.999188892581749e-16 -0.03827907523722622 0.9992670876192126
outer loop
vertex 94.84676663545666 5.9999999999994476 19.50000000000007
vertex 4.3286485507110224e-13 4.829458067902358 19.384711682420118
vertex 94.42446575547285 4.829458067902629 19.38471168241942
endloop
endfacet
facet normal -0.9659258262890692 0.2588190451025181 2.1219551373947864e-14
outer loop
vertex 91.55036864699012 61.45918868760318 11.888848719009314
vertex 87.33874116838548 45.74118095489713 13.500000000001966
vertex 87.3387411683854 45.74118095489702 17.388848719008294
endloop
endfacet
facet normal -0.9679061415111138 0.25131195997219813 2.078571509276957e-14
outer loop
vertex 87.33874116838548 45.74118095489713 13.500000000001966
vertex 91.55036864699012 61.45918868760318 11.888848719009314
vertex 87.33874116838518 45.741180954897786 1.2870155904117894e-12
endloop
endfacet
facet normal -0.9659258262890692 0.2588190451025181 2.1219551373947864e-14
outer loop
vertex 87.33874116838518 45.741180954897786 1.2870155904117894e-12
vertex 91.55036864699012 61.45918868760318 11.888848719009314
vertex 91.55036864698984 61.45918868760368 1.9935350609492068e-12
endloop
endfacet
facet normal 8.486185601355792e-15 -0.5405350885333562 0.8413214712963394
outer loop
vertex 93.64415547631592 2.6665786018818594 18.48881767381524
vertex 3.962052907979796e-13 3.703899405808553 19.04327719506844
vertex 3.186562125279124e-13 2.6665786018814983 18.48881767381598
endloop
endfacet
facet normal 8.381068392674647e-15 -0.3826834323651393 0.9238795325112663
outer loop
vertex 3.962052907979796e-13 3.703899405808553 19.04327719506844
vertex 93.64415547631592 2.6665786018818594 18.48881767381524
vertex 94.01839366147789 3.7038994058088686 19.04327719506772
endloop
endfacet
facet normal 4.8946937716478555e-15 2.994631659461987e-14 -1.0
outer loop
vertex 87.33874116838518 45.741180954897786 1.2870155904117894e-12
vertex 2.255973186038318e-14 0.0 -6.411861437636384e-28
vertex -1.6073808950523016e-13 46.00000000000001 -1.5346604716464677e-14
endloop
endfacet
facet normal 4.8946937716478555e-15 2.994631659461987e-14 -1.0
outer loop
vertex 2.255973186038318e-14 0.0 -6.411861437636384e-28
vertex 87.33874116838518 45.741180954897786 1.2870155904117894e-12
vertex 92.68212373764618 2.9327651418498134e-13 -7.927647696068598e-13
endloop
endfacet
facet normal 4.8946937716478555e-15 2.994631659461987e-14 -1.0
outer loop
vertex 92.68212373764618 2.9327651418498134e-13 -7.927647696068598e-13
vertex 87.33874116838518 45.741180954897786 1.2870155904117894e-12
vertex 91.55036864698984 61.45918868760368 1.9935350609492068e-12
endloop
endfacet
facet normal 4.8946937716478555e-15 2.994631659461987e-14 -1.0
outer loop
vertex 92.68212373764618 2.9327651418498134e-13 -7.927647696068598e-13
vertex 91.55036864698984 61.45918868760368 1.9935350609492068e-12
vertex 112.80073682534906 55.76516969534836 1.5333078189291773e-12
endloop
endfacet
facet normal -1.0 -3.1086244689501524e-15 1.6682725419242668e-14
outer loop
vertex 2.975064639088032e-13 0.11528831757993493 14.670541932097448
vertex 2.255973186038318e-14 0.0 -6.411861437636384e-28
vertex 3.186562125279124e-13 -6.31672492090729e-13 13.50000000000068
endloop
endfacet
facet normal -1.0 -3.1086244689501524e-15 1.6682725419242668e-14
outer loop
vertex 2.255973186038318e-14 0.0 -6.411861437636384e-28
vertex 2.975064639088032e-13 0.11528831757993493 14.670541932097448
vertex -1.6073808950523016e-13 46.00000000000001 -1.5346604716464677e-14
endloop
endfacet
facet normal -1.0 -3.1086244689501524e-15 1.6682725419242668e-14
outer loop
vertex -1.6073808950523016e-13 46.00000000000001 -1.5346604716464677e-14
vertex 2.975064639088032e-13 0.11528831757993493 14.670541932097448
vertex 4.0043524052180143e-13 0.4567228049315044 15.79610059419122
endloop
endfacet
facet normal -1.0 -3.1086244689501524e-15 1.6682725419242668e-14
outer loop
vertex -1.6073808950523016e-13 46.00000000000001 -1.5346604716464677e-14
vertex 4.0043524052180143e-13 0.4567228049315044 15.79610059419122
vertex 3.8915537459160985e-13 1.011182326183972 16.8334213981183
endloop
endfacet
facet normal -1.0 -3.1086244689501524e-15 1.6682725419242668e-14
outer loop
vertex -1.6073808950523016e-13 46.00000000000001 -1.5346604716464677e-14
vertex 3.8915537459160985e-13 1.011182326183972 16.8334213981183
vertex 3.3416602818192583e-13 1.7573593128798812 17.742640687119984
endloop
endfacet
facet normal -1.0 -3.1086244689501524e-15 1.6682725419242668e-14
outer loop
vertex -1.6073808950523016e-13 46.00000000000001 -1.5346604716464677e-14
vertex 3.3416602818192583e-13 1.7573593128798812 17.742640687119984
vertex 3.186562125279124e-13 2.6665786018814983 18.48881767381598
endloop
endfacet
facet normal -1.0 -3.1086244689501524e-15 1.6682725419242668e-14
outer loop
vertex -1.6073808950523016e-13 46.00000000000001 -1.5346604716464677e-14
vertex 3.186562125279124e-13 2.6665786018814983 18.48881767381598
vertex 3.962052907979796e-13 3.703899405808553 19.04327719506844
endloop
endfacet
facet normal -1.0 -3.1086244689501524e-15 1.6682725419242668e-14
outer loop
vertex -1.6073808950523016e-13 46.00000000000001 -1.5346604716464677e-14
vertex 3.962052907979796e-13 3.703899405808553 19.04327719506844
vertex 4.3286485507110224e-13 4.829458067902358 19.384711682420118
endloop
endfacet
facet normal -1.0 -3.1086244689501524e-15 1.6682725419242668e-14
outer loop
vertex -1.6073808950523016e-13 46.00000000000001 -1.5346604716464677e-14
vertex 4.3286485507110224e-13 4.829458067902358 19.384711682420118
vertex 3.680056259725006e-13 5.999999999999131 19.50000000000075
endloop
endfacet
facet normal -1.0 -3.1086244689501524e-15 1.6682725419242668e-14
outer loop
vertex -1.6073808950523016e-13 46.00000000000001 -1.5346604716464677e-14
vertex 3.680056259725006e-13 5.999999999999131 19.50000000000075
vertex 2.425171174991192e-13 39.99997365495651 19.500000000000597
endloop
endfacet
facet normal -1.0 -3.1086244689501524e-15 1.6682725419242668e-14
outer loop
vertex -1.6073808950523016e-13 46.00000000000001 -1.5346604716464677e-14
vertex 2.425171174991192e-13 39.99997365495651 19.500000000000597
vertex 2.566169499118587e-13 41.170520726716056 19.384711682419997
endloop
endfacet
facet normal -1.0 -3.1086244689501524e-15 1.6682725419242668e-14
outer loop
vertex -1.6073808950523016e-13 46.00000000000001 -1.5346604716464677e-14
vertex 2.566169499118587e-13 41.170520726716056 19.384711682419997
vertex 2.6084689963568053e-13 42.29608433095845 19.043277195068345
endloop
endfacet
facet normal -1.0 -3.1086244689501524e-15 1.6682725419242668e-14
outer loop
vertex -1.6073808950523016e-13 46.00000000000001 -1.5346604716464677e-14
vertex 2.6084689963568053e-13 42.29608433095845 19.043277195068345
vertex 2.368771845340234e-13 43.33340968959563 18.488817673815905
endloop
endfacet
facet normal -1.0 -3.1086244689501524e-15 1.6682725419242668e-14
outer loop
vertex -1.6073808950523016e-13 46.00000000000001 -1.5346604716464677e-14
vertex 2.368771845340234e-13 43.33340968959563 18.488817673815905
vertex 1.8470780460688727e-13 44.24263297083422 17.74264068711993
endloop
endfacet
facet normal -1.0 -3.1086244689501524e-15 1.6682725419242668e-14
outer loop
vertex -1.6073808950523016e-13 46.00000000000001 -1.5346604716464677e-14
vertex 1.8470780460688727e-13 44.24263297083422 17.74264068711993
vertex 2.4956703370548895e-13 44.98881323387423 16.833421398118265
endloop
endfacet
facet normal -1.0 -3.1086244689501524e-15 1.6682725419242668e-14
outer loop
vertex -1.6073808950523016e-13 46.00000000000001 -1.5346604716464677e-14
vertex 2.4956703370548895e-13 44.98881323387423 16.833421398118265
vertex 2.4674706722294104e-13 45.54327518967009 15.7961005941912
endloop
endfacet
facet normal -1.0 -3.1086244689501524e-15 1.6682725419242668e-14
outer loop
vertex -1.6073808950523016e-13 46.00000000000001 -1.5346604716464677e-14
vertex 2.4674706722294104e-13 45.54327518967009 15.7961005941912
vertex 1.4522827385121672e-13 45.88471117620622 14.670541932097434
endloop
endfacet
facet normal -1.0 -3.1086244689501524e-15 1.6682725419242668e-14
outer loop
vertex -1.6073808950523016e-13 46.00000000000001 -1.5346604716464677e-14
vertex 1.4522827385121672e-13 45.88471117620622 14.670541932097434
vertex 1.5791812302268225e-13 45.99999999999944 13.500000000000666
endloop
endfacet
facet normal 6.3756731729859805e-15 -0.9206397199077173 0.39041325045167175
outer loop
vertex 92.84689736697372 0.4567228049318654 15.796100594190438
vertex 2.975064639088032e-13 0.11528831757993493 14.670541932097448
vertex 92.72371674395495 0.11528831758020565 14.670541932096661
endloop
endfacet
facet normal 4.87192718467764e-15 -0.9807852804032396 0.19509032201608198
outer loop
vertex 2.975064639088032e-13 0.11528831757993493 14.670541932097448
vertex 92.84689736697372 0.4567228049318654 15.796100594190438
vertex 4.0043524052180143e-13 0.4567228049315044 15.79610059419122
endloop
endfacet
facet normal 1.7724133152943667e-15 -0.04906767432744354 0.9987954562051712
outer loop
vertex 3.680056259725006e-13 5.999999999999131 19.50000000000075
vertex 87.32096088633335 39.74120729982393 19.500000000001826
vertex 2.425171174991192e-13 39.99997365495651 19.500000000000597
endloop
endfacet
facet normal 7.268116754324069e-05 0.02452633142948315 0.9996991816461885
outer loop
vertex 87.32096088633335 39.74120729982393 19.500000000001826
vertex 3.680056259725006e-13 5.999999999999131 19.50000000000075
vertex 94.84676663545666 5.9999999999994476 19.50000000000007
endloop
endfacet
facet normal 7.268116754324069e-05 0.02452633142948315 0.9996991816461885
outer loop
vertex 87.32096088633335 39.74120729982393 19.500000000001826
vertex 94.84676663545666 5.9999999999994476 19.50000000000007
vertex 87.32532644799203 41.21437037253257 19.500000000001826
endloop
endfacet
facet normal -4.011251582056259e-15 -2.9675163092589677e-14 1.0
outer loop
vertex 87.32532644799203 41.21437037253257 19.500000000001826
vertex 94.84676663545666 5.9999999999994476 19.50000000000007
vertex 89.27059282096367 45.223542864691865 19.500000000001922
endloop
endfacet
facet normal 0.03959727631151906 0.14777904703588957 0.9882274075160402
outer loop
vertex 89.27059282096367 45.223542864691865 19.500000000001922
vertex 94.84676663545666 5.9999999999994476 19.50000000000007
vertex 107.25870054916501 40.40364392555634 19.500000000001528
endloop
endfacet
facet normal 8.343660021624791e-15 -0.36420312604871774 0.9313195385990471
outer loop
vertex 94.01839366147789 3.7038994058088686 19.04327719506772
vertex 4.3286485507110224e-13 4.829458067902358 19.384711682420118
vertex 3.962052907979796e-13 3.703899405808553 19.04327719506844
endloop
endfacet
facet normal 7.896343165960726e-15 -0.19509032201615492 0.9807852804032251
outer loop
vertex 4.3286485507110224e-13 4.829458067902358 19.384711682420118
vertex 94.01839366147789 3.7038994058088686 19.04327719506772
vertex 94.42446575547285 4.829458067902629 19.38471168241942
endloop
endfacet
facet normal -0.6428535209427031 0.359479462382356 0.6763977134326089
outer loop
vertex 89.27059282096367 45.223542864691865 19.500000000001922
vertex 87.3387411683854 45.74118095489702 17.388848719008294
vertex 87.32532644799203 41.21437037253257 19.500000000001826
endloop
endfacet
facet normal 0.0027378867005670216 0.9239025582340381 0.3826180430468677
outer loop
vertex 2.4674706722294104e-13 45.54327518967009 15.7961005941912
vertex 87.33839952525146 45.62589314352692 14.67054193209873
vertex 1.4522827385121672e-13 45.88471117620622 14.670541932097434
endloop
endfacet
facet normal 0.002906439819675037 0.9807809739504536 0.19509032201617396
outer loop
vertex 87.33839952525146 45.62589314352692 14.67054193209873
vertex 2.4674706722294104e-13 45.54327518967009 15.7961005941912
vertex 87.33738772500352 45.28446015535292 15.796100594192495
endloop
endfacet
facet normal 7.529076135498901e-15 -0.8246772369585467 0.5656036198986152
outer loop
vertex 93.04693184444082 1.0111823261842654 16.83342139811753
vertex 4.0043524052180143e-13 0.4567228049315044 15.79610059419122
vertex 92.84689736697372 0.4567228049318654 15.796100594190438
endloop
endfacet
facet normal 6.317640763713413e-15 -0.9238795325113042 0.38268343236504765
outer loop
vertex 4.0043524052180143e-13 0.4567228049315044 15.79610059419122
vertex 93.04693184444082 1.0111823261842654 16.83342139811753
vertex 3.8915537459160985e-13 1.011182326183972 16.8334213981183
endloop
endfacet
facet normal 8.197389575278913e-15 -0.6961700817911842 0.7178768816578898
outer loop
vertex 93.31613296356764 1.7573593128802871 17.742640687119227
vertex 3.8915537459160985e-13 1.011182326183972 16.8334213981183
vertex 93.04693184444082 1.0111823261842654 16.83342139811753
endloop
endfacet
facet normal 7.471850959803293e-15 -0.8314696123025591 0.5555702330195815
outer loop
vertex 3.8915537459160985e-13 1.011182326183972 16.8334213981183
vertex 93.31613296356764 1.7573593128802871 17.742640687119227
vertex 3.3416602818192583e-13 1.7573593128798812 17.742640687119984
endloop
endfacet
facet normal 8.163719007254274e-15 -0.7071067811865309 0.7071067811865641
outer loop
vertex 3.3416602818192583e-13 1.7573593128798812 17.742640687119984
vertex 93.64415547631592 2.6665786018818594 18.48881767381524
vertex 3.186562125279124e-13 2.6665786018814983 18.48881767381598
endloop
endfacet
facet normal 8.486185601355792e-15 -0.5405350885333562 0.8413214712963394
outer loop
vertex 93.64415547631592 2.6665786018818594 18.48881767381524
vertex 3.3416602818192583e-13 1.7573593128798812 17.742640687119984
vertex 93.31613296356764 1.7573593128802871 17.742640687119227
endloop
endfacet
facet normal 0.0024641298531908914 0.8315230410065515 0.5554847975771108
outer loop
vertex 2.4956703370548895e-13 44.98881323387423 16.833421398118265
vertex 87.33738772500352 45.28446015535292 15.796100594192495
vertex 2.4674706722294104e-13 45.54327518967009 15.7961005941912
endloop
endfacet
facet normal 0.002737806445021926 0.9238754759214611 0.38268343236513835
outer loop
vertex 87.33738772500352 45.28446015535292 15.796100594192495
vertex 2.4956703370548895e-13 44.98881323387423 16.833421398118265
vertex 87.33574465055793 44.73000306863305 16.833421398119555
endloop
endfacet
facet normal 0.0011345042999250793 0.38283959114209226 0.9238141373426524
outer loop
vertex 2.6084689963568053e-13 42.29608433095845 19.043277195068345
vertex 87.33083908177625 43.07461406148435 18.488817673817177
vertex 2.368771845340234e-13 43.33340968959563 18.488817673815905
endloop
endfacet
facet normal 0.0016463659071231439 0.5555677936100941 0.8314696123025253
outer loop
vertex 87.33083908177625 43.07461406148435 18.488817673817177
vertex 2.6084689963568053e-13 42.29608433095845 19.043277195068345
vertex 87.32776510569751 42.03729781224738 19.043277195069603
endloop
endfacet
endsolid case
