solid case
facet normal -0.9406552135532438 -0.33936377121770317 -3.093229844363343e-14
outer loop
vertex 118.16430034579697 -408.5811649407632 14.670541932097882
vertex 118.20589335210573 -408.69645325834307 4.274820865438781e-13
vertex 118.2058933521056 -408.6964532583437 13.500000000001108
endloop
endfacet
facet normal -0.9406552135532438 -0.33936377121770317 -3.093229844363343e-14
outer loop
vertex 118.20589335210573 -408.69645325834307 4.274820865438781e-13
vertex 118.16430034579697 -408.5811649407632 14.670541932097882
vertex 98.08728026440285 -352.931283562995 2.7535546750799154e-12
endloop
endfacet
facet normal -0.9406552135532438 -0.33936377121770317 -3.093229844363343e-14
outer loop
vertex 98.08728026440285 -352.931283562995 2.7535546750799154e-12
vertex 118.16430034579697 -408.5811649407632 14.670541932097882
vertex 118.04111972277819 -408.23973045341154 15.79610059419166
endloop
endfacet
facet normal -0.9406552135532438 -0.33936377121770317 -3.093229844363343e-14
outer loop
vertex 98.08728026440285 -352.931283562995 2.7535546750799154e-12
vertex 118.04111972277819 -408.23973045341154 15.79610059419166
vertex 117.8410852453111 -407.6852709321591 16.83342139811875
endloop
endfacet
facet normal -0.9406552135532438 -0.33936377121770317 -3.093229844363343e-14
outer loop
vertex 98.08728026440285 -352.931283562995 2.7535546750799154e-12
vertex 117.8410852453111 -407.6852709321591 16.83342139811875
vertex 117.57188412618427 -406.939093945463 17.742640687120446
endloop
endfacet
facet normal -0.9406552135532438 -0.33936377121770317 -3.093229844363343e-14
outer loop
vertex 98.08728026440285 -352.931283562995 2.7535546750799154e-12
vertex 117.57188412618427 -406.939093945463 17.742640687120446
vertex 117.24386161343601 -406.02987465646146 18.48881767381646
endloop
endfacet
facet normal -0.9406552135532438 -0.33936377121770317 -3.093229844363343e-14
outer loop
vertex 98.08728026440285 -352.931283562995 2.7535546750799154e-12
vertex 117.24386161343601 -406.02987465646146 18.48881767381646
vertex 116.86962342827404 -404.9925538525345 19.043277195068942
endloop
endfacet
facet normal -0.9406552135532438 -0.33936377121770317 -3.093229844363343e-14
outer loop
vertex 98.08728026440285 -352.931283562995 2.7535546750799154e-12
vertex 116.86962342827404 -404.9925538525345 19.043277195068942
vertex 116.46355133427907 -403.8669951904407 19.38471168242064
endloop
endfacet
facet normal -0.9406552135532438 -0.33936377121770317 -3.093229844363343e-14
outer loop
vertex 98.08728026440285 -352.931283562995 2.7535546750799154e-12
vertex 116.46355133427907 -403.8669951904407 19.38471168242064
vertex 116.04125045429527 -402.6964532583439 19.500000000001293
endloop
endfacet
facet normal -0.9406552135532438 -0.33936377121770317 -3.093229844363343e-14
outer loop
vertex 98.08728026440285 -352.931283562995 2.7535546750799154e-12
vertex 116.04125045429527 -402.6964532583439 19.500000000001293
vertex 103.6293165405869 -368.29280933278704 19.50000000000275
endloop
endfacet
facet normal -0.9406552135532438 -0.33936377121770317 -3.093229844363343e-14
outer loop
vertex 98.08728026440285 -352.931283562995 2.7535546750799154e-12
vertex 103.6293165405869 -368.29280933278704 19.50000000000275
vertex 98.08728026440237 -352.93128356299565 14.000000000003745
endloop
endfacet
facet normal 0.9999956091788347 0.0029633803420043847 6.231205032133618e-15
outer loop
vertex 123.56358744246754 -367.78470916606295 19.384711682422456
vertex 123.56269064175987 -367.48208288581077 19.50000000000305
vertex 123.56705620341856 -368.9552459585194 19.50000000000305
endloop
endfacet
facet normal 0.9999956091788347 0.0029633803420043847 6.231205032133618e-15
outer loop
vertex 123.56269064175987 -367.48208288581077 19.50000000000305
vertex 123.56358744246754 -367.78470916606295 19.384711682422456
vertex 123.56025198405439 -366.65915544609595 19.04327719507082
endloop
endfacet
facet normal 0.9999956091788347 0.0029633803420043847 6.231205032133618e-15
outer loop
vertex 123.56269064175987 -367.48208288581077 19.50000000000305
vertex 123.56025198405439 -366.65915544609595 19.04327719507082
vertex 123.54927592136653 -362.95527230344635 17.388848719009516
endloop
endfacet
facet normal 0.9948144054958323 0.10170692512299054 1.2063971136400978e-14
outer loop
vertex 123.54927592136653 -362.95527230344635 17.388848719009516
vertex 123.56025198405439 -366.65915544609595 19.04327719507082
vertex 123.55717800797566 -365.621839196859 18.4888176738184
endloop
endfacet
facet normal 0.9948144054958323 0.10170692512299054 1.2063971136400978e-14
outer loop
vertex 123.54927592136653 -362.95527230344635 17.388848719009516
vertex 123.55717800797566 -365.621839196859 18.4888176738184
vertex 123.55448364540823 -364.71262390007655 17.742640687122428
endloop
endfacet
facet normal 0.9948144054958323 0.10170692512299054 1.2063971136400978e-14
outer loop
vertex 123.54927592136653 -362.95527230344635 17.388848719009516
vertex 123.55448364540823 -364.71262390007655 17.742640687122428
vertex 123.552272439194 -363.9664501897103 16.833421398120777
endloop
endfacet
facet normal 0.9948144054958323 0.10170692512299054 1.2063971136400978e-14
outer loop
vertex 123.54927592136653 -362.95527230344635 17.388848719009516
vertex 123.552272439194 -363.9664501897103 16.833421398120777
vertex 123.55062936474839 -363.41199310299044 15.796100594193716
endloop
endfacet
facet normal 0.9948144054958323 0.10170692512299054 1.2063971136400978e-14
outer loop
vertex 123.54927592136653 -362.95527230344635 17.388848719009516
vertex 123.55062936474839 -363.41199310299044 15.796100594193716
vertex 123.54961756450047 -363.07056011481643 14.670541932099953
endloop
endfacet
facet normal 0.9948144054958323 0.10170692512299054 1.2063971136400978e-14
outer loop
vertex 123.54927592136653 -362.95527230344635 17.388848719009516
vertex 123.54961756450047 -363.07056011481643 14.670541932099953
vertex 123.54927592136643 -362.95527230344624 13.500000000003187
endloop
endfacet
facet normal -3.108624468950182e-15 -1.0 -5.209434866381326e-14
outer loop
vertex 210.88801708975188 -408.69645325834335 1.2202468561507373e-12
vertex 118.2058933521056 -408.6964532583437 13.500000000001108
vertex 118.20589335210573 -408.69645325834307 4.274820865438781e-13
endloop
endfacet
facet normal -3.609619197288993e-15 -0.9987684868376564 0.0496136039813505
outer loop
vertex 118.2058933521056 -408.6964532583437 13.500000000001108
vertex 210.88801708975188 -408.69645325834335 1.2202468561507373e-12
vertex 210.88801708975157 -408.696453258344 13.5000000000019
endloop
endfacet
facet normal -7.26811675432408e-05 0.024526331429483187 0.9996991816461887
outer loop
vertex 123.56705620341856 -368.9552459585194 19.50000000000305
vertex 210.88801708975166 -367.5259325316273 19.384711682421216
vertex 123.56358744246754 -367.78470916606295 19.384711682422456
endloop
endfacet
facet normal -0.0005786539498335022 0.19526734414704144 0.980749881197733
outer loop
vertex 210.88801708975166 -367.5259325316273 19.384711682421216
vertex 123.56705620341856 -368.9552459585194 19.50000000000305
vertex 210.88801708975166 -368.6964796033869 19.500000000001815
endloop
endfacet
facet normal -0.0005781268251645866 0.1950894654093942 0.9807852804032342
outer loop
vertex 123.56358744246754 -367.78470916606295 19.384711682422456
vertex 210.88801708975166 -366.4003689273849 19.043277195069564
vertex 123.56025198405439 -366.65915544609595 19.04327719507082
endloop
endfacet
facet normal -0.001134504299925078 0.3828395911420917 0.9238141373426526
outer loop
vertex 210.88801708975166 -366.4003689273849 19.043277195069564
vertex 123.56358744246754 -367.78470916606295 19.384711682422456
vertex 210.88801708975166 -367.5259325316273 19.384711682421216
endloop
endfacet
facet normal -0.0029064398196750364 0.9807809739504536 0.19509032201617396
outer loop
vertex 123.54961756450047 -363.07056011481643 14.670541932099953
vertex 210.88801708975166 -363.15317806867324 15.79610059419242
vertex 210.88801708975177 -362.81174208213713 14.670541932098654
endloop
endfacet
facet normal -0.002737886700567021 0.9239025582340379 0.38261804304686803
outer loop
vertex 210.88801708975166 -363.15317806867324 15.79610059419242
vertex 123.54961756450047 -363.07056011481643 14.670541932099953
vertex 123.55062936474839 -363.41199310299044 15.796100594193716
endloop
endfacet
facet normal 1.0 -3.1086244689501524e-15 1.6682725419242668e-14
outer loop
vertex 210.88801708975188 -408.69645325834335 1.2202468561507373e-12
vertex 210.88801708975163 -408.58116494076336 14.670541932098669
vertex 210.88801708975157 -408.696453258344 13.5000000000019
endloop
endfacet
facet normal 1.0 -3.1086244689501524e-15 1.6682725419242668e-14
outer loop
vertex 210.88801708975163 -408.58116494076336 14.670541932098669
vertex 210.88801708975188 -408.69645325834335 1.2202468561507373e-12
vertex 210.88801708975208 -362.69645325834335 1.2049002514342732e-12
endloop
endfacet
facet normal 1.0 -3.1086244689501524e-15 1.6682725419242668e-14
outer loop
vertex 210.88801708975163 -408.58116494076336 14.670541932098669
vertex 210.88801708975208 -362.69645325834335 1.2049002514342732e-12
vertex 210.88801708975154 -408.2397304534119 15.79610059419244
endloop
endfacet
facet normal 1.0 -3.1086244689501524e-15 1.6682725419242668e-14
outer loop
vertex 210.88801708975154 -408.2397304534119 15.79610059419244
vertex 210.88801708975208 -362.69645325834335 1.2049002514342732e-12
vertex 210.88801708975154 -407.6852709321593 16.833421398119523
endloop
endfacet
facet normal 1.0 -3.1086244689501524e-15 1.6682725419242668e-14
outer loop
vertex 210.88801708975154 -407.6852709321593 16.833421398119523
vertex 210.88801708975208 -362.69645325834335 1.2049002514342732e-12
vertex 210.88801708975157 -406.93909394546347 17.742640687121206
endloop
endfacet
facet normal 1.0 -3.1086244689501524e-15 1.6682725419242668e-14
outer loop
vertex 210.88801708975157 -406.93909394546347 17.742640687121206
vertex 210.88801708975208 -362.69645325834335 1.2049002514342732e-12
vertex 210.88801708975157 -406.02987465646186 18.488817673817202
endloop
endfacet
facet normal 1.0 -3.1086244689501524e-15 1.6682725419242668e-14
outer loop
vertex 210.88801708975157 -406.02987465646186 18.488817673817202
vertex 210.88801708975208 -362.69645325834335 1.2049002514342732e-12
vertex 210.88801708975154 -404.9925538525348 19.043277195069663
endloop
endfacet
facet normal 1.0 -3.1086244689501524e-15 1.6682725419242668e-14
outer loop
vertex 210.88801708975154 -404.9925538525348 19.043277195069663
vertex 210.88801708975208 -362.69645325834335 1.2049002514342732e-12
vertex 210.8880170897515 -403.866995190441 19.384711682421337
endloop
endfacet
facet normal 1.0 -3.1086244689501524e-15 1.6682725419242668e-14
outer loop
vertex 210.8880170897515 -403.866995190441 19.384711682421337
vertex 210.88801708975208 -362.69645325834335 1.2049002514342732e-12
vertex 210.88801708975154 -402.6964532583442 19.500000000001968
endloop
endfacet
facet normal 1.0 -3.1086244689501524e-15 1.6682725419242668e-14
outer loop
vertex 210.88801708975154 -402.6964532583442 19.500000000001968
vertex 210.88801708975208 -362.69645325834335 1.2049002514342732e-12
vertex 210.88801708975166 -368.6964796033869 19.500000000001815
endloop
endfacet
facet normal 1.0 -3.1086244689501524e-15 1.6682725419242668e-14
outer loop
vertex 210.88801708975166 -368.6964796033869 19.500000000001815
vertex 210.88801708975208 -362.69645325834335 1.2049002514342732e-12
vertex 210.88801708975166 -367.5259325316273 19.384711682421216
endloop
endfacet
facet normal 1.0 -3.1086244689501524e-15 1.6682725419242668e-14
outer loop
vertex 210.88801708975166 -367.5259325316273 19.384711682421216
vertex 210.88801708975208 -362.69645325834335 1.2049002514342732e-12
vertex 210.88801708975166 -366.4003689273849 19.043277195069564
endloop
endfacet
facet normal 1.0 -3.1086244689501524e-15 1.6682725419242668e-14
outer loop
vertex 210.88801708975166 -366.4003689273849 19.043277195069564
vertex 210.88801708975208 -362.69645325834335 1.2049002514342732e-12
vertex 210.88801708975166 -365.36304356874774 18.488817673817127
endloop
endfacet
facet normal 1.0 -3.1086244689501524e-15 1.6682725419242668e-14
outer loop
vertex 210.88801708975166 -365.36304356874774 18.488817673817127
vertex 210.88801708975208 -362.69645325834335 1.2049002514342732e-12
vertex 210.8880170897517 -364.45382028750913 17.742640687121153
endloop
endfacet
facet normal 1.0 -3.1086244689501524e-15 1.6682725419242668e-14
outer loop
vertex 210.8880170897517 -364.45382028750913 17.742640687121153
vertex 210.88801708975208 -362.69645325834335 1.2049002514342732e-12
vertex 210.88801708975166 -363.70764002446913 16.833421398119487
endloop
endfacet
facet normal 1.0 -3.1086244689501524e-15 1.6682725419242668e-14
outer loop
vertex 210.88801708975166 -363.70764002446913 16.833421398119487
vertex 210.88801708975208 -362.69645325834335 1.2049002514342732e-12
vertex 210.88801708975166 -363.15317806867324 15.79610059419242
endloop
endfacet
facet normal 1.0 -3.1086244689501524e-15 1.6682725419242668e-14
outer loop
vertex 210.88801708975166 -363.15317806867324 15.79610059419242
vertex 210.88801708975208 -362.69645325834335 1.2049002514342732e-12
vertex 210.88801708975177 -362.81174208213713 14.670541932098654
endloop
endfacet
facet normal 1.0 -3.1086244689501524e-15 1.6682725419242668e-14
outer loop
vertex 210.88801708975177 -362.81174208213713 14.670541932098654
vertex 210.88801708975208 -362.69645325834335 1.2049002514342732e-12
vertex 210.88801708975177 -362.69645325834387 13.500000000001886
endloop
endfacet
facet normal -8.48618560135579e-15 -0.5405350885333563 0.841321471296339
outer loop
vertex 117.24386161343601 -406.02987465646146 18.48881767381646
vertex 210.88801708975154 -404.9925538525348 19.043277195069663
vertex 116.86962342827404 -404.9925538525345 19.043277195068942
endloop
endfacet
facet normal -8.381068392674645e-15 -0.3826834323651387 0.9238795325112665
outer loop
vertex 210.88801708975154 -404.9925538525348 19.043277195069663
vertex 117.24386161343601 -406.02987465646146 18.48881767381646
vertex 210.88801708975157 -406.02987465646186 18.488817673817202
endloop
endfacet
facet normal -0.0024639607040661624 0.8314659614681517 0.5555702330196345
outer loop
vertex 123.552272439194 -363.9664501897103 16.833421398120777
vertex 210.8880170897517 -364.45382028750913 17.742640687121153
vertex 210.88801708975166 -363.70764002446913 16.833421398119487
endloop
endfacet
facet normal -0.0020957003388631878 0.7071961392603673 0.7070143058349818
outer loop
vertex 210.8880170897517 -364.45382028750913 17.742640687121153
vertex 123.552272439194 -363.9664501897103 16.833421398120777
vertex 123.55448364540823 -364.71262390007655 17.742640687122428
endloop
endfacet
facet normal -3.604148149861284e-15 -0.9987954562051745 0.0490676743273786
outer loop
vertex 210.88801708975157 -408.696453258344 13.5000000000019
vertex 118.16430034579697 -408.5811649407632 14.670541932097882
vertex 118.2058933521056 -408.6964532583437 13.500000000001108
endloop
endfacet
facet normal -4.904999775810983e-15 -0.9799402429150472 0.1992915460213959
outer loop
vertex 118.16430034579697 -408.5811649407632 14.670541932097882
vertex 210.88801708975157 -408.696453258344 13.5000000000019
vertex 210.88801708975163 -408.58116494076336 14.670541932098669
endloop
endfacet
facet normal -0.0011340365606696621 0.38268175207060134 0.923879532511276
outer loop
vertex 123.56025198405439 -366.65915544609595 19.04327719507082
vertex 210.88801708975166 -365.36304356874774 18.488817673817127
vertex 123.55717800797566 -365.621839196859 18.4888176738184
endloop
endfacet
facet normal -0.0016467447621313972 0.5556956386050135 0.8313841744146051
outer loop
vertex 210.88801708975166 -365.36304356874774 18.488817673817127
vertex 123.56025198405439 -366.65915544609595 19.04327719507082
vertex 210.88801708975166 -366.4003689273849 19.043277195069564
endloop
endfacet
facet normal -6.317640763713414e-15 -0.9238795325113043 0.38268343236504776
outer loop
vertex 210.88801708975154 -408.2397304534119 15.79610059419244
vertex 117.8410852453111 -407.6852709321591 16.83342139811875
vertex 118.04111972277819 -408.23973045341154 15.79610059419166
endloop
endfacet
facet normal -7.529076135498898e-15 -0.8246772369585467 0.565603619898615
outer loop
vertex 117.8410852453111 -407.6852709321591 16.83342139811875
vertex 210.88801708975154 -408.2397304534119 15.79610059419244
vertex 210.88801708975154 -407.6852709321593 16.833421398119523
endloop
endfacet
facet normal -4.8946937716478555e-15 2.994631659461987e-14 -1.0
outer loop
vertex 119.33764844276207 -347.2372645707396 3.213781917099945e-12
vertex 118.20589335210573 -408.69645325834307 4.274820865438781e-13
vertex 98.08728026440285 -352.931283562995 2.7535546750799154e-12
endloop
endfacet
facet normal -4.8946937716478555e-15 2.994631659461987e-14 -1.0
outer loop
vertex 118.20589335210573 -408.69645325834307 4.274820865438781e-13
vertex 119.33764844276207 -347.2372645707396 3.213781917099945e-12
vertex 123.54927592136673 -362.95527230344555 2.5072624465625275e-12
endloop
endfacet
facet normal -4.8946937716478555e-15 2.994631659461987e-14 -1.0
outer loop
vertex 118.20589335210573 -408.69645325834307 4.274820865438781e-13
vertex 123.54927592136673 -362.95527230344555 2.5072624465625275e-12
vertex 210.88801708975188 -408.69645325834335 1.2202468561507373e-12
endloop
endfacet
facet normal -4.8946937716478555e-15 2.994631659461987e-14 -1.0
outer loop
vertex 210.88801708975188 -408.69645325834335 1.2202468561507373e-12
vertex 123.54927592136673 -362.95527230344555 2.5072624465625275e-12
vertex 210.88801708975208 -362.69645325834335 1.2049002514342732e-12
endloop
endfacet
facet normal -0.25881904510251796 0.965925826289069 3.99873445906322e-14
outer loop
vertex 98.08728026440237 -352.93128356299565 14.000000000003745
vertex 119.33764844276207 -347.2372645707396 3.213781917099945e-12
vertex 98.08728026440285 -352.931283562995 2.7535546750799154e-12
endloop
endfacet
facet normal -0.25881904510251796 0.965925826289069 3.99873445906322e-14
outer loop
vertex 119.33764844276207 -347.2372645707396 3.213781917099945e-12
vertex 98.08728026440237 -352.93128356299565 14.000000000003745
vertex 119.33764844276179 -347.2372645707402 11.888848719010532
endloop
endfacet
facet normal -0.25881904510251796 0.965925826289069 3.99873445906322e-14
outer loop
vertex 119.33764844276179 -347.2372645707402 11.888848719010532
vertex 98.08728026440237 -352.93128356299565 14.000000000003745
vertex 117.40579679018371 -347.7549026609453 14.000000000004162
endloop
endfacet
facet normal -0.04419289786641922 0.16493014017113242 0.9853146891431686
outer loop
vertex 103.6293165405869 -368.29280933278704 19.50000000000275
vertex 117.40579679018371 -347.7549026609453 14.000000000004162
vertex 98.08728026440237 -352.93128356299565 14.000000000003745
endloop
endfacet
facet normal -0.08287353049486529 0.30928822640937226 0.9473503950217479
outer loop
vertex 117.40579679018371 -347.7549026609453 14.000000000004162
vertex 103.6293165405869 -368.29280933278704 19.50000000000275
vertex 121.61742426878824 -363.4729103936515 19.50000000000314
endloop
endfacet
facet normal 0.9679061415111136 0.2513119599721991 2.0785715092769626e-14
outer loop
vertex 123.54927592136643 -362.95527230344624 13.500000000003187
vertex 119.33764844276179 -347.2372645707402 11.888848719010532
vertex 123.54927592136653 -362.95527230344635 17.388848719009516
endloop
endfacet
facet normal 0.9659258262890692 0.2588190451025181 2.1219551373947864e-14
outer loop
vertex 119.33764844276179 -347.2372645707402 11.888848719010532
vertex 123.54927592136643 -362.95527230344624 13.500000000003187
vertex 123.54927592136673 -362.95527230344555 2.5072624465625275e-12
endloop
endfacet
facet normal 0.9659258262890692 0.2588190451025181 2.1219551373947864e-14
outer loop
vertex 119.33764844276179 -347.2372645707402 11.888848719010532
vertex 123.54927592136673 -362.95527230344555 2.5072624465625275e-12
vertex 119.33764844276207 -347.2372645707396 3.213781917099945e-12
endloop
endfacet
facet normal -7.828467185468841e-15 -0.17431174690408618 0.9846905173155908
outer loop
vertex 116.46355133427907 -403.8669951904407 19.38471168242064
vertex 210.88801708975154 -402.6964532583442 19.500000000001968
vertex 116.04125045429527 -402.6964532583439 19.500000000001293
endloop
endfacet
facet normal -1.772413315294397e-15 -0.04906767432744381 0.9987954562051712
outer loop
vertex 210.88801708975154 -402.6964532583442 19.500000000001968
vertex 116.46355133427907 -403.8669951904407 19.38471168242064
vertex 210.8880170897515 -403.866995190441 19.384711682421337
endloop
endfacet
facet normal 0.6428535209427031 0.35947946238235606 0.676397713432609
outer loop
vertex 121.61742426878824 -363.4729103936515 19.50000000000314
vertex 119.33764844276179 -347.2372645707402 11.888848719010532
vertex 117.40579679018371 -347.7549026609453 14.000000000004162
endloop
endfacet
facet normal 0.6244122664984313 0.40171250412744486 0.6698778884796466
outer loop
vertex 119.33764844276179 -347.2372645707402 11.888848719010532
vertex 121.61742426878824 -363.4729103936515 19.50000000000314
vertex 123.54927592136653 -362.95527230344635 17.388848719009516
endloop
endfacet
facet normal -0.002959810820604823 0.9987910706729414 0.0490676743274594
outer loop
vertex 123.54927592136643 -362.95527230344624 13.500000000003187
vertex 210.88801708975177 -362.81174208213713 14.670541932098654
vertex 210.88801708975177 -362.69645325834387 13.500000000001886
endloop
endfacet
facet normal -0.002906460677527776 0.9807880124533618 0.1950549335805535
outer loop
vertex 210.88801708975177 -362.81174208213713 14.670541932098654
vertex 123.54927592136643 -362.95527230344624 13.500000000003187
vertex 123.54961756450047 -363.07056011481643 14.670541932099953
endloop
endfacet
facet normal -4.871927184677647e-15 -0.9807852804032394 0.1950903220160829
outer loop
vertex 210.88801708975163 -408.58116494076336 14.670541932098669
vertex 118.04111972277819 -408.23973045341154 15.79610059419166
vertex 118.16430034579697 -408.5811649407632 14.670541932097882
endloop
endfacet
facet normal -6.37567317298598e-15 -0.9206397199077173 0.3904132504516717
outer loop
vertex 118.04111972277819 -408.23973045341154 15.79610059419166
vertex 210.88801708975163 -408.58116494076336 14.670541932098669
vertex 210.88801708975154 -408.2397304534119 15.79610059419244
endloop
endfacet
facet normal 0.6587137195043896 0.31961050577714145 0.6811353465601181
outer loop
vertex 123.56269064175987 -367.48208288581077 19.50000000000305
vertex 123.54927592136653 -362.95527230344635 17.388848719009516
vertex 121.61742426878824 -363.4729103936515 19.50000000000314
endloop
endfacet
facet normal -7.47185095980329e-15 -0.8314696123025593 0.5555702330195811
outer loop
vertex 210.88801708975154 -407.6852709321593 16.833421398119523
vertex 117.57188412618427 -406.939093945463 17.742640687120446
vertex 117.8410852453111 -407.6852709321591 16.83342139811875
endloop
endfacet
facet normal -8.197389575278913e-15 -0.696170081791184 0.71787688165789
outer loop
vertex 117.57188412618427 -406.939093945463 17.742640687120446
vertex 210.88801708975154 -407.6852709321593 16.833421398119523
vertex 210.88801708975157 -406.93909394546347 17.742640687121206
endloop
endfacet
facet normal -8.197389575278913e-15 -0.696170081791184 0.71787688165789
outer loop
vertex 117.57188412618427 -406.939093945463 17.742640687120446
vertex 210.88801708975157 -406.02987465646186 18.488817673817202
vertex 117.24386161343601 -406.02987465646146 18.48881767381646
endloop
endfacet
facet normal -8.471872830187165e-15 -0.5555702330196014 0.8314696123025458
outer loop
vertex 210.88801708975157 -406.02987465646186 18.488817673817202
vertex 117.57188412618427 -406.939093945463 17.742640687120446
vertex 210.88801708975157 -406.93909394546347 17.742640687121206
endloop
endfacet
facet normal -0.002737806445021926 0.923875475921461 0.3826834323651383
outer loop
vertex 123.55062936474839 -363.41199310299044 15.796100594193716
vertex 210.88801708975166 -363.70764002446913 16.833421398119487
vertex 210.88801708975166 -363.15317806867324 15.79610059419242
endloop
endfacet
facet normal -0.002464129853190892 0.8315230410065515 0.5554847975771103
outer loop
vertex 210.88801708975166 -363.70764002446913 16.833421398119487
vertex 123.55062936474839 -363.41199310299044 15.796100594193716
vertex 123.552272439194 -363.9664501897103 16.833421398120777
endloop
endfacet
facet normal -0.0029633803420082696 0.9999956091788347 4.532414850223093e-14
outer loop
vertex 123.54927592136673 -362.95527230344555 2.5072624465625275e-12
vertex 210.88801708975177 -362.69645325834387 13.500000000001886
vertex 210.88801708975208 -362.69645325834335 1.2049002514342732e-12
endloop
endfacet
facet normal -0.002959811481090353 0.9987912935544327 0.04906313724028703
outer loop
vertex 210.88801708975177 -362.69645325834387 13.500000000001886
vertex 123.54927592136673 -362.95527230344555 2.5072624465625275e-12
vertex 123.54927592136643 -362.95527230344624 13.500000000003187
endloop
endfacet
facet normal -4.999188892581934e-16 -0.038279075237226366 0.9992670876192123
outer loop
vertex 116.04125045429527 -402.6964532583439 19.500000000001293
vertex 121.61742426878824 -363.4729103936515 19.50000000000314
vertex 103.6293165405869 -368.29280933278704 19.50000000000275
endloop
endfacet
facet normal -0.03959727631151912 0.14777904703588976 0.9882274075160401
outer loop
vertex 121.61742426878824 -363.4729103936515 19.50000000000314
vertex 116.04125045429527 -402.6964532583439 19.500000000001293
vertex 123.56705620341856 -368.9552459585194 19.50000000000305
endloop
endfacet
facet normal -7.26811675432408e-05 0.024526331429483187 0.9996991816461887
outer loop
vertex 123.56705620341856 -368.9552459585194 19.50000000000305
vertex 116.04125045429527 -402.6964532583439 19.500000000001293
vertex 210.88801708975154 -402.6964532583442 19.500000000001968
endloop
endfacet
facet normal -0.03959727631151912 0.14777904703588976 0.9882274075160401
outer loop
vertex 121.61742426878824 -363.4729103936515 19.50000000000314
vertex 123.56705620341856 -368.9552459585194 19.50000000000305
vertex 123.56269064175987 -367.48208288581077 19.50000000000305
endloop
endfacet
facet normal -7.26811675432408e-05 0.024526331429483187 0.9996991816461887
outer loop
vertex 123.56705620341856 -368.9552459585194 19.50000000000305
vertex 210.88801708975154 -402.6964532583442 19.500000000001968
vertex 210.88801708975166 -368.6964796033869 19.500000000001815
endloop
endfacet
facet normal -0.0016463659071231432 0.5555677936100939 0.8314696123025255
outer loop
vertex 123.55717800797566 -365.621839196859 18.4888176738184
vertex 210.8880170897517 -364.45382028750913 17.742640687121153
vertex 123.55448364540823 -364.71262390007655 17.742640687122428
endloop
endfacet
facet normal -0.0020957003388631878 0.7071961392603673 0.7070143058349818
outer loop
vertex 210.8880170897517 -364.45382028750913 17.742640687121153
vertex 123.55717800797566 -365.621839196859 18.4888176738184
vertex 210.88801708975166 -365.36304356874774 18.488817673817127
endloop
endfacet
facet normal -8.343660021624788e-15 -0.3642031260487173 0.9313195385990471
outer loop
vertex 116.86962342827404 -404.9925538525345 19.043277195068942
vertex 210.8880170897515 -403.866995190441 19.384711682421337
vertex 116.46355133427907 -403.8669951904407 19.38471168242064
endloop
endfacet
facet normal -7.896343165960728e-15 -0.19509032201615573 0.980785280403225
outer loop
vertex 210.8880170897515 -403.866995190441 19.384711682421337
vertex 116.86962342827404 -404.9925538525345 19.043277195068942
vertex 210.88801708975154 -404.9925538525348 19.043277195069663
endloop
endfacet
facet normal 3.609619197288993e-15 -0.9987684868376564 0.0496136039813505
outer loop
vertex 318.6383343052037 -408.6964532583435 13.500000000000771
vertex 225.95621056755746 -408.69645325834324 8.829313620383653e-13
vertex 318.6383343052036 -408.696453258343 9.016659243150609e-14
endloop
endfacet
facet normal 3.108624468950182e-15 -1.0 -5.209434866381326e-14
outer loop
vertex 225.95621056755746 -408.69645325834324 8.829313620383653e-13
vertex 318.6383343052037 -408.6964532583435 13.500000000000771
vertex 225.95621056755778 -408.6964532583439 13.500000000001563
endloop
endfacet
facet normal 0.258819045102518 0.9659258262890692 3.998734459063221e-14
outer loop
vertex 317.5065792145473 -347.23726457073957 2.8764664229875727e-12
vertex 338.75694739290697 -352.93128356299553 14.000000000003407
vertex 338.7569473929065 -352.9312835629949 2.4162391809675432e-12
endloop
endfacet
facet normal 0.258819045102518 0.9659258262890692 3.998734459063221e-14
outer loop
vertex 338.75694739290697 -352.93128356299553 14.000000000003407
vertex 317.5065792145473 -347.23726457073957 2.8764664229875727e-12
vertex 317.50657921454757 -347.2372645707401 11.888848719010197
endloop
endfacet
facet normal 0.258819045102518 0.9659258262890692 3.998734459063221e-14
outer loop
vertex 338.75694739290697 -352.93128356299553 14.000000000003407
vertex 317.50657921454757 -347.2372645707401 11.888848719010197
vertex 319.43843086712565 -347.75490266094516 14.000000000003823
endloop
endfacet
facet normal 0.0020957003388631873 0.7071961392603673 0.7070143058349816
outer loop
vertex 225.95621056755763 -364.4538202875091 17.742640687120815
vertex 313.29195521811533 -363.9664501897102 16.833421398120436
vertex 225.9562105675577 -363.707640024469 16.83342139811915
endloop
endfacet
facet normal 0.002463960704066163 0.8314659614681521 0.5555702330196338
outer loop
vertex 313.29195521811533 -363.9664501897102 16.833421398120436
vertex 225.95621056755763 -364.4538202875091 17.742640687120815
vertex 313.2897440119011 -364.7126239000765 17.74264068712209
endloop
endfacet
facet normal 4.9049997758109836e-15 -0.9799402429150472 0.1992915460213959
outer loop
vertex 318.67992731151236 -408.581164940763 14.670541932097544
vertex 225.95621056755778 -408.6964532583439 13.500000000001563
vertex 318.6383343052037 -408.6964532583435 13.500000000000771
endloop
endfacet
facet normal 3.604148149861284e-15 -0.9987954562051745 0.0490676743273786
outer loop
vertex 225.95621056755778 -408.6964532583439 13.500000000001563
vertex 318.67992731151236 -408.581164940763 14.670541932097544
vertex 225.95621056755772 -408.58116494076336 14.670541932098331
endloop
endfacet
facet normal 0.0016467447621313972 0.5556956386050135 0.8313841744146051
outer loop
vertex 225.9562105675577 -365.3630435687476 18.488817673816786
vertex 313.2897440119011 -364.7126239000765 17.74264068712209
vertex 225.95621056755763 -364.4538202875091 17.742640687120815
endloop
endfacet
facet normal 0.002095426335058403 0.7071036764071192 0.7071067811865549
outer loop
vertex 313.2897440119011 -364.7126239000765 17.74264068712209
vertex 225.9562105675577 -365.3630435687476 18.488817673816786
vertex 313.28704964933365 -365.6218391968589 18.48881767381806
endloop
endfacet
facet normal 7.268116754323995e-05 0.024526331429482896 0.9996991816461885
outer loop
vertex 313.2771714538908 -368.95524595851936 19.500000000002707
vertex 225.9562105675577 -367.52593253162723 19.38471168242088
vertex 225.9562105675577 -368.69647960338676 19.500000000001478
endloop
endfacet
facet normal 0.0005786539498335022 0.19526734414704142 0.980749881197733
outer loop
vertex 225.9562105675577 -367.52593253162723 19.38471168242088
vertex 313.2771714538908 -368.95524595851936 19.500000000002707
vertex 313.2806402148418 -367.7847091660629 19.384711682422118
endloop
endfacet
facet normal 7.896343165960728e-15 -0.19509032201615573 0.980785280403225
outer loop
vertex 225.95621056755786 -403.8669951904409 19.384711682421
vertex 320.80297720301405 -402.6964532583438 19.500000000000956
vertex 225.9562105675578 -402.69645325834415 19.50000000000163
endloop
endfacet
facet normal 4.999188892581934e-16 -0.038279075237226366 0.9992670876192123
outer loop
vertex 320.80297720301405 -402.6964532583438 19.500000000000956
vertex 225.95621056755786 -403.8669951904409 19.384711682421
vertex 320.3806763230303 -403.86699519044066 19.384711682420303
endloop
endfacet
facet normal -0.965925826289069 0.258819045102518 2.121955137394786e-14
outer loop
vertex 317.50657921454757 -347.2372645707401 11.888848719010197
vertex 313.2949517359429 -362.9552723034462 13.50000000000285
vertex 313.29495173594285 -362.95527230344624 17.388848719009175
endloop
endfacet
facet normal -0.9679061415111135 0.251311959972199 2.0785715092769623e-14
outer loop
vertex 313.2949517359429 -362.9552723034462 13.50000000000285
vertex 317.50657921454757 -347.2372645707401 11.888848719010197
vertex 313.2949517359426 -362.9552723034455 2.1699469524501553e-12
endloop
endfacet
facet normal -0.965925826289069 0.258819045102518 2.121955137394786e-14
outer loop
vertex 313.2949517359426 -362.9552723034455 2.1699469524501553e-12
vertex 317.50657921454757 -347.2372645707401 11.888848719010197
vertex 317.5065792145473 -347.23726457073957 2.8764664229875727e-12
endloop
endfacet
facet normal 0.002959811481090353 0.9987912935544327 0.04906313724028703
outer loop
vertex 225.95621056755758 -362.6964532583438 13.500000000001549
vertex 313.2949517359426 -362.9552723034455 2.1699469524501553e-12
vertex 225.95621056755726 -362.69645325834324 8.675847573219013e-13
endloop
endfacet
facet normal 0.0029633803420082696 0.9999956091788347 4.532414850223093e-14
outer loop
vertex 313.2949517359426 -362.9552723034455 2.1699469524501553e-12
vertex 225.95621056755758 -362.6964532583438 13.500000000001549
vertex 313.2949517359429 -362.9552723034462 13.50000000000285
endloop
endfacet
facet normal -0.6428535209427031 0.35947946238235595 0.676397713432609
outer loop
vertex 315.2268033885211 -363.4729103936514 19.500000000002803
vertex 317.50657921454757 -347.2372645707401 11.888848719010197
vertex 313.29495173594285 -362.95527230344624 17.388848719009175
endloop
endfacet
facet normal -0.6244122664984313 0.40171250412744486 0.6698778884796466
outer loop
vertex 317.50657921454757 -347.2372645707401 11.888848719010197
vertex 315.2268033885211 -363.4729103936514 19.500000000002803
vertex 319.43843086712565 -347.75490266094516 14.000000000003823
endloop
endfacet
facet normal 0.04419289786641923 0.16493014017113244 0.9853146891431687
outer loop
vertex 333.2149111167224 -368.29280933278693 19.500000000002412
vertex 319.43843086712565 -347.75490266094516 14.000000000003823
vertex 315.2268033885211 -363.4729103936514 19.500000000002803
endloop
endfacet
facet normal 0.08287353049486529 0.30928822640937226 0.9473503950217479
outer loop
vertex 319.43843086712565 -347.75490266094516 14.000000000003823
vertex 333.2149111167224 -368.29280933278693 19.500000000002412
vertex 338.75694739290697 -352.93128356299553 14.000000000003407
endloop
endfacet
facet normal 0.0005781268251645849 0.19508946540939362 0.9807852804032344
outer loop
vertex 313.2806402148418 -367.7847091660629 19.384711682422118
vertex 225.9562105675577 -366.4003689273848 19.043277195069226
vertex 225.9562105675577 -367.52593253162723 19.38471168242088
endloop
endfacet
facet normal 0.001134504299925078 0.3828395911420917 0.9238141373426526
outer loop
vertex 225.9562105675577 -366.4003689273848 19.043277195069226
vertex 313.2806402148418 -367.7847091660629 19.384711682422118
vertex 313.28397567325493 -366.6591554460959 19.043277195070484
endloop
endfacet
facet normal -0.9999956091788347 0.0029633803420043847 6.231205032133618e-15
outer loop
vertex 313.2815370155495 -367.4820828858107 19.500000000002707
vertex 313.2806402148418 -367.7847091660629 19.384711682422118
vertex 313.2771714538908 -368.95524595851936 19.500000000002707
endloop
endfacet
facet normal -0.9999956091788347 0.0029633803420043847 6.231205032133618e-15
outer loop
vertex 313.2806402148418 -367.7847091660629 19.384711682422118
vertex 313.2815370155495 -367.4820828858107 19.500000000002707
vertex 313.28397567325493 -366.6591554460959 19.043277195070484
endloop
endfacet
facet normal -0.9999956091788347 0.0029633803420043847 6.231205032133618e-15
outer loop
vertex 313.28397567325493 -366.6591554460959 19.043277195070484
vertex 313.2815370155495 -367.4820828858107 19.500000000002707
vertex 313.29495173594285 -362.95527230344624 17.388848719009175
endloop
endfacet
facet normal -0.9999956091788347 0.0029633803420043847 6.231205032133618e-15
outer loop
vertex 313.28397567325493 -366.6591554460959 19.043277195070484
vertex 313.29495173594285 -362.95527230344624 17.388848719009175
vertex 313.28704964933365 -365.6218391968589 18.48881767381806
endloop
endfacet
facet normal -0.9999956091788347 0.0029633803420043847 6.231205032133618e-15
outer loop
vertex 313.28704964933365 -365.6218391968589 18.48881767381806
vertex 313.29495173594285 -362.95527230344624 17.388848719009175
vertex 313.2897440119011 -364.7126239000765 17.74264068712209
endloop
endfacet
facet normal -0.9999956091788347 0.0029633803420043847 6.231205032133618e-15
outer loop
vertex 313.2897440119011 -364.7126239000765 17.74264068712209
vertex 313.29495173594285 -362.95527230344624 17.388848719009175
vertex 313.29195521811533 -363.9664501897102 16.833421398120436
endloop
endfacet
facet normal -0.9999956091788347 0.0029633803420043847 6.231205032133618e-15
outer loop
vertex 313.29195521811533 -363.9664501897102 16.833421398120436
vertex 313.29495173594285 -362.95527230344624 17.388848719009175
vertex 313.29359829256094 -363.4119931029903 15.796100594193376
endloop
endfacet
facet normal -0.9999956091788347 0.0029633803420043847 6.231205032133618e-15
outer loop
vertex 313.29359829256094 -363.4119931029903 15.796100594193376
vertex 313.29495173594285 -362.95527230344624 17.388848719009175
vertex 313.29461009280885 -363.0705601148163 14.670541932099614
endloop
endfacet
facet normal -0.9999956091788347 0.0029633803420043847 6.231205032133618e-15
outer loop
vertex 313.29461009280885 -363.0705601148163 14.670541932099614
vertex 313.29495173594285 -362.95527230344624 17.388848719009175
vertex 313.2949517359429 -362.9552723034462 13.50000000000285
endloop
endfacet
facet normal 0.002906460677527776 0.9807880124533618 0.1950549335805535
outer loop
vertex 225.95621056755758 -362.8117420821371 14.670541932098317
vertex 313.2949517359429 -362.9552723034462 13.50000000000285
vertex 225.95621056755758 -362.6964532583438 13.500000000001549
endloop
endfacet
facet normal 0.0029598108206048226 0.9987910706729414 0.04906767432745937
outer loop
vertex 313.2949517359429 -362.9552723034462 13.50000000000285
vertex 225.95621056755758 -362.8117420821371 14.670541932098317
vertex 313.29461009280885 -363.0705601148163 14.670541932099614
endloop
endfacet
facet normal 0.9406552135532438 -0.33936377121770317 -3.093229844363343e-14
outer loop
vertex 318.6383343052036 -408.696453258343 9.016659243150609e-14
vertex 318.67992731151236 -408.581164940763 14.670541932097544
vertex 318.6383343052037 -408.6964532583435 13.500000000000771
endloop
endfacet
facet normal 0.9406552135532438 -0.33936377121770317 -3.093229844363343e-14
outer loop
vertex 318.67992731151236 -408.581164940763 14.670541932097544
vertex 318.6383343052036 -408.696453258343 9.016659243150609e-14
vertex 338.7569473929065 -352.9312835629949 2.4162391809675432e-12
endloop
endfacet
facet normal 0.9406552135532438 -0.33936377121770317 -3.093229844363343e-14
outer loop
vertex 318.67992731151236 -408.581164940763 14.670541932097544
vertex 338.7569473929065 -352.9312835629949 2.4162391809675432e-12
vertex 318.80310793453117 -408.23973045341137 15.796100594191321
endloop
endfacet
facet normal 0.9406552135532438 -0.33936377121770317 -3.093229844363343e-14
outer loop
vertex 318.80310793453117 -408.23973045341137 15.796100594191321
vertex 338.7569473929065 -352.9312835629949 2.4162391809675432e-12
vertex 319.0031424119982 -407.68527093215897 16.83342139811841
endloop
endfacet
facet normal 0.9406552135532438 -0.33936377121770317 -3.093229844363343e-14
outer loop
vertex 319.0031424119982 -407.68527093215897 16.83342139811841
vertex 338.7569473929065 -352.9312835629949 2.4162391809675432e-12
vertex 319.2723435311251 -406.939093945463 17.742640687120108
endloop
endfacet
facet normal 0.9406552135532438 -0.33936377121770317 -3.093229844363343e-14
outer loop
vertex 319.2723435311251 -406.939093945463 17.742640687120108
vertex 338.7569473929065 -352.9312835629949 2.4162391809675432e-12
vertex 319.60036604387335 -406.0298746564614 18.488817673816122
endloop
endfacet
facet normal 0.9406552135532438 -0.33936377121770317 -3.093229844363343e-14
outer loop
vertex 319.60036604387335 -406.0298746564614 18.488817673816122
vertex 338.7569473929065 -352.9312835629949 2.4162391809675432e-12
vertex 319.9746042290353 -404.9925538525344 19.043277195068605
endloop
endfacet
facet normal 0.9406552135532438 -0.33936377121770317 -3.093229844363343e-14
outer loop
vertex 319.9746042290353 -404.9925538525344 19.043277195068605
vertex 338.7569473929065 -352.9312835629949 2.4162391809675432e-12
vertex 320.3806763230303 -403.86699519044066 19.384711682420303
endloop
endfacet
facet normal 0.9406552135532438 -0.33936377121770317 -3.093229844363343e-14
outer loop
vertex 320.3806763230303 -403.86699519044066 19.384711682420303
vertex 338.7569473929065 -352.9312835629949 2.4162391809675432e-12
vertex 320.80297720301405 -402.6964532583438 19.500000000000956
endloop
endfacet
facet normal 0.9406552135532438 -0.33936377121770317 -3.093229844363343e-14
outer loop
vertex 320.80297720301405 -402.6964532583438 19.500000000000956
vertex 338.7569473929065 -352.9312835629949 2.4162391809675432e-12
vertex 333.2149111167224 -368.29280933278693 19.500000000002412
endloop
endfacet
facet normal 0.9406552135532438 -0.33936377121770317 -3.093229844363343e-14
outer loop
vertex 333.2149111167224 -368.29280933278693 19.500000000002412
vertex 338.7569473929065 -352.9312835629949 2.4162391809675432e-12
vertex 338.75694739290697 -352.93128356299553 14.000000000003407
endloop
endfacet
facet normal 0.0024641298531908923 0.8315230410065516 0.5554847975771104
outer loop
vertex 225.9562105675577 -363.707640024469 16.83342139811915
vertex 313.29359829256094 -363.4119931029903 15.796100594193376
vertex 225.9562105675577 -363.1531780686732 15.796100594192083
endloop
endfacet
facet normal 0.002737806445021926 0.923875475921461 0.3826834323651383
outer loop
vertex 313.29359829256094 -363.4119931029903 15.796100594193376
vertex 225.9562105675577 -363.707640024469 16.83342139811915
vertex 313.29195521811533 -363.9664501897102 16.833421398120436
endloop
endfacet
facet normal 1.772413315294397e-15 -0.04906767432744381 0.9987954562051712
outer loop
vertex 225.9562105675578 -402.69645325834415 19.50000000000163
vertex 313.2771714538908 -368.95524595851936 19.500000000002707
vertex 225.9562105675577 -368.69647960338676 19.500000000001478
endloop
endfacet
facet normal 7.268116754323995e-05 0.024526331429482896 0.9996991816461885
outer loop
vertex 313.2771714538908 -368.95524595851936 19.500000000002707
vertex 225.9562105675578 -402.69645325834415 19.50000000000163
vertex 320.80297720301405 -402.6964532583438 19.500000000000956
endloop
endfacet
facet normal 7.268116754323995e-05 0.024526331429482896 0.9996991816461885
outer loop
vertex 313.2771714538908 -368.95524595851936 19.500000000002707
vertex 320.80297720301405 -402.6964532583438 19.500000000000956
vertex 313.2815370155495 -367.4820828858107 19.500000000002707
endloop
endfacet
facet normal -4.011251582056259e-15 -2.9675163092589677e-14 1.0
outer loop
vertex 313.2815370155495 -367.4820828858107 19.500000000002707
vertex 320.80297720301405 -402.6964532583438 19.500000000000956
vertex 315.2268033885211 -363.4729103936514 19.500000000002803
endloop
endfacet
facet normal 0.03959727631151913 0.14777904703588987 0.98822740751604
outer loop
vertex 315.2268033885211 -363.4729103936514 19.500000000002803
vertex 320.80297720301405 -402.6964532583438 19.500000000000956
vertex 333.2149111167224 -368.29280933278693 19.500000000002412
endloop
endfacet
facet normal 4.8946937716478555e-15 2.994631659461987e-14 -1.0
outer loop
vertex 313.2949517359426 -362.9552723034455 2.1699469524501553e-12
vertex 225.95621056755746 -408.69645325834324 8.829313620383653e-13
vertex 225.95621056755726 -362.69645325834324 8.675847573219013e-13
endloop
endfacet
facet normal 4.8946937716478555e-15 2.994631659461987e-14 -1.0
outer loop
vertex 225.95621056755746 -408.69645325834324 8.829313620383653e-13
vertex 313.2949517359426 -362.9552723034455 2.1699469524501553e-12
vertex 318.6383343052036 -408.696453258343 9.016659243150609e-14
endloop
endfacet
facet normal 4.8946937716478555e-15 2.994631659461987e-14 -1.0
outer loop
vertex 318.6383343052036 -408.696453258343 9.016659243150609e-14
vertex 313.2949517359426 -362.9552723034455 2.1699469524501553e-12
vertex 317.5065792145473 -347.23726457073957 2.8764664229875727e-12
endloop
endfacet
facet normal 4.8946937716478555e-15 2.994631659461987e-14 -1.0
outer loop
vertex 318.6383343052036 -408.696453258343 9.016659243150609e-14
vertex 317.5065792145473 -347.23726457073957 2.8764664229875727e-12
vertex 338.7569473929065 -352.9312835629949 2.4162391809675432e-12
endloop
endfacet
facet normal 8.197389575278913e-15 -0.6961700817911841 0.71787688165789
outer loop
vertex 319.2723435311251 -406.939093945463 17.742640687120108
vertex 225.95621056755778 -406.02987465646174 18.488817673816865
vertex 225.95621056755778 -406.93909394546336 17.74264068712087
endloop
endfacet
facet normal 8.471872830187163e-15 -0.5555702330196014 0.8314696123025458
outer loop
vertex 225.95621056755778 -406.02987465646174 18.488817673816865
vertex 319.2723435311251 -406.939093945463 17.742640687120108
vertex 319.60036604387335 -406.0298746564614 18.488817673816122
endloop
endfacet
facet normal 8.48618560135579e-15 -0.5405350885333569 0.8413214712963387
outer loop
vertex 319.60036604387335 -406.0298746564614 18.488817673816122
vertex 225.9562105675578 -404.9925538525347 19.043277195069326
vertex 225.95621056755778 -406.02987465646174 18.488817673816865
endloop
endfacet
facet normal 8.381068392674645e-15 -0.3826834323651387 0.9238795325112665
outer loop
vertex 225.9562105675578 -404.9925538525347 19.043277195069326
vertex 319.60036604387335 -406.0298746564614 18.488817673816122
vertex 319.9746042290353 -404.9925538525344 19.043277195068605
endloop
endfacet
facet normal 0.0011340365606696621 0.38268175207060134 0.923879532511276
outer loop
vertex 313.28397567325493 -366.6591554460959 19.043277195070484
vertex 225.9562105675577 -365.3630435687476 18.488817673816786
vertex 225.9562105675577 -366.4003689273848 19.043277195069226
endloop
endfacet
facet normal 0.0016467447621313972 0.5556956386050135 0.8313841744146051
outer loop
vertex 225.9562105675577 -365.3630435687476 18.488817673816786
vertex 313.28397567325493 -366.6591554460959 19.043277195070484
vertex 313.28704964933365 -365.6218391968589 18.48881767381806
endloop
endfacet
facet normal 7.529076135498901e-15 -0.8246772369585466 0.5656036198986153
outer loop
vertex 319.0031424119982 -407.68527093215897 16.83342139811841
vertex 225.9562105675578 -408.2397304534117 15.796100594192103
vertex 318.80310793453117 -408.23973045341137 15.796100594191321
endloop
endfacet
facet normal 6.317640763713414e-15 -0.9238795325113043 0.3826834323650477
outer loop
vertex 225.9562105675578 -408.2397304534117 15.796100594192103
vertex 319.0031424119982 -407.68527093215897 16.83342139811841
vertex 225.9562105675578 -407.6852709321593 16.833421398119185
endloop
endfacet
facet normal -1.0 -3.1086244689501524e-15 1.6682725419242668e-14
outer loop
vertex 225.95621056755772 -408.58116494076336 14.670541932098331
vertex 225.95621056755746 -408.69645325834324 8.829313620383653e-13
vertex 225.95621056755778 -408.6964532583439 13.500000000001563
endloop
endfacet
facet normal -1.0 -3.1086244689501524e-15 1.6682725419242668e-14
outer loop
vertex 225.95621056755746 -408.69645325834324 8.829313620383653e-13
vertex 225.95621056755772 -408.58116494076336 14.670541932098331
vertex 225.95621056755726 -362.69645325834324 8.675847573219013e-13
endloop
endfacet
facet normal -1.0 -3.1086244689501524e-15 1.6682725419242668e-14
outer loop
vertex 225.95621056755726 -362.69645325834324 8.675847573219013e-13
vertex 225.95621056755772 -408.58116494076336 14.670541932098331
vertex 225.9562105675578 -408.2397304534117 15.796100594192103
endloop
endfacet
facet normal -1.0 -3.1086244689501524e-15 1.6682725419242668e-14
outer loop
vertex 225.95621056755726 -362.69645325834324 8.675847573219013e-13
vertex 225.9562105675578 -408.2397304534117 15.796100594192103
vertex 225.9562105675578 -407.6852709321593 16.833421398119185
endloop
endfacet
facet normal -1.0 -3.1086244689501524e-15 1.6682725419242668e-14
outer loop
vertex 225.95621056755726 -362.69645325834324 8.675847573219013e-13
vertex 225.9562105675578 -407.6852709321593 16.833421398119185
vertex 225.95621056755778 -406.93909394546336 17.74264068712087
endloop
endfacet
facet normal -1.0 -3.1086244689501524e-15 1.6682725419242668e-14
outer loop
vertex 225.95621056755726 -362.69645325834324 8.675847573219013e-13
vertex 225.95621056755778 -406.93909394546336 17.74264068712087
vertex 225.95621056755778 -406.02987465646174 18.488817673816865
endloop
endfacet
facet normal -1.0 -3.1086244689501524e-15 1.6682725419242668e-14
outer loop
vertex 225.95621056755726 -362.69645325834324 8.675847573219013e-13
vertex 225.95621056755778 -406.02987465646174 18.488817673816865
vertex 225.9562105675578 -404.9925538525347 19.043277195069326
endloop
endfacet
facet normal -1.0 -3.1086244689501524e-15 1.6682725419242668e-14
outer loop
vertex 225.95621056755726 -362.69645325834324 8.675847573219013e-13
vertex 225.9562105675578 -404.9925538525347 19.043277195069326
vertex 225.95621056755786 -403.8669951904409 19.384711682421
endloop
endfacet
facet normal -1.0 -3.1086244689501524e-15 1.6682725419242668e-14
outer loop
vertex 225.95621056755726 -362.69645325834324 8.675847573219013e-13
vertex 225.95621056755786 -403.8669951904409 19.384711682421
vertex 225.9562105675578 -402.69645325834415 19.50000000000163
endloop
endfacet
facet normal -1.0 -3.1086244689501524e-15 1.6682725419242668e-14
outer loop
vertex 225.95621056755726 -362.69645325834324 8.675847573219013e-13
vertex 225.9562105675578 -402.69645325834415 19.50000000000163
vertex 225.9562105675577 -368.69647960338676 19.500000000001478
endloop
endfacet
facet normal -1.0 -3.1086244689501524e-15 1.6682725419242668e-14
outer loop
vertex 225.95621056755726 -362.69645325834324 8.675847573219013e-13
vertex 225.9562105675577 -368.69647960338676 19.500000000001478
vertex 225.9562105675577 -367.52593253162723 19.38471168242088
endloop
endfacet
facet normal -1.0 -3.1086244689501524e-15 1.6682725419242668e-14
outer loop
vertex 225.95621056755726 -362.69645325834324 8.675847573219013e-13
vertex 225.9562105675577 -367.52593253162723 19.38471168242088
vertex 225.9562105675577 -366.4003689273848 19.043277195069226
endloop
endfacet
facet normal -1.0 -3.1086244689501524e-15 1.6682725419242668e-14
outer loop
vertex 225.95621056755726 -362.69645325834324 8.675847573219013e-13
vertex 225.9562105675577 -366.4003689273848 19.043277195069226
vertex 225.9562105675577 -365.3630435687476 18.488817673816786
endloop
endfacet
facet normal -1.0 -3.1086244689501524e-15 1.6682725419242668e-14
outer loop
vertex 225.95621056755726 -362.69645325834324 8.675847573219013e-13
vertex 225.9562105675577 -365.3630435687476 18.488817673816786
vertex 225.95621056755763 -364.4538202875091 17.742640687120815
endloop
endfacet
facet normal -1.0 -3.1086244689501524e-15 1.6682725419242668e-14
outer loop
vertex 225.95621056755726 -362.69645325834324 8.675847573219013e-13
vertex 225.95621056755763 -364.4538202875091 17.742640687120815
vertex 225.9562105675577 -363.707640024469 16.83342139811915
endloop
endfacet
facet normal -1.0 -3.1086244689501524e-15 1.6682725419242668e-14
outer loop
vertex 225.95621056755726 -362.69645325834324 8.675847573219013e-13
vertex 225.9562105675577 -363.707640024469 16.83342139811915
vertex 225.9562105675577 -363.1531780686732 15.796100594192083
endloop
endfacet
facet normal -1.0 -3.1086244689501524e-15 1.6682725419242668e-14
outer loop
vertex 225.95621056755726 -362.69645325834324 8.675847573219013e-13
vertex 225.9562105675577 -363.1531780686732 15.796100594192083
vertex 225.95621056755758 -362.8117420821371 14.670541932098317
endloop
endfacet
facet normal -1.0 -3.1086244689501524e-15 1.6682725419242668e-14
outer loop
vertex 225.95621056755726 -362.69645325834324 8.675847573219013e-13
vertex 225.95621056755758 -362.8117420821371 14.670541932098317
vertex 225.95621056755758 -362.6964532583438 13.500000000001549
endloop
endfacet
facet normal 6.375673172985982e-15 -0.9206397199077173 0.3904132504516719
outer loop
vertex 318.80310793453117 -408.23973045341137 15.796100594191321
vertex 225.95621056755772 -408.58116494076336 14.670541932098331
vertex 318.67992731151236 -408.581164940763 14.670541932097544
endloop
endfacet
facet normal 4.871927184677645e-15 -0.9807852804032394 0.1950903220160829
outer loop
vertex 225.95621056755772 -408.58116494076336 14.670541932098331
vertex 318.80310793453117 -408.23973045341137 15.796100594191321
vertex 225.9562105675578 -408.2397304534117 15.796100594192103
endloop
endfacet
facet normal 8.343660021624788e-15 -0.3642031260487173 0.9313195385990471
outer loop
vertex 319.9746042290353 -404.9925538525344 19.043277195068605
vertex 225.95621056755786 -403.8669951904409 19.384711682421
vertex 225.9562105675578 -404.9925538525347 19.043277195069326
endloop
endfacet
facet normal 7.896343165960728e-15 -0.19509032201615573 0.980785280403225
outer loop
vertex 225.95621056755786 -403.8669951904409 19.384711682421
vertex 319.9746042290353 -404.9925538525344 19.043277195068605
vertex 320.3806763230303 -403.86699519044066 19.384711682420303
endloop
endfacet
facet normal -0.6428535209427031 0.35947946238235595 0.676397713432609
outer loop
vertex 315.2268033885211 -363.4729103936514 19.500000000002803
vertex 313.29495173594285 -362.95527230344624 17.388848719009175
vertex 313.2815370155495 -367.4820828858107 19.500000000002707
endloop
endfacet
facet normal 0.002737886700567021 0.9239025582340379 0.38261804304686803
outer loop
vertex 225.9562105675577 -363.1531780686732 15.796100594192083
vertex 313.29461009280885 -363.0705601148163 14.670541932099614
vertex 225.95621056755758 -362.8117420821371 14.670541932098317
endloop
endfacet
facet normal 0.0029064398196750364 0.9807809739504536 0.19509032201617396
outer loop
vertex 313.29461009280885 -363.0705601148163 14.670541932099614
vertex 225.9562105675577 -363.1531780686732 15.796100594192083
vertex 313.29359829256094 -363.4119931029903 15.796100594193376
endloop
endfacet
facet normal 8.197389575278913e-15 -0.6961700817911841 0.71787688165789
outer loop
vertex 319.2723435311251 -406.939093945463 17.742640687120108
vertex 225.9562105675578 -407.6852709321593 16.833421398119185
vertex 319.0031424119982 -407.68527093215897 16.83342139811841
endloop
endfacet
facet normal 7.471850959803288e-15 -0.8314696123025593 0.555570233019581
outer loop
vertex 225.9562105675578 -407.6852709321593 16.833421398119185
vertex 319.2723435311251 -406.939093945463 17.742640687120108
vertex 225.95621056755778 -406.93909394546336 17.74264068712087
endloop
endfacet
endsolid case
