G75*
%MOIN*%
%OFA0B0*%
%FSLAX25Y25*%
%IPPOS*%
%LPD*%
%AMOC8*
5,1,8,0,0,1.08239X$1,22.5*
%
%ADD10C,0.01000*%
%ADD11R,0.08000X0.02600*%
%ADD12R,0.06000X0.02600*%
%ADD13R,0.04331X0.03937*%
%ADD14R,0.03937X0.04331*%
%ADD15R,0.04600X0.06300*%
%ADD16R,0.08800X0.04800*%
%ADD17R,0.08661X0.14173*%
%ADD18R,0.16000X0.15000*%
%ADD19R,0.05118X0.05906*%
D10*
X0001500Y0029000D02*
X0001500Y0169000D01*
X0029000Y0196461D01*
X0029000Y0196500D02*
X0169000Y0196500D01*
X0196500Y0169000D01*
X0196500Y0029000D01*
X0169000Y0001500D01*
X0029000Y0001500D01*
X0001500Y0029000D01*
D11*
X0044200Y0051500D03*
X0044200Y0056500D03*
X0044200Y0061500D03*
X0044200Y0066500D03*
X0044200Y0071500D03*
X0044200Y0076500D03*
X0044200Y0081500D03*
X0044200Y0086500D03*
X0044200Y0091500D03*
X0083800Y0091500D03*
X0083800Y0086500D03*
X0083800Y0081500D03*
X0083800Y0076500D03*
X0083800Y0071500D03*
X0083800Y0066500D03*
X0083800Y0061500D03*
X0083800Y0056500D03*
X0083800Y0051500D03*
X0091700Y0061500D03*
X0091700Y0066500D03*
X0091700Y0071500D03*
X0091700Y0076500D03*
X0091700Y0081500D03*
X0091700Y0086500D03*
X0091700Y0096500D03*
X0091700Y0101500D03*
X0091700Y0106500D03*
X0129200Y0106500D03*
X0129200Y0101500D03*
X0129200Y0096500D03*
X0129200Y0091500D03*
X0129200Y0086500D03*
X0129200Y0081500D03*
X0129200Y0076500D03*
X0129200Y0071500D03*
X0129200Y0066500D03*
X0129200Y0061500D03*
D12*
X0092700Y0091500D03*
D13*
X0081421Y0099394D03*
X0074728Y0099394D03*
X0069846Y0131500D03*
X0063154Y0131500D03*
X0037346Y0114000D03*
X0030654Y0114000D03*
X0032346Y0094000D03*
X0025654Y0094000D03*
X0025654Y0079000D03*
X0032346Y0079000D03*
G36*
X0033995Y0034288D02*
X0037056Y0031227D01*
X0034273Y0028444D01*
X0031212Y0031505D01*
X0033995Y0034288D01*
G37*
G36*
X0038727Y0029556D02*
X0041788Y0026495D01*
X0039005Y0023712D01*
X0035944Y0026773D01*
X0038727Y0029556D01*
G37*
G36*
X0166505Y0163712D02*
X0163444Y0166773D01*
X0166227Y0169556D01*
X0169288Y0166495D01*
X0166505Y0163712D01*
G37*
G36*
X0161773Y0168444D02*
X0158712Y0171505D01*
X0161495Y0174288D01*
X0164556Y0171227D01*
X0161773Y0168444D01*
G37*
X0114846Y0171500D03*
X0108154Y0171500D03*
X0094846Y0171500D03*
X0088154Y0171500D03*
X0074846Y0171500D03*
X0068154Y0171500D03*
G36*
X0184273Y0037194D02*
X0181212Y0040255D01*
X0183995Y0043038D01*
X0187056Y0039977D01*
X0184273Y0037194D01*
G37*
G36*
X0189005Y0032462D02*
X0185944Y0035523D01*
X0188727Y0038306D01*
X0191788Y0035245D01*
X0189005Y0032462D01*
G37*
D14*
X0171500Y0068154D03*
X0171500Y0074846D03*
X0171500Y0083154D03*
X0171500Y0089846D03*
X0171500Y0098154D03*
X0171500Y0104846D03*
X0114000Y0032346D03*
X0114000Y0025654D03*
X0094000Y0025654D03*
X0094000Y0032346D03*
X0084000Y0032346D03*
X0084000Y0025654D03*
X0019000Y0150654D03*
X0019000Y0157346D03*
D15*
X0142250Y0096500D03*
X0148250Y0096500D03*
X0148250Y0086500D03*
X0142250Y0086500D03*
X0142250Y0076500D03*
X0148250Y0076500D03*
D16*
X0151800Y0129900D03*
X0151800Y0139000D03*
X0151800Y0148100D03*
D17*
X0176201Y0139000D03*
D18*
X0147677Y0164000D03*
X0130323Y0164000D03*
D19*
X0132760Y0141500D03*
X0140240Y0141500D03*
X0140240Y0131500D03*
X0132760Y0131500D03*
M02*
