G75*
%MOIN*%
%OFA0B0*%
%FSLAX25Y25*%
%IPPOS*%
%LPD*%
%AMOC8*
5,1,8,0,0,1.08239X$1,22.5*
%
%ADD10C,0.01000*%
%ADD11C,0.01600*%
%ADD12R,0.08400X0.03000*%
%ADD13R,0.06400X0.03000*%
%ADD14R,0.04731X0.04337*%
%ADD15R,0.04337X0.04731*%
%ADD16C,0.05600*%
%ADD17R,0.05000X0.06700*%
%ADD18R,0.00600X0.07200*%
%ADD19C,0.06400*%
%ADD20OC8,0.06400*%
%ADD21R,0.09200X0.05200*%
%ADD22R,0.09061X0.14573*%
%ADD23R,0.16400X0.15400*%
%ADD24C,0.10400*%
%ADD25R,0.05518X0.06306*%
%ADD26C,0.23400*%
%ADD27C,0.00500*%
D10*
X0001500Y0029000D02*
X0001500Y0169000D01*
X0029000Y0196461D01*
X0029000Y0196500D02*
X0169000Y0196500D01*
X0196500Y0169000D01*
X0196500Y0029000D01*
X0169000Y0001500D01*
X0029000Y0001500D01*
X0001500Y0029000D01*
D11*
X0019000Y0055250D02*
X0019000Y0072750D01*
X0044000Y0072750D01*
X0044000Y0055250D01*
X0019000Y0055250D01*
X0019000Y0055849D02*
X0044000Y0055849D01*
X0044000Y0057448D02*
X0019000Y0057448D01*
X0019000Y0059046D02*
X0044000Y0059046D01*
X0044000Y0060645D02*
X0019000Y0060645D01*
X0019000Y0062243D02*
X0044000Y0062243D01*
X0044000Y0063842D02*
X0019000Y0063842D01*
X0019000Y0065440D02*
X0044000Y0065440D01*
X0044000Y0067039D02*
X0019000Y0067039D01*
X0019000Y0068637D02*
X0044000Y0068637D01*
X0044000Y0070236D02*
X0019000Y0070236D01*
X0019000Y0071834D02*
X0044000Y0071834D01*
D12*
X0044200Y0071500D03*
X0044200Y0076500D03*
X0044200Y0081500D03*
X0044200Y0086500D03*
X0044200Y0091500D03*
X0044200Y0066500D03*
X0044200Y0061500D03*
X0044200Y0056500D03*
X0044200Y0051500D03*
X0083800Y0051500D03*
X0083800Y0056500D03*
X0083800Y0061500D03*
X0083800Y0066500D03*
X0083800Y0071500D03*
X0083800Y0076500D03*
X0083800Y0081500D03*
X0083800Y0086500D03*
X0083800Y0091500D03*
X0091700Y0086500D03*
X0091700Y0081500D03*
X0091700Y0076500D03*
X0091700Y0071500D03*
X0091700Y0066500D03*
X0091700Y0061500D03*
X0091700Y0096500D03*
X0091700Y0101500D03*
X0091700Y0106500D03*
X0129200Y0106500D03*
X0129200Y0101500D03*
X0129200Y0096500D03*
X0129200Y0091500D03*
X0129200Y0086500D03*
X0129200Y0081500D03*
X0129200Y0076500D03*
X0129200Y0071500D03*
X0129200Y0066500D03*
X0129200Y0061500D03*
D13*
X0092700Y0091500D03*
D14*
X0081421Y0099394D03*
X0074728Y0099394D03*
X0069846Y0131500D03*
X0063154Y0131500D03*
X0037346Y0114000D03*
X0030654Y0114000D03*
X0032346Y0094000D03*
X0025654Y0094000D03*
X0025654Y0079000D03*
X0032346Y0079000D03*
G36*
X0033995Y0034571D02*
X0037339Y0031227D01*
X0034273Y0028161D01*
X0030929Y0031505D01*
X0033995Y0034571D01*
G37*
G36*
X0038727Y0029839D02*
X0042071Y0026495D01*
X0039005Y0023429D01*
X0035661Y0026773D01*
X0038727Y0029839D01*
G37*
G36*
X0166505Y0163429D02*
X0163161Y0166773D01*
X0166227Y0169839D01*
X0169571Y0166495D01*
X0166505Y0163429D01*
G37*
G36*
X0161773Y0168161D02*
X0158429Y0171505D01*
X0161495Y0174571D01*
X0164839Y0171227D01*
X0161773Y0168161D01*
G37*
X0114846Y0171500D03*
X0108154Y0171500D03*
X0094846Y0171500D03*
X0088154Y0171500D03*
X0074846Y0171500D03*
X0068154Y0171500D03*
G36*
X0184273Y0036911D02*
X0180929Y0040255D01*
X0183995Y0043321D01*
X0187339Y0039977D01*
X0184273Y0036911D01*
G37*
G36*
X0189005Y0032179D02*
X0185661Y0035523D01*
X0188727Y0038589D01*
X0192071Y0035245D01*
X0189005Y0032179D01*
G37*
D15*
X0171500Y0068154D03*
X0171500Y0074846D03*
X0171500Y0083154D03*
X0171500Y0089846D03*
X0171500Y0098154D03*
X0171500Y0104846D03*
X0114000Y0032346D03*
X0114000Y0025654D03*
X0094000Y0025654D03*
X0094000Y0032346D03*
X0084000Y0032346D03*
X0084000Y0025654D03*
X0019000Y0150654D03*
X0019000Y0157346D03*
D16*
X0025761Y0025768D02*
X0022084Y0022091D01*
X0015124Y0029051D02*
X0018801Y0032727D01*
X0032721Y0018808D02*
X0029044Y0015131D01*
X0084000Y0013900D02*
X0084000Y0019100D01*
X0094000Y0019100D02*
X0094000Y0013900D01*
X0104000Y0013900D02*
X0104000Y0019100D01*
X0114000Y0019100D02*
X0114000Y0013900D01*
X0165273Y0018801D02*
X0168949Y0015124D01*
X0175909Y0022084D02*
X0172232Y0025761D01*
X0179192Y0032721D02*
X0182869Y0029044D01*
X0184100Y0084000D02*
X0178900Y0084000D01*
X0178900Y0094000D02*
X0184100Y0094000D01*
X0184100Y0104000D02*
X0178900Y0104000D01*
X0178900Y0114000D02*
X0184100Y0114000D01*
X0149000Y0113900D02*
X0149000Y0119100D01*
X0139000Y0119100D02*
X0139000Y0113900D01*
X0129000Y0113900D02*
X0129000Y0119100D01*
X0114000Y0121400D02*
X0114000Y0126600D01*
X0104000Y0126600D02*
X0104000Y0121400D01*
X0094000Y0121400D02*
X0094000Y0126600D01*
X0084000Y0126600D02*
X0084000Y0121400D01*
X0084000Y0146400D02*
X0084000Y0151600D01*
X0094000Y0151600D02*
X0094000Y0146400D01*
X0104000Y0146400D02*
X0104000Y0151600D01*
X0114000Y0151600D02*
X0114000Y0146400D01*
X0114000Y0178900D02*
X0114000Y0184100D01*
X0104000Y0184100D02*
X0104000Y0178900D01*
X0094000Y0178900D02*
X0094000Y0184100D01*
X0084000Y0184100D02*
X0084000Y0178900D01*
X0032727Y0179199D02*
X0029051Y0182876D01*
X0022091Y0175916D02*
X0025768Y0172239D01*
X0018808Y0165279D02*
X0015131Y0168956D01*
X0013900Y0114000D02*
X0019100Y0114000D01*
X0019100Y0104000D02*
X0013900Y0104000D01*
X0013900Y0094000D02*
X0019100Y0094000D01*
X0019100Y0084000D02*
X0013900Y0084000D01*
X0165279Y0179192D02*
X0168956Y0182869D01*
X0175916Y0175909D02*
X0172239Y0172232D01*
X0179199Y0165273D02*
X0182876Y0168949D01*
D17*
X0148250Y0096500D03*
X0142250Y0096500D03*
X0142250Y0086500D03*
X0148250Y0086500D03*
X0148250Y0076500D03*
X0142250Y0076500D03*
D18*
X0145250Y0076500D03*
X0145250Y0086500D03*
X0145250Y0096500D03*
D19*
X0064000Y0101500D03*
D20*
X0064000Y0111500D03*
X0064000Y0121500D03*
X0054000Y0121500D03*
X0054000Y0111500D03*
X0054000Y0101500D03*
D21*
X0151800Y0129900D03*
X0151800Y0139000D03*
X0151800Y0148100D03*
D22*
X0176201Y0139000D03*
D23*
X0147677Y0164000D03*
X0130323Y0164000D03*
D24*
X0129000Y0164000D03*
X0149000Y0164000D03*
D25*
X0140240Y0141500D03*
X0132760Y0141500D03*
X0132760Y0131500D03*
X0140240Y0131500D03*
D26*
X0154669Y0043331D03*
X0043331Y0154669D03*
D27*
X0040870Y0182602D02*
X0040186Y0182662D01*
X0039524Y0182840D01*
X0038902Y0183130D01*
X0038339Y0183523D01*
X0037854Y0184009D01*
X0037461Y0184571D01*
X0037170Y0185193D01*
X0036993Y0185856D01*
X0036933Y0186539D01*
X0036993Y0187223D01*
X0037170Y0187886D01*
X0037461Y0188508D01*
X0037854Y0189070D01*
X0038339Y0189555D01*
X0038902Y0189949D01*
X0039524Y0190239D01*
X0040186Y0190417D01*
X0040870Y0190476D01*
X0041554Y0190417D01*
X0042217Y0190239D01*
X0042839Y0189949D01*
X0043401Y0189555D01*
X0043886Y0189070D01*
X0044280Y0188508D01*
X0044570Y0187886D01*
X0044747Y0187223D01*
X0044807Y0186539D01*
X0044747Y0185856D01*
X0044570Y0185193D01*
X0044280Y0184571D01*
X0043886Y0184009D01*
X0043401Y0183523D01*
X0042839Y0183130D01*
X0042217Y0182840D01*
X0041554Y0182662D01*
X0040870Y0182602D01*
X0039270Y0182958D02*
X0042470Y0182958D01*
X0043305Y0183457D02*
X0038435Y0183457D01*
X0037908Y0183955D02*
X0043832Y0183955D01*
X0044198Y0184454D02*
X0037543Y0184454D01*
X0037283Y0184952D02*
X0044457Y0184952D01*
X0044639Y0185451D02*
X0037101Y0185451D01*
X0036985Y0185949D02*
X0044755Y0185949D01*
X0044799Y0186448D02*
X0036941Y0186448D01*
X0036969Y0186946D02*
X0044771Y0186946D01*
X0044688Y0187445D02*
X0037052Y0187445D01*
X0037197Y0187943D02*
X0044543Y0187943D01*
X0044310Y0188442D02*
X0037430Y0188442D01*
X0037763Y0188940D02*
X0043977Y0188940D01*
X0043517Y0189439D02*
X0038223Y0189439D01*
X0038885Y0189937D02*
X0042855Y0189937D01*
X0041334Y0190436D02*
X0040406Y0190436D01*
X0157012Y0012784D02*
X0157634Y0013074D01*
X0158297Y0013251D01*
X0158980Y0013311D01*
X0159664Y0013251D01*
X0160327Y0013074D01*
X0160949Y0012784D01*
X0161511Y0012390D01*
X0161996Y0011905D01*
X0162390Y0011343D01*
X0162680Y0010721D01*
X0162858Y0010058D01*
X0162917Y0009374D01*
X0162858Y0008690D01*
X0162680Y0008027D01*
X0162390Y0007406D01*
X0161996Y0006843D01*
X0161511Y0006358D01*
X0160949Y0005964D01*
X0160327Y0005674D01*
X0159664Y0005497D01*
X0158980Y0005437D01*
X0158297Y0005497D01*
X0157634Y0005674D01*
X0157012Y0005964D01*
X0156450Y0006358D01*
X0155964Y0006843D01*
X0155571Y0007406D01*
X0155281Y0008027D01*
X0155103Y0008690D01*
X0155043Y0009374D01*
X0155103Y0010058D01*
X0155281Y0010721D01*
X0155571Y0011343D01*
X0155964Y0011905D01*
X0156450Y0012390D01*
X0157012Y0012784D01*
X0157403Y0012966D02*
X0160558Y0012966D01*
X0161401Y0012467D02*
X0156560Y0012467D01*
X0156028Y0011969D02*
X0161932Y0011969D01*
X0162300Y0011470D02*
X0155660Y0011470D01*
X0155398Y0010972D02*
X0162563Y0010972D01*
X0162746Y0010473D02*
X0155214Y0010473D01*
X0155096Y0009975D02*
X0162865Y0009975D01*
X0162908Y0009476D02*
X0155052Y0009476D01*
X0155078Y0008978D02*
X0162883Y0008978D01*
X0162801Y0008479D02*
X0155160Y0008479D01*
X0155303Y0007981D02*
X0162658Y0007981D01*
X0162426Y0007482D02*
X0155535Y0007482D01*
X0155866Y0006984D02*
X0162094Y0006984D01*
X0161638Y0006485D02*
X0156323Y0006485D01*
X0156980Y0005987D02*
X0160980Y0005987D01*
X0159564Y0005488D02*
X0158397Y0005488D01*
M02*
