%
M48
M72
T01C0.01575
T02C0.03200
T03C0.04000
T04C0.11811
%
T01
X9000Y159000
X34000Y134000
X69000Y181500
X51500Y189000
X101500Y171500
X101500Y161500
X149000Y175250
X149000Y189000
X9000Y66500
X9000Y39000
X39000Y9000
X59000Y16500
X146500Y9000
X189000Y46500
X181500Y61500
X191500Y109000
X164000Y99000
X147750Y107750
X189000Y164000
X9000Y134000
X127750Y27750
X127750Y35250
X116500Y41500
X119000Y51500
X89000Y51500
X67750Y66500
X60250Y66500
X89000Y42750
X74000Y92750
X116500Y69000
X106500Y92750
X84000Y114000
X114000Y136500
X130250Y152750
X121500Y149000
X121500Y124000
X46500Y117750
X56500Y129000
X41500Y44000
X126500Y136500
X155250Y121500
X166500Y86500
X24000Y89000
X164000Y116500
X60250Y165250
X60250Y155250
X89000Y139000
X80250Y132750
X76500Y26500
X140250Y69000
X67750Y61500
X67750Y71500
X67750Y76500
X67750Y81500
X60250Y71500
X60250Y76500
X60250Y61500
X60250Y56500
X70250Y56500
X67750Y86500
X59000Y81500
X55250Y85250
X72750Y61500
X72750Y66500
X72750Y71500
X72750Y76500
X72750Y81500
X72750Y86500
X62750Y89000
X75250Y51500
X152750Y102750
X156500Y71500
X49000Y36500
X66500Y54000
X184000Y144000
X184000Y149000
X179000Y149000
X169000Y149000
X184000Y129000
X169000Y134000
X179000Y129000
X174000Y129000
X184000Y134000
X169000Y129000
X169000Y144000
X169000Y139000
X174000Y149000
X184000Y139000
X136500Y101500
T02
X174077Y174071
X167118Y181030
X181037Y167111
X23929Y174077
X16970Y167118
X30889Y181037
X23923Y23929
X30882Y16970
X16963Y30889
X174071Y23923
X181030Y30882
X167111Y16963
X181500Y114000
X181500Y104000
X181500Y94000
X181500Y84000
X16500Y114000
X16500Y104000
X16500Y94000
X16500Y84000
X114000Y181500
X104000Y181500
X94000Y181500
X84000Y181500
X114000Y16500
X104000Y16500
X94000Y16500
X84000Y16500
X149000Y164000
X129000Y164000
X114000Y149000
X104000Y149000
X94000Y149000
X84000Y149000
X114000Y124000
X104000Y124000
X94000Y124000
X84000Y124000
X129000Y116500
X149000Y116500
X139000Y116500
T03
X64000Y101500
X64000Y111500
X64000Y121500
X54000Y101500
X54000Y111500
X54000Y121500
T04
X43331Y154669
X154669Y43331
M30
