%
M48
M72
T01C0.0157
T02C0.0315
T03C0.0354
T04C0.0400
T05C0.0591
T06C0.1181
%
T01
X9197Y12206
X20260Y24018
X17760Y23518
X21385Y17643
X22135Y19518
X7510Y24018
X8760Y23018
X11760Y22643
X4010Y22768
X6260Y22768
X6510Y21018
X8510Y20768
X7760Y19518
X9760Y18268
X10760Y18643
X9635Y21268
X5510Y20331
X4635Y19581
X5010Y17831
X5010Y16581
X5010Y15518
X5010Y13393
X4510Y12393
X7510Y12393
X7510Y13393
X7260Y16393
X8760Y18268
X10697Y11768
X10697Y13393
X3947Y9831
X6385Y6393
X8885Y6393
X10697Y9143
X13260Y8518
X13260Y6393
X16385Y6393
X21885Y8393
X20885Y7643
X24135Y6393
X24447Y9643
X24447Y10643
X25447Y10143
X29260Y7018
X28885Y12956
X28885Y11581
X28197Y13643
X28760Y15331
X28197Y16768
X29510Y18268
X29510Y19768
X23197Y18768
X30447Y22518
X29697Y24768
X16760Y22018
X12760Y22018
X18260Y22893
X19760Y21393
X17260Y20768
X18010Y20018
X18885Y19143
X13885Y18268
X12760Y14518
X14510Y12768
X13260Y11768
X17197Y10768
X17197Y11768
X25447Y12581
X25510Y16768
X31510Y11456
X31510Y18518
X6697Y24768
X20260Y17643
X17010Y18768
X23510Y21518
X8760Y16643
X15760Y23518
X8510Y14393
X25010Y6893
X11010Y16268
X11760Y18643
X6572Y18268
X4635Y20518
X4010Y24768
X32760Y24518
X32760Y6518
X14822Y10206
X19510Y10643
X19010Y12143
X23010Y14893
X24260Y16268
X22135Y16206
X23572Y15518
X9260Y13393
X21385Y10768
X22885Y9268
X19885Y14206
X32760Y9518
X32760Y12518
X32760Y15518
X32760Y18518
X32760Y21518
X16010Y9206
X14010Y16581
X23822Y16393
X22947Y19893
X17010Y18331
X18197Y19268
X23510Y16018
X21260Y19143
X8135Y16518
X8135Y12206
X8135Y14018
X22947Y14456
X21572Y14456
X16760Y23518
X12385Y15018
X14072Y15518
X11885Y15518
X14010Y15956
X18510Y20518
X19572Y14768
X21510Y15597
X21385Y17018
X15635Y20893
X21635Y16643
X15760Y17831
X13947Y20331
X14010Y20893
X22572Y15768
X17947Y12518
X11760Y13518
X9072Y16206
X21322Y15956
X20322Y15956
X15885Y12893
X24385Y13143
X21635Y17331
X16760Y20268
X15697Y20268
X6322Y19643
X11510Y15893
X22010Y17643
X11885Y9518
X18510Y13268
X22510Y17643
T02
X17322Y15643
X16760Y15643
X16760Y15081
X17322Y15081
X17322Y14518
X16760Y14518
X15760Y15081
X15760Y15643
X15760Y17331
X15760Y16768
X16760Y16768
X16760Y17331
X17322Y17331
X17322Y16768
T03
X21150Y10143
X23119Y10143
X28010Y13003
X28010Y11034
T04
X19260Y20018
X20260Y20018
X21260Y20018
X19260Y21018
X20260Y21018
X21260Y21018
X4010Y16018
X4010Y15018
X4010Y18018
X4010Y17018
X12260Y19268
X13260Y19268
X10260Y19268
X11260Y19268
X4010Y19018
X9260Y19268
X4010Y21018
X25135Y8643
X26885Y8643
X28385Y21268
X28385Y20268
X28385Y19268
X28385Y18268
X15259Y19258
X16243Y19258
X14275Y19258
X19613Y6584
X19613Y13435
X4102Y13435
X4102Y6584
X30510Y11268
X30510Y12268
X30510Y13268
X30510Y15268
X30510Y16268
X30510Y18268
X30510Y19268
X30510Y20268
X30510Y21268
X22260Y22018
X21260Y22018
X20260Y22018
X19260Y22018
X18260Y22018
X17260Y22018
X16260Y22018
X15260Y22018
X14260Y22018
X13260Y22018
X12260Y22018
X11260Y22018
X10260Y22018
X9260Y22018
X30510Y23518
X30510Y24518
X4010Y22018
X4010Y20018
X7260Y23518
X8260Y23518
X9260Y23518
X10260Y23518
X11260Y23518
X12260Y23518
X7260Y24518
X8260Y24518
X9260Y24518
X10260Y24518
X11260Y24518
X12260Y24518
X13260Y23518
X13260Y24518
X14260Y23518
X15260Y23518
X16260Y23518
X17260Y23518
X18260Y23518
X19260Y23518
X14260Y24518
X15260Y24518
X16260Y24518
X17260Y24518
X18260Y24518
X19260Y24518
X20260Y23518
X20260Y24518
X21260Y23518
X22260Y23518
X23260Y23518
X24260Y23518
X25260Y23518
X26260Y23518
X21260Y24518
X22260Y24518
X23260Y24518
X24260Y24518
X25260Y24518
X26260Y24518
X28760Y6518
X28760Y7518
X28760Y8518
X28760Y9518
X26010Y21268
X26010Y20268
X26010Y19268
X26010Y18268
X24635Y15143
X26385Y15143
X20885Y12643
X21885Y12643
X22885Y12643
X20885Y13643
X21885Y13643
X22885Y13643
T05
X21260Y6518
X23010Y6518
T06
X28177Y24018
X5342Y24018
M30
