G75*
%MOIN*%
%OFA0B0*%
%FSLAX25Y25*%
%IPPOS*%
%LPD*%
%AMOC8*
5,1,8,0,0,1.08239X$1,22.5*
%
%ADD10C,0.01000*%
%ADD11C,0.06000*%
%ADD12OC8,0.06000*%
%ADD13C,0.06000*%
%ADD14OC8,0.09000*%
%ADD15R,0.15500X0.15500*%
%ADD16C,0.10000*%
%ADD17C,0.07000*%
%ADD18C,0.05600*%
%ADD19C,0.23000*%
%ADD20C,0.05000*%
%ADD21C,0.05600*%
%ADD22C,0.02775*%
%ADD23C,0.02400*%
%ADD24C,0.01600*%
%ADD25C,0.04724*%
D10*
X0037595Y0057683D02*
X0032595Y0062683D01*
X0032595Y0247683D01*
X0037595Y0252683D01*
X0330095Y0252683D01*
X0335095Y0247683D01*
X0335095Y0062683D01*
X0330095Y0057683D01*
X0037595Y0057683D01*
X0038424Y0059683D02*
X0034595Y0063512D01*
X0034595Y0146885D01*
X0034773Y0146707D01*
X0036280Y0146083D01*
X0043911Y0146083D01*
X0045418Y0146707D01*
X0046571Y0147861D01*
X0047195Y0149368D01*
X0047195Y0150999D01*
X0046571Y0152506D01*
X0045418Y0153659D01*
X0043911Y0154283D01*
X0036280Y0154283D01*
X0034773Y0153659D01*
X0034595Y0153481D01*
X0034595Y0156885D01*
X0034773Y0156707D01*
X0036280Y0156083D01*
X0043911Y0156083D01*
X0045418Y0156707D01*
X0046571Y0157861D01*
X0047195Y0159368D01*
X0047195Y0160999D01*
X0046571Y0162506D01*
X0045418Y0163659D01*
X0043911Y0164283D01*
X0036280Y0164283D01*
X0034773Y0163659D01*
X0034595Y0163481D01*
X0034595Y0166885D01*
X0034773Y0166707D01*
X0036280Y0166083D01*
X0043911Y0166083D01*
X0045418Y0166707D01*
X0046571Y0167861D01*
X0046746Y0168283D01*
X0090230Y0168283D01*
X0091011Y0167502D01*
X0134155Y0124358D01*
X0092917Y0124358D01*
X0092465Y0124545D01*
X0091475Y0124545D01*
X0091023Y0124358D01*
X0091017Y0124358D01*
X0091014Y0124354D01*
X0090561Y0124167D01*
X0089861Y0123467D01*
X0089674Y0123015D01*
X0089670Y0123011D01*
X0089670Y0123005D01*
X0089483Y0122553D01*
X0089483Y0121563D01*
X0089670Y0121111D01*
X0089670Y0121105D01*
X0089674Y0121102D01*
X0089861Y0120649D01*
X0090561Y0119949D01*
X0091014Y0119762D01*
X0091017Y0119758D01*
X0091023Y0119758D01*
X0091475Y0119571D01*
X0092465Y0119571D01*
X0092917Y0119758D01*
X0138755Y0119758D01*
X0139761Y0118752D01*
X0149136Y0109377D01*
X0150569Y0108783D01*
X0218480Y0108783D01*
X0227770Y0099493D01*
X0227881Y0099224D01*
X0228978Y0098127D01*
X0230412Y0097533D01*
X0231963Y0097533D01*
X0233397Y0098127D01*
X0234494Y0099224D01*
X0235088Y0100657D01*
X0235088Y0102366D01*
X0234494Y0103800D01*
X0223401Y0114892D01*
X0222304Y0115989D01*
X0220871Y0116583D01*
X0152961Y0116583D01*
X0145276Y0124267D01*
X0096526Y0173017D01*
X0096495Y0173049D01*
X0096495Y0186096D01*
X0117570Y0165021D01*
X0118683Y0163908D01*
X0133633Y0163908D01*
X0133195Y0163470D01*
X0130558Y0160833D01*
X0116713Y0160833D01*
X0116504Y0161042D01*
X0115590Y0161420D01*
X0114600Y0161420D01*
X0113686Y0161042D01*
X0112986Y0160342D01*
X0112608Y0159428D01*
X0112608Y0158438D01*
X0112986Y0157524D01*
X0113686Y0156824D01*
X0114600Y0156446D01*
X0115590Y0156446D01*
X0116504Y0156824D01*
X0116713Y0157033D01*
X0117177Y0157033D01*
X0116736Y0156592D01*
X0116358Y0155678D01*
X0116358Y0154688D01*
X0116736Y0153774D01*
X0117436Y0153074D01*
X0118350Y0152696D01*
X0119340Y0152696D01*
X0120254Y0153074D01*
X0120463Y0153283D01*
X0136133Y0153283D01*
X0134933Y0152083D01*
X0125463Y0152083D01*
X0125254Y0152292D01*
X0124340Y0152670D01*
X0123350Y0152670D01*
X0122436Y0152292D01*
X0121736Y0151592D01*
X0121358Y0150678D01*
X0121358Y0149688D01*
X0121736Y0148774D01*
X0122436Y0148074D01*
X0123350Y0147696D01*
X0124340Y0147696D01*
X0125254Y0148074D01*
X0125463Y0148283D01*
X0136507Y0148283D01*
X0140920Y0152696D01*
X0141215Y0152696D01*
X0142129Y0153074D01*
X0142829Y0153774D01*
X0143208Y0154688D01*
X0143208Y0155678D01*
X0142829Y0156592D01*
X0142129Y0157292D01*
X0141576Y0157521D01*
X0142204Y0158149D01*
X0142583Y0159063D01*
X0142583Y0160053D01*
X0142280Y0160783D01*
X0201035Y0160783D01*
X0200733Y0160053D01*
X0200733Y0159758D01*
X0171808Y0130833D01*
X0160463Y0130833D01*
X0160254Y0131042D01*
X0159340Y0131420D01*
X0158350Y0131420D01*
X0157436Y0131042D01*
X0156736Y0130342D01*
X0156358Y0129428D01*
X0156358Y0128438D01*
X0156736Y0127524D01*
X0157436Y0126824D01*
X0158350Y0126446D01*
X0159340Y0126446D01*
X0160254Y0126824D01*
X0160463Y0127033D01*
X0173382Y0127033D01*
X0193322Y0146973D01*
X0193611Y0146274D01*
X0194311Y0145574D01*
X0195010Y0145285D01*
X0184896Y0135170D01*
X0184600Y0135170D01*
X0183686Y0134792D01*
X0182986Y0134092D01*
X0182608Y0133178D01*
X0182608Y0132188D01*
X0182986Y0131274D01*
X0183686Y0130574D01*
X0184600Y0130196D01*
X0185590Y0130196D01*
X0186504Y0130574D01*
X0187204Y0131274D01*
X0187583Y0132188D01*
X0187583Y0132483D01*
X0190034Y0134934D01*
X0190034Y0133133D01*
X0190962Y0130891D01*
X0192678Y0129175D01*
X0194920Y0128246D01*
X0197347Y0128246D01*
X0198413Y0128688D01*
X0196808Y0127083D01*
X0181088Y0127083D01*
X0180879Y0127292D01*
X0179965Y0127670D01*
X0178975Y0127670D01*
X0178061Y0127292D01*
X0177361Y0126592D01*
X0176983Y0125678D01*
X0176983Y0124688D01*
X0177361Y0123774D01*
X0178061Y0123074D01*
X0178975Y0122696D01*
X0179965Y0122696D01*
X0180879Y0123074D01*
X0181088Y0123283D01*
X0198382Y0123283D01*
X0199495Y0124396D01*
X0204495Y0129396D01*
X0204495Y0145646D01*
X0207132Y0148283D01*
X0219007Y0148283D01*
X0220120Y0149396D01*
X0225920Y0155196D01*
X0226215Y0155196D01*
X0227129Y0155574D01*
X0227829Y0156274D01*
X0228208Y0157188D01*
X0228208Y0158178D01*
X0227829Y0159092D01*
X0227129Y0159792D01*
X0226430Y0160081D01*
X0226995Y0160646D01*
X0226995Y0174815D01*
X0227204Y0175024D01*
X0227583Y0175938D01*
X0227583Y0176928D01*
X0227204Y0177842D01*
X0226504Y0178542D01*
X0225590Y0178920D01*
X0224600Y0178920D01*
X0223686Y0178542D01*
X0222986Y0177842D01*
X0222608Y0176928D01*
X0222608Y0175938D01*
X0222986Y0175024D01*
X0223195Y0174815D01*
X0223195Y0162220D01*
X0217541Y0156566D01*
X0217204Y0157379D01*
X0216504Y0158079D01*
X0215590Y0158458D01*
X0215457Y0158458D01*
X0215708Y0159063D01*
X0215708Y0160053D01*
X0215405Y0160783D01*
X0217757Y0160783D01*
X0220882Y0163908D01*
X0221995Y0165021D01*
X0221995Y0174815D01*
X0222204Y0175024D01*
X0222583Y0175938D01*
X0222583Y0176928D01*
X0222204Y0177842D01*
X0221504Y0178542D01*
X0220590Y0178920D01*
X0219600Y0178920D01*
X0218686Y0178542D01*
X0217986Y0177842D01*
X0217608Y0176928D01*
X0217608Y0175938D01*
X0217873Y0175298D01*
X0217754Y0175417D01*
X0216840Y0175795D01*
X0215850Y0175795D01*
X0214936Y0175417D01*
X0214727Y0175208D01*
X0197757Y0175208D01*
X0192182Y0180783D01*
X0225558Y0180783D01*
X0233195Y0173146D01*
X0233195Y0161801D01*
X0232986Y0161592D01*
X0232608Y0160678D01*
X0232608Y0159688D01*
X0232986Y0158774D01*
X0233686Y0158074D01*
X0234600Y0157696D01*
X0235590Y0157696D01*
X0236504Y0158074D01*
X0237204Y0158774D01*
X0237495Y0159477D01*
X0237495Y0143227D01*
X0238140Y0142583D01*
X0254551Y0142583D01*
X0255127Y0143160D01*
X0255215Y0143008D01*
X0255420Y0142803D01*
X0255671Y0142658D01*
X0255950Y0142583D01*
X0263345Y0142583D01*
X0263345Y0150933D01*
X0264345Y0150933D01*
X0264345Y0142583D01*
X0271740Y0142583D01*
X0272020Y0142658D01*
X0272271Y0142803D01*
X0272475Y0143008D01*
X0272620Y0143258D01*
X0272695Y0143538D01*
X0272695Y0150933D01*
X0264345Y0150933D01*
X0264345Y0151933D01*
X0263345Y0151933D01*
X0263345Y0160283D01*
X0255950Y0160283D01*
X0255671Y0160208D01*
X0255420Y0160063D01*
X0255215Y0159858D01*
X0255127Y0159707D01*
X0254551Y0160283D01*
X0253995Y0160283D01*
X0253995Y0179985D01*
X0254773Y0179207D01*
X0256280Y0178583D01*
X0263911Y0178583D01*
X0265418Y0179207D01*
X0266571Y0180361D01*
X0267195Y0181868D01*
X0267195Y0183499D01*
X0266571Y0185006D01*
X0265418Y0186159D01*
X0263911Y0186783D01*
X0256280Y0186783D01*
X0254773Y0186159D01*
X0253995Y0185381D01*
X0253995Y0189985D01*
X0254773Y0189207D01*
X0256280Y0188583D01*
X0263911Y0188583D01*
X0265418Y0189207D01*
X0266571Y0190361D01*
X0267195Y0191868D01*
X0267195Y0193499D01*
X0266571Y0195006D01*
X0265418Y0196159D01*
X0263911Y0196783D01*
X0257211Y0196783D01*
X0259011Y0198583D01*
X0263911Y0198583D01*
X0265118Y0199083D01*
X0278823Y0199083D01*
X0280030Y0198583D01*
X0287661Y0198583D01*
X0289168Y0199207D01*
X0290321Y0200361D01*
X0290945Y0201868D01*
X0290945Y0203499D01*
X0290321Y0205006D01*
X0289168Y0206159D01*
X0287661Y0206783D01*
X0280030Y0206783D01*
X0278823Y0206283D01*
X0265118Y0206283D01*
X0263911Y0206783D01*
X0256280Y0206783D01*
X0254773Y0206159D01*
X0253619Y0205006D01*
X0253066Y0203669D01*
X0247886Y0198489D01*
X0246789Y0197392D01*
X0246195Y0195959D01*
X0246195Y0160283D01*
X0238140Y0160283D01*
X0237583Y0159726D01*
X0237583Y0160678D01*
X0237204Y0161592D01*
X0237085Y0161711D01*
X0237725Y0161446D01*
X0238715Y0161446D01*
X0239629Y0161824D01*
X0240329Y0162524D01*
X0240708Y0163438D01*
X0240708Y0164428D01*
X0240329Y0165342D01*
X0240120Y0165551D01*
X0240120Y0190970D01*
X0231958Y0199133D01*
X0231958Y0199428D01*
X0231579Y0200342D01*
X0230879Y0201042D01*
X0229965Y0201420D01*
X0228975Y0201420D01*
X0228061Y0201042D01*
X0227361Y0200342D01*
X0226983Y0199428D01*
X0226983Y0198438D01*
X0227361Y0197524D01*
X0228061Y0196824D01*
X0228975Y0196446D01*
X0229271Y0196446D01*
X0236320Y0189396D01*
X0236320Y0175395D01*
X0235882Y0175833D01*
X0227132Y0184583D01*
X0192757Y0184583D01*
X0184458Y0192883D01*
X0184458Y0193178D01*
X0184079Y0194092D01*
X0183379Y0194792D01*
X0182465Y0195170D01*
X0181475Y0195170D01*
X0180561Y0194792D01*
X0179861Y0194092D01*
X0179572Y0193393D01*
X0170083Y0202883D01*
X0170083Y0203178D01*
X0169704Y0204092D01*
X0169004Y0204792D01*
X0168090Y0205170D01*
X0167100Y0205170D01*
X0166186Y0204792D01*
X0165486Y0204092D01*
X0165108Y0203178D01*
X0165108Y0202857D01*
X0158833Y0209133D01*
X0158833Y0209428D01*
X0158454Y0210342D01*
X0158013Y0210783D01*
X0168382Y0210783D01*
X0171004Y0213405D01*
X0171780Y0213083D01*
X0173411Y0213083D01*
X0174918Y0213707D01*
X0176071Y0214861D01*
X0176695Y0216368D01*
X0176695Y0223396D01*
X0178495Y0221596D01*
X0178495Y0216368D01*
X0179119Y0214861D01*
X0180273Y0213707D01*
X0181780Y0213083D01*
X0183411Y0213083D01*
X0184918Y0213707D01*
X0185695Y0214485D01*
X0185695Y0208470D01*
X0184896Y0207670D01*
X0184600Y0207670D01*
X0183686Y0207292D01*
X0182986Y0206592D01*
X0182608Y0205678D01*
X0182608Y0204688D01*
X0182986Y0203774D01*
X0183686Y0203074D01*
X0184600Y0202696D01*
X0185590Y0202696D01*
X0186504Y0203074D01*
X0187204Y0203774D01*
X0187583Y0204688D01*
X0187583Y0204983D01*
X0189495Y0206896D01*
X0189495Y0207485D01*
X0190897Y0206083D01*
X0194008Y0206083D01*
X0195695Y0204396D01*
X0196808Y0203283D01*
X0199897Y0203283D01*
X0198495Y0201881D01*
X0198495Y0198485D01*
X0200897Y0196083D01*
X0204293Y0196083D01*
X0205695Y0197485D01*
X0205695Y0196896D01*
X0210270Y0192321D01*
X0210108Y0191928D01*
X0210108Y0190938D01*
X0210486Y0190024D01*
X0211186Y0189324D01*
X0212100Y0188946D01*
X0213090Y0188946D01*
X0214004Y0189324D01*
X0214704Y0190024D01*
X0215083Y0190938D01*
X0215083Y0191928D01*
X0214704Y0192842D01*
X0214495Y0193051D01*
X0214495Y0193470D01*
X0213382Y0194583D01*
X0211882Y0196083D01*
X0214293Y0196083D01*
X0216695Y0198485D01*
X0216695Y0201881D01*
X0214293Y0204283D01*
X0210897Y0204283D01*
X0209495Y0202881D01*
X0209495Y0203470D01*
X0208382Y0204583D01*
X0205882Y0207083D01*
X0205293Y0207083D01*
X0206695Y0208485D01*
X0206695Y0211881D01*
X0204883Y0213693D01*
X0204918Y0213707D01*
X0206071Y0214861D01*
X0206695Y0216368D01*
X0206695Y0223999D01*
X0206071Y0225506D01*
X0204918Y0226659D01*
X0203411Y0227283D01*
X0201780Y0227283D01*
X0200273Y0226659D01*
X0199119Y0225506D01*
X0198495Y0223999D01*
X0198495Y0216368D01*
X0199119Y0214861D01*
X0200273Y0213707D01*
X0200307Y0213693D01*
X0198495Y0211881D01*
X0198495Y0208485D01*
X0199897Y0207083D01*
X0198382Y0207083D01*
X0196695Y0208770D01*
X0196695Y0211881D01*
X0194883Y0213693D01*
X0194918Y0213707D01*
X0196071Y0214861D01*
X0196695Y0216368D01*
X0196695Y0223999D01*
X0196071Y0225506D01*
X0194918Y0226659D01*
X0193411Y0227283D01*
X0192382Y0227283D01*
X0193382Y0228283D01*
X0205882Y0228283D01*
X0206995Y0229396D01*
X0209495Y0231896D01*
X0209495Y0232485D01*
X0210897Y0231083D01*
X0214293Y0231083D01*
X0216695Y0233485D01*
X0216695Y0236881D01*
X0214293Y0239283D01*
X0210897Y0239283D01*
X0209495Y0237881D01*
X0209495Y0242485D01*
X0210897Y0241083D01*
X0212095Y0241083D01*
X0212095Y0244683D01*
X0213095Y0244683D01*
X0213095Y0241083D01*
X0214293Y0241083D01*
X0216695Y0243485D01*
X0216695Y0244683D01*
X0213095Y0244683D01*
X0213095Y0245683D01*
X0212095Y0245683D01*
X0212095Y0249283D01*
X0210897Y0249283D01*
X0209495Y0247881D01*
X0209495Y0248470D01*
X0208382Y0249583D01*
X0207282Y0250683D01*
X0274755Y0250683D01*
X0274032Y0250266D01*
X0271686Y0247920D01*
X0270027Y0245046D01*
X0269168Y0241842D01*
X0269168Y0238524D01*
X0270027Y0235320D01*
X0271686Y0232446D01*
X0274032Y0230101D01*
X0276905Y0228442D01*
X0280110Y0227583D01*
X0283427Y0227583D01*
X0286632Y0228442D01*
X0289505Y0230101D01*
X0291851Y0232446D01*
X0293510Y0235320D01*
X0294368Y0238524D01*
X0294368Y0241842D01*
X0293510Y0245046D01*
X0291851Y0247920D01*
X0289505Y0250266D01*
X0288782Y0250683D01*
X0329267Y0250683D01*
X0333095Y0246855D01*
X0333095Y0063512D01*
X0329267Y0059683D01*
X0232515Y0059683D01*
X0235695Y0062863D01*
X0235695Y0067503D01*
X0232415Y0070783D01*
X0227776Y0070783D01*
X0224495Y0067503D01*
X0224495Y0062863D01*
X0227676Y0059683D01*
X0215015Y0059683D01*
X0218195Y0062863D01*
X0218195Y0067503D01*
X0214915Y0070783D01*
X0210276Y0070783D01*
X0206995Y0067503D01*
X0206995Y0062863D01*
X0210176Y0059683D01*
X0038424Y0059683D01*
X0038674Y0060189D02*
X0039587Y0059893D01*
X0040515Y0059746D01*
X0040515Y0065342D01*
X0041515Y0065342D01*
X0041515Y0059746D01*
X0042444Y0059893D01*
X0043357Y0060189D01*
X0044213Y0060625D01*
X0044989Y0061190D01*
X0045668Y0061869D01*
X0046233Y0062645D01*
X0046669Y0063501D01*
X0046965Y0064414D01*
X0047112Y0065343D01*
X0041515Y0065343D01*
X0041515Y0066343D01*
X0040515Y0066343D01*
X0040515Y0071939D01*
X0039587Y0071792D01*
X0038674Y0071496D01*
X0037818Y0071060D01*
X0037042Y0070495D01*
X0036363Y0069816D01*
X0035798Y0069040D01*
X0035362Y0068184D01*
X0035066Y0067271D01*
X0034919Y0066343D01*
X0040515Y0066343D01*
X0040515Y0065343D01*
X0034919Y0065343D01*
X0035066Y0064414D01*
X0035362Y0063501D01*
X0035798Y0062645D01*
X0036363Y0061869D01*
X0037042Y0061190D01*
X0037818Y0060625D01*
X0038674Y0060189D01*
X0037745Y0060679D02*
X0037428Y0060679D01*
X0036554Y0061677D02*
X0036430Y0061677D01*
X0035783Y0062676D02*
X0035431Y0062676D01*
X0035306Y0063674D02*
X0034595Y0063674D01*
X0034595Y0064673D02*
X0035025Y0064673D01*
X0034595Y0065671D02*
X0040515Y0065671D01*
X0040515Y0064673D02*
X0041515Y0064673D01*
X0041515Y0065671D02*
X0195633Y0065671D01*
X0195633Y0065343D02*
X0195633Y0066343D01*
X0190037Y0066343D01*
X0190184Y0067271D01*
X0190480Y0068184D01*
X0190916Y0069040D01*
X0191481Y0069816D01*
X0192160Y0070495D01*
X0192936Y0071060D01*
X0193792Y0071496D01*
X0194705Y0071792D01*
X0195634Y0071939D01*
X0195634Y0066343D01*
X0196634Y0066343D01*
X0202230Y0066343D01*
X0202083Y0067271D01*
X0201787Y0068184D01*
X0201351Y0069040D01*
X0200786Y0069816D01*
X0200107Y0070495D01*
X0199331Y0071060D01*
X0198475Y0071496D01*
X0197562Y0071792D01*
X0196634Y0071939D01*
X0196634Y0066343D01*
X0196634Y0065343D01*
X0202230Y0065343D01*
X0202083Y0064414D01*
X0201787Y0063501D01*
X0201351Y0062645D01*
X0200786Y0061869D01*
X0200107Y0061190D01*
X0199331Y0060625D01*
X0198475Y0060189D01*
X0197562Y0059893D01*
X0196634Y0059746D01*
X0196634Y0065342D01*
X0195634Y0065342D01*
X0195634Y0059746D01*
X0194705Y0059893D01*
X0193792Y0060189D01*
X0192936Y0060625D01*
X0192160Y0061190D01*
X0191481Y0061869D01*
X0190916Y0062645D01*
X0190480Y0063501D01*
X0190184Y0064414D01*
X0190037Y0065343D01*
X0195633Y0065343D01*
X0195634Y0064673D02*
X0196634Y0064673D01*
X0196634Y0065671D02*
X0206995Y0065671D01*
X0206995Y0064673D02*
X0202124Y0064673D01*
X0201843Y0063674D02*
X0206995Y0063674D01*
X0207183Y0062676D02*
X0201366Y0062676D01*
X0200595Y0061677D02*
X0208182Y0061677D01*
X0209180Y0060679D02*
X0199404Y0060679D01*
X0196634Y0060679D02*
X0195634Y0060679D01*
X0195634Y0061677D02*
X0196634Y0061677D01*
X0196634Y0062676D02*
X0195634Y0062676D01*
X0195634Y0063674D02*
X0196634Y0063674D01*
X0196634Y0066670D02*
X0195634Y0066670D01*
X0195634Y0067668D02*
X0196634Y0067668D01*
X0196634Y0068667D02*
X0195634Y0068667D01*
X0195634Y0069665D02*
X0196634Y0069665D01*
X0196634Y0070664D02*
X0195634Y0070664D01*
X0195634Y0071662D02*
X0196634Y0071662D01*
X0197962Y0071662D02*
X0237179Y0071662D01*
X0238177Y0070664D02*
X0232534Y0070664D01*
X0233533Y0069665D02*
X0239176Y0069665D01*
X0240175Y0068667D02*
X0234531Y0068667D01*
X0235530Y0067668D02*
X0241173Y0067668D01*
X0242172Y0066670D02*
X0235695Y0066670D01*
X0235695Y0065671D02*
X0243170Y0065671D01*
X0244169Y0064673D02*
X0235695Y0064673D01*
X0235695Y0063674D02*
X0245167Y0063674D01*
X0245558Y0063283D02*
X0280944Y0063283D01*
X0281119Y0062861D01*
X0282273Y0061707D01*
X0283780Y0061083D01*
X0291411Y0061083D01*
X0292918Y0061707D01*
X0294071Y0062861D01*
X0294695Y0064368D01*
X0294695Y0065999D01*
X0294071Y0067506D01*
X0292918Y0068659D01*
X0291411Y0069283D01*
X0283780Y0069283D01*
X0282273Y0068659D01*
X0281119Y0067506D01*
X0280944Y0067083D01*
X0247132Y0067083D01*
X0243432Y0070783D01*
X0283382Y0070783D01*
X0283711Y0071112D01*
X0283780Y0071083D01*
X0291411Y0071083D01*
X0292918Y0071707D01*
X0294071Y0072861D01*
X0294695Y0074368D01*
X0294695Y0075999D01*
X0294071Y0077506D01*
X0292918Y0078659D01*
X0291411Y0079283D01*
X0283780Y0079283D01*
X0282273Y0078659D01*
X0281119Y0077506D01*
X0280495Y0075999D01*
X0280495Y0074583D01*
X0243382Y0074583D01*
X0221995Y0095970D01*
X0220882Y0097083D01*
X0120463Y0097083D01*
X0120254Y0097292D01*
X0119340Y0097670D01*
X0118350Y0097670D01*
X0117436Y0097292D01*
X0116736Y0096592D01*
X0116358Y0095678D01*
X0116358Y0094688D01*
X0116736Y0093774D01*
X0117436Y0093074D01*
X0118350Y0092696D01*
X0119340Y0092696D01*
X0120254Y0093074D01*
X0120463Y0093283D01*
X0157910Y0093283D01*
X0157608Y0092553D01*
X0157608Y0091563D01*
X0157986Y0090649D01*
X0158686Y0089949D01*
X0159600Y0089571D01*
X0160590Y0089571D01*
X0161504Y0089949D01*
X0161713Y0090158D01*
X0218683Y0090158D01*
X0244445Y0064396D01*
X0245558Y0063283D01*
X0246547Y0067668D02*
X0281282Y0067668D01*
X0282292Y0068667D02*
X0245549Y0068667D01*
X0244550Y0069665D02*
X0333095Y0069665D01*
X0333095Y0068667D02*
X0292899Y0068667D01*
X0293908Y0067668D02*
X0333095Y0067668D01*
X0333095Y0066670D02*
X0294417Y0066670D01*
X0294695Y0065671D02*
X0333095Y0065671D01*
X0333095Y0064673D02*
X0294695Y0064673D01*
X0294408Y0063674D02*
X0333095Y0063674D01*
X0332259Y0062676D02*
X0293886Y0062676D01*
X0292845Y0061677D02*
X0331261Y0061677D01*
X0330262Y0060679D02*
X0233510Y0060679D01*
X0234509Y0061677D02*
X0282345Y0061677D01*
X0281304Y0062676D02*
X0235507Y0062676D01*
X0226680Y0060679D02*
X0216010Y0060679D01*
X0217009Y0061677D02*
X0225682Y0061677D01*
X0224683Y0062676D02*
X0218007Y0062676D01*
X0218195Y0063674D02*
X0224495Y0063674D01*
X0224495Y0064673D02*
X0218195Y0064673D01*
X0218195Y0065671D02*
X0224495Y0065671D01*
X0224495Y0066670D02*
X0218195Y0066670D01*
X0218030Y0067668D02*
X0224661Y0067668D01*
X0225659Y0068667D02*
X0217031Y0068667D01*
X0216033Y0069665D02*
X0226658Y0069665D01*
X0227656Y0070664D02*
X0215034Y0070664D01*
X0210156Y0070664D02*
X0199876Y0070664D01*
X0200896Y0069665D02*
X0209158Y0069665D01*
X0208159Y0068667D02*
X0201541Y0068667D01*
X0201954Y0067668D02*
X0207161Y0067668D01*
X0206995Y0066670D02*
X0202179Y0066670D01*
X0194305Y0071662D02*
X0042844Y0071662D01*
X0042444Y0071792D02*
X0041515Y0071939D01*
X0041515Y0066343D01*
X0047112Y0066343D01*
X0046965Y0067271D01*
X0046669Y0068184D01*
X0046233Y0069040D01*
X0045668Y0069816D01*
X0044989Y0070495D01*
X0044213Y0071060D01*
X0043357Y0071496D01*
X0042444Y0071792D01*
X0041515Y0071662D02*
X0040515Y0071662D01*
X0040515Y0070664D02*
X0041515Y0070664D01*
X0041515Y0069665D02*
X0040515Y0069665D01*
X0040515Y0068667D02*
X0041515Y0068667D01*
X0041515Y0067668D02*
X0040515Y0067668D01*
X0040515Y0066670D02*
X0041515Y0066670D01*
X0041515Y0063674D02*
X0040515Y0063674D01*
X0040515Y0062676D02*
X0041515Y0062676D01*
X0041515Y0061677D02*
X0040515Y0061677D01*
X0040515Y0060679D02*
X0041515Y0060679D01*
X0044286Y0060679D02*
X0192863Y0060679D01*
X0191672Y0061677D02*
X0045477Y0061677D01*
X0046248Y0062676D02*
X0190901Y0062676D01*
X0190424Y0063674D02*
X0046725Y0063674D01*
X0047006Y0064673D02*
X0190143Y0064673D01*
X0190089Y0066670D02*
X0047060Y0066670D01*
X0046836Y0067668D02*
X0190313Y0067668D01*
X0190726Y0068667D02*
X0046423Y0068667D01*
X0045778Y0069665D02*
X0191371Y0069665D01*
X0192391Y0070664D02*
X0044758Y0070664D01*
X0039187Y0071662D02*
X0034595Y0071662D01*
X0034595Y0070664D02*
X0037273Y0070664D01*
X0036253Y0069665D02*
X0034595Y0069665D01*
X0034595Y0068667D02*
X0035608Y0068667D01*
X0035195Y0067668D02*
X0034595Y0067668D01*
X0034595Y0066670D02*
X0034970Y0066670D01*
X0034595Y0072661D02*
X0236180Y0072661D01*
X0235182Y0073659D02*
X0034595Y0073659D01*
X0034595Y0074658D02*
X0234183Y0074658D01*
X0233185Y0075656D02*
X0034595Y0075656D01*
X0034595Y0076655D02*
X0232186Y0076655D01*
X0231188Y0077653D02*
X0034595Y0077653D01*
X0034595Y0078652D02*
X0230189Y0078652D01*
X0229191Y0079650D02*
X0034595Y0079650D01*
X0034595Y0080649D02*
X0228192Y0080649D01*
X0227194Y0081647D02*
X0034595Y0081647D01*
X0034595Y0082646D02*
X0226195Y0082646D01*
X0225197Y0083644D02*
X0034595Y0083644D01*
X0034595Y0084643D02*
X0224198Y0084643D01*
X0223200Y0085641D02*
X0034595Y0085641D01*
X0034595Y0086640D02*
X0222201Y0086640D01*
X0221203Y0087638D02*
X0034595Y0087638D01*
X0034595Y0088637D02*
X0220204Y0088637D01*
X0219206Y0089635D02*
X0160746Y0089635D01*
X0159444Y0089635D02*
X0034595Y0089635D01*
X0034595Y0090634D02*
X0158002Y0090634D01*
X0157608Y0091632D02*
X0034595Y0091632D01*
X0034595Y0092631D02*
X0157640Y0092631D01*
X0148907Y0109606D02*
X0034595Y0109606D01*
X0034595Y0110604D02*
X0147909Y0110604D01*
X0146910Y0111603D02*
X0034595Y0111603D01*
X0034595Y0112601D02*
X0145912Y0112601D01*
X0144913Y0113600D02*
X0034595Y0113600D01*
X0034595Y0114598D02*
X0143915Y0114598D01*
X0142916Y0115597D02*
X0034595Y0115597D01*
X0034595Y0116595D02*
X0141918Y0116595D01*
X0140919Y0117594D02*
X0034595Y0117594D01*
X0034595Y0118592D02*
X0139921Y0118592D01*
X0138922Y0119591D02*
X0092513Y0119591D01*
X0091427Y0119591D02*
X0081888Y0119591D01*
X0081840Y0119571D02*
X0082292Y0119758D01*
X0082298Y0119758D01*
X0082302Y0119762D01*
X0082754Y0119949D01*
X0083454Y0120649D01*
X0083641Y0121102D01*
X0083645Y0121105D01*
X0083645Y0121111D01*
X0083833Y0121563D01*
X0083833Y0122553D01*
X0083645Y0123005D01*
X0083645Y0139236D01*
X0083833Y0139688D01*
X0083833Y0140678D01*
X0083645Y0141130D01*
X0083645Y0164236D01*
X0083833Y0164688D01*
X0083833Y0165678D01*
X0083645Y0166130D01*
X0083645Y0166136D01*
X0083641Y0166140D01*
X0083454Y0166592D01*
X0082754Y0167292D01*
X0082302Y0167479D01*
X0082298Y0167483D01*
X0082292Y0167483D01*
X0081840Y0167670D01*
X0080850Y0167670D01*
X0080398Y0167483D01*
X0080392Y0167483D01*
X0080389Y0167479D01*
X0079936Y0167292D01*
X0079236Y0166592D01*
X0079049Y0166140D01*
X0079045Y0166136D01*
X0079045Y0166130D01*
X0078858Y0165678D01*
X0078858Y0164688D01*
X0079045Y0164236D01*
X0079045Y0141130D01*
X0078858Y0140678D01*
X0078858Y0139688D01*
X0079045Y0139236D01*
X0079045Y0123005D01*
X0078858Y0122553D01*
X0078858Y0121563D01*
X0079045Y0121111D01*
X0079045Y0121105D01*
X0079049Y0121102D01*
X0079236Y0120649D01*
X0079936Y0119949D01*
X0080389Y0119762D01*
X0080392Y0119758D01*
X0080398Y0119758D01*
X0080850Y0119571D01*
X0081840Y0119571D01*
X0080802Y0119591D02*
X0034595Y0119591D01*
X0034595Y0120589D02*
X0079296Y0120589D01*
X0078858Y0121588D02*
X0034595Y0121588D01*
X0034595Y0122586D02*
X0078872Y0122586D01*
X0079045Y0123585D02*
X0034595Y0123585D01*
X0034595Y0124583D02*
X0079045Y0124583D01*
X0079045Y0125582D02*
X0034595Y0125582D01*
X0034595Y0126580D02*
X0079045Y0126580D01*
X0079045Y0127579D02*
X0034595Y0127579D01*
X0034595Y0128577D02*
X0039003Y0128577D01*
X0039802Y0128246D02*
X0042229Y0128246D01*
X0044471Y0129175D01*
X0046187Y0130891D01*
X0047115Y0133133D01*
X0047115Y0135560D01*
X0046187Y0137802D01*
X0044471Y0139518D01*
X0042229Y0140446D01*
X0039802Y0140446D01*
X0037560Y0139518D01*
X0035844Y0137802D01*
X0034915Y0135560D01*
X0034915Y0133133D01*
X0035844Y0130891D01*
X0037560Y0129175D01*
X0039802Y0128246D01*
X0037159Y0129576D02*
X0034595Y0129576D01*
X0034595Y0130574D02*
X0036161Y0130574D01*
X0035562Y0131573D02*
X0034595Y0131573D01*
X0034595Y0132571D02*
X0035148Y0132571D01*
X0034915Y0133570D02*
X0034595Y0133570D01*
X0034595Y0134568D02*
X0034915Y0134568D01*
X0034918Y0135567D02*
X0034595Y0135567D01*
X0034595Y0136565D02*
X0035332Y0136565D01*
X0035746Y0137564D02*
X0034595Y0137564D01*
X0034595Y0138563D02*
X0036605Y0138563D01*
X0037664Y0139561D02*
X0034595Y0139561D01*
X0034595Y0140560D02*
X0078858Y0140560D01*
X0078910Y0139561D02*
X0044366Y0139561D01*
X0045426Y0138563D02*
X0079045Y0138563D01*
X0079045Y0137564D02*
X0046285Y0137564D01*
X0046699Y0136565D02*
X0079045Y0136565D01*
X0079045Y0135567D02*
X0047112Y0135567D01*
X0047115Y0134568D02*
X0079045Y0134568D01*
X0079045Y0133570D02*
X0047115Y0133570D01*
X0046883Y0132571D02*
X0079045Y0132571D01*
X0079045Y0131573D02*
X0046469Y0131573D01*
X0045870Y0130574D02*
X0079045Y0130574D01*
X0079045Y0129576D02*
X0044872Y0129576D01*
X0043028Y0128577D02*
X0079045Y0128577D01*
X0083645Y0128577D02*
X0129935Y0128577D01*
X0128937Y0129576D02*
X0083645Y0129576D01*
X0083645Y0130574D02*
X0127938Y0130574D01*
X0126940Y0131573D02*
X0083645Y0131573D01*
X0083645Y0132571D02*
X0125941Y0132571D01*
X0124943Y0133570D02*
X0119500Y0133570D01*
X0119704Y0133774D02*
X0120083Y0134688D01*
X0120083Y0135678D01*
X0119704Y0136592D01*
X0119004Y0137292D01*
X0118090Y0137670D01*
X0117795Y0137670D01*
X0093208Y0162258D01*
X0093208Y0162553D01*
X0092829Y0163467D01*
X0092129Y0164167D01*
X0091215Y0164545D01*
X0090225Y0164545D01*
X0089311Y0164167D01*
X0088611Y0163467D01*
X0088233Y0162553D01*
X0088233Y0161563D01*
X0088611Y0160649D01*
X0089311Y0159949D01*
X0090225Y0159571D01*
X0090521Y0159571D01*
X0115108Y0134983D01*
X0115108Y0134688D01*
X0115486Y0133774D01*
X0116186Y0133074D01*
X0117100Y0132696D01*
X0118090Y0132696D01*
X0119004Y0133074D01*
X0119704Y0133774D01*
X0120033Y0134568D02*
X0123944Y0134568D01*
X0122946Y0135567D02*
X0120083Y0135567D01*
X0119715Y0136565D02*
X0121947Y0136565D01*
X0120949Y0137564D02*
X0118347Y0137564D01*
X0116903Y0138563D02*
X0119950Y0138563D01*
X0118952Y0139561D02*
X0115904Y0139561D01*
X0114906Y0140560D02*
X0117953Y0140560D01*
X0116955Y0141558D02*
X0113907Y0141558D01*
X0112909Y0142557D02*
X0115956Y0142557D01*
X0114958Y0143555D02*
X0111910Y0143555D01*
X0110912Y0144554D02*
X0113959Y0144554D01*
X0112961Y0145552D02*
X0109913Y0145552D01*
X0108915Y0146551D02*
X0111962Y0146551D01*
X0110964Y0147549D02*
X0107916Y0147549D01*
X0106918Y0148548D02*
X0109965Y0148548D01*
X0108967Y0149546D02*
X0105919Y0149546D01*
X0104921Y0150545D02*
X0107968Y0150545D01*
X0106970Y0151543D02*
X0103922Y0151543D01*
X0102924Y0152542D02*
X0105971Y0152542D01*
X0104973Y0153540D02*
X0101925Y0153540D01*
X0100927Y0154539D02*
X0103974Y0154539D01*
X0102976Y0155537D02*
X0099928Y0155537D01*
X0098930Y0156536D02*
X0101977Y0156536D01*
X0100979Y0157534D02*
X0097931Y0157534D01*
X0096932Y0158533D02*
X0099980Y0158533D01*
X0098982Y0159531D02*
X0095934Y0159531D01*
X0094935Y0160530D02*
X0097983Y0160530D01*
X0096985Y0161528D02*
X0093937Y0161528D01*
X0093208Y0162527D02*
X0095986Y0162527D01*
X0094988Y0163525D02*
X0092771Y0163525D01*
X0093989Y0164524D02*
X0091267Y0164524D01*
X0090173Y0164524D02*
X0083764Y0164524D01*
X0083833Y0165522D02*
X0092990Y0165522D01*
X0091992Y0166521D02*
X0083483Y0166521D01*
X0082205Y0167519D02*
X0090993Y0167519D01*
X0088670Y0163525D02*
X0083645Y0163525D01*
X0083645Y0162527D02*
X0088233Y0162527D01*
X0088247Y0161528D02*
X0083645Y0161528D01*
X0083645Y0160530D02*
X0088731Y0160530D01*
X0090560Y0159531D02*
X0083645Y0159531D01*
X0083645Y0158533D02*
X0091559Y0158533D01*
X0092557Y0157534D02*
X0083645Y0157534D01*
X0083645Y0156536D02*
X0093556Y0156536D01*
X0094554Y0155537D02*
X0083645Y0155537D01*
X0083645Y0154539D02*
X0095553Y0154539D01*
X0096551Y0153540D02*
X0083645Y0153540D01*
X0083645Y0152542D02*
X0097550Y0152542D01*
X0098548Y0151543D02*
X0083645Y0151543D01*
X0083645Y0150545D02*
X0099547Y0150545D01*
X0100545Y0149546D02*
X0083645Y0149546D01*
X0083645Y0148548D02*
X0101544Y0148548D01*
X0102542Y0147549D02*
X0083645Y0147549D01*
X0083645Y0146551D02*
X0103541Y0146551D01*
X0104539Y0145552D02*
X0083645Y0145552D01*
X0083645Y0144554D02*
X0105538Y0144554D01*
X0106536Y0143555D02*
X0083645Y0143555D01*
X0083645Y0142557D02*
X0107535Y0142557D01*
X0108533Y0141558D02*
X0083645Y0141558D01*
X0083833Y0140560D02*
X0109532Y0140560D01*
X0110530Y0139561D02*
X0083780Y0139561D01*
X0083645Y0138563D02*
X0111529Y0138563D01*
X0112527Y0137564D02*
X0083645Y0137564D01*
X0083645Y0136565D02*
X0113526Y0136565D01*
X0114524Y0135567D02*
X0083645Y0135567D01*
X0083645Y0134568D02*
X0115157Y0134568D01*
X0115691Y0133570D02*
X0083645Y0133570D01*
X0083645Y0127579D02*
X0130934Y0127579D01*
X0131932Y0126580D02*
X0083645Y0126580D01*
X0083645Y0125582D02*
X0132931Y0125582D01*
X0133929Y0124583D02*
X0083645Y0124583D01*
X0083645Y0123585D02*
X0089979Y0123585D01*
X0089497Y0122586D02*
X0083819Y0122586D01*
X0083833Y0121588D02*
X0089483Y0121588D01*
X0089921Y0120589D02*
X0083394Y0120589D01*
X0079045Y0141558D02*
X0034595Y0141558D01*
X0034595Y0142557D02*
X0079045Y0142557D01*
X0079045Y0143555D02*
X0034595Y0143555D01*
X0034595Y0144554D02*
X0079045Y0144554D01*
X0079045Y0145552D02*
X0034595Y0145552D01*
X0034595Y0146551D02*
X0035151Y0146551D01*
X0034654Y0153540D02*
X0034595Y0153540D01*
X0034595Y0154539D02*
X0079045Y0154539D01*
X0079045Y0155537D02*
X0034595Y0155537D01*
X0034595Y0156536D02*
X0035187Y0156536D01*
X0045003Y0156536D02*
X0079045Y0156536D01*
X0079045Y0157534D02*
X0046245Y0157534D01*
X0046849Y0158533D02*
X0079045Y0158533D01*
X0079045Y0159531D02*
X0047195Y0159531D01*
X0047195Y0160530D02*
X0079045Y0160530D01*
X0079045Y0161528D02*
X0046976Y0161528D01*
X0046550Y0162527D02*
X0079045Y0162527D01*
X0079045Y0163525D02*
X0045551Y0163525D01*
X0044967Y0166521D02*
X0079207Y0166521D01*
X0078858Y0165522D02*
X0034595Y0165522D01*
X0034595Y0164524D02*
X0078926Y0164524D01*
X0080485Y0167519D02*
X0046230Y0167519D01*
X0046746Y0172083D02*
X0046571Y0172506D01*
X0045418Y0173659D01*
X0043911Y0174283D01*
X0036280Y0174283D01*
X0034773Y0173659D01*
X0034595Y0173481D01*
X0034595Y0176885D01*
X0034773Y0176707D01*
X0036280Y0176083D01*
X0043911Y0176083D01*
X0045418Y0176707D01*
X0046571Y0177861D01*
X0047195Y0179368D01*
X0047195Y0180999D01*
X0046571Y0182506D01*
X0045418Y0183659D01*
X0043911Y0184283D01*
X0036280Y0184283D01*
X0034773Y0183659D01*
X0034595Y0183481D01*
X0034595Y0186885D01*
X0034773Y0186707D01*
X0036280Y0186083D01*
X0043911Y0186083D01*
X0045418Y0186707D01*
X0046571Y0187861D01*
X0047195Y0189368D01*
X0047195Y0190999D01*
X0046571Y0192506D01*
X0045418Y0193659D01*
X0043911Y0194283D01*
X0036280Y0194283D01*
X0034773Y0193659D01*
X0034595Y0193481D01*
X0034595Y0196885D01*
X0034773Y0196707D01*
X0036280Y0196083D01*
X0043911Y0196083D01*
X0045418Y0196707D01*
X0046571Y0197861D01*
X0046746Y0198283D01*
X0054308Y0198283D01*
X0060695Y0191896D01*
X0061808Y0190783D01*
X0065882Y0190783D01*
X0073382Y0198283D01*
X0089397Y0198283D01*
X0089119Y0198006D01*
X0088495Y0196499D01*
X0088495Y0188868D01*
X0088695Y0188385D01*
X0088695Y0172083D01*
X0046746Y0172083D01*
X0046565Y0172512D02*
X0088695Y0172512D01*
X0088695Y0173510D02*
X0045566Y0173510D01*
X0044932Y0176506D02*
X0088695Y0176506D01*
X0088695Y0177504D02*
X0046215Y0177504D01*
X0046837Y0178503D02*
X0088695Y0178503D01*
X0088695Y0179501D02*
X0047195Y0179501D01*
X0047195Y0180500D02*
X0088695Y0180500D01*
X0088695Y0181498D02*
X0046988Y0181498D01*
X0046574Y0182497D02*
X0088695Y0182497D01*
X0088695Y0183496D02*
X0045581Y0183496D01*
X0044896Y0186491D02*
X0088695Y0186491D01*
X0088695Y0185493D02*
X0034595Y0185493D01*
X0034595Y0186491D02*
X0035295Y0186491D01*
X0034595Y0184494D02*
X0088695Y0184494D01*
X0088695Y0187490D02*
X0046200Y0187490D01*
X0046831Y0188488D02*
X0088652Y0188488D01*
X0088495Y0189487D02*
X0047195Y0189487D01*
X0047195Y0190485D02*
X0088495Y0190485D01*
X0088495Y0191484D02*
X0066583Y0191484D01*
X0067581Y0192482D02*
X0088495Y0192482D01*
X0088495Y0193481D02*
X0068580Y0193481D01*
X0069578Y0194479D02*
X0088495Y0194479D01*
X0088495Y0195478D02*
X0070577Y0195478D01*
X0071575Y0196476D02*
X0088495Y0196476D01*
X0088899Y0197475D02*
X0072574Y0197475D01*
X0070195Y0200470D02*
X0069944Y0200470D01*
X0070695Y0200970D02*
X0071758Y0202033D01*
X0071507Y0202033D01*
X0065708Y0196233D01*
X0065708Y0195982D01*
X0070695Y0200970D01*
X0070943Y0201469D02*
X0071194Y0201469D01*
X0069197Y0199472D02*
X0068946Y0199472D01*
X0068198Y0198473D02*
X0067947Y0198473D01*
X0067200Y0197475D02*
X0066949Y0197475D01*
X0066201Y0196476D02*
X0065950Y0196476D01*
X0063021Y0198920D02*
X0062725Y0198920D01*
X0061811Y0198542D01*
X0061111Y0197842D01*
X0060822Y0197143D01*
X0055882Y0202083D01*
X0046746Y0202083D01*
X0046571Y0202506D01*
X0045418Y0203659D01*
X0043911Y0204283D01*
X0036280Y0204283D01*
X0034773Y0203659D01*
X0034595Y0203481D01*
X0034595Y0206885D01*
X0034773Y0206707D01*
X0036280Y0206083D01*
X0043911Y0206083D01*
X0045418Y0206707D01*
X0046571Y0207861D01*
X0047195Y0209368D01*
X0047195Y0210999D01*
X0046571Y0212506D01*
X0045418Y0213659D01*
X0043911Y0214283D01*
X0036280Y0214283D01*
X0034773Y0213659D01*
X0034595Y0213481D01*
X0034595Y0216885D01*
X0034773Y0216707D01*
X0036280Y0216083D01*
X0043911Y0216083D01*
X0045418Y0216707D01*
X0046571Y0217861D01*
X0047195Y0219368D01*
X0047195Y0220999D01*
X0046571Y0222506D01*
X0045418Y0223659D01*
X0043911Y0224283D01*
X0036280Y0224283D01*
X0034773Y0223659D01*
X0034595Y0223481D01*
X0034595Y0246855D01*
X0038424Y0250683D01*
X0046408Y0250683D01*
X0045685Y0250266D01*
X0043339Y0247920D01*
X0041681Y0245046D01*
X0040822Y0241842D01*
X0040822Y0238524D01*
X0041681Y0235320D01*
X0043339Y0232446D01*
X0045685Y0230101D01*
X0048559Y0228442D01*
X0051763Y0227583D01*
X0055081Y0227583D01*
X0058285Y0228442D01*
X0061159Y0230101D01*
X0063504Y0232446D01*
X0065163Y0235320D01*
X0066022Y0238524D01*
X0066022Y0241842D01*
X0065163Y0245046D01*
X0063504Y0247920D01*
X0061159Y0250266D01*
X0060435Y0250683D01*
X0124158Y0250683D01*
X0122758Y0249283D01*
X0120897Y0249283D01*
X0118495Y0246881D01*
X0118495Y0243485D01*
X0120897Y0241083D01*
X0124293Y0241083D01*
X0126695Y0243485D01*
X0126695Y0246881D01*
X0126213Y0247364D01*
X0127132Y0248283D01*
X0129897Y0248283D01*
X0128495Y0246881D01*
X0128495Y0245683D01*
X0132095Y0245683D01*
X0132095Y0244683D01*
X0128495Y0244683D01*
X0128495Y0243485D01*
X0129897Y0242083D01*
X0129308Y0242083D01*
X0128195Y0240970D01*
X0125695Y0238470D01*
X0125695Y0237881D01*
X0124293Y0239283D01*
X0120897Y0239283D01*
X0118495Y0236881D01*
X0118495Y0233485D01*
X0120897Y0231083D01*
X0124293Y0231083D01*
X0125695Y0232485D01*
X0125695Y0228470D01*
X0124187Y0226962D01*
X0123411Y0227283D01*
X0121780Y0227283D01*
X0120273Y0226659D01*
X0119119Y0225506D01*
X0118495Y0223999D01*
X0118495Y0216368D01*
X0119119Y0214861D01*
X0119397Y0214583D01*
X0118382Y0214583D01*
X0116667Y0216299D01*
X0116695Y0216368D01*
X0116695Y0223999D01*
X0116071Y0225506D01*
X0114918Y0226659D01*
X0113411Y0227283D01*
X0111780Y0227283D01*
X0110273Y0226659D01*
X0109119Y0225506D01*
X0108495Y0223999D01*
X0108495Y0216368D01*
X0109119Y0214861D01*
X0110273Y0213707D01*
X0111780Y0213083D01*
X0113411Y0213083D01*
X0114187Y0213405D01*
X0115695Y0211896D01*
X0116758Y0210833D01*
X0094632Y0210833D01*
X0092382Y0213083D01*
X0093411Y0213083D01*
X0094918Y0213707D01*
X0096071Y0214861D01*
X0096695Y0216368D01*
X0096695Y0223999D01*
X0096071Y0225506D01*
X0094918Y0226659D01*
X0093411Y0227283D01*
X0091780Y0227283D01*
X0090273Y0226659D01*
X0089119Y0225506D01*
X0088495Y0223999D01*
X0088495Y0216970D01*
X0084495Y0220970D01*
X0084495Y0231285D01*
X0086695Y0233485D01*
X0086695Y0236881D01*
X0085293Y0238283D01*
X0089308Y0238283D01*
X0089603Y0237989D01*
X0088495Y0236881D01*
X0088495Y0233485D01*
X0090897Y0231083D01*
X0094293Y0231083D01*
X0096695Y0233485D01*
X0096695Y0236881D01*
X0094293Y0239283D01*
X0093682Y0239283D01*
X0093382Y0239583D01*
X0091882Y0241083D01*
X0092095Y0241083D01*
X0092095Y0244683D01*
X0088495Y0244683D01*
X0088495Y0243485D01*
X0089897Y0242083D01*
X0085293Y0242083D01*
X0086695Y0243485D01*
X0086695Y0246881D01*
X0084293Y0249283D01*
X0080897Y0249283D01*
X0078495Y0246881D01*
X0078495Y0243485D01*
X0079897Y0242083D01*
X0079308Y0242083D01*
X0078195Y0240970D01*
X0075695Y0238470D01*
X0075695Y0237881D01*
X0074293Y0239283D01*
X0070897Y0239283D01*
X0068495Y0236881D01*
X0068495Y0233485D01*
X0070897Y0231083D01*
X0074293Y0231083D01*
X0075695Y0232485D01*
X0075695Y0220646D01*
X0076808Y0219533D01*
X0090508Y0205833D01*
X0069933Y0205833D01*
X0063021Y0198920D01*
X0063572Y0199472D02*
X0058494Y0199472D01*
X0059492Y0198473D02*
X0061743Y0198473D01*
X0060959Y0197475D02*
X0060491Y0197475D01*
X0058112Y0194479D02*
X0034595Y0194479D01*
X0034595Y0195478D02*
X0057114Y0195478D01*
X0056115Y0196476D02*
X0044860Y0196476D01*
X0046185Y0197475D02*
X0055117Y0197475D01*
X0057495Y0200470D02*
X0064570Y0200470D01*
X0065569Y0201469D02*
X0056497Y0201469D01*
X0046587Y0202467D02*
X0066567Y0202467D01*
X0067566Y0203466D02*
X0045611Y0203466D01*
X0044824Y0206461D02*
X0089880Y0206461D01*
X0088881Y0207460D02*
X0046170Y0207460D01*
X0046819Y0208458D02*
X0087883Y0208458D01*
X0086884Y0209457D02*
X0047195Y0209457D01*
X0047195Y0210455D02*
X0085886Y0210455D01*
X0084887Y0211454D02*
X0047007Y0211454D01*
X0046593Y0212452D02*
X0083889Y0212452D01*
X0082890Y0213451D02*
X0045626Y0213451D01*
X0044788Y0216446D02*
X0079895Y0216446D01*
X0080893Y0215448D02*
X0034595Y0215448D01*
X0034595Y0216446D02*
X0035403Y0216446D01*
X0034595Y0214449D02*
X0081892Y0214449D01*
X0078896Y0217445D02*
X0046155Y0217445D01*
X0046812Y0218443D02*
X0077898Y0218443D01*
X0076899Y0219442D02*
X0047195Y0219442D01*
X0047195Y0220440D02*
X0075901Y0220440D01*
X0075695Y0221439D02*
X0047013Y0221439D01*
X0046599Y0222437D02*
X0075695Y0222437D01*
X0075695Y0223436D02*
X0045641Y0223436D01*
X0034595Y0224434D02*
X0075695Y0224434D01*
X0075695Y0225433D02*
X0034595Y0225433D01*
X0034595Y0226431D02*
X0075695Y0226431D01*
X0075695Y0227430D02*
X0034595Y0227430D01*
X0034595Y0228429D02*
X0048608Y0228429D01*
X0046852Y0229427D02*
X0034595Y0229427D01*
X0034595Y0230426D02*
X0045360Y0230426D01*
X0044362Y0231424D02*
X0034595Y0231424D01*
X0034595Y0232423D02*
X0043363Y0232423D01*
X0042777Y0233421D02*
X0034595Y0233421D01*
X0034595Y0234420D02*
X0042200Y0234420D01*
X0041654Y0235418D02*
X0034595Y0235418D01*
X0034595Y0236417D02*
X0041387Y0236417D01*
X0041119Y0237415D02*
X0034595Y0237415D01*
X0034595Y0238414D02*
X0040852Y0238414D01*
X0040822Y0239412D02*
X0034595Y0239412D01*
X0034595Y0240411D02*
X0040822Y0240411D01*
X0040822Y0241409D02*
X0034595Y0241409D01*
X0034595Y0242408D02*
X0040974Y0242408D01*
X0041241Y0243406D02*
X0034595Y0243406D01*
X0034595Y0244405D02*
X0041509Y0244405D01*
X0041887Y0245403D02*
X0034595Y0245403D01*
X0034595Y0246402D02*
X0042463Y0246402D01*
X0043040Y0247400D02*
X0035141Y0247400D01*
X0036139Y0248399D02*
X0043818Y0248399D01*
X0044817Y0249397D02*
X0037138Y0249397D01*
X0038136Y0250396D02*
X0045911Y0250396D01*
X0060933Y0250396D02*
X0123871Y0250396D01*
X0122872Y0249397D02*
X0062027Y0249397D01*
X0063025Y0248399D02*
X0070013Y0248399D01*
X0070897Y0249283D02*
X0068495Y0246881D01*
X0068495Y0243485D01*
X0070897Y0241083D01*
X0074293Y0241083D01*
X0076695Y0243485D01*
X0076695Y0246881D01*
X0074293Y0249283D01*
X0070897Y0249283D01*
X0069014Y0247400D02*
X0063804Y0247400D01*
X0064381Y0246402D02*
X0068495Y0246402D01*
X0068495Y0245403D02*
X0064957Y0245403D01*
X0065335Y0244405D02*
X0068495Y0244405D01*
X0068574Y0243406D02*
X0065603Y0243406D01*
X0065870Y0242408D02*
X0069572Y0242408D01*
X0070571Y0241409D02*
X0066022Y0241409D01*
X0066022Y0240411D02*
X0077636Y0240411D01*
X0078634Y0241409D02*
X0074620Y0241409D01*
X0075618Y0242408D02*
X0079572Y0242408D01*
X0078574Y0243406D02*
X0076617Y0243406D01*
X0076695Y0244405D02*
X0078495Y0244405D01*
X0078495Y0245403D02*
X0076695Y0245403D01*
X0076695Y0246402D02*
X0078495Y0246402D01*
X0079014Y0247400D02*
X0076176Y0247400D01*
X0075178Y0248399D02*
X0080013Y0248399D01*
X0085178Y0248399D02*
X0090013Y0248399D01*
X0090897Y0249283D02*
X0088495Y0246881D01*
X0088495Y0245683D01*
X0092095Y0245683D01*
X0092095Y0244683D01*
X0093095Y0244683D01*
X0093095Y0241083D01*
X0094293Y0241083D01*
X0096695Y0243485D01*
X0096695Y0244683D01*
X0093095Y0244683D01*
X0093095Y0245683D01*
X0092095Y0245683D01*
X0092095Y0249283D01*
X0090897Y0249283D01*
X0092095Y0248399D02*
X0093095Y0248399D01*
X0093095Y0249283D02*
X0093095Y0245683D01*
X0096695Y0245683D01*
X0096695Y0246881D01*
X0094293Y0249283D01*
X0093095Y0249283D01*
X0093095Y0247400D02*
X0092095Y0247400D01*
X0092095Y0246402D02*
X0093095Y0246402D01*
X0093095Y0245403D02*
X0098495Y0245403D01*
X0098495Y0244405D02*
X0096695Y0244405D01*
X0096617Y0243406D02*
X0098574Y0243406D01*
X0098495Y0243485D02*
X0100897Y0241083D01*
X0104293Y0241083D01*
X0106695Y0243485D01*
X0106695Y0246881D01*
X0104293Y0249283D01*
X0100897Y0249283D01*
X0098495Y0246881D01*
X0098495Y0243485D01*
X0099572Y0242408D02*
X0095618Y0242408D01*
X0094620Y0241409D02*
X0100571Y0241409D01*
X0100897Y0239283D02*
X0098495Y0236881D01*
X0098495Y0233485D01*
X0100897Y0231083D01*
X0104293Y0231083D01*
X0106695Y0233485D01*
X0106695Y0236881D01*
X0104293Y0239283D01*
X0100897Y0239283D01*
X0100027Y0238414D02*
X0095163Y0238414D01*
X0096161Y0237415D02*
X0099029Y0237415D01*
X0098495Y0236417D02*
X0096695Y0236417D01*
X0096695Y0235418D02*
X0098495Y0235418D01*
X0098495Y0234420D02*
X0096695Y0234420D01*
X0096631Y0233421D02*
X0098559Y0233421D01*
X0099557Y0232423D02*
X0095633Y0232423D01*
X0094634Y0231424D02*
X0100556Y0231424D01*
X0104634Y0231424D02*
X0110556Y0231424D01*
X0110897Y0231083D02*
X0108495Y0233485D01*
X0108495Y0234683D01*
X0112095Y0234683D01*
X0112095Y0235683D01*
X0108495Y0235683D01*
X0108495Y0236881D01*
X0110897Y0239283D01*
X0112095Y0239283D01*
X0112095Y0235683D01*
X0113095Y0235683D01*
X0113095Y0239283D01*
X0114293Y0239283D01*
X0116695Y0236881D01*
X0116695Y0235683D01*
X0113095Y0235683D01*
X0113095Y0234683D01*
X0113095Y0231083D01*
X0114293Y0231083D01*
X0116695Y0233485D01*
X0116695Y0234683D01*
X0113095Y0234683D01*
X0112095Y0234683D01*
X0112095Y0231083D01*
X0110897Y0231083D01*
X0112095Y0231424D02*
X0113095Y0231424D01*
X0113095Y0232423D02*
X0112095Y0232423D01*
X0112095Y0233421D02*
X0113095Y0233421D01*
X0113095Y0234420D02*
X0112095Y0234420D01*
X0112095Y0235418D02*
X0106695Y0235418D01*
X0106695Y0234420D02*
X0108495Y0234420D01*
X0108559Y0233421D02*
X0106631Y0233421D01*
X0105633Y0232423D02*
X0109557Y0232423D01*
X0108495Y0236417D02*
X0106695Y0236417D01*
X0106161Y0237415D02*
X0109029Y0237415D01*
X0110027Y0238414D02*
X0105163Y0238414D01*
X0104620Y0241409D02*
X0110571Y0241409D01*
X0110897Y0241083D02*
X0114293Y0241083D01*
X0116695Y0243485D01*
X0116695Y0246881D01*
X0114293Y0249283D01*
X0110897Y0249283D01*
X0108495Y0246881D01*
X0108495Y0243485D01*
X0110897Y0241083D01*
X0109572Y0242408D02*
X0105618Y0242408D01*
X0106617Y0243406D02*
X0108574Y0243406D01*
X0108495Y0244405D02*
X0106695Y0244405D01*
X0106695Y0245403D02*
X0108495Y0245403D01*
X0108495Y0246402D02*
X0106695Y0246402D01*
X0106176Y0247400D02*
X0109014Y0247400D01*
X0110013Y0248399D02*
X0105178Y0248399D01*
X0100013Y0248399D02*
X0095178Y0248399D01*
X0096176Y0247400D02*
X0099014Y0247400D01*
X0098495Y0246402D02*
X0096695Y0246402D01*
X0093095Y0244405D02*
X0092095Y0244405D01*
X0092095Y0245403D02*
X0086695Y0245403D01*
X0086695Y0244405D02*
X0088495Y0244405D01*
X0088574Y0243406D02*
X0086617Y0243406D01*
X0085618Y0242408D02*
X0089572Y0242408D01*
X0092095Y0242408D02*
X0093095Y0242408D01*
X0093095Y0243406D02*
X0092095Y0243406D01*
X0092095Y0241409D02*
X0093095Y0241409D01*
X0092555Y0240411D02*
X0127636Y0240411D01*
X0128634Y0241409D02*
X0124620Y0241409D01*
X0125618Y0242408D02*
X0129572Y0242408D01*
X0128574Y0243406D02*
X0126617Y0243406D01*
X0126695Y0244405D02*
X0128495Y0244405D01*
X0128495Y0246402D02*
X0126695Y0246402D01*
X0126695Y0245403D02*
X0132095Y0245403D01*
X0133095Y0245403D02*
X0138495Y0245403D01*
X0138495Y0244405D02*
X0136695Y0244405D01*
X0136695Y0244683D02*
X0133095Y0244683D01*
X0133095Y0245683D01*
X0136695Y0245683D01*
X0136695Y0246881D01*
X0135293Y0248283D01*
X0139897Y0248283D01*
X0138495Y0246881D01*
X0138495Y0243485D01*
X0139897Y0242083D01*
X0135293Y0242083D01*
X0136695Y0243485D01*
X0136695Y0244683D01*
X0136617Y0243406D02*
X0138574Y0243406D01*
X0139572Y0242408D02*
X0135618Y0242408D01*
X0136695Y0246402D02*
X0138495Y0246402D01*
X0139014Y0247400D02*
X0136176Y0247400D01*
X0129014Y0247400D02*
X0126249Y0247400D01*
X0120013Y0248399D02*
X0115178Y0248399D01*
X0116176Y0247400D02*
X0119014Y0247400D01*
X0118495Y0246402D02*
X0116695Y0246402D01*
X0116695Y0245403D02*
X0118495Y0245403D01*
X0118495Y0244405D02*
X0116695Y0244405D01*
X0116617Y0243406D02*
X0118574Y0243406D01*
X0119572Y0242408D02*
X0115618Y0242408D01*
X0114620Y0241409D02*
X0120571Y0241409D01*
X0120027Y0238414D02*
X0115163Y0238414D01*
X0116161Y0237415D02*
X0119029Y0237415D01*
X0118495Y0236417D02*
X0116695Y0236417D01*
X0116695Y0234420D02*
X0118495Y0234420D01*
X0118495Y0235418D02*
X0113095Y0235418D01*
X0113095Y0236417D02*
X0112095Y0236417D01*
X0112095Y0237415D02*
X0113095Y0237415D01*
X0113095Y0238414D02*
X0112095Y0238414D01*
X0116631Y0233421D02*
X0118559Y0233421D01*
X0119557Y0232423D02*
X0115633Y0232423D01*
X0114634Y0231424D02*
X0120556Y0231424D01*
X0124634Y0231424D02*
X0125695Y0231424D01*
X0125695Y0230426D02*
X0084495Y0230426D01*
X0084495Y0229427D02*
X0125695Y0229427D01*
X0125654Y0228429D02*
X0084495Y0228429D01*
X0084495Y0227430D02*
X0124655Y0227430D01*
X0127034Y0224434D02*
X0128676Y0224434D01*
X0128495Y0223999D02*
X0128495Y0216368D01*
X0129119Y0214861D01*
X0129397Y0214583D01*
X0125793Y0214583D01*
X0126071Y0214861D01*
X0126695Y0216368D01*
X0126695Y0223999D01*
X0126667Y0224068D01*
X0128382Y0225783D01*
X0129495Y0226896D01*
X0129495Y0232485D01*
X0130897Y0231083D01*
X0134293Y0231083D01*
X0136695Y0233485D01*
X0136695Y0236881D01*
X0135293Y0238283D01*
X0139897Y0238283D01*
X0138495Y0236881D01*
X0138495Y0233485D01*
X0140897Y0231083D01*
X0144293Y0231083D01*
X0146695Y0233485D01*
X0146695Y0236881D01*
X0145293Y0238283D01*
X0149897Y0238283D01*
X0148495Y0236881D01*
X0148495Y0233485D01*
X0150897Y0231083D01*
X0154293Y0231083D01*
X0156695Y0233485D01*
X0156695Y0236881D01*
X0155293Y0238283D01*
X0159897Y0238283D01*
X0158495Y0236881D01*
X0158495Y0233485D01*
X0160897Y0231083D01*
X0162758Y0231083D01*
X0168890Y0224951D01*
X0168495Y0223999D01*
X0168495Y0216368D01*
X0168524Y0216299D01*
X0166808Y0214583D01*
X0165793Y0214583D01*
X0166071Y0214861D01*
X0166695Y0216368D01*
X0166695Y0223999D01*
X0166071Y0225506D01*
X0164918Y0226659D01*
X0163411Y0227283D01*
X0163182Y0227283D01*
X0160882Y0229583D01*
X0134308Y0229583D01*
X0133195Y0228470D01*
X0132008Y0227283D01*
X0131780Y0227283D01*
X0130273Y0226659D01*
X0129119Y0225506D01*
X0128495Y0223999D01*
X0128495Y0223436D02*
X0126695Y0223436D01*
X0126695Y0222437D02*
X0128495Y0222437D01*
X0128495Y0221439D02*
X0126695Y0221439D01*
X0126695Y0220440D02*
X0128495Y0220440D01*
X0128495Y0219442D02*
X0126695Y0219442D01*
X0126695Y0218443D02*
X0128495Y0218443D01*
X0128495Y0217445D02*
X0126695Y0217445D01*
X0126695Y0216446D02*
X0128495Y0216446D01*
X0128876Y0215448D02*
X0126314Y0215448D01*
X0118876Y0215448D02*
X0117517Y0215448D01*
X0116695Y0216446D02*
X0118495Y0216446D01*
X0118495Y0217445D02*
X0116695Y0217445D01*
X0116695Y0218443D02*
X0118495Y0218443D01*
X0118495Y0219442D02*
X0116695Y0219442D01*
X0116695Y0220440D02*
X0118495Y0220440D01*
X0118495Y0221439D02*
X0116695Y0221439D01*
X0116695Y0222437D02*
X0118495Y0222437D01*
X0118495Y0223436D02*
X0116695Y0223436D01*
X0116515Y0224434D02*
X0118676Y0224434D01*
X0119089Y0225433D02*
X0116101Y0225433D01*
X0115145Y0226431D02*
X0120045Y0226431D01*
X0128032Y0225433D02*
X0129089Y0225433D01*
X0129031Y0226431D02*
X0130045Y0226431D01*
X0129495Y0227430D02*
X0132155Y0227430D01*
X0133154Y0228429D02*
X0129495Y0228429D01*
X0129495Y0229427D02*
X0134152Y0229427D01*
X0134634Y0231424D02*
X0140556Y0231424D01*
X0139557Y0232423D02*
X0135633Y0232423D01*
X0136631Y0233421D02*
X0138559Y0233421D01*
X0138495Y0234420D02*
X0136695Y0234420D01*
X0136695Y0235418D02*
X0138495Y0235418D01*
X0138495Y0236417D02*
X0136695Y0236417D01*
X0136161Y0237415D02*
X0139029Y0237415D01*
X0146161Y0237415D02*
X0149029Y0237415D01*
X0148495Y0236417D02*
X0146695Y0236417D01*
X0146695Y0235418D02*
X0148495Y0235418D01*
X0148495Y0234420D02*
X0146695Y0234420D01*
X0146631Y0233421D02*
X0148559Y0233421D01*
X0149557Y0232423D02*
X0145633Y0232423D01*
X0144634Y0231424D02*
X0150556Y0231424D01*
X0154634Y0231424D02*
X0160556Y0231424D01*
X0159557Y0232423D02*
X0155633Y0232423D01*
X0156631Y0233421D02*
X0158559Y0233421D01*
X0158495Y0234420D02*
X0156695Y0234420D01*
X0156695Y0235418D02*
X0158495Y0235418D01*
X0158495Y0236417D02*
X0156695Y0236417D01*
X0156161Y0237415D02*
X0159029Y0237415D01*
X0159897Y0242083D02*
X0155293Y0242083D01*
X0156695Y0243485D01*
X0156695Y0246881D01*
X0155293Y0248283D01*
X0159897Y0248283D01*
X0158495Y0246881D01*
X0158495Y0245683D01*
X0162095Y0245683D01*
X0162095Y0244683D01*
X0158495Y0244683D01*
X0158495Y0243485D01*
X0159897Y0242083D01*
X0159572Y0242408D02*
X0155618Y0242408D01*
X0156617Y0243406D02*
X0158574Y0243406D01*
X0158495Y0244405D02*
X0156695Y0244405D01*
X0156695Y0245403D02*
X0162095Y0245403D01*
X0163095Y0245403D02*
X0168495Y0245403D01*
X0168495Y0244405D02*
X0166695Y0244405D01*
X0166695Y0244683D02*
X0163095Y0244683D01*
X0163095Y0245683D01*
X0166695Y0245683D01*
X0166695Y0246881D01*
X0165293Y0248283D01*
X0169897Y0248283D01*
X0168495Y0246881D01*
X0168495Y0243485D01*
X0169897Y0242083D01*
X0165293Y0242083D01*
X0166695Y0243485D01*
X0166695Y0244683D01*
X0166617Y0243406D02*
X0168574Y0243406D01*
X0169572Y0242408D02*
X0165618Y0242408D01*
X0166695Y0246402D02*
X0168495Y0246402D01*
X0169014Y0247400D02*
X0166176Y0247400D01*
X0159014Y0247400D02*
X0156176Y0247400D01*
X0156695Y0246402D02*
X0158495Y0246402D01*
X0149897Y0248283D02*
X0148495Y0246881D01*
X0148495Y0243485D01*
X0149897Y0242083D01*
X0145293Y0242083D01*
X0146695Y0243485D01*
X0146695Y0246881D01*
X0145293Y0248283D01*
X0149897Y0248283D01*
X0149014Y0247400D02*
X0146176Y0247400D01*
X0146695Y0246402D02*
X0148495Y0246402D01*
X0148495Y0245403D02*
X0146695Y0245403D01*
X0146695Y0244405D02*
X0148495Y0244405D01*
X0148574Y0243406D02*
X0146617Y0243406D01*
X0145618Y0242408D02*
X0149572Y0242408D01*
X0165293Y0238283D02*
X0169897Y0238283D01*
X0168934Y0237321D01*
X0168090Y0237670D01*
X0167100Y0237670D01*
X0166256Y0237321D01*
X0165293Y0238283D01*
X0166161Y0237415D02*
X0166484Y0237415D01*
X0168706Y0237415D02*
X0169029Y0237415D01*
X0175293Y0238283D02*
X0179897Y0238283D01*
X0178495Y0236881D01*
X0178495Y0233485D01*
X0180897Y0231083D01*
X0184293Y0231083D01*
X0186695Y0233485D01*
X0186695Y0236881D01*
X0185293Y0238283D01*
X0189897Y0238283D01*
X0188495Y0236881D01*
X0188495Y0235683D01*
X0192095Y0235683D01*
X0192095Y0234683D01*
X0188495Y0234683D01*
X0188495Y0233485D01*
X0190853Y0231127D01*
X0186808Y0227083D01*
X0185695Y0225970D01*
X0185695Y0225881D01*
X0184918Y0226659D01*
X0183411Y0227283D01*
X0181780Y0227283D01*
X0180273Y0226659D01*
X0179540Y0225926D01*
X0175882Y0229583D01*
X0174632Y0229583D01*
X0173132Y0231083D01*
X0174293Y0231083D01*
X0176695Y0233485D01*
X0176695Y0236881D01*
X0175293Y0238283D01*
X0176161Y0237415D02*
X0179029Y0237415D01*
X0178495Y0236417D02*
X0176695Y0236417D01*
X0176695Y0235418D02*
X0178495Y0235418D01*
X0178495Y0234420D02*
X0176695Y0234420D01*
X0176631Y0233421D02*
X0178559Y0233421D01*
X0179557Y0232423D02*
X0175633Y0232423D01*
X0174634Y0231424D02*
X0180556Y0231424D01*
X0184634Y0231424D02*
X0190556Y0231424D01*
X0190151Y0230426D02*
X0173790Y0230426D01*
X0176038Y0229427D02*
X0189152Y0229427D01*
X0188154Y0228429D02*
X0177037Y0228429D01*
X0178035Y0227430D02*
X0187155Y0227430D01*
X0186157Y0226431D02*
X0185145Y0226431D01*
X0180045Y0226431D02*
X0179034Y0226431D01*
X0177654Y0222437D02*
X0176695Y0222437D01*
X0176695Y0221439D02*
X0178495Y0221439D01*
X0178495Y0220440D02*
X0176695Y0220440D01*
X0176695Y0219442D02*
X0178495Y0219442D01*
X0178495Y0218443D02*
X0176695Y0218443D01*
X0176695Y0217445D02*
X0178495Y0217445D01*
X0178495Y0216446D02*
X0176695Y0216446D01*
X0176314Y0215448D02*
X0178876Y0215448D01*
X0179531Y0214449D02*
X0175660Y0214449D01*
X0174299Y0213451D02*
X0180892Y0213451D01*
X0184299Y0213451D02*
X0185695Y0213451D01*
X0185660Y0214449D02*
X0185695Y0214449D01*
X0185695Y0212452D02*
X0170051Y0212452D01*
X0169053Y0211454D02*
X0185695Y0211454D01*
X0185695Y0210455D02*
X0158341Y0210455D01*
X0158821Y0209457D02*
X0185695Y0209457D01*
X0185683Y0208458D02*
X0159507Y0208458D01*
X0160505Y0207460D02*
X0184092Y0207460D01*
X0182932Y0206461D02*
X0161504Y0206461D01*
X0162502Y0205463D02*
X0182608Y0205463D01*
X0182701Y0204464D02*
X0169332Y0204464D01*
X0169963Y0203466D02*
X0183295Y0203466D01*
X0186896Y0203466D02*
X0190080Y0203466D01*
X0190273Y0203659D02*
X0189119Y0202506D01*
X0188495Y0200999D01*
X0188495Y0199368D01*
X0189119Y0197861D01*
X0190273Y0196707D01*
X0191780Y0196083D01*
X0193411Y0196083D01*
X0194918Y0196707D01*
X0196071Y0197861D01*
X0196695Y0199368D01*
X0196695Y0200999D01*
X0196071Y0202506D01*
X0194918Y0203659D01*
X0193411Y0204283D01*
X0191780Y0204283D01*
X0190273Y0203659D01*
X0189103Y0202467D02*
X0170498Y0202467D01*
X0171497Y0201469D02*
X0188690Y0201469D01*
X0188495Y0200470D02*
X0172495Y0200470D01*
X0173494Y0199472D02*
X0188495Y0199472D01*
X0188866Y0198473D02*
X0174492Y0198473D01*
X0175491Y0197475D02*
X0189505Y0197475D01*
X0190831Y0196476D02*
X0176489Y0196476D01*
X0177488Y0195478D02*
X0207114Y0195478D01*
X0208112Y0194479D02*
X0183692Y0194479D01*
X0184332Y0193481D02*
X0209111Y0193481D01*
X0210109Y0192482D02*
X0184858Y0192482D01*
X0185857Y0191484D02*
X0210108Y0191484D01*
X0210295Y0190485D02*
X0186855Y0190485D01*
X0187854Y0189487D02*
X0211024Y0189487D01*
X0214166Y0189487D02*
X0236230Y0189487D01*
X0236320Y0188488D02*
X0188852Y0188488D01*
X0189851Y0187490D02*
X0236320Y0187490D01*
X0236320Y0186491D02*
X0190849Y0186491D01*
X0191848Y0185493D02*
X0236320Y0185493D01*
X0236320Y0184494D02*
X0227221Y0184494D01*
X0228220Y0183496D02*
X0236320Y0183496D01*
X0236320Y0182497D02*
X0229218Y0182497D01*
X0230217Y0181498D02*
X0236320Y0181498D01*
X0236320Y0180500D02*
X0231215Y0180500D01*
X0232214Y0179501D02*
X0236320Y0179501D01*
X0236320Y0178503D02*
X0233212Y0178503D01*
X0234211Y0177504D02*
X0236320Y0177504D01*
X0236320Y0176506D02*
X0235209Y0176506D01*
X0236208Y0175507D02*
X0236320Y0175507D01*
X0240120Y0175507D02*
X0246195Y0175507D01*
X0246195Y0174509D02*
X0240120Y0174509D01*
X0240120Y0173510D02*
X0246195Y0173510D01*
X0246195Y0172512D02*
X0240120Y0172512D01*
X0240120Y0171513D02*
X0246195Y0171513D01*
X0246195Y0170515D02*
X0240120Y0170515D01*
X0240120Y0169516D02*
X0246195Y0169516D01*
X0246195Y0168518D02*
X0240120Y0168518D01*
X0240120Y0167519D02*
X0246195Y0167519D01*
X0246195Y0166521D02*
X0240120Y0166521D01*
X0240149Y0165522D02*
X0246195Y0165522D01*
X0246195Y0164524D02*
X0240668Y0164524D01*
X0240708Y0163525D02*
X0246195Y0163525D01*
X0246195Y0162527D02*
X0240330Y0162527D01*
X0238914Y0161528D02*
X0246195Y0161528D01*
X0246195Y0160530D02*
X0237583Y0160530D01*
X0237526Y0161528D02*
X0237230Y0161528D01*
X0236963Y0158533D02*
X0237495Y0158533D01*
X0237495Y0157534D02*
X0228208Y0157534D01*
X0228061Y0158533D02*
X0233228Y0158533D01*
X0232673Y0159531D02*
X0227390Y0159531D01*
X0226879Y0160530D02*
X0232608Y0160530D01*
X0232960Y0161528D02*
X0226995Y0161528D01*
X0226995Y0162527D02*
X0233195Y0162527D01*
X0233195Y0163525D02*
X0226995Y0163525D01*
X0226995Y0164524D02*
X0233195Y0164524D01*
X0233195Y0165522D02*
X0226995Y0165522D01*
X0226995Y0166521D02*
X0233195Y0166521D01*
X0233195Y0167519D02*
X0226995Y0167519D01*
X0226995Y0168518D02*
X0233195Y0168518D01*
X0233195Y0169516D02*
X0226995Y0169516D01*
X0226995Y0170515D02*
X0233195Y0170515D01*
X0233195Y0171513D02*
X0226995Y0171513D01*
X0226995Y0172512D02*
X0233195Y0172512D01*
X0232831Y0173510D02*
X0226995Y0173510D01*
X0226995Y0174509D02*
X0231832Y0174509D01*
X0230834Y0175507D02*
X0227404Y0175507D01*
X0227583Y0176506D02*
X0229835Y0176506D01*
X0228837Y0177504D02*
X0227344Y0177504D01*
X0227838Y0178503D02*
X0226543Y0178503D01*
X0226840Y0179501D02*
X0193464Y0179501D01*
X0194462Y0178503D02*
X0218647Y0178503D01*
X0217847Y0177504D02*
X0195461Y0177504D01*
X0196459Y0176506D02*
X0217608Y0176506D01*
X0217535Y0175507D02*
X0217786Y0175507D01*
X0215155Y0175507D02*
X0197458Y0175507D01*
X0192465Y0180500D02*
X0225841Y0180500D01*
X0223647Y0178503D02*
X0221543Y0178503D01*
X0222344Y0177504D02*
X0222847Y0177504D01*
X0222608Y0176506D02*
X0222583Y0176506D01*
X0222404Y0175507D02*
X0222786Y0175507D01*
X0223195Y0174509D02*
X0221995Y0174509D01*
X0221995Y0173510D02*
X0223195Y0173510D01*
X0223195Y0172512D02*
X0221995Y0172512D01*
X0221995Y0171513D02*
X0223195Y0171513D01*
X0223195Y0170515D02*
X0221995Y0170515D01*
X0221995Y0169516D02*
X0223195Y0169516D01*
X0223195Y0168518D02*
X0221995Y0168518D01*
X0221995Y0167519D02*
X0223195Y0167519D01*
X0223195Y0166521D02*
X0221995Y0166521D01*
X0221995Y0165522D02*
X0223195Y0165522D01*
X0223195Y0164524D02*
X0221498Y0164524D01*
X0220499Y0163525D02*
X0223195Y0163525D01*
X0223195Y0162527D02*
X0219501Y0162527D01*
X0218502Y0161528D02*
X0222503Y0161528D01*
X0221505Y0160530D02*
X0215510Y0160530D01*
X0215708Y0159531D02*
X0220506Y0159531D01*
X0219508Y0158533D02*
X0215488Y0158533D01*
X0217049Y0157534D02*
X0218509Y0157534D01*
X0223266Y0152542D02*
X0237495Y0152542D01*
X0237495Y0153540D02*
X0224264Y0153540D01*
X0225263Y0154539D02*
X0237495Y0154539D01*
X0237495Y0155537D02*
X0227039Y0155537D01*
X0227937Y0156536D02*
X0237495Y0156536D01*
X0237495Y0151543D02*
X0222267Y0151543D01*
X0221269Y0150545D02*
X0237495Y0150545D01*
X0237495Y0149546D02*
X0220270Y0149546D01*
X0219272Y0148548D02*
X0237495Y0148548D01*
X0237495Y0147549D02*
X0206398Y0147549D01*
X0205400Y0146551D02*
X0214195Y0146551D01*
X0214311Y0146667D02*
X0213611Y0145967D01*
X0213233Y0145053D01*
X0213233Y0144063D01*
X0213611Y0143149D01*
X0214311Y0142449D01*
X0215225Y0142071D01*
X0216215Y0142071D01*
X0217129Y0142449D01*
X0217338Y0142658D01*
X0227852Y0142658D01*
X0228061Y0142449D01*
X0228975Y0142071D01*
X0229965Y0142071D01*
X0230879Y0142449D01*
X0231579Y0143149D01*
X0231958Y0144063D01*
X0231958Y0145053D01*
X0231579Y0145967D01*
X0230879Y0146667D01*
X0229965Y0147045D01*
X0228975Y0147045D01*
X0228061Y0146667D01*
X0227852Y0146458D01*
X0217338Y0146458D01*
X0217129Y0146667D01*
X0216215Y0147045D01*
X0215225Y0147045D01*
X0214311Y0146667D01*
X0213440Y0145552D02*
X0204495Y0145552D01*
X0204495Y0144554D02*
X0213233Y0144554D01*
X0213443Y0143555D02*
X0204495Y0143555D01*
X0204495Y0142557D02*
X0214204Y0142557D01*
X0217236Y0142557D02*
X0227954Y0142557D01*
X0227147Y0140533D02*
X0224745Y0138131D01*
X0224745Y0134735D01*
X0227147Y0132333D01*
X0230543Y0132333D01*
X0232945Y0134735D01*
X0232945Y0138131D01*
X0230543Y0140533D01*
X0227147Y0140533D01*
X0226175Y0139561D02*
X0221515Y0139561D01*
X0220543Y0140533D02*
X0217147Y0140533D01*
X0214745Y0138131D01*
X0214745Y0134735D01*
X0217147Y0132333D01*
X0220543Y0132333D01*
X0222945Y0134735D01*
X0222945Y0138131D01*
X0220543Y0140533D01*
X0222514Y0138563D02*
X0225176Y0138563D01*
X0224745Y0137564D02*
X0222945Y0137564D01*
X0222945Y0136565D02*
X0224745Y0136565D01*
X0224745Y0135567D02*
X0222945Y0135567D01*
X0222779Y0134568D02*
X0224912Y0134568D01*
X0225910Y0133570D02*
X0221780Y0133570D01*
X0220782Y0132571D02*
X0226909Y0132571D01*
X0227147Y0130533D02*
X0224745Y0128131D01*
X0224745Y0126933D01*
X0228345Y0126933D01*
X0228345Y0125933D01*
X0224745Y0125933D01*
X0224745Y0124735D01*
X0227147Y0122333D01*
X0228345Y0122333D01*
X0228345Y0125933D01*
X0229345Y0125933D01*
X0229345Y0122333D01*
X0230543Y0122333D01*
X0232945Y0124735D01*
X0232945Y0125933D01*
X0229345Y0125933D01*
X0229345Y0126933D01*
X0228345Y0126933D01*
X0228345Y0130533D01*
X0227147Y0130533D01*
X0226190Y0129576D02*
X0221501Y0129576D01*
X0220543Y0130533D02*
X0219345Y0130533D01*
X0219345Y0126933D01*
X0218345Y0126933D01*
X0218345Y0125933D01*
X0214745Y0125933D01*
X0214745Y0124735D01*
X0217147Y0122333D01*
X0218345Y0122333D01*
X0218345Y0125933D01*
X0219345Y0125933D01*
X0219345Y0122333D01*
X0220543Y0122333D01*
X0222945Y0124735D01*
X0222945Y0125933D01*
X0219345Y0125933D01*
X0219345Y0126933D01*
X0222945Y0126933D01*
X0222945Y0128131D01*
X0220543Y0130533D01*
X0219345Y0129576D02*
X0218345Y0129576D01*
X0218345Y0130533D02*
X0217147Y0130533D01*
X0214745Y0128131D01*
X0214745Y0126933D01*
X0218345Y0126933D01*
X0218345Y0130533D01*
X0218345Y0128577D02*
X0219345Y0128577D01*
X0219345Y0127579D02*
X0218345Y0127579D01*
X0218345Y0126580D02*
X0209345Y0126580D01*
X0209345Y0126933D02*
X0212917Y0126933D01*
X0212844Y0127393D01*
X0212645Y0128007D01*
X0212352Y0128582D01*
X0211972Y0129104D01*
X0211516Y0129560D01*
X0210994Y0129940D01*
X0210419Y0130233D01*
X0209805Y0130432D01*
X0209345Y0130505D01*
X0209345Y0126933D01*
X0208345Y0126933D01*
X0208345Y0125933D01*
X0204773Y0125933D01*
X0204846Y0125473D01*
X0205046Y0124859D01*
X0205339Y0124284D01*
X0205718Y0123762D01*
X0206174Y0123306D01*
X0206696Y0122926D01*
X0207271Y0122633D01*
X0207885Y0122434D01*
X0208345Y0122361D01*
X0208345Y0125933D01*
X0209345Y0125933D01*
X0209345Y0122361D01*
X0209805Y0122434D01*
X0210419Y0122633D01*
X0210994Y0122926D01*
X0211516Y0123306D01*
X0211972Y0123762D01*
X0212352Y0124284D01*
X0212645Y0124859D01*
X0212844Y0125473D01*
X0212917Y0125933D01*
X0209345Y0125933D01*
X0209345Y0126933D01*
X0209345Y0127579D02*
X0208345Y0127579D01*
X0208345Y0126933D02*
X0208345Y0130505D01*
X0207885Y0130432D01*
X0207271Y0130233D01*
X0206696Y0129940D01*
X0206174Y0129560D01*
X0205718Y0129104D01*
X0205339Y0128582D01*
X0205046Y0128007D01*
X0204846Y0127393D01*
X0204773Y0126933D01*
X0208345Y0126933D01*
X0208345Y0126580D02*
X0201679Y0126580D01*
X0200681Y0125582D02*
X0204829Y0125582D01*
X0205186Y0124583D02*
X0199682Y0124583D01*
X0198684Y0123585D02*
X0205895Y0123585D01*
X0207416Y0122586D02*
X0146957Y0122586D01*
X0145959Y0123585D02*
X0177551Y0123585D01*
X0177026Y0124583D02*
X0144960Y0124583D01*
X0143962Y0125582D02*
X0176983Y0125582D01*
X0177357Y0126580D02*
X0159665Y0126580D01*
X0158025Y0126580D02*
X0142963Y0126580D01*
X0141965Y0127579D02*
X0156714Y0127579D01*
X0156358Y0128577D02*
X0140966Y0128577D01*
X0139968Y0129576D02*
X0156419Y0129576D01*
X0156969Y0130574D02*
X0138969Y0130574D01*
X0137971Y0131573D02*
X0172548Y0131573D01*
X0173547Y0132571D02*
X0136972Y0132571D01*
X0135974Y0133570D02*
X0174545Y0133570D01*
X0175544Y0134568D02*
X0134975Y0134568D01*
X0133977Y0135567D02*
X0176542Y0135567D01*
X0177541Y0136565D02*
X0132978Y0136565D01*
X0131980Y0137564D02*
X0178539Y0137564D01*
X0179538Y0138563D02*
X0130981Y0138563D01*
X0129983Y0139561D02*
X0180536Y0139561D01*
X0181535Y0140560D02*
X0128984Y0140560D01*
X0127986Y0141558D02*
X0182533Y0141558D01*
X0183532Y0142557D02*
X0126987Y0142557D01*
X0125989Y0143555D02*
X0184530Y0143555D01*
X0185529Y0144554D02*
X0124990Y0144554D01*
X0123992Y0145552D02*
X0186527Y0145552D01*
X0187526Y0146551D02*
X0122993Y0146551D01*
X0121995Y0147549D02*
X0188524Y0147549D01*
X0189523Y0148548D02*
X0136772Y0148548D01*
X0137770Y0149546D02*
X0190521Y0149546D01*
X0191520Y0150545D02*
X0138769Y0150545D01*
X0139767Y0151543D02*
X0192518Y0151543D01*
X0193517Y0152542D02*
X0140766Y0152542D01*
X0142595Y0153540D02*
X0194515Y0153540D01*
X0195514Y0154539D02*
X0143146Y0154539D01*
X0143208Y0155537D02*
X0196512Y0155537D01*
X0197511Y0156536D02*
X0142852Y0156536D01*
X0141589Y0157534D02*
X0198509Y0157534D01*
X0199508Y0158533D02*
X0142363Y0158533D01*
X0142583Y0159531D02*
X0200506Y0159531D01*
X0200930Y0160530D02*
X0142385Y0160530D01*
X0142280Y0164583D02*
X0142583Y0165313D01*
X0142583Y0166303D01*
X0142204Y0167217D01*
X0141504Y0167917D01*
X0140590Y0168295D01*
X0139600Y0168295D01*
X0138686Y0167917D01*
X0138477Y0167708D01*
X0120257Y0167708D01*
X0102382Y0185583D01*
X0103411Y0185583D01*
X0104918Y0186207D01*
X0106071Y0187361D01*
X0106695Y0188868D01*
X0106695Y0196499D01*
X0106071Y0198006D01*
X0104918Y0199159D01*
X0103411Y0199783D01*
X0101780Y0199783D01*
X0100273Y0199159D01*
X0099495Y0198381D01*
X0099495Y0198470D01*
X0098382Y0199583D01*
X0095932Y0202033D01*
X0133058Y0202033D01*
X0136808Y0198283D01*
X0139654Y0198283D01*
X0139272Y0197901D01*
X0138648Y0196394D01*
X0138648Y0188763D01*
X0139272Y0187256D01*
X0140425Y0186103D01*
X0141932Y0185478D01*
X0143563Y0185478D01*
X0144305Y0185786D01*
X0147570Y0182521D01*
X0148683Y0181408D01*
X0168477Y0181408D01*
X0168686Y0181199D01*
X0169600Y0180821D01*
X0170590Y0180821D01*
X0171504Y0181199D01*
X0172204Y0181899D01*
X0172583Y0182813D01*
X0172583Y0183803D01*
X0172204Y0184717D01*
X0171504Y0185417D01*
X0170590Y0185795D01*
X0169600Y0185795D01*
X0168686Y0185417D01*
X0168477Y0185208D01*
X0150257Y0185208D01*
X0146805Y0188660D01*
X0146848Y0188763D01*
X0146848Y0196394D01*
X0146224Y0197901D01*
X0145841Y0198283D01*
X0148382Y0198283D01*
X0149495Y0199396D01*
X0150882Y0200783D01*
X0155352Y0200783D01*
X0155561Y0200574D01*
X0156475Y0200196D01*
X0157465Y0200196D01*
X0158379Y0200574D01*
X0159079Y0201274D01*
X0159458Y0202188D01*
X0159458Y0203134D01*
X0162913Y0199678D01*
X0161617Y0199678D01*
X0160110Y0199054D01*
X0158957Y0197901D01*
X0158333Y0196394D01*
X0158333Y0188763D01*
X0158957Y0187256D01*
X0160110Y0186103D01*
X0161617Y0185478D01*
X0163248Y0185478D01*
X0164755Y0186103D01*
X0165909Y0187256D01*
X0166533Y0188763D01*
X0166533Y0196058D01*
X0182383Y0180208D01*
X0159213Y0180208D01*
X0159004Y0180417D01*
X0158090Y0180795D01*
X0157100Y0180795D01*
X0156186Y0180417D01*
X0155486Y0179717D01*
X0155108Y0178803D01*
X0155108Y0177813D01*
X0155486Y0176899D01*
X0156186Y0176199D01*
X0157100Y0175821D01*
X0158090Y0175821D01*
X0159004Y0176199D01*
X0159213Y0176408D01*
X0182433Y0176408D01*
X0193195Y0165646D01*
X0194258Y0164583D01*
X0142280Y0164583D01*
X0142583Y0165522D02*
X0193319Y0165522D01*
X0192320Y0166521D02*
X0142492Y0166521D01*
X0141902Y0167519D02*
X0191322Y0167519D01*
X0190323Y0168518D02*
X0119447Y0168518D01*
X0118449Y0169516D02*
X0189325Y0169516D01*
X0188326Y0170515D02*
X0117450Y0170515D01*
X0116452Y0171513D02*
X0187328Y0171513D01*
X0186329Y0172512D02*
X0115453Y0172512D01*
X0114455Y0173510D02*
X0185331Y0173510D01*
X0184332Y0174509D02*
X0113456Y0174509D01*
X0112458Y0175507D02*
X0183334Y0175507D01*
X0182091Y0180500D02*
X0158803Y0180500D01*
X0156387Y0180500D02*
X0107465Y0180500D01*
X0106467Y0181498D02*
X0148593Y0181498D01*
X0147594Y0182497D02*
X0105468Y0182497D01*
X0104470Y0183496D02*
X0146596Y0183496D01*
X0145597Y0184494D02*
X0103471Y0184494D01*
X0102473Y0185493D02*
X0141898Y0185493D01*
X0143598Y0185493D02*
X0144599Y0185493D01*
X0146977Y0188488D02*
X0148634Y0188488D01*
X0148591Y0188618D02*
X0148791Y0188005D01*
X0149084Y0187429D01*
X0149463Y0186907D01*
X0149919Y0186451D01*
X0150442Y0186072D01*
X0151017Y0185779D01*
X0151630Y0185579D01*
X0152090Y0185506D01*
X0152090Y0192078D01*
X0148490Y0192078D01*
X0148490Y0189256D01*
X0148591Y0188618D01*
X0148490Y0189487D02*
X0146848Y0189487D01*
X0146848Y0190485D02*
X0148490Y0190485D01*
X0148490Y0191484D02*
X0146848Y0191484D01*
X0146848Y0192482D02*
X0152090Y0192482D01*
X0152090Y0192078D02*
X0152090Y0193078D01*
X0148490Y0193078D01*
X0148490Y0195901D01*
X0148591Y0196538D01*
X0148791Y0197152D01*
X0149084Y0197727D01*
X0149463Y0198249D01*
X0149919Y0198706D01*
X0150442Y0199085D01*
X0151017Y0199378D01*
X0151630Y0199577D01*
X0152090Y0199650D01*
X0152090Y0193078D01*
X0153090Y0193078D01*
X0153090Y0199650D01*
X0153551Y0199577D01*
X0154164Y0199378D01*
X0154739Y0199085D01*
X0155261Y0198706D01*
X0155718Y0198249D01*
X0156097Y0197727D01*
X0156390Y0197152D01*
X0156589Y0196538D01*
X0156690Y0195901D01*
X0156690Y0193078D01*
X0153090Y0193078D01*
X0153090Y0192078D01*
X0153090Y0185506D01*
X0153551Y0185579D01*
X0154164Y0185779D01*
X0154739Y0186072D01*
X0155261Y0186451D01*
X0155718Y0186907D01*
X0156097Y0187429D01*
X0156390Y0188005D01*
X0156589Y0188618D01*
X0156690Y0189256D01*
X0156690Y0192078D01*
X0153090Y0192078D01*
X0152090Y0192078D01*
X0152090Y0191484D02*
X0153090Y0191484D01*
X0153090Y0192482D02*
X0158333Y0192482D01*
X0158333Y0191484D02*
X0156690Y0191484D01*
X0156690Y0190485D02*
X0158333Y0190485D01*
X0158333Y0189487D02*
X0156690Y0189487D01*
X0156547Y0188488D02*
X0158447Y0188488D01*
X0158860Y0187490D02*
X0156128Y0187490D01*
X0155301Y0186491D02*
X0159722Y0186491D01*
X0161583Y0185493D02*
X0149973Y0185493D01*
X0149879Y0186491D02*
X0148974Y0186491D01*
X0149053Y0187490D02*
X0147976Y0187490D01*
X0152090Y0187490D02*
X0153090Y0187490D01*
X0153090Y0188488D02*
X0152090Y0188488D01*
X0152090Y0189487D02*
X0153090Y0189487D01*
X0153090Y0190485D02*
X0152090Y0190485D01*
X0152090Y0193481D02*
X0153090Y0193481D01*
X0153090Y0194479D02*
X0152090Y0194479D01*
X0152090Y0195478D02*
X0153090Y0195478D01*
X0153090Y0196476D02*
X0152090Y0196476D01*
X0152090Y0197475D02*
X0153090Y0197475D01*
X0153090Y0198473D02*
X0152090Y0198473D01*
X0152090Y0199472D02*
X0153090Y0199472D01*
X0153876Y0199472D02*
X0161118Y0199472D01*
X0162121Y0200470D02*
X0158128Y0200470D01*
X0159159Y0201469D02*
X0161123Y0201469D01*
X0160124Y0202467D02*
X0159458Y0202467D01*
X0157421Y0205170D02*
X0156475Y0205170D01*
X0155561Y0204792D01*
X0155352Y0204583D01*
X0149308Y0204583D01*
X0146808Y0202083D01*
X0141655Y0202083D01*
X0141958Y0202813D01*
X0141958Y0203803D01*
X0141579Y0204717D01*
X0140879Y0205417D01*
X0139965Y0205795D01*
X0139670Y0205795D01*
X0138432Y0207033D01*
X0138477Y0207033D01*
X0138686Y0206824D01*
X0139600Y0206446D01*
X0140590Y0206446D01*
X0141504Y0206824D01*
X0142204Y0207524D01*
X0142583Y0208438D01*
X0142583Y0209428D01*
X0142204Y0210342D01*
X0141763Y0210783D01*
X0154677Y0210783D01*
X0154236Y0210342D01*
X0153858Y0209428D01*
X0153858Y0208438D01*
X0154236Y0207524D01*
X0154936Y0206824D01*
X0155850Y0206446D01*
X0156146Y0206446D01*
X0157421Y0205170D01*
X0157128Y0205463D02*
X0140768Y0205463D01*
X0140628Y0206461D02*
X0155813Y0206461D01*
X0154301Y0207460D02*
X0142140Y0207460D01*
X0142583Y0208458D02*
X0153858Y0208458D01*
X0153870Y0209457D02*
X0142571Y0209457D01*
X0142091Y0210455D02*
X0154350Y0210455D01*
X0155793Y0214583D02*
X0156071Y0214861D01*
X0156695Y0216368D01*
X0156695Y0223999D01*
X0156071Y0225506D01*
X0155793Y0225783D01*
X0159308Y0225783D01*
X0159353Y0225739D01*
X0159119Y0225506D01*
X0158495Y0223999D01*
X0158495Y0216368D01*
X0159119Y0214861D01*
X0159397Y0214583D01*
X0155793Y0214583D01*
X0156314Y0215448D02*
X0158876Y0215448D01*
X0158495Y0216446D02*
X0156695Y0216446D01*
X0156695Y0217445D02*
X0158495Y0217445D01*
X0158495Y0218443D02*
X0156695Y0218443D01*
X0156695Y0219442D02*
X0158495Y0219442D01*
X0158495Y0220440D02*
X0156695Y0220440D01*
X0156695Y0221439D02*
X0158495Y0221439D01*
X0158495Y0222437D02*
X0156695Y0222437D01*
X0156695Y0223436D02*
X0158495Y0223436D01*
X0158676Y0224434D02*
X0156515Y0224434D01*
X0156101Y0225433D02*
X0159089Y0225433D01*
X0162037Y0228429D02*
X0165413Y0228429D01*
X0164414Y0229427D02*
X0161038Y0229427D01*
X0163416Y0230426D02*
X0129495Y0230426D01*
X0129495Y0231424D02*
X0130556Y0231424D01*
X0129557Y0232423D02*
X0129495Y0232423D01*
X0125695Y0232423D02*
X0125633Y0232423D01*
X0125695Y0238414D02*
X0125163Y0238414D01*
X0126637Y0239412D02*
X0093553Y0239412D01*
X0089029Y0237415D02*
X0086161Y0237415D01*
X0086695Y0236417D02*
X0088495Y0236417D01*
X0088495Y0235418D02*
X0086695Y0235418D01*
X0086695Y0234420D02*
X0088495Y0234420D01*
X0088559Y0233421D02*
X0086631Y0233421D01*
X0085633Y0232423D02*
X0089557Y0232423D01*
X0090556Y0231424D02*
X0084634Y0231424D01*
X0080695Y0231285D02*
X0080695Y0221020D01*
X0079495Y0222220D01*
X0079495Y0232485D01*
X0080695Y0231285D01*
X0080556Y0231424D02*
X0079495Y0231424D01*
X0079495Y0230426D02*
X0080695Y0230426D01*
X0080695Y0229427D02*
X0079495Y0229427D01*
X0079495Y0228429D02*
X0080695Y0228429D01*
X0080695Y0227430D02*
X0079495Y0227430D01*
X0079495Y0226431D02*
X0080695Y0226431D01*
X0080695Y0225433D02*
X0079495Y0225433D01*
X0079495Y0224434D02*
X0080695Y0224434D01*
X0080695Y0223436D02*
X0079495Y0223436D01*
X0079495Y0222437D02*
X0080695Y0222437D01*
X0080695Y0221439D02*
X0080276Y0221439D01*
X0084495Y0221439D02*
X0088495Y0221439D01*
X0088495Y0222437D02*
X0084495Y0222437D01*
X0084495Y0223436D02*
X0088495Y0223436D01*
X0088676Y0224434D02*
X0084495Y0224434D01*
X0084495Y0225433D02*
X0089089Y0225433D01*
X0090045Y0226431D02*
X0084495Y0226431D01*
X0085025Y0220440D02*
X0088495Y0220440D01*
X0088495Y0219442D02*
X0086023Y0219442D01*
X0087022Y0218443D02*
X0088495Y0218443D01*
X0088495Y0217445D02*
X0088020Y0217445D01*
X0093013Y0212452D02*
X0115139Y0212452D01*
X0116137Y0211454D02*
X0094011Y0211454D01*
X0094299Y0213451D02*
X0100892Y0213451D01*
X0100273Y0213707D02*
X0101780Y0213083D01*
X0103411Y0213083D01*
X0104918Y0213707D01*
X0106071Y0214861D01*
X0106695Y0216368D01*
X0106695Y0223999D01*
X0106071Y0225506D01*
X0104918Y0226659D01*
X0103411Y0227283D01*
X0101780Y0227283D01*
X0100273Y0226659D01*
X0099119Y0225506D01*
X0098495Y0223999D01*
X0098495Y0216368D01*
X0099119Y0214861D01*
X0100273Y0213707D01*
X0099531Y0214449D02*
X0095660Y0214449D01*
X0096314Y0215448D02*
X0098876Y0215448D01*
X0098495Y0216446D02*
X0096695Y0216446D01*
X0096695Y0217445D02*
X0098495Y0217445D01*
X0098495Y0218443D02*
X0096695Y0218443D01*
X0096695Y0219442D02*
X0098495Y0219442D01*
X0098495Y0220440D02*
X0096695Y0220440D01*
X0096695Y0221439D02*
X0098495Y0221439D01*
X0098495Y0222437D02*
X0096695Y0222437D01*
X0096695Y0223436D02*
X0098495Y0223436D01*
X0098676Y0224434D02*
X0096515Y0224434D01*
X0096101Y0225433D02*
X0099089Y0225433D01*
X0100045Y0226431D02*
X0095145Y0226431D01*
X0105145Y0226431D02*
X0110045Y0226431D01*
X0109089Y0225433D02*
X0106101Y0225433D01*
X0106515Y0224434D02*
X0108676Y0224434D01*
X0108495Y0223436D02*
X0106695Y0223436D01*
X0106695Y0222437D02*
X0108495Y0222437D01*
X0108495Y0221439D02*
X0106695Y0221439D01*
X0106695Y0220440D02*
X0108495Y0220440D01*
X0108495Y0219442D02*
X0106695Y0219442D01*
X0106695Y0218443D02*
X0108495Y0218443D01*
X0108495Y0217445D02*
X0106695Y0217445D01*
X0106695Y0216446D02*
X0108495Y0216446D01*
X0108876Y0215448D02*
X0106314Y0215448D01*
X0105660Y0214449D02*
X0109531Y0214449D01*
X0110892Y0213451D02*
X0104299Y0213451D01*
X0096497Y0201469D02*
X0133623Y0201469D01*
X0134621Y0200470D02*
X0097495Y0200470D01*
X0098494Y0199472D02*
X0101028Y0199472D01*
X0099587Y0198473D02*
X0099492Y0198473D01*
X0104162Y0199472D02*
X0111028Y0199472D01*
X0111780Y0199783D02*
X0110273Y0199159D01*
X0109119Y0198006D01*
X0108495Y0196499D01*
X0108495Y0188868D01*
X0109119Y0187361D01*
X0110273Y0186207D01*
X0111780Y0185583D01*
X0113411Y0185583D01*
X0114918Y0186207D01*
X0116071Y0187361D01*
X0116695Y0188868D01*
X0116695Y0196499D01*
X0116071Y0198006D01*
X0114918Y0199159D01*
X0113411Y0199783D01*
X0111780Y0199783D01*
X0114162Y0199472D02*
X0121028Y0199472D01*
X0121780Y0199783D02*
X0120273Y0199159D01*
X0119119Y0198006D01*
X0118495Y0196499D01*
X0118495Y0188868D01*
X0119119Y0187361D01*
X0120273Y0186207D01*
X0121780Y0185583D01*
X0123411Y0185583D01*
X0124918Y0186207D01*
X0126071Y0187361D01*
X0126695Y0188868D01*
X0126695Y0196499D01*
X0126071Y0198006D01*
X0124918Y0199159D01*
X0123411Y0199783D01*
X0121780Y0199783D01*
X0124162Y0199472D02*
X0131028Y0199472D01*
X0131780Y0199783D02*
X0130273Y0199159D01*
X0129119Y0198006D01*
X0128495Y0196499D01*
X0128495Y0188868D01*
X0129119Y0187361D01*
X0130273Y0186207D01*
X0131780Y0185583D01*
X0133411Y0185583D01*
X0134918Y0186207D01*
X0136071Y0187361D01*
X0136695Y0188868D01*
X0136695Y0196499D01*
X0136071Y0198006D01*
X0134918Y0199159D01*
X0133411Y0199783D01*
X0131780Y0199783D01*
X0134162Y0199472D02*
X0135620Y0199472D01*
X0135603Y0198473D02*
X0136618Y0198473D01*
X0136291Y0197475D02*
X0139096Y0197475D01*
X0138682Y0196476D02*
X0136695Y0196476D01*
X0136695Y0195478D02*
X0138648Y0195478D01*
X0138648Y0194479D02*
X0136695Y0194479D01*
X0136695Y0193481D02*
X0138648Y0193481D01*
X0138648Y0192482D02*
X0136695Y0192482D01*
X0136695Y0191484D02*
X0138648Y0191484D01*
X0138648Y0190485D02*
X0136695Y0190485D01*
X0136695Y0189487D02*
X0138648Y0189487D01*
X0138762Y0188488D02*
X0136538Y0188488D01*
X0136124Y0187490D02*
X0139175Y0187490D01*
X0140037Y0186491D02*
X0135201Y0186491D01*
X0129989Y0186491D02*
X0125201Y0186491D01*
X0126124Y0187490D02*
X0129066Y0187490D01*
X0128652Y0188488D02*
X0126538Y0188488D01*
X0126695Y0189487D02*
X0128495Y0189487D01*
X0128495Y0190485D02*
X0126695Y0190485D01*
X0126695Y0191484D02*
X0128495Y0191484D01*
X0128495Y0192482D02*
X0126695Y0192482D01*
X0126695Y0193481D02*
X0128495Y0193481D01*
X0128495Y0194479D02*
X0126695Y0194479D01*
X0126695Y0195478D02*
X0128495Y0195478D01*
X0128495Y0196476D02*
X0126695Y0196476D01*
X0126291Y0197475D02*
X0128899Y0197475D01*
X0129587Y0198473D02*
X0125603Y0198473D01*
X0119587Y0198473D02*
X0115603Y0198473D01*
X0116291Y0197475D02*
X0118899Y0197475D01*
X0118495Y0196476D02*
X0116695Y0196476D01*
X0116695Y0195478D02*
X0118495Y0195478D01*
X0118495Y0194479D02*
X0116695Y0194479D01*
X0116695Y0193481D02*
X0118495Y0193481D01*
X0118495Y0192482D02*
X0116695Y0192482D01*
X0116695Y0191484D02*
X0118495Y0191484D01*
X0118495Y0190485D02*
X0116695Y0190485D01*
X0116695Y0189487D02*
X0118495Y0189487D01*
X0118652Y0188488D02*
X0116538Y0188488D01*
X0116124Y0187490D02*
X0119066Y0187490D01*
X0119989Y0186491D02*
X0115201Y0186491D01*
X0109989Y0186491D02*
X0105201Y0186491D01*
X0106124Y0187490D02*
X0109066Y0187490D01*
X0108652Y0188488D02*
X0106538Y0188488D01*
X0106695Y0189487D02*
X0108495Y0189487D01*
X0108495Y0190485D02*
X0106695Y0190485D01*
X0106695Y0191484D02*
X0108495Y0191484D01*
X0108495Y0192482D02*
X0106695Y0192482D01*
X0106695Y0193481D02*
X0108495Y0193481D01*
X0108495Y0194479D02*
X0106695Y0194479D01*
X0106695Y0195478D02*
X0108495Y0195478D01*
X0108495Y0196476D02*
X0106695Y0196476D01*
X0106291Y0197475D02*
X0108899Y0197475D01*
X0109587Y0198473D02*
X0105603Y0198473D01*
X0097099Y0185493D02*
X0096495Y0185493D01*
X0096495Y0184494D02*
X0098097Y0184494D01*
X0099096Y0183496D02*
X0096495Y0183496D01*
X0096495Y0182497D02*
X0100094Y0182497D01*
X0101093Y0181498D02*
X0096495Y0181498D01*
X0096495Y0180500D02*
X0102091Y0180500D01*
X0103090Y0179501D02*
X0096495Y0179501D01*
X0096495Y0178503D02*
X0104088Y0178503D01*
X0105087Y0177504D02*
X0096495Y0177504D01*
X0096495Y0176506D02*
X0106085Y0176506D01*
X0107084Y0175507D02*
X0096495Y0175507D01*
X0096495Y0174509D02*
X0108082Y0174509D01*
X0109081Y0173510D02*
X0096495Y0173510D01*
X0097032Y0172512D02*
X0110079Y0172512D01*
X0111078Y0171513D02*
X0098030Y0171513D01*
X0099029Y0170515D02*
X0112076Y0170515D01*
X0113075Y0169516D02*
X0100027Y0169516D01*
X0101026Y0168518D02*
X0114073Y0168518D01*
X0115072Y0167519D02*
X0102024Y0167519D01*
X0103023Y0166521D02*
X0116070Y0166521D01*
X0117069Y0165522D02*
X0104021Y0165522D01*
X0105020Y0164524D02*
X0118067Y0164524D01*
X0113174Y0160530D02*
X0109014Y0160530D01*
X0108015Y0161528D02*
X0131253Y0161528D01*
X0132252Y0162527D02*
X0107017Y0162527D01*
X0106018Y0163525D02*
X0133250Y0163525D01*
X0135882Y0160783D02*
X0137910Y0160783D01*
X0137608Y0160053D01*
X0137608Y0159758D01*
X0134933Y0157083D01*
X0132182Y0157083D01*
X0135882Y0160783D01*
X0135629Y0160530D02*
X0137805Y0160530D01*
X0137381Y0159531D02*
X0134630Y0159531D01*
X0133632Y0158533D02*
X0136383Y0158533D01*
X0135384Y0157534D02*
X0132633Y0157534D01*
X0135392Y0152542D02*
X0124651Y0152542D01*
X0123039Y0152542D02*
X0117002Y0152542D01*
X0116970Y0153540D02*
X0116003Y0153540D01*
X0116420Y0154539D02*
X0115005Y0154539D01*
X0114006Y0155537D02*
X0116358Y0155537D01*
X0116713Y0156536D02*
X0115807Y0156536D01*
X0114383Y0156536D02*
X0113008Y0156536D01*
X0112982Y0157534D02*
X0112009Y0157534D01*
X0112608Y0158533D02*
X0111011Y0158533D01*
X0110012Y0159531D02*
X0112651Y0159531D01*
X0118001Y0151543D02*
X0121716Y0151543D01*
X0121358Y0150545D02*
X0118999Y0150545D01*
X0119998Y0149546D02*
X0121417Y0149546D01*
X0120996Y0148548D02*
X0121963Y0148548D01*
X0079045Y0148548D02*
X0046856Y0148548D01*
X0047195Y0149546D02*
X0079045Y0149546D01*
X0079045Y0150545D02*
X0047195Y0150545D01*
X0046970Y0151543D02*
X0079045Y0151543D01*
X0079045Y0152542D02*
X0046535Y0152542D01*
X0045536Y0153540D02*
X0079045Y0153540D01*
X0079045Y0147549D02*
X0046259Y0147549D01*
X0045039Y0146551D02*
X0079045Y0146551D01*
X0034639Y0163525D02*
X0034595Y0163525D01*
X0034595Y0166521D02*
X0035223Y0166521D01*
X0034624Y0173510D02*
X0034595Y0173510D01*
X0034595Y0174509D02*
X0088695Y0174509D01*
X0088695Y0175507D02*
X0034595Y0175507D01*
X0034595Y0176506D02*
X0035259Y0176506D01*
X0034609Y0183496D02*
X0034595Y0183496D01*
X0046994Y0191484D02*
X0061108Y0191484D01*
X0060109Y0192482D02*
X0046581Y0192482D01*
X0045596Y0193481D02*
X0059111Y0193481D01*
X0068564Y0204464D02*
X0034595Y0204464D01*
X0034595Y0205463D02*
X0069563Y0205463D01*
X0035367Y0206461D02*
X0034595Y0206461D01*
X0034595Y0196476D02*
X0035331Y0196476D01*
X0058236Y0228429D02*
X0075695Y0228429D01*
X0075695Y0229427D02*
X0059992Y0229427D01*
X0061483Y0230426D02*
X0075695Y0230426D01*
X0075695Y0231424D02*
X0074634Y0231424D01*
X0075633Y0232423D02*
X0075695Y0232423D01*
X0079495Y0232423D02*
X0079557Y0232423D01*
X0075695Y0238414D02*
X0075163Y0238414D01*
X0076637Y0239412D02*
X0066022Y0239412D01*
X0065992Y0238414D02*
X0070027Y0238414D01*
X0069029Y0237415D02*
X0065725Y0237415D01*
X0065457Y0236417D02*
X0068495Y0236417D01*
X0068495Y0235418D02*
X0065190Y0235418D01*
X0064644Y0234420D02*
X0068495Y0234420D01*
X0068559Y0233421D02*
X0064067Y0233421D01*
X0063480Y0232423D02*
X0069557Y0232423D01*
X0070556Y0231424D02*
X0062482Y0231424D01*
X0086695Y0246402D02*
X0088495Y0246402D01*
X0089014Y0247400D02*
X0086176Y0247400D01*
X0135838Y0225739D02*
X0135882Y0225783D01*
X0139397Y0225783D01*
X0139119Y0225506D01*
X0138495Y0223999D01*
X0138495Y0216368D01*
X0139119Y0214861D01*
X0139397Y0214583D01*
X0135793Y0214583D01*
X0136071Y0214861D01*
X0136695Y0216368D01*
X0136695Y0223999D01*
X0136071Y0225506D01*
X0135838Y0225739D01*
X0136101Y0225433D02*
X0139089Y0225433D01*
X0138676Y0224434D02*
X0136515Y0224434D01*
X0136695Y0223436D02*
X0138495Y0223436D01*
X0138495Y0222437D02*
X0136695Y0222437D01*
X0136695Y0221439D02*
X0138495Y0221439D01*
X0138495Y0220440D02*
X0136695Y0220440D01*
X0136695Y0219442D02*
X0138495Y0219442D01*
X0138495Y0218443D02*
X0136695Y0218443D01*
X0136695Y0217445D02*
X0138495Y0217445D01*
X0138495Y0216446D02*
X0136695Y0216446D01*
X0136314Y0215448D02*
X0138876Y0215448D01*
X0145793Y0214583D02*
X0146071Y0214861D01*
X0146695Y0216368D01*
X0146695Y0223999D01*
X0146071Y0225506D01*
X0145793Y0225783D01*
X0149397Y0225783D01*
X0149119Y0225506D01*
X0148495Y0223999D01*
X0148495Y0216368D01*
X0149119Y0214861D01*
X0149397Y0214583D01*
X0145793Y0214583D01*
X0146314Y0215448D02*
X0148876Y0215448D01*
X0148495Y0216446D02*
X0146695Y0216446D01*
X0146695Y0217445D02*
X0148495Y0217445D01*
X0148495Y0218443D02*
X0146695Y0218443D01*
X0146695Y0219442D02*
X0148495Y0219442D01*
X0148495Y0220440D02*
X0146695Y0220440D01*
X0146695Y0221439D02*
X0148495Y0221439D01*
X0148495Y0222437D02*
X0146695Y0222437D01*
X0146695Y0223436D02*
X0148495Y0223436D01*
X0148676Y0224434D02*
X0146515Y0224434D01*
X0146101Y0225433D02*
X0149089Y0225433D01*
X0163035Y0227430D02*
X0166411Y0227430D01*
X0167410Y0226431D02*
X0165145Y0226431D01*
X0166101Y0225433D02*
X0168408Y0225433D01*
X0168676Y0224434D02*
X0166515Y0224434D01*
X0166695Y0223436D02*
X0168495Y0223436D01*
X0168495Y0222437D02*
X0166695Y0222437D01*
X0166695Y0221439D02*
X0168495Y0221439D01*
X0168495Y0220440D02*
X0166695Y0220440D01*
X0166695Y0219442D02*
X0168495Y0219442D01*
X0168495Y0218443D02*
X0166695Y0218443D01*
X0166695Y0217445D02*
X0168495Y0217445D01*
X0168495Y0216446D02*
X0166695Y0216446D01*
X0166314Y0215448D02*
X0167673Y0215448D01*
X0165859Y0204464D02*
X0163501Y0204464D01*
X0164499Y0203466D02*
X0165227Y0203466D01*
X0159530Y0198473D02*
X0155494Y0198473D01*
X0156226Y0197475D02*
X0158781Y0197475D01*
X0158367Y0196476D02*
X0156599Y0196476D01*
X0156690Y0195478D02*
X0158333Y0195478D01*
X0158333Y0194479D02*
X0156690Y0194479D01*
X0156690Y0193481D02*
X0158333Y0193481D01*
X0166533Y0193481D02*
X0169111Y0193481D01*
X0168112Y0194479D02*
X0166533Y0194479D01*
X0166533Y0195478D02*
X0167114Y0195478D01*
X0166533Y0192482D02*
X0170109Y0192482D01*
X0171108Y0191484D02*
X0166533Y0191484D01*
X0166533Y0190485D02*
X0172106Y0190485D01*
X0173105Y0189487D02*
X0166533Y0189487D01*
X0166419Y0188488D02*
X0174103Y0188488D01*
X0175102Y0187490D02*
X0166006Y0187490D01*
X0165144Y0186491D02*
X0176100Y0186491D01*
X0177099Y0185493D02*
X0171321Y0185493D01*
X0172296Y0184494D02*
X0178097Y0184494D01*
X0179096Y0183496D02*
X0172583Y0183496D01*
X0172452Y0182497D02*
X0180094Y0182497D01*
X0181093Y0181498D02*
X0171803Y0181498D01*
X0168869Y0185493D02*
X0163283Y0185493D01*
X0153090Y0186491D02*
X0152090Y0186491D01*
X0155397Y0179501D02*
X0108464Y0179501D01*
X0109462Y0178503D02*
X0155108Y0178503D01*
X0155236Y0177504D02*
X0110461Y0177504D01*
X0111459Y0176506D02*
X0155880Y0176506D01*
X0148490Y0193481D02*
X0146848Y0193481D01*
X0146848Y0194479D02*
X0148490Y0194479D01*
X0148490Y0195478D02*
X0146848Y0195478D01*
X0146814Y0196476D02*
X0148582Y0196476D01*
X0148955Y0197475D02*
X0146400Y0197475D01*
X0148572Y0198473D02*
X0149687Y0198473D01*
X0149571Y0199472D02*
X0151305Y0199472D01*
X0150569Y0200470D02*
X0155813Y0200470D01*
X0149189Y0204464D02*
X0141684Y0204464D01*
X0141958Y0203466D02*
X0148191Y0203466D01*
X0147192Y0202467D02*
X0141814Y0202467D01*
X0139563Y0206461D02*
X0139004Y0206461D01*
X0178486Y0194479D02*
X0180248Y0194479D01*
X0179608Y0193481D02*
X0179485Y0193481D01*
X0194360Y0196476D02*
X0200504Y0196476D01*
X0199505Y0197475D02*
X0195685Y0197475D01*
X0196325Y0198473D02*
X0198507Y0198473D01*
X0198495Y0199472D02*
X0196695Y0199472D01*
X0196695Y0200470D02*
X0198495Y0200470D01*
X0198495Y0201469D02*
X0196500Y0201469D01*
X0196087Y0202467D02*
X0199081Y0202467D01*
X0196625Y0203466D02*
X0195111Y0203466D01*
X0195627Y0204464D02*
X0187490Y0204464D01*
X0188062Y0205463D02*
X0194628Y0205463D01*
X0197007Y0208458D02*
X0198522Y0208458D01*
X0198495Y0209457D02*
X0196695Y0209457D01*
X0196695Y0210455D02*
X0198495Y0210455D01*
X0198495Y0211454D02*
X0196695Y0211454D01*
X0196124Y0212452D02*
X0199066Y0212452D01*
X0200065Y0213451D02*
X0195126Y0213451D01*
X0195660Y0214449D02*
X0199531Y0214449D01*
X0198876Y0215448D02*
X0196314Y0215448D01*
X0196695Y0216446D02*
X0198495Y0216446D01*
X0198495Y0217445D02*
X0196695Y0217445D01*
X0196695Y0218443D02*
X0198495Y0218443D01*
X0198495Y0219442D02*
X0196695Y0219442D01*
X0196695Y0220440D02*
X0198495Y0220440D01*
X0198495Y0221439D02*
X0196695Y0221439D01*
X0196695Y0222437D02*
X0198495Y0222437D01*
X0198495Y0223436D02*
X0196695Y0223436D01*
X0196515Y0224434D02*
X0198676Y0224434D01*
X0199089Y0225433D02*
X0196101Y0225433D01*
X0195145Y0226431D02*
X0200045Y0226431D01*
X0205145Y0226431D02*
X0210091Y0226431D01*
X0209924Y0226310D02*
X0209468Y0225854D01*
X0209089Y0225332D01*
X0208796Y0224757D01*
X0208596Y0224143D01*
X0208495Y0223506D01*
X0208495Y0220683D01*
X0212095Y0220683D01*
X0212095Y0219683D01*
X0208495Y0219683D01*
X0208495Y0216860D01*
X0208596Y0216223D01*
X0208796Y0215609D01*
X0209089Y0215034D01*
X0209468Y0214512D01*
X0209924Y0214056D01*
X0210356Y0213742D01*
X0208495Y0211881D01*
X0208495Y0210683D01*
X0212095Y0210683D01*
X0212095Y0209683D01*
X0208495Y0209683D01*
X0208495Y0208485D01*
X0210897Y0206083D01*
X0212095Y0206083D01*
X0212095Y0209683D01*
X0213095Y0209683D01*
X0213095Y0206083D01*
X0214293Y0206083D01*
X0216695Y0208485D01*
X0216695Y0209683D01*
X0213095Y0209683D01*
X0213095Y0210683D01*
X0212095Y0210683D01*
X0212095Y0219683D01*
X0213095Y0219683D01*
X0213095Y0214283D01*
X0213095Y0210683D01*
X0216695Y0210683D01*
X0216695Y0211881D01*
X0214834Y0213742D01*
X0215266Y0214056D01*
X0215722Y0214512D01*
X0216102Y0215034D01*
X0216395Y0215609D01*
X0216594Y0216223D01*
X0216695Y0216860D01*
X0216695Y0219683D01*
X0213095Y0219683D01*
X0213095Y0220683D01*
X0212095Y0220683D01*
X0212095Y0227255D01*
X0211635Y0227182D01*
X0211021Y0226983D01*
X0210446Y0226690D01*
X0209924Y0226310D01*
X0209162Y0225433D02*
X0206101Y0225433D01*
X0206515Y0224434D02*
X0208691Y0224434D01*
X0208495Y0223436D02*
X0206695Y0223436D01*
X0206695Y0222437D02*
X0208495Y0222437D01*
X0208495Y0221439D02*
X0206695Y0221439D01*
X0206695Y0220440D02*
X0212095Y0220440D01*
X0212095Y0219442D02*
X0213095Y0219442D01*
X0213095Y0220440D02*
X0218495Y0220440D01*
X0218495Y0219442D02*
X0216695Y0219442D01*
X0216695Y0218443D02*
X0218495Y0218443D01*
X0218495Y0217445D02*
X0216695Y0217445D01*
X0216630Y0216446D02*
X0218495Y0216446D01*
X0218495Y0216368D02*
X0219119Y0214861D01*
X0220273Y0213707D01*
X0221780Y0213083D01*
X0223411Y0213083D01*
X0224918Y0213707D01*
X0226071Y0214861D01*
X0226695Y0216368D01*
X0226695Y0223999D01*
X0226071Y0225506D01*
X0224918Y0226659D01*
X0223411Y0227283D01*
X0221780Y0227283D01*
X0220273Y0226659D01*
X0219119Y0225506D01*
X0218495Y0223999D01*
X0218495Y0216368D01*
X0218876Y0215448D02*
X0216313Y0215448D01*
X0215660Y0214449D02*
X0219531Y0214449D01*
X0220892Y0213451D02*
X0215126Y0213451D01*
X0216124Y0212452D02*
X0259595Y0212452D01*
X0259595Y0212183D02*
X0253023Y0212183D01*
X0253096Y0211723D01*
X0253296Y0211109D01*
X0253589Y0210534D01*
X0253968Y0210012D01*
X0254424Y0209556D01*
X0254946Y0209176D01*
X0255521Y0208883D01*
X0256135Y0208684D01*
X0256772Y0208583D01*
X0259595Y0208583D01*
X0259595Y0212183D01*
X0259595Y0213183D01*
X0253023Y0213183D01*
X0253096Y0213643D01*
X0253296Y0214257D01*
X0253589Y0214832D01*
X0253968Y0215354D01*
X0254424Y0215810D01*
X0254946Y0216190D01*
X0255521Y0216483D01*
X0256135Y0216682D01*
X0256772Y0216783D01*
X0259595Y0216783D01*
X0259595Y0213183D01*
X0260595Y0213183D01*
X0260595Y0216783D01*
X0263418Y0216783D01*
X0264055Y0216682D01*
X0264669Y0216483D01*
X0265244Y0216190D01*
X0265766Y0215810D01*
X0266222Y0215354D01*
X0266602Y0214832D01*
X0266895Y0214257D01*
X0267094Y0213643D01*
X0267167Y0213183D01*
X0260595Y0213183D01*
X0260595Y0212183D01*
X0260595Y0208583D01*
X0263418Y0208583D01*
X0264055Y0208684D01*
X0264669Y0208883D01*
X0265244Y0209176D01*
X0265766Y0209556D01*
X0266222Y0210012D01*
X0266602Y0210534D01*
X0266895Y0211109D01*
X0267094Y0211723D01*
X0267167Y0212183D01*
X0260595Y0212183D01*
X0259595Y0212183D01*
X0259595Y0211454D02*
X0260595Y0211454D01*
X0260595Y0212452D02*
X0283345Y0212452D01*
X0283345Y0212183D02*
X0276773Y0212183D01*
X0276846Y0211723D01*
X0277046Y0211109D01*
X0277339Y0210534D01*
X0277718Y0210012D01*
X0278174Y0209556D01*
X0278696Y0209176D01*
X0279271Y0208883D01*
X0279885Y0208684D01*
X0280522Y0208583D01*
X0283345Y0208583D01*
X0283345Y0212183D01*
X0283345Y0213183D01*
X0276773Y0213183D01*
X0276846Y0213643D01*
X0277046Y0214257D01*
X0277339Y0214832D01*
X0277718Y0215354D01*
X0278174Y0215810D01*
X0278696Y0216190D01*
X0279271Y0216483D01*
X0279885Y0216682D01*
X0280522Y0216783D01*
X0283345Y0216783D01*
X0283345Y0213183D01*
X0284345Y0213183D01*
X0284345Y0216783D01*
X0287168Y0216783D01*
X0287805Y0216682D01*
X0288419Y0216483D01*
X0288994Y0216190D01*
X0289516Y0215810D01*
X0289972Y0215354D01*
X0290352Y0214832D01*
X0290645Y0214257D01*
X0290844Y0213643D01*
X0290917Y0213183D01*
X0284345Y0213183D01*
X0284345Y0212183D01*
X0284345Y0208583D01*
X0287168Y0208583D01*
X0287805Y0208684D01*
X0288419Y0208883D01*
X0288994Y0209176D01*
X0289516Y0209556D01*
X0289972Y0210012D01*
X0290352Y0210534D01*
X0290645Y0211109D01*
X0290844Y0211723D01*
X0290917Y0212183D01*
X0284345Y0212183D01*
X0283345Y0212183D01*
X0283345Y0211454D02*
X0284345Y0211454D01*
X0284345Y0212452D02*
X0300495Y0212452D01*
X0300495Y0211768D02*
X0300495Y0213598D01*
X0301195Y0215289D01*
X0302489Y0216583D01*
X0304180Y0217283D01*
X0306010Y0217283D01*
X0307701Y0216583D01*
X0308995Y0215289D01*
X0309695Y0213598D01*
X0309695Y0211768D01*
X0308995Y0210077D01*
X0307701Y0208783D01*
X0306010Y0208083D01*
X0304180Y0208083D01*
X0302489Y0208783D01*
X0301195Y0210077D01*
X0300495Y0211768D01*
X0300625Y0211454D02*
X0290757Y0211454D01*
X0290294Y0210455D02*
X0301039Y0210455D01*
X0301816Y0209457D02*
X0289380Y0209457D01*
X0288438Y0206461D02*
X0302368Y0206461D01*
X0302489Y0206583D02*
X0301195Y0205289D01*
X0300495Y0203598D01*
X0300495Y0201768D01*
X0301195Y0200077D01*
X0302489Y0198783D01*
X0304180Y0198083D01*
X0306010Y0198083D01*
X0307701Y0198783D01*
X0308995Y0200077D01*
X0309695Y0201768D01*
X0309695Y0203598D01*
X0308995Y0205289D01*
X0307701Y0206583D01*
X0306010Y0207283D01*
X0304180Y0207283D01*
X0302489Y0206583D01*
X0301369Y0205463D02*
X0289864Y0205463D01*
X0290545Y0204464D02*
X0300854Y0204464D01*
X0300495Y0203466D02*
X0290945Y0203466D01*
X0290945Y0202467D02*
X0300495Y0202467D01*
X0300619Y0201469D02*
X0290780Y0201469D01*
X0290366Y0200470D02*
X0301033Y0200470D01*
X0301801Y0199472D02*
X0289432Y0199472D01*
X0288402Y0196476D02*
X0302383Y0196476D01*
X0302489Y0196583D02*
X0301195Y0195289D01*
X0300495Y0193598D01*
X0300495Y0191768D01*
X0301195Y0190077D01*
X0302489Y0188783D01*
X0304180Y0188083D01*
X0306010Y0188083D01*
X0307701Y0188783D01*
X0308995Y0190077D01*
X0309695Y0191768D01*
X0309695Y0193598D01*
X0308995Y0195289D01*
X0307701Y0196583D01*
X0306010Y0197283D01*
X0304180Y0197283D01*
X0302489Y0196583D01*
X0301384Y0195478D02*
X0289849Y0195478D01*
X0290321Y0195006D02*
X0289168Y0196159D01*
X0287661Y0196783D01*
X0280030Y0196783D01*
X0278523Y0196159D01*
X0277369Y0195006D01*
X0276745Y0193499D01*
X0276745Y0191868D01*
X0277369Y0190361D01*
X0278523Y0189207D01*
X0280030Y0188583D01*
X0287661Y0188583D01*
X0289168Y0189207D01*
X0290321Y0190361D01*
X0290945Y0191868D01*
X0290945Y0193499D01*
X0290321Y0195006D01*
X0290539Y0194479D02*
X0300860Y0194479D01*
X0300495Y0193481D02*
X0290945Y0193481D01*
X0290945Y0192482D02*
X0300495Y0192482D01*
X0300613Y0191484D02*
X0290786Y0191484D01*
X0290373Y0190485D02*
X0301027Y0190485D01*
X0301786Y0189487D02*
X0289447Y0189487D01*
X0288366Y0186491D02*
X0302398Y0186491D01*
X0302489Y0186583D02*
X0301195Y0185289D01*
X0300495Y0183598D01*
X0300495Y0181768D01*
X0301195Y0180077D01*
X0302489Y0178783D01*
X0304180Y0178083D01*
X0306010Y0178083D01*
X0307701Y0178783D01*
X0308995Y0180077D01*
X0309695Y0181768D01*
X0309695Y0183598D01*
X0308995Y0185289D01*
X0307701Y0186583D01*
X0306010Y0187283D01*
X0304180Y0187283D01*
X0302489Y0186583D01*
X0301399Y0185493D02*
X0289834Y0185493D01*
X0290321Y0185006D02*
X0289168Y0186159D01*
X0287661Y0186783D01*
X0280030Y0186783D01*
X0278523Y0186159D01*
X0277369Y0185006D01*
X0276745Y0183499D01*
X0276745Y0181868D01*
X0277369Y0180361D01*
X0278523Y0179207D01*
X0280030Y0178583D01*
X0287661Y0178583D01*
X0289168Y0179207D01*
X0290321Y0180361D01*
X0290945Y0181868D01*
X0290945Y0183499D01*
X0290321Y0185006D01*
X0290533Y0184494D02*
X0300866Y0184494D01*
X0300495Y0183496D02*
X0290945Y0183496D01*
X0290945Y0182497D02*
X0300495Y0182497D01*
X0300607Y0181498D02*
X0290792Y0181498D01*
X0290379Y0180500D02*
X0301020Y0180500D01*
X0301771Y0179501D02*
X0289462Y0179501D01*
X0278228Y0179501D02*
X0265712Y0179501D01*
X0266629Y0180500D02*
X0277312Y0180500D01*
X0276898Y0181498D02*
X0267042Y0181498D01*
X0267195Y0182497D02*
X0276745Y0182497D01*
X0276745Y0183496D02*
X0267195Y0183496D01*
X0266783Y0184494D02*
X0277157Y0184494D01*
X0277856Y0185493D02*
X0266084Y0185493D01*
X0264616Y0186491D02*
X0279325Y0186491D01*
X0278243Y0189487D02*
X0265697Y0189487D01*
X0266623Y0190485D02*
X0277318Y0190485D01*
X0276904Y0191484D02*
X0267036Y0191484D01*
X0267195Y0192482D02*
X0276745Y0192482D01*
X0276745Y0193481D02*
X0267195Y0193481D01*
X0266789Y0194479D02*
X0277151Y0194479D01*
X0277841Y0195478D02*
X0266099Y0195478D01*
X0264652Y0196476D02*
X0279289Y0196476D01*
X0258901Y0198473D02*
X0303238Y0198473D01*
X0306952Y0198473D02*
X0333095Y0198473D01*
X0333095Y0197475D02*
X0257902Y0197475D01*
X0252862Y0203466D02*
X0215111Y0203466D01*
X0216109Y0202467D02*
X0251864Y0202467D01*
X0250865Y0201469D02*
X0216695Y0201469D01*
X0216695Y0200470D02*
X0227490Y0200470D01*
X0227001Y0199472D02*
X0216695Y0199472D01*
X0216684Y0198473D02*
X0226983Y0198473D01*
X0227411Y0197475D02*
X0215685Y0197475D01*
X0214686Y0196476D02*
X0228902Y0196476D01*
X0230239Y0195478D02*
X0212488Y0195478D01*
X0213486Y0194479D02*
X0231237Y0194479D01*
X0232236Y0193481D02*
X0214485Y0193481D01*
X0214853Y0192482D02*
X0233234Y0192482D01*
X0234233Y0191484D02*
X0215083Y0191484D01*
X0214895Y0190485D02*
X0235231Y0190485D01*
X0237610Y0193481D02*
X0246195Y0193481D01*
X0246195Y0194479D02*
X0236611Y0194479D01*
X0235613Y0195478D02*
X0246195Y0195478D01*
X0246409Y0196476D02*
X0234614Y0196476D01*
X0233616Y0197475D02*
X0246871Y0197475D01*
X0247870Y0198473D02*
X0232617Y0198473D01*
X0231939Y0199472D02*
X0248868Y0199472D01*
X0247886Y0198489D02*
X0247886Y0198489D01*
X0249867Y0200470D02*
X0231451Y0200470D01*
X0216669Y0208458D02*
X0303274Y0208458D01*
X0306916Y0208458D02*
X0333095Y0208458D01*
X0333095Y0207460D02*
X0215670Y0207460D01*
X0214672Y0206461D02*
X0255503Y0206461D01*
X0254077Y0205463D02*
X0207502Y0205463D01*
X0206504Y0206461D02*
X0210519Y0206461D01*
X0209520Y0207460D02*
X0205670Y0207460D01*
X0206669Y0208458D02*
X0208522Y0208458D01*
X0208495Y0209457D02*
X0206695Y0209457D01*
X0206695Y0210455D02*
X0212095Y0210455D01*
X0212095Y0209457D02*
X0213095Y0209457D01*
X0213095Y0210455D02*
X0253646Y0210455D01*
X0253184Y0211454D02*
X0216695Y0211454D01*
X0216695Y0209457D02*
X0254560Y0209457D01*
X0253066Y0213451D02*
X0224299Y0213451D01*
X0225660Y0214449D02*
X0253394Y0214449D01*
X0254062Y0215448D02*
X0226314Y0215448D01*
X0226695Y0216446D02*
X0255450Y0216446D01*
X0259595Y0216446D02*
X0260595Y0216446D01*
X0260595Y0215448D02*
X0259595Y0215448D01*
X0259595Y0214449D02*
X0260595Y0214449D01*
X0260595Y0213451D02*
X0259595Y0213451D01*
X0259595Y0210455D02*
X0260595Y0210455D01*
X0260595Y0209457D02*
X0259595Y0209457D01*
X0264688Y0206461D02*
X0279253Y0206461D01*
X0278310Y0209457D02*
X0265630Y0209457D01*
X0266544Y0210455D02*
X0277396Y0210455D01*
X0276934Y0211454D02*
X0267007Y0211454D01*
X0267125Y0213451D02*
X0276816Y0213451D01*
X0277144Y0214449D02*
X0266797Y0214449D01*
X0266129Y0215448D02*
X0277812Y0215448D01*
X0279200Y0216446D02*
X0264740Y0216446D01*
X0264293Y0231083D02*
X0266695Y0233485D01*
X0266695Y0234683D01*
X0263095Y0234683D01*
X0263095Y0231083D01*
X0264293Y0231083D01*
X0264634Y0231424D02*
X0272708Y0231424D01*
X0271710Y0232423D02*
X0265633Y0232423D01*
X0266631Y0233421D02*
X0271123Y0233421D01*
X0270547Y0234420D02*
X0266695Y0234420D01*
X0266695Y0235683D02*
X0263095Y0235683D01*
X0262095Y0235683D01*
X0262095Y0234683D01*
X0258495Y0234683D01*
X0258495Y0233485D01*
X0260897Y0231083D01*
X0262095Y0231083D01*
X0262095Y0234683D01*
X0263095Y0234683D01*
X0263095Y0235683D01*
X0263095Y0239283D01*
X0264293Y0239283D01*
X0266695Y0236881D01*
X0266695Y0235683D01*
X0266695Y0236417D02*
X0269733Y0236417D01*
X0269466Y0237415D02*
X0266161Y0237415D01*
X0265163Y0238414D02*
X0269198Y0238414D01*
X0269168Y0239412D02*
X0209495Y0239412D01*
X0209495Y0238414D02*
X0210027Y0238414D01*
X0209495Y0240411D02*
X0269168Y0240411D01*
X0269168Y0241409D02*
X0264620Y0241409D01*
X0264293Y0241083D02*
X0266695Y0243485D01*
X0266695Y0246881D01*
X0264293Y0249283D01*
X0260897Y0249283D01*
X0258495Y0246881D01*
X0258495Y0243485D01*
X0260897Y0241083D01*
X0264293Y0241083D01*
X0265618Y0242408D02*
X0269320Y0242408D01*
X0269588Y0243406D02*
X0266617Y0243406D01*
X0266695Y0244405D02*
X0269855Y0244405D01*
X0270233Y0245403D02*
X0266695Y0245403D01*
X0266695Y0246402D02*
X0270809Y0246402D01*
X0271386Y0247400D02*
X0266176Y0247400D01*
X0265178Y0248399D02*
X0272165Y0248399D01*
X0273163Y0249397D02*
X0208568Y0249397D01*
X0209495Y0248399D02*
X0210013Y0248399D01*
X0212095Y0248399D02*
X0213095Y0248399D01*
X0213095Y0249283D02*
X0213095Y0245683D01*
X0216695Y0245683D01*
X0216695Y0246881D01*
X0214293Y0249283D01*
X0213095Y0249283D01*
X0213095Y0247400D02*
X0212095Y0247400D01*
X0212095Y0246402D02*
X0213095Y0246402D01*
X0213095Y0245403D02*
X0218495Y0245403D01*
X0218495Y0244405D02*
X0216695Y0244405D01*
X0216617Y0243406D02*
X0218574Y0243406D01*
X0218495Y0243485D02*
X0220897Y0241083D01*
X0224293Y0241083D01*
X0226695Y0243485D01*
X0226695Y0246881D01*
X0224293Y0249283D01*
X0220897Y0249283D01*
X0218495Y0246881D01*
X0218495Y0243485D01*
X0219572Y0242408D02*
X0215618Y0242408D01*
X0214620Y0241409D02*
X0220571Y0241409D01*
X0220897Y0239283D02*
X0218495Y0236881D01*
X0218495Y0233485D01*
X0220897Y0231083D01*
X0224293Y0231083D01*
X0226695Y0233485D01*
X0226695Y0236881D01*
X0224293Y0239283D01*
X0220897Y0239283D01*
X0220027Y0238414D02*
X0215163Y0238414D01*
X0216161Y0237415D02*
X0219029Y0237415D01*
X0218495Y0236417D02*
X0216695Y0236417D01*
X0216695Y0235418D02*
X0218495Y0235418D01*
X0218495Y0234420D02*
X0216695Y0234420D01*
X0216631Y0233421D02*
X0218559Y0233421D01*
X0219557Y0232423D02*
X0215633Y0232423D01*
X0214634Y0231424D02*
X0220556Y0231424D01*
X0224634Y0231424D02*
X0230556Y0231424D01*
X0230897Y0231083D02*
X0228495Y0233485D01*
X0228495Y0236881D01*
X0230897Y0239283D01*
X0234293Y0239283D01*
X0236695Y0236881D01*
X0236695Y0233485D01*
X0234293Y0231083D01*
X0230897Y0231083D01*
X0229557Y0232423D02*
X0225633Y0232423D01*
X0226631Y0233421D02*
X0228559Y0233421D01*
X0228495Y0234420D02*
X0226695Y0234420D01*
X0226695Y0235418D02*
X0228495Y0235418D01*
X0228495Y0236417D02*
X0226695Y0236417D01*
X0226161Y0237415D02*
X0229029Y0237415D01*
X0230027Y0238414D02*
X0225163Y0238414D01*
X0224620Y0241409D02*
X0230571Y0241409D01*
X0230897Y0241083D02*
X0232095Y0241083D01*
X0232095Y0244683D01*
X0228495Y0244683D01*
X0228495Y0243485D01*
X0230897Y0241083D01*
X0232095Y0241409D02*
X0233095Y0241409D01*
X0233095Y0241083D02*
X0234293Y0241083D01*
X0236695Y0243485D01*
X0236695Y0244683D01*
X0233095Y0244683D01*
X0233095Y0241083D01*
X0233095Y0242408D02*
X0232095Y0242408D01*
X0232095Y0243406D02*
X0233095Y0243406D01*
X0233095Y0244405D02*
X0232095Y0244405D01*
X0232095Y0244683D02*
X0233095Y0244683D01*
X0233095Y0245683D01*
X0232095Y0245683D01*
X0232095Y0244683D01*
X0232095Y0245403D02*
X0226695Y0245403D01*
X0226695Y0244405D02*
X0228495Y0244405D01*
X0228574Y0243406D02*
X0226617Y0243406D01*
X0225618Y0242408D02*
X0229572Y0242408D01*
X0228495Y0245683D02*
X0232095Y0245683D01*
X0232095Y0249283D01*
X0230897Y0249283D01*
X0228495Y0246881D01*
X0228495Y0245683D01*
X0228495Y0246402D02*
X0226695Y0246402D01*
X0226176Y0247400D02*
X0229014Y0247400D01*
X0230013Y0248399D02*
X0225178Y0248399D01*
X0220013Y0248399D02*
X0215178Y0248399D01*
X0216176Y0247400D02*
X0219014Y0247400D01*
X0218495Y0246402D02*
X0216695Y0246402D01*
X0213095Y0244405D02*
X0212095Y0244405D01*
X0212095Y0243406D02*
X0213095Y0243406D01*
X0213095Y0242408D02*
X0212095Y0242408D01*
X0212095Y0241409D02*
X0213095Y0241409D01*
X0210571Y0241409D02*
X0209495Y0241409D01*
X0209495Y0242408D02*
X0209572Y0242408D01*
X0205695Y0242408D02*
X0205618Y0242408D01*
X0205695Y0242485D02*
X0205695Y0237881D01*
X0204293Y0239283D01*
X0200897Y0239283D01*
X0198495Y0236881D01*
X0198495Y0233485D01*
X0199897Y0232083D01*
X0195293Y0232083D01*
X0196695Y0233485D01*
X0196695Y0234683D01*
X0193095Y0234683D01*
X0193095Y0235683D01*
X0192095Y0235683D01*
X0192095Y0239283D01*
X0191882Y0239283D01*
X0193382Y0240783D01*
X0193682Y0241083D01*
X0194293Y0241083D01*
X0196695Y0243485D01*
X0196695Y0246881D01*
X0195293Y0248283D01*
X0199897Y0248283D01*
X0198495Y0246881D01*
X0198495Y0243485D01*
X0200897Y0241083D01*
X0204293Y0241083D01*
X0205695Y0242485D01*
X0205695Y0241409D02*
X0204619Y0241409D01*
X0205695Y0240411D02*
X0193010Y0240411D01*
X0193095Y0239283D02*
X0193095Y0235683D01*
X0196695Y0235683D01*
X0196695Y0236881D01*
X0194293Y0239283D01*
X0193095Y0239283D01*
X0193095Y0238414D02*
X0192095Y0238414D01*
X0192095Y0237415D02*
X0193095Y0237415D01*
X0193095Y0236417D02*
X0192095Y0236417D01*
X0192095Y0235418D02*
X0186695Y0235418D01*
X0186695Y0234420D02*
X0188495Y0234420D01*
X0188559Y0233421D02*
X0186631Y0233421D01*
X0185633Y0232423D02*
X0189557Y0232423D01*
X0188495Y0236417D02*
X0186695Y0236417D01*
X0186161Y0237415D02*
X0189029Y0237415D01*
X0192011Y0239412D02*
X0205695Y0239412D01*
X0205695Y0238414D02*
X0205163Y0238414D01*
X0200027Y0238414D02*
X0195163Y0238414D01*
X0196161Y0237415D02*
X0199029Y0237415D01*
X0198495Y0236417D02*
X0196695Y0236417D01*
X0196695Y0234420D02*
X0198495Y0234420D01*
X0198495Y0235418D02*
X0193095Y0235418D01*
X0195633Y0232423D02*
X0199557Y0232423D01*
X0198559Y0233421D02*
X0196631Y0233421D01*
X0192529Y0227430D02*
X0333095Y0227430D01*
X0333095Y0226431D02*
X0225145Y0226431D01*
X0226101Y0225433D02*
X0333095Y0225433D01*
X0333095Y0224434D02*
X0226515Y0224434D01*
X0226695Y0223436D02*
X0333095Y0223436D01*
X0333095Y0222437D02*
X0226695Y0222437D01*
X0226695Y0221439D02*
X0333095Y0221439D01*
X0333095Y0220440D02*
X0226695Y0220440D01*
X0226695Y0219442D02*
X0333095Y0219442D01*
X0333095Y0218443D02*
X0226695Y0218443D01*
X0226695Y0217445D02*
X0333095Y0217445D01*
X0333095Y0216446D02*
X0307837Y0216446D01*
X0308836Y0215448D02*
X0333095Y0215448D01*
X0333095Y0214449D02*
X0309343Y0214449D01*
X0309695Y0213451D02*
X0333095Y0213451D01*
X0333095Y0212452D02*
X0309695Y0212452D01*
X0309565Y0211454D02*
X0333095Y0211454D01*
X0333095Y0210455D02*
X0309151Y0210455D01*
X0308374Y0209457D02*
X0333095Y0209457D01*
X0333095Y0206461D02*
X0307822Y0206461D01*
X0308821Y0205463D02*
X0333095Y0205463D01*
X0333095Y0204464D02*
X0309336Y0204464D01*
X0309695Y0203466D02*
X0333095Y0203466D01*
X0333095Y0202467D02*
X0309695Y0202467D01*
X0309571Y0201469D02*
X0333095Y0201469D01*
X0333095Y0200470D02*
X0309158Y0200470D01*
X0308389Y0199472D02*
X0333095Y0199472D01*
X0333095Y0196476D02*
X0307807Y0196476D01*
X0308806Y0195478D02*
X0333095Y0195478D01*
X0333095Y0194479D02*
X0309330Y0194479D01*
X0309695Y0193481D02*
X0333095Y0193481D01*
X0333095Y0192482D02*
X0309695Y0192482D01*
X0309577Y0191484D02*
X0333095Y0191484D01*
X0333095Y0190485D02*
X0309164Y0190485D01*
X0308404Y0189487D02*
X0333095Y0189487D01*
X0333095Y0188488D02*
X0306988Y0188488D01*
X0307793Y0186491D02*
X0333095Y0186491D01*
X0333095Y0185493D02*
X0308791Y0185493D01*
X0309324Y0184494D02*
X0333095Y0184494D01*
X0333095Y0183496D02*
X0309695Y0183496D01*
X0309695Y0182497D02*
X0333095Y0182497D01*
X0333095Y0181498D02*
X0309583Y0181498D01*
X0309170Y0180500D02*
X0333095Y0180500D01*
X0333095Y0179501D02*
X0308419Y0179501D01*
X0307024Y0178503D02*
X0333095Y0178503D01*
X0333095Y0177504D02*
X0253995Y0177504D01*
X0253995Y0176506D02*
X0333095Y0176506D01*
X0333095Y0175507D02*
X0253995Y0175507D01*
X0253995Y0174509D02*
X0333095Y0174509D01*
X0333095Y0173510D02*
X0253995Y0173510D01*
X0253995Y0172512D02*
X0333095Y0172512D01*
X0333095Y0171513D02*
X0253995Y0171513D01*
X0253995Y0170515D02*
X0333095Y0170515D01*
X0333095Y0169516D02*
X0253995Y0169516D01*
X0253995Y0168518D02*
X0333095Y0168518D01*
X0333095Y0167519D02*
X0253995Y0167519D01*
X0253995Y0166521D02*
X0302551Y0166521D01*
X0302684Y0166617D02*
X0302098Y0166192D01*
X0301586Y0165680D01*
X0301161Y0165094D01*
X0300832Y0164449D01*
X0300608Y0163760D01*
X0300517Y0163183D01*
X0304595Y0163183D01*
X0304595Y0162183D01*
X0300517Y0162183D01*
X0300608Y0161606D01*
X0300832Y0160917D01*
X0301161Y0160272D01*
X0301586Y0159686D01*
X0302098Y0159174D01*
X0302684Y0158749D01*
X0303329Y0158420D01*
X0304018Y0158196D01*
X0304595Y0158105D01*
X0304595Y0162183D01*
X0305595Y0162183D01*
X0305595Y0158105D01*
X0306172Y0158196D01*
X0306861Y0158420D01*
X0307506Y0158749D01*
X0308092Y0159174D01*
X0308604Y0159686D01*
X0309029Y0160272D01*
X0309358Y0160917D01*
X0309582Y0161606D01*
X0309673Y0162183D01*
X0305595Y0162183D01*
X0305595Y0163183D01*
X0304595Y0163183D01*
X0304595Y0167261D01*
X0304018Y0167170D01*
X0303329Y0166946D01*
X0302684Y0166617D01*
X0301472Y0165522D02*
X0253995Y0165522D01*
X0253995Y0164524D02*
X0300870Y0164524D01*
X0300571Y0163525D02*
X0253995Y0163525D01*
X0253995Y0162527D02*
X0304595Y0162527D01*
X0304595Y0163525D02*
X0305595Y0163525D01*
X0305595Y0163183D02*
X0305595Y0167261D01*
X0306172Y0167170D01*
X0306861Y0166946D01*
X0307506Y0166617D01*
X0308092Y0166192D01*
X0308604Y0165680D01*
X0309029Y0165094D01*
X0309358Y0164449D01*
X0309582Y0163760D01*
X0309673Y0163183D01*
X0305595Y0163183D01*
X0305595Y0162527D02*
X0333095Y0162527D01*
X0333095Y0163525D02*
X0309619Y0163525D01*
X0309320Y0164524D02*
X0333095Y0164524D01*
X0333095Y0165522D02*
X0308718Y0165522D01*
X0307639Y0166521D02*
X0333095Y0166521D01*
X0333095Y0161528D02*
X0309557Y0161528D01*
X0309161Y0160530D02*
X0333095Y0160530D01*
X0333095Y0159531D02*
X0308449Y0159531D01*
X0307082Y0158533D02*
X0333095Y0158533D01*
X0333095Y0157534D02*
X0272695Y0157534D01*
X0272695Y0156536D02*
X0302442Y0156536D01*
X0302489Y0156583D02*
X0301195Y0155289D01*
X0300495Y0153598D01*
X0300495Y0151768D01*
X0301195Y0150077D01*
X0302489Y0148783D01*
X0304180Y0148083D01*
X0306010Y0148083D01*
X0307701Y0148783D01*
X0308995Y0150077D01*
X0309695Y0151768D01*
X0309695Y0153598D01*
X0308995Y0155289D01*
X0307701Y0156583D01*
X0306010Y0157283D01*
X0304180Y0157283D01*
X0302489Y0156583D01*
X0301444Y0155537D02*
X0272695Y0155537D01*
X0272695Y0154539D02*
X0300885Y0154539D01*
X0300495Y0153540D02*
X0272695Y0153540D01*
X0272695Y0152542D02*
X0300495Y0152542D01*
X0300588Y0151543D02*
X0264345Y0151543D01*
X0264345Y0151933D02*
X0272695Y0151933D01*
X0272695Y0159328D01*
X0272620Y0159608D01*
X0272475Y0159858D01*
X0272271Y0160063D01*
X0272020Y0160208D01*
X0271740Y0160283D01*
X0264345Y0160283D01*
X0264345Y0151933D01*
X0264345Y0152542D02*
X0263345Y0152542D01*
X0263345Y0153540D02*
X0264345Y0153540D01*
X0264345Y0154539D02*
X0263345Y0154539D01*
X0263345Y0155537D02*
X0264345Y0155537D01*
X0264345Y0156536D02*
X0263345Y0156536D01*
X0263345Y0157534D02*
X0264345Y0157534D01*
X0264345Y0158533D02*
X0263345Y0158533D01*
X0263345Y0159531D02*
X0264345Y0159531D01*
X0272641Y0159531D02*
X0301742Y0159531D01*
X0301030Y0160530D02*
X0253995Y0160530D01*
X0253995Y0161528D02*
X0300634Y0161528D01*
X0303108Y0158533D02*
X0272695Y0158533D01*
X0272695Y0150545D02*
X0301002Y0150545D01*
X0301727Y0149546D02*
X0272695Y0149546D01*
X0272695Y0148548D02*
X0303059Y0148548D01*
X0307132Y0148548D02*
X0333095Y0148548D01*
X0333095Y0149546D02*
X0308464Y0149546D01*
X0309188Y0150545D02*
X0333095Y0150545D01*
X0333095Y0151543D02*
X0309602Y0151543D01*
X0309695Y0152542D02*
X0333095Y0152542D01*
X0333095Y0153540D02*
X0309695Y0153540D01*
X0309306Y0154539D02*
X0333095Y0154539D01*
X0333095Y0155537D02*
X0308746Y0155537D01*
X0307748Y0156536D02*
X0333095Y0156536D01*
X0333095Y0147549D02*
X0272695Y0147549D01*
X0272695Y0146551D02*
X0333095Y0146551D01*
X0333095Y0145552D02*
X0272695Y0145552D01*
X0272695Y0144554D02*
X0333095Y0144554D01*
X0333095Y0143555D02*
X0272695Y0143555D01*
X0264345Y0143555D02*
X0263345Y0143555D01*
X0263345Y0144554D02*
X0264345Y0144554D01*
X0264345Y0145552D02*
X0263345Y0145552D01*
X0263345Y0146551D02*
X0264345Y0146551D01*
X0264345Y0147549D02*
X0263345Y0147549D01*
X0263345Y0148548D02*
X0264345Y0148548D01*
X0264345Y0149546D02*
X0263345Y0149546D01*
X0263345Y0150545D02*
X0264345Y0150545D01*
X0237495Y0146551D02*
X0230995Y0146551D01*
X0231751Y0145552D02*
X0237495Y0145552D01*
X0237495Y0144554D02*
X0231958Y0144554D01*
X0231747Y0143555D02*
X0237495Y0143555D01*
X0230986Y0142557D02*
X0333095Y0142557D01*
X0333095Y0141558D02*
X0204495Y0141558D01*
X0204495Y0140560D02*
X0333095Y0140560D01*
X0333095Y0139561D02*
X0231515Y0139561D01*
X0232514Y0138563D02*
X0333095Y0138563D01*
X0333095Y0137564D02*
X0232945Y0137564D01*
X0232945Y0136565D02*
X0302472Y0136565D01*
X0302489Y0136583D02*
X0301195Y0135289D01*
X0300495Y0133598D01*
X0300495Y0131768D01*
X0301195Y0130077D01*
X0302489Y0128783D01*
X0304180Y0128083D01*
X0306010Y0128083D01*
X0307701Y0128783D01*
X0308995Y0130077D01*
X0309695Y0131768D01*
X0309695Y0133598D01*
X0308995Y0135289D01*
X0307701Y0136583D01*
X0306010Y0137283D01*
X0304180Y0137283D01*
X0302489Y0136583D01*
X0301474Y0135567D02*
X0232945Y0135567D01*
X0232779Y0134568D02*
X0300897Y0134568D01*
X0300495Y0133570D02*
X0281730Y0133570D01*
X0282304Y0133332D02*
X0280871Y0133926D01*
X0279319Y0133926D01*
X0277886Y0133332D01*
X0276789Y0132235D01*
X0276195Y0130801D01*
X0276195Y0129250D01*
X0276789Y0127816D01*
X0277886Y0126719D01*
X0279319Y0126126D01*
X0280871Y0126126D01*
X0282304Y0126719D01*
X0283401Y0127816D01*
X0283995Y0129250D01*
X0283995Y0130801D01*
X0283401Y0132235D01*
X0282304Y0133332D01*
X0283065Y0132571D02*
X0300495Y0132571D01*
X0300576Y0131573D02*
X0283676Y0131573D01*
X0283995Y0130574D02*
X0300990Y0130574D01*
X0301697Y0129576D02*
X0283995Y0129576D01*
X0283717Y0128577D02*
X0302987Y0128577D01*
X0304180Y0127283D02*
X0302489Y0126583D01*
X0301195Y0125289D01*
X0300495Y0123598D01*
X0300495Y0121768D01*
X0301195Y0120077D01*
X0302489Y0118783D01*
X0304180Y0118083D01*
X0306010Y0118083D01*
X0307701Y0118783D01*
X0308995Y0120077D01*
X0309695Y0121768D01*
X0309695Y0123598D01*
X0308995Y0125289D01*
X0307701Y0126583D01*
X0306010Y0127283D01*
X0304180Y0127283D01*
X0302487Y0126580D02*
X0281969Y0126580D01*
X0283164Y0127579D02*
X0333095Y0127579D01*
X0333095Y0128577D02*
X0307203Y0128577D01*
X0308493Y0129576D02*
X0333095Y0129576D01*
X0333095Y0130574D02*
X0309201Y0130574D01*
X0309614Y0131573D02*
X0333095Y0131573D01*
X0333095Y0132571D02*
X0309695Y0132571D01*
X0309695Y0133570D02*
X0333095Y0133570D01*
X0333095Y0134568D02*
X0309293Y0134568D01*
X0308717Y0135567D02*
X0333095Y0135567D01*
X0333095Y0136565D02*
X0307718Y0136565D01*
X0307703Y0126580D02*
X0333095Y0126580D01*
X0333095Y0125582D02*
X0308702Y0125582D01*
X0309287Y0124583D02*
X0333095Y0124583D01*
X0333095Y0123585D02*
X0309695Y0123585D01*
X0309695Y0122586D02*
X0333095Y0122586D01*
X0333095Y0121588D02*
X0309620Y0121588D01*
X0309207Y0120589D02*
X0333095Y0120589D01*
X0333095Y0119591D02*
X0308508Y0119591D01*
X0307239Y0118592D02*
X0333095Y0118592D01*
X0333095Y0117594D02*
X0260371Y0117594D01*
X0259373Y0118592D02*
X0302951Y0118592D01*
X0301682Y0119591D02*
X0258374Y0119591D01*
X0257376Y0120589D02*
X0300983Y0120589D01*
X0300570Y0121588D02*
X0256377Y0121588D01*
X0255379Y0122586D02*
X0300495Y0122586D01*
X0300495Y0123585D02*
X0254380Y0123585D01*
X0253382Y0124583D02*
X0300903Y0124583D01*
X0301489Y0125582D02*
X0252383Y0125582D01*
X0251385Y0126580D02*
X0278221Y0126580D01*
X0277026Y0127579D02*
X0250386Y0127579D01*
X0249388Y0128577D02*
X0276474Y0128577D01*
X0276195Y0129576D02*
X0248389Y0129576D01*
X0247391Y0130574D02*
X0276195Y0130574D01*
X0276515Y0131573D02*
X0246392Y0131573D01*
X0246333Y0131633D02*
X0246333Y0131928D01*
X0245954Y0132842D01*
X0245254Y0133542D01*
X0244340Y0133920D01*
X0243350Y0133920D01*
X0242436Y0133542D01*
X0241736Y0132842D01*
X0241358Y0131928D01*
X0241358Y0130938D01*
X0241736Y0130024D01*
X0242436Y0129324D01*
X0243350Y0128946D01*
X0243646Y0128946D01*
X0278195Y0094396D01*
X0279308Y0093283D01*
X0280944Y0093283D01*
X0281119Y0092861D01*
X0282273Y0091707D01*
X0283780Y0091083D01*
X0291411Y0091083D01*
X0292918Y0091707D01*
X0294071Y0092861D01*
X0294695Y0094368D01*
X0294695Y0095999D01*
X0294071Y0097506D01*
X0292918Y0098659D01*
X0291411Y0099283D01*
X0283780Y0099283D01*
X0282273Y0098659D01*
X0281119Y0097506D01*
X0280944Y0097083D01*
X0280882Y0097083D01*
X0246333Y0131633D01*
X0246066Y0132571D02*
X0277126Y0132571D01*
X0278461Y0133570D02*
X0245186Y0133570D01*
X0242504Y0133570D02*
X0231780Y0133570D01*
X0230782Y0132571D02*
X0241624Y0132571D01*
X0241358Y0131573D02*
X0204495Y0131573D01*
X0204495Y0132571D02*
X0206909Y0132571D01*
X0207147Y0132333D02*
X0210543Y0132333D01*
X0212945Y0134735D01*
X0212945Y0138131D01*
X0210543Y0140533D01*
X0207147Y0140533D01*
X0204745Y0138131D01*
X0204745Y0134735D01*
X0207147Y0132333D01*
X0205910Y0133570D02*
X0204495Y0133570D01*
X0204495Y0134568D02*
X0204912Y0134568D01*
X0204745Y0135567D02*
X0204495Y0135567D01*
X0204495Y0136565D02*
X0204745Y0136565D01*
X0204745Y0137564D02*
X0204495Y0137564D01*
X0204495Y0138563D02*
X0205176Y0138563D01*
X0204495Y0139561D02*
X0206175Y0139561D01*
X0211515Y0139561D02*
X0216175Y0139561D01*
X0215176Y0138563D02*
X0212514Y0138563D01*
X0212945Y0137564D02*
X0214745Y0137564D01*
X0214745Y0136565D02*
X0212945Y0136565D01*
X0212945Y0135567D02*
X0214745Y0135567D01*
X0214912Y0134568D02*
X0212779Y0134568D01*
X0211780Y0133570D02*
X0215910Y0133570D01*
X0216909Y0132571D02*
X0210782Y0132571D01*
X0211495Y0129576D02*
X0216190Y0129576D01*
X0215191Y0128577D02*
X0212354Y0128577D01*
X0212784Y0127579D02*
X0214745Y0127579D01*
X0214745Y0125582D02*
X0212861Y0125582D01*
X0212504Y0124583D02*
X0214897Y0124583D01*
X0215895Y0123585D02*
X0211795Y0123585D01*
X0210274Y0122586D02*
X0216894Y0122586D01*
X0218345Y0122586D02*
X0219345Y0122586D01*
X0219345Y0123585D02*
X0218345Y0123585D01*
X0218345Y0124583D02*
X0219345Y0124583D01*
X0219345Y0125582D02*
X0218345Y0125582D01*
X0219345Y0126580D02*
X0228345Y0126580D01*
X0228345Y0125582D02*
X0229345Y0125582D01*
X0229345Y0126580D02*
X0246011Y0126580D01*
X0247009Y0125582D02*
X0232945Y0125582D01*
X0232794Y0124583D02*
X0248008Y0124583D01*
X0249006Y0123585D02*
X0231795Y0123585D01*
X0230797Y0122586D02*
X0250005Y0122586D01*
X0251003Y0121588D02*
X0147956Y0121588D01*
X0148954Y0120589D02*
X0252002Y0120589D01*
X0253000Y0119591D02*
X0149953Y0119591D01*
X0150951Y0118592D02*
X0253999Y0118592D01*
X0254997Y0117594D02*
X0151950Y0117594D01*
X0152948Y0116595D02*
X0255996Y0116595D01*
X0256994Y0115597D02*
X0222697Y0115597D01*
X0223695Y0114598D02*
X0257993Y0114598D01*
X0258992Y0113600D02*
X0224694Y0113600D01*
X0225692Y0112601D02*
X0259990Y0112601D01*
X0260989Y0111603D02*
X0226691Y0111603D01*
X0227689Y0110604D02*
X0261987Y0110604D01*
X0262986Y0109606D02*
X0228688Y0109606D01*
X0229686Y0108607D02*
X0263984Y0108607D01*
X0264983Y0107609D02*
X0230685Y0107609D01*
X0231684Y0106610D02*
X0265981Y0106610D01*
X0266980Y0105612D02*
X0232682Y0105612D01*
X0233681Y0104613D02*
X0267978Y0104613D01*
X0268977Y0103615D02*
X0234571Y0103615D01*
X0234984Y0102616D02*
X0269975Y0102616D01*
X0270974Y0101618D02*
X0235088Y0101618D01*
X0235072Y0100619D02*
X0271972Y0100619D01*
X0272971Y0099621D02*
X0234658Y0099621D01*
X0233892Y0098622D02*
X0273969Y0098622D01*
X0274968Y0097624D02*
X0232182Y0097624D01*
X0230194Y0097624D02*
X0212497Y0097624D01*
X0212278Y0097533D02*
X0213712Y0098127D01*
X0214809Y0099224D01*
X0215403Y0100657D01*
X0215403Y0102209D01*
X0214809Y0103642D01*
X0213712Y0104739D01*
X0212278Y0105333D01*
X0210727Y0105333D01*
X0209293Y0104739D01*
X0208196Y0103642D01*
X0207603Y0102209D01*
X0207603Y0100657D01*
X0208196Y0099224D01*
X0209293Y0098127D01*
X0210727Y0097533D01*
X0212278Y0097533D01*
X0210508Y0097624D02*
X0119453Y0097624D01*
X0118237Y0097624D02*
X0034595Y0097624D01*
X0034595Y0098622D02*
X0208798Y0098622D01*
X0208032Y0099621D02*
X0034595Y0099621D01*
X0034595Y0100619D02*
X0207618Y0100619D01*
X0207603Y0101618D02*
X0034595Y0101618D01*
X0034595Y0102616D02*
X0207771Y0102616D01*
X0208185Y0103615D02*
X0034595Y0103615D01*
X0034595Y0104613D02*
X0209167Y0104613D01*
X0213838Y0104613D02*
X0222650Y0104613D01*
X0223648Y0103615D02*
X0214820Y0103615D01*
X0215234Y0102616D02*
X0224647Y0102616D01*
X0225645Y0101618D02*
X0215403Y0101618D01*
X0215387Y0100619D02*
X0226644Y0100619D01*
X0227642Y0099621D02*
X0214973Y0099621D01*
X0214207Y0098622D02*
X0228483Y0098622D01*
X0224336Y0093629D02*
X0242495Y0093629D01*
X0242495Y0092631D02*
X0225334Y0092631D01*
X0226333Y0091632D02*
X0242495Y0091632D01*
X0242495Y0090634D02*
X0227331Y0090634D01*
X0228330Y0089635D02*
X0242495Y0089635D01*
X0242495Y0088637D02*
X0229328Y0088637D01*
X0230327Y0087638D02*
X0242495Y0087638D01*
X0242495Y0086640D02*
X0231325Y0086640D01*
X0232324Y0085641D02*
X0242495Y0085641D01*
X0242495Y0084643D02*
X0233322Y0084643D01*
X0234321Y0083644D02*
X0242495Y0083644D01*
X0242495Y0082646D02*
X0235319Y0082646D01*
X0236318Y0081647D02*
X0242495Y0081647D01*
X0242495Y0080649D02*
X0237316Y0080649D01*
X0238315Y0079650D02*
X0242495Y0079650D01*
X0242495Y0078652D02*
X0239313Y0078652D01*
X0240312Y0077653D02*
X0243069Y0077653D01*
X0243140Y0077583D02*
X0259551Y0077583D01*
X0260127Y0078160D01*
X0260215Y0078008D01*
X0260420Y0077803D01*
X0260671Y0077658D01*
X0260950Y0077583D01*
X0268345Y0077583D01*
X0268345Y0085933D01*
X0269345Y0085933D01*
X0269345Y0077583D01*
X0276740Y0077583D01*
X0277020Y0077658D01*
X0277271Y0077803D01*
X0277475Y0078008D01*
X0277620Y0078258D01*
X0277695Y0078538D01*
X0277695Y0085933D01*
X0269345Y0085933D01*
X0269345Y0086933D01*
X0268345Y0086933D01*
X0268345Y0095283D01*
X0260950Y0095283D01*
X0260671Y0095208D01*
X0260420Y0095063D01*
X0260215Y0094858D01*
X0260127Y0094707D01*
X0259551Y0095283D01*
X0243140Y0095283D01*
X0242495Y0094639D01*
X0242495Y0078227D01*
X0243140Y0077583D01*
X0241310Y0076655D02*
X0280767Y0076655D01*
X0280495Y0075656D02*
X0242309Y0075656D01*
X0243307Y0074658D02*
X0280495Y0074658D01*
X0281267Y0077653D02*
X0277002Y0077653D01*
X0277695Y0078652D02*
X0282266Y0078652D01*
X0283021Y0081383D02*
X0282446Y0081676D01*
X0281924Y0082056D01*
X0281468Y0082512D01*
X0281089Y0083034D01*
X0280796Y0083609D01*
X0280596Y0084223D01*
X0280523Y0084683D01*
X0287095Y0084683D01*
X0287095Y0085683D01*
X0280523Y0085683D01*
X0280596Y0086143D01*
X0280796Y0086757D01*
X0281089Y0087332D01*
X0281468Y0087854D01*
X0281924Y0088310D01*
X0282446Y0088690D01*
X0283021Y0088983D01*
X0283635Y0089182D01*
X0284272Y0089283D01*
X0287095Y0089283D01*
X0287095Y0085683D01*
X0288095Y0085683D01*
X0288095Y0089283D01*
X0290918Y0089283D01*
X0291555Y0089182D01*
X0292169Y0088983D01*
X0292744Y0088690D01*
X0293266Y0088310D01*
X0293722Y0087854D01*
X0294102Y0087332D01*
X0294395Y0086757D01*
X0294594Y0086143D01*
X0294667Y0085683D01*
X0288095Y0085683D01*
X0288095Y0084683D01*
X0288095Y0081083D01*
X0290918Y0081083D01*
X0291555Y0081184D01*
X0292169Y0081383D01*
X0292744Y0081676D01*
X0293266Y0082056D01*
X0293722Y0082512D01*
X0294102Y0083034D01*
X0294395Y0083609D01*
X0294594Y0084223D01*
X0294667Y0084683D01*
X0288095Y0084683D01*
X0287095Y0084683D01*
X0287095Y0081083D01*
X0284272Y0081083D01*
X0283635Y0081184D01*
X0283021Y0081383D01*
X0282503Y0081647D02*
X0277695Y0081647D01*
X0277695Y0080649D02*
X0333095Y0080649D01*
X0333095Y0081647D02*
X0292687Y0081647D01*
X0293820Y0082646D02*
X0333095Y0082646D01*
X0333095Y0083644D02*
X0294406Y0083644D01*
X0294661Y0084643D02*
X0333095Y0084643D01*
X0333095Y0085641D02*
X0288095Y0085641D01*
X0288095Y0084643D02*
X0287095Y0084643D01*
X0287095Y0085641D02*
X0277695Y0085641D01*
X0277695Y0084643D02*
X0280530Y0084643D01*
X0280784Y0083644D02*
X0277695Y0083644D01*
X0277695Y0082646D02*
X0281371Y0082646D01*
X0280758Y0086640D02*
X0269345Y0086640D01*
X0269345Y0086933D02*
X0277695Y0086933D01*
X0277695Y0094328D01*
X0277620Y0094608D01*
X0277475Y0094858D01*
X0277271Y0095063D01*
X0277020Y0095208D01*
X0276740Y0095283D01*
X0269345Y0095283D01*
X0269345Y0086933D01*
X0269345Y0087638D02*
X0268345Y0087638D01*
X0268345Y0088637D02*
X0269345Y0088637D01*
X0269345Y0089635D02*
X0268345Y0089635D01*
X0268345Y0090634D02*
X0269345Y0090634D01*
X0269345Y0091632D02*
X0268345Y0091632D01*
X0268345Y0092631D02*
X0269345Y0092631D01*
X0269345Y0093629D02*
X0268345Y0093629D01*
X0268345Y0094628D02*
X0269345Y0094628D01*
X0275966Y0096625D02*
X0221340Y0096625D01*
X0222339Y0095627D02*
X0276965Y0095627D01*
X0277608Y0094628D02*
X0277963Y0094628D01*
X0278195Y0094396D02*
X0278195Y0094396D01*
X0277695Y0093629D02*
X0278962Y0093629D01*
X0277695Y0092631D02*
X0281349Y0092631D01*
X0282453Y0091632D02*
X0277695Y0091632D01*
X0277695Y0090634D02*
X0333095Y0090634D01*
X0333095Y0091632D02*
X0292737Y0091632D01*
X0293841Y0092631D02*
X0333095Y0092631D01*
X0333095Y0093629D02*
X0294389Y0093629D01*
X0294695Y0094628D02*
X0333095Y0094628D01*
X0333095Y0095627D02*
X0294695Y0095627D01*
X0294436Y0096625D02*
X0333095Y0096625D01*
X0333095Y0097624D02*
X0293953Y0097624D01*
X0292954Y0098622D02*
X0333095Y0098622D01*
X0333095Y0099621D02*
X0278345Y0099621D01*
X0277346Y0100619D02*
X0333095Y0100619D01*
X0333095Y0101618D02*
X0276348Y0101618D01*
X0275349Y0102616D02*
X0333095Y0102616D01*
X0333095Y0103615D02*
X0274351Y0103615D01*
X0273352Y0104613D02*
X0333095Y0104613D01*
X0333095Y0105612D02*
X0272354Y0105612D01*
X0271355Y0106610D02*
X0278910Y0106610D01*
X0279319Y0106441D02*
X0280871Y0106441D01*
X0282304Y0107034D01*
X0283401Y0108131D01*
X0283995Y0109565D01*
X0283995Y0111116D01*
X0283401Y0112550D01*
X0282304Y0113647D01*
X0280871Y0114241D01*
X0279319Y0114241D01*
X0277886Y0113647D01*
X0276789Y0112550D01*
X0276195Y0111116D01*
X0276195Y0109565D01*
X0276789Y0108131D01*
X0277886Y0107034D01*
X0279319Y0106441D01*
X0281280Y0106610D02*
X0333095Y0106610D01*
X0333095Y0107609D02*
X0282879Y0107609D01*
X0283598Y0108607D02*
X0302915Y0108607D01*
X0302489Y0108783D02*
X0304180Y0108083D01*
X0306010Y0108083D01*
X0307701Y0108783D01*
X0308995Y0110077D01*
X0309695Y0111768D01*
X0309695Y0113598D01*
X0308995Y0115289D01*
X0307701Y0116583D01*
X0306010Y0117283D01*
X0304180Y0117283D01*
X0302489Y0116583D01*
X0301195Y0115289D01*
X0300495Y0113598D01*
X0300495Y0111768D01*
X0301195Y0110077D01*
X0302489Y0108783D01*
X0301667Y0109606D02*
X0283995Y0109606D01*
X0283995Y0110604D02*
X0300977Y0110604D01*
X0300564Y0111603D02*
X0283794Y0111603D01*
X0283350Y0112601D02*
X0300495Y0112601D01*
X0300496Y0113600D02*
X0282351Y0113600D01*
X0277839Y0113600D02*
X0264366Y0113600D01*
X0265364Y0112601D02*
X0276840Y0112601D01*
X0276397Y0111603D02*
X0266363Y0111603D01*
X0267361Y0110604D02*
X0276195Y0110604D01*
X0276195Y0109606D02*
X0268360Y0109606D01*
X0269358Y0108607D02*
X0276592Y0108607D01*
X0277312Y0107609D02*
X0270357Y0107609D01*
X0263367Y0114598D02*
X0300909Y0114598D01*
X0301503Y0115597D02*
X0262368Y0115597D01*
X0261370Y0116595D02*
X0302520Y0116595D01*
X0307671Y0116595D02*
X0333095Y0116595D01*
X0333095Y0115597D02*
X0308687Y0115597D01*
X0309281Y0114598D02*
X0333095Y0114598D01*
X0333095Y0113600D02*
X0309694Y0113600D01*
X0309695Y0112601D02*
X0333095Y0112601D01*
X0333095Y0111603D02*
X0309627Y0111603D01*
X0309213Y0110604D02*
X0333095Y0110604D01*
X0333095Y0109606D02*
X0308523Y0109606D01*
X0307275Y0108607D02*
X0333095Y0108607D01*
X0333095Y0089635D02*
X0277695Y0089635D01*
X0277695Y0088637D02*
X0282374Y0088637D01*
X0281311Y0087638D02*
X0277695Y0087638D01*
X0269345Y0085641D02*
X0268345Y0085641D01*
X0268345Y0084643D02*
X0269345Y0084643D01*
X0269345Y0083644D02*
X0268345Y0083644D01*
X0268345Y0082646D02*
X0269345Y0082646D01*
X0269345Y0081647D02*
X0268345Y0081647D01*
X0268345Y0080649D02*
X0269345Y0080649D01*
X0269345Y0079650D02*
X0268345Y0079650D01*
X0268345Y0078652D02*
X0269345Y0078652D01*
X0269345Y0077653D02*
X0268345Y0077653D01*
X0260688Y0077653D02*
X0259621Y0077653D01*
X0243551Y0070664D02*
X0333095Y0070664D01*
X0333095Y0071662D02*
X0292809Y0071662D01*
X0293871Y0072661D02*
X0333095Y0072661D01*
X0333095Y0073659D02*
X0294402Y0073659D01*
X0294695Y0074658D02*
X0333095Y0074658D01*
X0333095Y0075656D02*
X0294695Y0075656D01*
X0294423Y0076655D02*
X0333095Y0076655D01*
X0333095Y0077653D02*
X0293923Y0077653D01*
X0292925Y0078652D02*
X0333095Y0078652D01*
X0333095Y0079650D02*
X0277695Y0079650D01*
X0287095Y0081647D02*
X0288095Y0081647D01*
X0288095Y0082646D02*
X0287095Y0082646D01*
X0287095Y0083644D02*
X0288095Y0083644D01*
X0288095Y0086640D02*
X0287095Y0086640D01*
X0287095Y0087638D02*
X0288095Y0087638D01*
X0288095Y0088637D02*
X0287095Y0088637D01*
X0292817Y0088637D02*
X0333095Y0088637D01*
X0333095Y0087638D02*
X0293879Y0087638D01*
X0294433Y0086640D02*
X0333095Y0086640D01*
X0282236Y0098622D02*
X0279343Y0098622D01*
X0280342Y0097624D02*
X0281237Y0097624D01*
X0242495Y0094628D02*
X0223337Y0094628D01*
X0221651Y0105612D02*
X0034595Y0105612D01*
X0034595Y0106610D02*
X0220653Y0106610D01*
X0219654Y0107609D02*
X0034595Y0107609D01*
X0034595Y0108607D02*
X0218656Y0108607D01*
X0220797Y0122586D02*
X0226894Y0122586D01*
X0225895Y0123585D02*
X0221795Y0123585D01*
X0222794Y0124583D02*
X0224897Y0124583D01*
X0224745Y0125582D02*
X0222945Y0125582D01*
X0222945Y0127579D02*
X0224745Y0127579D01*
X0225191Y0128577D02*
X0222499Y0128577D01*
X0228345Y0128577D02*
X0229345Y0128577D01*
X0229345Y0127579D02*
X0228345Y0127579D01*
X0229345Y0126933D02*
X0229345Y0130533D01*
X0230543Y0130533D01*
X0232945Y0128131D01*
X0232945Y0126933D01*
X0229345Y0126933D01*
X0229345Y0124583D02*
X0228345Y0124583D01*
X0228345Y0123585D02*
X0229345Y0123585D01*
X0229345Y0122586D02*
X0228345Y0122586D01*
X0232945Y0127579D02*
X0245012Y0127579D01*
X0244014Y0128577D02*
X0232499Y0128577D01*
X0231501Y0129576D02*
X0242185Y0129576D01*
X0241508Y0130574D02*
X0204495Y0130574D01*
X0204495Y0129576D02*
X0206196Y0129576D01*
X0205336Y0128577D02*
X0203676Y0128577D01*
X0202678Y0127579D02*
X0204906Y0127579D01*
X0208345Y0128577D02*
X0209345Y0128577D01*
X0209345Y0129576D02*
X0208345Y0129576D01*
X0208345Y0125582D02*
X0209345Y0125582D01*
X0209345Y0124583D02*
X0208345Y0124583D01*
X0208345Y0123585D02*
X0209345Y0123585D01*
X0209345Y0122586D02*
X0208345Y0122586D01*
X0198302Y0128577D02*
X0198146Y0128577D01*
X0197304Y0127579D02*
X0180186Y0127579D01*
X0178754Y0127579D02*
X0173928Y0127579D01*
X0174926Y0128577D02*
X0194121Y0128577D01*
X0192277Y0129576D02*
X0175925Y0129576D01*
X0176923Y0130574D02*
X0183686Y0130574D01*
X0182863Y0131573D02*
X0177922Y0131573D01*
X0178920Y0132571D02*
X0182608Y0132571D01*
X0182770Y0133570D02*
X0179919Y0133570D01*
X0180918Y0134568D02*
X0183463Y0134568D01*
X0181916Y0135567D02*
X0185292Y0135567D01*
X0186291Y0136565D02*
X0182915Y0136565D01*
X0183913Y0137564D02*
X0187289Y0137564D01*
X0188288Y0138563D02*
X0184912Y0138563D01*
X0185910Y0139561D02*
X0189286Y0139561D01*
X0190285Y0140560D02*
X0186909Y0140560D01*
X0187907Y0141558D02*
X0191283Y0141558D01*
X0192282Y0142557D02*
X0188906Y0142557D01*
X0189904Y0143555D02*
X0193280Y0143555D01*
X0194279Y0144554D02*
X0190903Y0144554D01*
X0191901Y0145552D02*
X0194365Y0145552D01*
X0193497Y0146551D02*
X0192900Y0146551D01*
X0197656Y0142557D02*
X0200695Y0142557D01*
X0200695Y0143555D02*
X0198654Y0143555D01*
X0199653Y0144554D02*
X0200695Y0144554D01*
X0200651Y0145552D02*
X0200695Y0145552D01*
X0200695Y0145596D02*
X0200695Y0138412D01*
X0199589Y0139518D01*
X0197347Y0140446D01*
X0195546Y0140446D01*
X0200695Y0145596D01*
X0200695Y0141558D02*
X0196657Y0141558D01*
X0195659Y0140560D02*
X0200695Y0140560D01*
X0200695Y0139561D02*
X0199485Y0139561D01*
X0200544Y0138563D02*
X0200695Y0138563D01*
X0190034Y0134568D02*
X0189668Y0134568D01*
X0190034Y0133570D02*
X0188669Y0133570D01*
X0187670Y0132571D02*
X0190266Y0132571D01*
X0190680Y0131573D02*
X0187328Y0131573D01*
X0186504Y0130574D02*
X0191279Y0130574D01*
X0228345Y0129576D02*
X0229345Y0129576D01*
X0227945Y0146551D02*
X0217245Y0146551D01*
X0218195Y0168101D02*
X0217754Y0168542D01*
X0216840Y0168920D01*
X0216014Y0168920D01*
X0216333Y0169688D01*
X0216333Y0170678D01*
X0216273Y0170821D01*
X0216840Y0170821D01*
X0217754Y0171199D01*
X0218195Y0171640D01*
X0218195Y0168101D01*
X0218195Y0168518D02*
X0217778Y0168518D01*
X0218195Y0169516D02*
X0216261Y0169516D01*
X0216333Y0170515D02*
X0218195Y0170515D01*
X0218195Y0171513D02*
X0218068Y0171513D01*
X0240120Y0176506D02*
X0246195Y0176506D01*
X0246195Y0177504D02*
X0240120Y0177504D01*
X0240120Y0178503D02*
X0246195Y0178503D01*
X0246195Y0179501D02*
X0240120Y0179501D01*
X0240120Y0180500D02*
X0246195Y0180500D01*
X0246195Y0181498D02*
X0240120Y0181498D01*
X0240120Y0182497D02*
X0246195Y0182497D01*
X0246195Y0183496D02*
X0240120Y0183496D01*
X0240120Y0184494D02*
X0246195Y0184494D01*
X0246195Y0185493D02*
X0240120Y0185493D01*
X0240120Y0186491D02*
X0246195Y0186491D01*
X0246195Y0187490D02*
X0240120Y0187490D01*
X0240120Y0188488D02*
X0246195Y0188488D01*
X0246195Y0189487D02*
X0240120Y0189487D01*
X0240120Y0190485D02*
X0246195Y0190485D01*
X0246195Y0191484D02*
X0239607Y0191484D01*
X0238608Y0192482D02*
X0246195Y0192482D01*
X0253995Y0189487D02*
X0254493Y0189487D01*
X0253995Y0188488D02*
X0303202Y0188488D01*
X0303166Y0178503D02*
X0253995Y0178503D01*
X0253995Y0179501D02*
X0254478Y0179501D01*
X0254106Y0185493D02*
X0253995Y0185493D01*
X0253995Y0186491D02*
X0255575Y0186491D01*
X0253995Y0187490D02*
X0333095Y0187490D01*
X0305595Y0166521D02*
X0304595Y0166521D01*
X0304595Y0165522D02*
X0305595Y0165522D01*
X0305595Y0164524D02*
X0304595Y0164524D01*
X0304595Y0161528D02*
X0305595Y0161528D01*
X0305595Y0160530D02*
X0304595Y0160530D01*
X0304595Y0159531D02*
X0305595Y0159531D01*
X0305595Y0158533D02*
X0304595Y0158533D01*
X0210080Y0203466D02*
X0209495Y0203466D01*
X0208501Y0204464D02*
X0253395Y0204464D01*
X0283345Y0209457D02*
X0284345Y0209457D01*
X0284345Y0210455D02*
X0283345Y0210455D01*
X0283345Y0213451D02*
X0284345Y0213451D01*
X0284345Y0214449D02*
X0283345Y0214449D01*
X0283345Y0215448D02*
X0284345Y0215448D01*
X0284345Y0216446D02*
X0283345Y0216446D01*
X0288490Y0216446D02*
X0302353Y0216446D01*
X0301355Y0215448D02*
X0289879Y0215448D01*
X0290547Y0214449D02*
X0300848Y0214449D01*
X0300495Y0213451D02*
X0290875Y0213451D01*
X0286582Y0228429D02*
X0333095Y0228429D01*
X0333095Y0229427D02*
X0288338Y0229427D01*
X0289830Y0230426D02*
X0333095Y0230426D01*
X0333095Y0231424D02*
X0309734Y0231424D01*
X0310418Y0231707D02*
X0311571Y0232861D01*
X0312195Y0234368D01*
X0312195Y0235999D01*
X0311571Y0237506D01*
X0310418Y0238659D01*
X0308911Y0239283D01*
X0301280Y0239283D01*
X0299773Y0238659D01*
X0298619Y0237506D01*
X0297995Y0235999D01*
X0297995Y0234368D01*
X0298619Y0232861D01*
X0299773Y0231707D01*
X0301280Y0231083D01*
X0308911Y0231083D01*
X0310418Y0231707D01*
X0311133Y0232423D02*
X0333095Y0232423D01*
X0333095Y0233421D02*
X0311803Y0233421D01*
X0312195Y0234420D02*
X0333095Y0234420D01*
X0333095Y0235418D02*
X0312195Y0235418D01*
X0312022Y0236417D02*
X0333095Y0236417D01*
X0333095Y0237415D02*
X0311608Y0237415D01*
X0310663Y0238414D02*
X0333095Y0238414D01*
X0333095Y0239412D02*
X0294368Y0239412D01*
X0294368Y0240411D02*
X0333095Y0240411D01*
X0333095Y0241409D02*
X0309698Y0241409D01*
X0310418Y0241707D02*
X0311571Y0242861D01*
X0312195Y0244368D01*
X0312195Y0245999D01*
X0311571Y0247506D01*
X0310418Y0248659D01*
X0308911Y0249283D01*
X0301280Y0249283D01*
X0299773Y0248659D01*
X0298619Y0247506D01*
X0297995Y0245999D01*
X0297995Y0244368D01*
X0298619Y0242861D01*
X0299773Y0241707D01*
X0301280Y0241083D01*
X0308911Y0241083D01*
X0310418Y0241707D01*
X0311118Y0242408D02*
X0333095Y0242408D01*
X0333095Y0243406D02*
X0311797Y0243406D01*
X0312195Y0244405D02*
X0333095Y0244405D01*
X0333095Y0245403D02*
X0312195Y0245403D01*
X0312028Y0246402D02*
X0333095Y0246402D01*
X0332550Y0247400D02*
X0311615Y0247400D01*
X0310678Y0248399D02*
X0331551Y0248399D01*
X0330553Y0249397D02*
X0290373Y0249397D01*
X0291372Y0248399D02*
X0299513Y0248399D01*
X0298576Y0247400D02*
X0292151Y0247400D01*
X0292727Y0246402D02*
X0298162Y0246402D01*
X0297995Y0245403D02*
X0293304Y0245403D01*
X0293682Y0244405D02*
X0297995Y0244405D01*
X0298393Y0243406D02*
X0293949Y0243406D01*
X0294217Y0242408D02*
X0299072Y0242408D01*
X0300492Y0241409D02*
X0294368Y0241409D01*
X0294339Y0238414D02*
X0299527Y0238414D01*
X0298582Y0237415D02*
X0294071Y0237415D01*
X0293804Y0236417D02*
X0298168Y0236417D01*
X0297995Y0235418D02*
X0293536Y0235418D01*
X0292990Y0234420D02*
X0297995Y0234420D01*
X0298387Y0233421D02*
X0292414Y0233421D01*
X0291827Y0232423D02*
X0299057Y0232423D01*
X0300456Y0231424D02*
X0290828Y0231424D01*
X0276954Y0228429D02*
X0206028Y0228429D01*
X0207026Y0229427D02*
X0275198Y0229427D01*
X0273707Y0230426D02*
X0208025Y0230426D01*
X0209023Y0231424D02*
X0210556Y0231424D01*
X0209557Y0232423D02*
X0209495Y0232423D01*
X0213095Y0227255D02*
X0213095Y0220683D01*
X0216695Y0220683D01*
X0216695Y0223506D01*
X0216594Y0224143D01*
X0216395Y0224757D01*
X0216102Y0225332D01*
X0215722Y0225854D01*
X0215266Y0226310D01*
X0214744Y0226690D01*
X0214169Y0226983D01*
X0213555Y0227182D01*
X0213095Y0227255D01*
X0213095Y0226431D02*
X0212095Y0226431D01*
X0212095Y0225433D02*
X0213095Y0225433D01*
X0213095Y0224434D02*
X0212095Y0224434D01*
X0212095Y0223436D02*
X0213095Y0223436D01*
X0213095Y0222437D02*
X0212095Y0222437D01*
X0212095Y0221439D02*
X0213095Y0221439D01*
X0213095Y0218443D02*
X0212095Y0218443D01*
X0212095Y0217445D02*
X0213095Y0217445D01*
X0213095Y0216446D02*
X0212095Y0216446D01*
X0212095Y0215448D02*
X0213095Y0215448D01*
X0213095Y0214449D02*
X0212095Y0214449D01*
X0212095Y0213451D02*
X0213095Y0213451D01*
X0213095Y0212452D02*
X0212095Y0212452D01*
X0212095Y0211454D02*
X0213095Y0211454D01*
X0213095Y0208458D02*
X0212095Y0208458D01*
X0212095Y0207460D02*
X0213095Y0207460D01*
X0213095Y0206461D02*
X0212095Y0206461D01*
X0208495Y0211454D02*
X0206695Y0211454D01*
X0206124Y0212452D02*
X0209066Y0212452D01*
X0210065Y0213451D02*
X0205126Y0213451D01*
X0205660Y0214449D02*
X0209531Y0214449D01*
X0208878Y0215448D02*
X0206314Y0215448D01*
X0206695Y0216446D02*
X0208561Y0216446D01*
X0208495Y0217445D02*
X0206695Y0217445D01*
X0206695Y0218443D02*
X0208495Y0218443D01*
X0208495Y0219442D02*
X0206695Y0219442D01*
X0216695Y0221439D02*
X0218495Y0221439D01*
X0218495Y0222437D02*
X0216695Y0222437D01*
X0216695Y0223436D02*
X0218495Y0223436D01*
X0218676Y0224434D02*
X0216500Y0224434D01*
X0216028Y0225433D02*
X0219089Y0225433D01*
X0220045Y0226431D02*
X0215099Y0226431D01*
X0234634Y0231424D02*
X0240556Y0231424D01*
X0240897Y0231083D02*
X0238495Y0233485D01*
X0238495Y0236881D01*
X0240897Y0239283D01*
X0244293Y0239283D01*
X0246695Y0236881D01*
X0246695Y0233485D01*
X0244293Y0231083D01*
X0240897Y0231083D01*
X0239557Y0232423D02*
X0235633Y0232423D01*
X0236631Y0233421D02*
X0238559Y0233421D01*
X0238495Y0234420D02*
X0236695Y0234420D01*
X0236695Y0235418D02*
X0238495Y0235418D01*
X0238495Y0236417D02*
X0236695Y0236417D01*
X0236161Y0237415D02*
X0239029Y0237415D01*
X0240027Y0238414D02*
X0235163Y0238414D01*
X0234620Y0241409D02*
X0240571Y0241409D01*
X0240897Y0241083D02*
X0244293Y0241083D01*
X0246695Y0243485D01*
X0246695Y0246881D01*
X0244293Y0249283D01*
X0240897Y0249283D01*
X0238495Y0246881D01*
X0238495Y0243485D01*
X0240897Y0241083D01*
X0239572Y0242408D02*
X0235618Y0242408D01*
X0236617Y0243406D02*
X0238574Y0243406D01*
X0238495Y0244405D02*
X0236695Y0244405D01*
X0236695Y0245683D02*
X0236695Y0246881D01*
X0234293Y0249283D01*
X0233095Y0249283D01*
X0233095Y0245683D01*
X0236695Y0245683D01*
X0236695Y0246402D02*
X0238495Y0246402D01*
X0238495Y0245403D02*
X0233095Y0245403D01*
X0233095Y0246402D02*
X0232095Y0246402D01*
X0232095Y0247400D02*
X0233095Y0247400D01*
X0233095Y0248399D02*
X0232095Y0248399D01*
X0235178Y0248399D02*
X0240013Y0248399D01*
X0239014Y0247400D02*
X0236176Y0247400D01*
X0245178Y0248399D02*
X0250013Y0248399D01*
X0250897Y0249283D02*
X0248495Y0246881D01*
X0248495Y0243485D01*
X0250897Y0241083D01*
X0254293Y0241083D01*
X0256695Y0243485D01*
X0256695Y0246881D01*
X0254293Y0249283D01*
X0250897Y0249283D01*
X0249014Y0247400D02*
X0246176Y0247400D01*
X0246695Y0246402D02*
X0248495Y0246402D01*
X0248495Y0245403D02*
X0246695Y0245403D01*
X0246695Y0244405D02*
X0248495Y0244405D01*
X0248574Y0243406D02*
X0246617Y0243406D01*
X0245618Y0242408D02*
X0249572Y0242408D01*
X0250571Y0241409D02*
X0244620Y0241409D01*
X0245163Y0238414D02*
X0250027Y0238414D01*
X0250897Y0239283D02*
X0248495Y0236881D01*
X0248495Y0233485D01*
X0250897Y0231083D01*
X0254293Y0231083D01*
X0256695Y0233485D01*
X0256695Y0236881D01*
X0254293Y0239283D01*
X0250897Y0239283D01*
X0249029Y0237415D02*
X0246161Y0237415D01*
X0246695Y0236417D02*
X0248495Y0236417D01*
X0248495Y0235418D02*
X0246695Y0235418D01*
X0246695Y0234420D02*
X0248495Y0234420D01*
X0248559Y0233421D02*
X0246631Y0233421D01*
X0245633Y0232423D02*
X0249557Y0232423D01*
X0250556Y0231424D02*
X0244634Y0231424D01*
X0254634Y0231424D02*
X0260556Y0231424D01*
X0259557Y0232423D02*
X0255633Y0232423D01*
X0256631Y0233421D02*
X0258559Y0233421D01*
X0258495Y0234420D02*
X0256695Y0234420D01*
X0256695Y0235418D02*
X0262095Y0235418D01*
X0262095Y0235683D02*
X0258495Y0235683D01*
X0258495Y0236881D01*
X0260897Y0239283D01*
X0262095Y0239283D01*
X0262095Y0235683D01*
X0262095Y0236417D02*
X0263095Y0236417D01*
X0263095Y0237415D02*
X0262095Y0237415D01*
X0262095Y0238414D02*
X0263095Y0238414D01*
X0263095Y0235418D02*
X0270001Y0235418D01*
X0263095Y0234420D02*
X0262095Y0234420D01*
X0262095Y0233421D02*
X0263095Y0233421D01*
X0263095Y0232423D02*
X0262095Y0232423D01*
X0262095Y0231424D02*
X0263095Y0231424D01*
X0258495Y0236417D02*
X0256695Y0236417D01*
X0256161Y0237415D02*
X0259029Y0237415D01*
X0260027Y0238414D02*
X0255163Y0238414D01*
X0254620Y0241409D02*
X0260571Y0241409D01*
X0259572Y0242408D02*
X0255618Y0242408D01*
X0256617Y0243406D02*
X0258574Y0243406D01*
X0258495Y0244405D02*
X0256695Y0244405D01*
X0256695Y0245403D02*
X0258495Y0245403D01*
X0258495Y0246402D02*
X0256695Y0246402D01*
X0256176Y0247400D02*
X0259014Y0247400D01*
X0260013Y0248399D02*
X0255178Y0248399D01*
X0274257Y0250396D02*
X0207569Y0250396D01*
X0199014Y0247400D02*
X0196176Y0247400D01*
X0196695Y0246402D02*
X0198495Y0246402D01*
X0198495Y0245403D02*
X0196695Y0245403D01*
X0196695Y0244405D02*
X0198495Y0244405D01*
X0198574Y0243406D02*
X0196617Y0243406D01*
X0195618Y0242408D02*
X0199572Y0242408D01*
X0200571Y0241409D02*
X0194620Y0241409D01*
X0189603Y0242377D02*
X0188495Y0243485D01*
X0188495Y0246881D01*
X0189897Y0248283D01*
X0185293Y0248283D01*
X0186695Y0246881D01*
X0186695Y0243485D01*
X0185293Y0242083D01*
X0189308Y0242083D01*
X0189603Y0242377D01*
X0189572Y0242408D02*
X0185618Y0242408D01*
X0186617Y0243406D02*
X0188574Y0243406D01*
X0188495Y0244405D02*
X0186695Y0244405D01*
X0186695Y0245403D02*
X0188495Y0245403D01*
X0188495Y0246402D02*
X0186695Y0246402D01*
X0186176Y0247400D02*
X0189014Y0247400D01*
X0179897Y0248283D02*
X0178495Y0246881D01*
X0178495Y0243485D01*
X0179897Y0242083D01*
X0175293Y0242083D01*
X0176695Y0243485D01*
X0176695Y0246881D01*
X0175293Y0248283D01*
X0179897Y0248283D01*
X0179014Y0247400D02*
X0176176Y0247400D01*
X0176695Y0246402D02*
X0178495Y0246402D01*
X0178495Y0245403D02*
X0176695Y0245403D01*
X0176695Y0244405D02*
X0178495Y0244405D01*
X0178574Y0243406D02*
X0176617Y0243406D01*
X0175618Y0242408D02*
X0179572Y0242408D01*
X0189495Y0214485D02*
X0190273Y0213707D01*
X0190307Y0213693D01*
X0189495Y0212881D01*
X0189495Y0214485D01*
X0189495Y0214449D02*
X0189531Y0214449D01*
X0189495Y0213451D02*
X0190065Y0213451D01*
X0189520Y0207460D02*
X0189495Y0207460D01*
X0189060Y0206461D02*
X0190519Y0206461D01*
X0198005Y0207460D02*
X0199520Y0207460D01*
X0205685Y0197475D02*
X0205695Y0197475D01*
X0206115Y0196476D02*
X0204686Y0196476D01*
X0289279Y0250396D02*
X0329554Y0250396D01*
X0116769Y0096625D02*
X0034595Y0096625D01*
X0034595Y0095627D02*
X0116358Y0095627D01*
X0116383Y0094628D02*
X0034595Y0094628D01*
X0034595Y0093629D02*
X0116881Y0093629D01*
D11*
X0208845Y0126433D03*
X0192595Y0200183D03*
D12*
X0202595Y0200183D03*
X0212595Y0200183D03*
X0212595Y0210183D03*
X0202595Y0210183D03*
X0192595Y0210183D03*
X0192595Y0235183D03*
X0202595Y0235183D03*
X0212595Y0235183D03*
X0222595Y0235183D03*
X0232595Y0235183D03*
X0232595Y0245183D03*
X0222595Y0245183D03*
X0212595Y0245183D03*
X0202595Y0245183D03*
X0192595Y0245183D03*
X0182595Y0245183D03*
X0172595Y0245183D03*
X0162595Y0245183D03*
X0152595Y0245183D03*
X0142595Y0245183D03*
X0132595Y0245183D03*
X0122595Y0245183D03*
X0112595Y0245183D03*
X0102595Y0245183D03*
X0092595Y0245183D03*
X0082595Y0245183D03*
X0072595Y0245183D03*
X0072595Y0235183D03*
X0082595Y0235183D03*
X0092595Y0235183D03*
X0102595Y0235183D03*
X0112595Y0235183D03*
X0122595Y0235183D03*
X0132595Y0235183D03*
X0142595Y0235183D03*
X0152595Y0235183D03*
X0162595Y0235183D03*
X0172595Y0235183D03*
X0182595Y0235183D03*
X0242595Y0235183D03*
X0252595Y0235183D03*
X0262595Y0235183D03*
X0262595Y0245183D03*
X0252595Y0245183D03*
X0242595Y0245183D03*
X0228845Y0136433D03*
X0218845Y0136433D03*
X0208845Y0136433D03*
X0218845Y0126433D03*
X0228845Y0126433D03*
D13*
X0284595Y0095183D02*
X0290595Y0095183D01*
X0290595Y0085183D02*
X0284595Y0085183D01*
X0284595Y0075183D02*
X0290595Y0075183D01*
X0290595Y0065183D02*
X0284595Y0065183D01*
X0043095Y0150183D02*
X0037095Y0150183D01*
X0037095Y0160183D02*
X0043095Y0160183D01*
X0043095Y0170183D02*
X0037095Y0170183D01*
X0037095Y0180183D02*
X0043095Y0180183D01*
X0043095Y0190183D02*
X0037095Y0190183D01*
X0037095Y0200183D02*
X0043095Y0200183D01*
X0043095Y0210183D02*
X0037095Y0210183D01*
X0037095Y0220183D02*
X0043095Y0220183D01*
X0092595Y0223183D02*
X0092595Y0217183D01*
X0102595Y0217183D02*
X0102595Y0223183D01*
X0112595Y0223183D02*
X0112595Y0217183D01*
X0122595Y0217183D02*
X0122595Y0223183D01*
X0132595Y0223183D02*
X0132595Y0217183D01*
X0142595Y0217183D02*
X0142595Y0223183D01*
X0152595Y0223183D02*
X0152595Y0217183D01*
X0162595Y0217183D02*
X0162595Y0223183D01*
X0172595Y0223183D02*
X0172595Y0217183D01*
X0182595Y0217183D02*
X0182595Y0223183D01*
X0192595Y0223183D02*
X0192595Y0217183D01*
X0202595Y0217183D02*
X0202595Y0223183D01*
X0212595Y0223183D02*
X0212595Y0217183D01*
X0222595Y0217183D02*
X0222595Y0223183D01*
X0257095Y0212683D02*
X0263095Y0212683D01*
X0280845Y0212683D02*
X0286845Y0212683D01*
X0286845Y0202683D02*
X0280845Y0202683D01*
X0280845Y0192683D02*
X0286845Y0192683D01*
X0286845Y0182683D02*
X0280845Y0182683D01*
X0263095Y0182683D02*
X0257095Y0182683D01*
X0257095Y0192683D02*
X0263095Y0192683D01*
X0263095Y0202683D02*
X0257095Y0202683D01*
X0302095Y0235183D02*
X0308095Y0235183D01*
X0308095Y0245183D02*
X0302095Y0245183D01*
X0162433Y0195578D02*
X0162433Y0189578D01*
X0152590Y0189578D02*
X0152590Y0195578D01*
X0142748Y0195578D02*
X0142748Y0189578D01*
X0132595Y0189683D02*
X0132595Y0195683D01*
X0122595Y0195683D02*
X0122595Y0189683D01*
X0112595Y0189683D02*
X0112595Y0195683D01*
X0102595Y0195683D02*
X0102595Y0189683D01*
X0092595Y0189683D02*
X0092595Y0195683D01*
D14*
X0212595Y0065183D03*
X0230095Y0065183D03*
D15*
X0251345Y0086433D03*
X0268845Y0086433D03*
X0263845Y0151433D03*
X0246345Y0151433D03*
D16*
X0196134Y0134346D03*
X0196134Y0065843D03*
X0041015Y0065843D03*
X0041015Y0134346D03*
D17*
X0305095Y0132683D03*
X0305095Y0122683D03*
X0305095Y0112683D03*
X0305095Y0152683D03*
X0305095Y0162683D03*
X0305095Y0182683D03*
X0305095Y0192683D03*
X0305095Y0202683D03*
X0305095Y0212683D03*
D18*
X0280095Y0130026D03*
X0280095Y0110341D03*
X0231188Y0101433D03*
X0211503Y0101433D03*
D19*
X0281768Y0240183D03*
X0053422Y0240183D03*
D20*
X0260095Y0202683D02*
X0283845Y0202683D01*
D21*
X0260095Y0202683D02*
X0257595Y0202683D01*
X0250095Y0195183D01*
X0250095Y0156433D01*
X0246345Y0151433D01*
X0220095Y0112683D02*
X0151345Y0112683D01*
X0141970Y0122058D01*
X0093220Y0170808D01*
X0092595Y0171433D01*
X0092595Y0192683D01*
X0220095Y0112683D02*
X0231188Y0101591D01*
X0231188Y0101433D01*
D22*
X0228845Y0092683D03*
X0244470Y0096433D03*
X0254470Y0101433D03*
X0244470Y0106433D03*
X0213845Y0107683D03*
X0195095Y0106433D03*
X0171970Y0107683D03*
X0171970Y0117683D03*
X0179470Y0125183D03*
X0190095Y0121433D03*
X0185095Y0132683D03*
X0198845Y0142058D03*
X0195720Y0147683D03*
X0215720Y0144558D03*
X0229470Y0144558D03*
X0230095Y0148933D03*
X0235720Y0155183D03*
X0235095Y0160183D03*
X0238220Y0163933D03*
X0242595Y0162683D03*
X0255095Y0167683D03*
X0281970Y0167683D03*
X0287595Y0153308D03*
X0281970Y0136433D03*
X0288845Y0129558D03*
X0288845Y0115808D03*
X0315095Y0114558D03*
X0327595Y0125183D03*
X0327595Y0095183D03*
X0292595Y0070183D03*
X0327595Y0065183D03*
X0250095Y0068933D03*
X0241345Y0063933D03*
X0208845Y0076433D03*
X0218845Y0083933D03*
X0163845Y0063933D03*
X0132595Y0063933D03*
X0088845Y0063933D03*
X0063845Y0063933D03*
X0106970Y0091433D03*
X0118845Y0095183D03*
X0132595Y0085183D03*
X0148220Y0102058D03*
X0160095Y0092058D03*
X0132595Y0117683D03*
X0145095Y0127683D03*
X0158845Y0128933D03*
X0127595Y0145183D03*
X0123845Y0150183D03*
X0118845Y0155183D03*
X0115095Y0158933D03*
X0110095Y0162683D03*
X0090720Y0162058D03*
X0087595Y0166433D03*
X0081345Y0165183D03*
X0072595Y0163933D03*
X0050095Y0165808D03*
X0050095Y0155183D03*
X0081345Y0140183D03*
X0085095Y0143933D03*
X0092595Y0133933D03*
X0106970Y0133933D03*
X0117595Y0135183D03*
X0091970Y0122058D03*
X0106970Y0117683D03*
X0081345Y0122058D03*
X0075095Y0123933D03*
X0075095Y0133933D03*
X0050095Y0133933D03*
X0045095Y0123933D03*
X0039470Y0098308D03*
X0140720Y0155183D03*
X0140095Y0159558D03*
X0140095Y0165808D03*
X0157595Y0178308D03*
X0170095Y0183308D03*
X0170095Y0187683D03*
X0181970Y0192683D03*
X0188845Y0191433D03*
X0180095Y0200183D03*
X0167595Y0202683D03*
X0172595Y0207683D03*
X0185095Y0205183D03*
X0197595Y0213933D03*
X0167595Y0220183D03*
X0182595Y0228933D03*
X0177595Y0235183D03*
X0167595Y0235183D03*
X0157595Y0235183D03*
X0127595Y0220183D03*
X0117595Y0226433D03*
X0096345Y0212683D03*
X0085095Y0207683D03*
X0077595Y0195183D03*
X0063220Y0196433D03*
X0055095Y0203308D03*
X0046345Y0205183D03*
X0065095Y0210183D03*
X0046345Y0195808D03*
X0065720Y0182683D03*
X0050095Y0178308D03*
X0087595Y0182683D03*
X0097595Y0182683D03*
X0107595Y0186433D03*
X0117595Y0186433D03*
X0138845Y0182683D03*
X0139470Y0203308D03*
X0140095Y0208933D03*
X0156345Y0208933D03*
X0156970Y0202683D03*
X0202595Y0176433D03*
X0213845Y0176433D03*
X0216345Y0173308D03*
X0213845Y0170183D03*
X0216345Y0166433D03*
X0221345Y0162058D03*
X0213220Y0159558D03*
X0215095Y0155970D03*
X0203220Y0159558D03*
X0225720Y0157683D03*
X0225095Y0176433D03*
X0220095Y0176433D03*
X0231970Y0187683D03*
X0221345Y0195183D03*
X0229470Y0198933D03*
X0212595Y0191433D03*
X0235095Y0215183D03*
X0202595Y0240183D03*
X0296970Y0247683D03*
X0327595Y0245183D03*
X0304470Y0225183D03*
X0327595Y0215183D03*
X0295095Y0197683D03*
X0315095Y0185183D03*
X0327595Y0185183D03*
X0295095Y0182683D03*
X0327595Y0155183D03*
X0254470Y0125808D03*
X0243845Y0131433D03*
X0087595Y0230183D03*
X0075095Y0240183D03*
X0066970Y0247683D03*
X0040095Y0247683D03*
X0040095Y0227683D03*
X0062595Y0227683D03*
D23*
X0081345Y0165183D02*
X0081345Y0140183D01*
X0081345Y0122058D01*
X0091970Y0122058D02*
X0141970Y0122058D01*
X0141345Y0122683D01*
D24*
X0158845Y0128933D02*
X0172595Y0128933D01*
X0203220Y0159558D01*
X0213220Y0159558D01*
X0215095Y0155970D02*
X0204008Y0155970D01*
X0195720Y0147683D01*
X0202595Y0146433D02*
X0202595Y0130183D01*
X0197595Y0125183D01*
X0179470Y0125183D01*
X0185095Y0132683D02*
X0205095Y0152683D01*
X0216345Y0152683D01*
X0225095Y0161433D01*
X0225095Y0176433D01*
X0220095Y0176433D02*
X0220095Y0165808D01*
X0216970Y0162683D01*
X0135095Y0162683D01*
X0131345Y0158933D01*
X0115095Y0158933D01*
X0118845Y0155183D02*
X0135720Y0155183D01*
X0140095Y0159558D01*
X0140720Y0155183D02*
X0135720Y0150183D01*
X0123845Y0150183D01*
X0117595Y0135183D02*
X0090720Y0162058D01*
X0092595Y0170183D02*
X0040095Y0170183D01*
X0062595Y0192683D02*
X0065095Y0192683D01*
X0072595Y0200183D01*
X0095095Y0200183D01*
X0097595Y0197683D01*
X0097595Y0187683D01*
X0119470Y0165808D01*
X0140095Y0165808D01*
X0157595Y0178308D02*
X0183220Y0178308D01*
X0195095Y0166433D01*
X0216345Y0166433D01*
X0213845Y0170183D02*
X0195095Y0170183D01*
X0156345Y0208933D01*
X0156970Y0202683D02*
X0150095Y0202683D01*
X0147595Y0200183D01*
X0137595Y0200183D01*
X0133845Y0203933D01*
X0070720Y0203933D01*
X0063220Y0196433D01*
X0062595Y0192683D02*
X0055095Y0200183D01*
X0040095Y0200183D01*
X0077595Y0221433D02*
X0077595Y0237683D01*
X0080095Y0240183D01*
X0090095Y0240183D01*
X0092595Y0237683D01*
X0092595Y0235183D01*
X0082595Y0235183D02*
X0082595Y0220183D01*
X0093845Y0208933D01*
X0140095Y0208933D01*
X0136345Y0206433D02*
X0092595Y0206433D01*
X0077595Y0221433D01*
X0112595Y0220183D02*
X0112595Y0217683D01*
X0117595Y0212683D01*
X0167595Y0212683D01*
X0172595Y0217683D01*
X0172595Y0220183D01*
X0172595Y0223933D01*
X0162595Y0233933D01*
X0162595Y0235183D01*
X0167595Y0235183D02*
X0167595Y0233933D01*
X0173845Y0227683D01*
X0175095Y0227683D01*
X0182595Y0220183D01*
X0187595Y0225183D02*
X0187595Y0207683D01*
X0185095Y0205183D01*
X0192595Y0210183D02*
X0197595Y0205183D01*
X0205095Y0205183D01*
X0207595Y0202683D01*
X0207595Y0197683D01*
X0212595Y0192683D01*
X0212595Y0191433D01*
X0226345Y0182683D02*
X0191970Y0182683D01*
X0181970Y0192683D01*
X0167595Y0202683D02*
X0196970Y0173308D01*
X0216345Y0173308D01*
X0226345Y0182683D02*
X0235095Y0173933D01*
X0235095Y0160183D01*
X0238220Y0163933D02*
X0238220Y0190183D01*
X0229470Y0198933D01*
X0192595Y0230183D02*
X0187595Y0225183D01*
X0192595Y0230183D02*
X0205095Y0230183D01*
X0207595Y0232683D01*
X0207595Y0247683D01*
X0205095Y0250183D01*
X0126345Y0250183D01*
X0122595Y0246433D01*
X0122595Y0245183D01*
X0127595Y0237683D02*
X0130095Y0240183D01*
X0190095Y0240183D01*
X0192595Y0242683D01*
X0192595Y0245183D01*
X0162595Y0225183D02*
X0160095Y0227683D01*
X0135095Y0227683D01*
X0132595Y0225183D01*
X0132595Y0220183D01*
X0127595Y0227683D02*
X0122595Y0222683D01*
X0122595Y0220183D01*
X0127595Y0227683D02*
X0127595Y0237683D01*
X0162595Y0225183D02*
X0162595Y0220183D01*
X0139470Y0203308D02*
X0136345Y0206433D01*
X0142748Y0192578D02*
X0142748Y0190030D01*
X0149470Y0183308D01*
X0170095Y0183308D01*
X0218220Y0150183D02*
X0225720Y0157683D01*
X0218220Y0150183D02*
X0206345Y0150183D01*
X0202595Y0146433D01*
X0215720Y0144558D02*
X0229470Y0144558D01*
X0243845Y0131433D02*
X0280095Y0095183D01*
X0287595Y0095183D01*
X0287595Y0075183D02*
X0285095Y0075183D01*
X0282595Y0072683D01*
X0242595Y0072683D01*
X0220095Y0095183D01*
X0118845Y0095183D01*
X0160095Y0092058D02*
X0219470Y0092058D01*
X0246345Y0065183D01*
X0287595Y0065183D01*
X0093220Y0170808D02*
X0092595Y0170183D01*
D25*
X0157595Y0167683D03*
X0157595Y0173308D03*
X0167595Y0173308D03*
X0167595Y0167683D03*
X0173220Y0167683D03*
X0173220Y0173308D03*
X0173220Y0156433D03*
X0167595Y0156433D03*
X0167595Y0150808D03*
X0173220Y0150808D03*
X0173220Y0145183D03*
X0167595Y0145183D03*
X0157595Y0150808D03*
X0157595Y0156433D03*
M02*
