G75*
%MOIN*%
%OFA0B0*%
%FSLAX25Y25*%
%IPPOS*%
%LPD*%
%AMOC8*
5,1,8,0,0,1.08239X$1,22.5*
%
%ADD10C,0.01000*%
%ADD11C,0.00400*%
%ADD12C,0.00500*%
%ADD13C,0.00600*%
%ADD14C,0.00394*%
%ADD15C,0.00800*%
%ADD16C,0.00591*%
D10*
X0037595Y0057683D02*
X0032595Y0062683D01*
X0032595Y0247683D01*
X0037595Y0252683D01*
X0330095Y0252683D01*
X0335095Y0247683D01*
X0335095Y0062683D01*
X0330095Y0057683D01*
X0037595Y0057683D01*
D11*
X0218467Y0061958D02*
X0218467Y0063760D01*
X0219068Y0064360D01*
X0219668Y0064360D01*
X0220269Y0063760D01*
X0220269Y0061958D01*
X0222070Y0061958D02*
X0222070Y0063760D01*
X0221470Y0064360D01*
X0220869Y0064360D01*
X0220269Y0063760D01*
X0220269Y0065641D02*
X0220269Y0068043D01*
X0219668Y0068043D02*
X0222070Y0068043D01*
X0222070Y0065641D02*
X0219668Y0065641D01*
X0218467Y0066842D01*
X0219668Y0068043D01*
X0218467Y0069324D02*
X0218467Y0071726D01*
X0218467Y0070525D02*
X0222070Y0070525D01*
X0222070Y0074209D02*
X0218467Y0074209D01*
X0218467Y0073008D02*
X0218467Y0075410D01*
X0220269Y0076691D02*
X0220269Y0079093D01*
X0235967Y0075410D02*
X0235967Y0073008D01*
X0235967Y0074209D02*
X0239570Y0074209D01*
X0237769Y0076691D02*
X0237769Y0079093D01*
X0236568Y0077892D02*
X0238970Y0077892D01*
X0235967Y0071726D02*
X0235967Y0069324D01*
X0235967Y0070525D02*
X0239570Y0070525D01*
X0239570Y0068043D02*
X0237168Y0068043D01*
X0235967Y0066842D01*
X0237168Y0065641D01*
X0239570Y0065641D01*
X0238970Y0064360D02*
X0239570Y0063760D01*
X0239570Y0061958D01*
X0235967Y0061958D01*
X0235967Y0063760D01*
X0236568Y0064360D01*
X0237168Y0064360D01*
X0237769Y0063760D01*
X0237769Y0061958D01*
X0237769Y0063760D02*
X0238369Y0064360D01*
X0238970Y0064360D01*
X0237769Y0065641D02*
X0237769Y0068043D01*
X0222070Y0061958D02*
X0218467Y0061958D01*
X0246830Y0096150D02*
X0246830Y0099220D01*
X0245295Y0097685D02*
X0248364Y0097685D01*
X0310295Y0110383D02*
X0311496Y0110383D01*
X0310896Y0110383D02*
X0310896Y0113986D01*
X0311496Y0113986D02*
X0310295Y0113986D01*
X0312751Y0113986D02*
X0315153Y0110383D01*
X0315153Y0113986D01*
X0312751Y0113986D02*
X0312751Y0110383D01*
X0316434Y0109783D02*
X0318836Y0109783D01*
X0320117Y0110383D02*
X0320117Y0113986D01*
X0321918Y0113986D01*
X0322519Y0113386D01*
X0322519Y0112185D01*
X0321918Y0111584D01*
X0320117Y0111584D01*
X0321318Y0111584D02*
X0322519Y0110383D01*
X0323146Y0120383D02*
X0323747Y0120984D01*
X0323747Y0123386D01*
X0323146Y0123986D01*
X0321345Y0123986D01*
X0321345Y0120383D01*
X0323146Y0120383D01*
X0320063Y0120383D02*
X0320063Y0123986D01*
X0317661Y0123986D02*
X0320063Y0120383D01*
X0317661Y0120383D02*
X0317661Y0123986D01*
X0316380Y0123386D02*
X0315780Y0123986D01*
X0314579Y0123986D01*
X0313978Y0123386D01*
X0313978Y0120984D01*
X0314579Y0120383D01*
X0315780Y0120383D01*
X0316380Y0120984D01*
X0316380Y0122185D01*
X0315179Y0122185D01*
X0312697Y0122185D02*
X0310295Y0122185D01*
X0310295Y0122785D02*
X0311496Y0123986D01*
X0312697Y0122785D01*
X0312697Y0120383D01*
X0310295Y0120383D02*
X0310295Y0122785D01*
X0310295Y0130383D02*
X0311496Y0130383D01*
X0310896Y0130383D02*
X0310896Y0133986D01*
X0311496Y0133986D02*
X0310295Y0133986D01*
X0312751Y0133986D02*
X0315153Y0130383D01*
X0315153Y0133986D01*
X0312751Y0133986D02*
X0312751Y0130383D01*
X0316434Y0129783D02*
X0318836Y0129783D01*
X0320117Y0130383D02*
X0322519Y0130383D01*
X0320117Y0130383D02*
X0320117Y0133986D01*
X0315179Y0150383D02*
X0316380Y0151584D01*
X0316380Y0153986D01*
X0313978Y0153986D02*
X0313978Y0151584D01*
X0315179Y0150383D01*
X0312697Y0150984D02*
X0312097Y0150383D01*
X0310896Y0150383D01*
X0310295Y0150984D01*
X0310295Y0152185D02*
X0311496Y0152785D01*
X0312097Y0152785D01*
X0312697Y0152185D01*
X0312697Y0150984D01*
X0310295Y0152185D02*
X0310295Y0153986D01*
X0312697Y0153986D01*
X0314579Y0160383D02*
X0315780Y0160383D01*
X0316380Y0160984D01*
X0316380Y0162185D01*
X0315179Y0162185D01*
X0313978Y0163386D02*
X0313978Y0160984D01*
X0314579Y0160383D01*
X0312697Y0162185D02*
X0312097Y0161584D01*
X0310295Y0161584D01*
X0310295Y0160383D02*
X0310295Y0163986D01*
X0312097Y0163986D01*
X0312697Y0163386D01*
X0312697Y0162185D01*
X0313978Y0163386D02*
X0314579Y0163986D01*
X0315780Y0163986D01*
X0316380Y0163386D01*
X0317661Y0163986D02*
X0320063Y0160383D01*
X0320063Y0163986D01*
X0321345Y0163986D02*
X0323146Y0163986D01*
X0323747Y0163386D01*
X0323747Y0160984D01*
X0323146Y0160383D01*
X0321345Y0160383D01*
X0321345Y0163986D01*
X0317661Y0163986D02*
X0317661Y0160383D01*
X0321345Y0179783D02*
X0323747Y0179783D01*
X0325028Y0180383D02*
X0325028Y0183986D01*
X0325028Y0180383D02*
X0327430Y0180383D01*
X0328711Y0182185D02*
X0331113Y0182185D01*
X0320063Y0183986D02*
X0317661Y0183986D01*
X0318862Y0183986D02*
X0318862Y0180383D01*
X0316380Y0180984D02*
X0316380Y0183986D01*
X0313978Y0183986D02*
X0313978Y0180984D01*
X0314579Y0180383D01*
X0315780Y0180383D01*
X0316380Y0180984D01*
X0312697Y0180984D02*
X0312697Y0183386D01*
X0312097Y0183986D01*
X0310896Y0183986D01*
X0310295Y0183386D01*
X0310295Y0180984D01*
X0310896Y0180383D01*
X0312097Y0180383D01*
X0312697Y0180984D01*
X0312097Y0190383D02*
X0312697Y0190984D01*
X0312697Y0193386D01*
X0312097Y0193986D01*
X0310896Y0193986D01*
X0310295Y0193386D01*
X0310295Y0190984D01*
X0310896Y0190383D01*
X0312097Y0190383D01*
X0313978Y0190984D02*
X0314579Y0190383D01*
X0315780Y0190383D01*
X0316380Y0190984D01*
X0316380Y0193986D01*
X0317661Y0193986D02*
X0320063Y0193986D01*
X0318862Y0193986D02*
X0318862Y0190383D01*
X0321345Y0189783D02*
X0323747Y0189783D01*
X0325028Y0190383D02*
X0325028Y0193986D01*
X0325028Y0190383D02*
X0327430Y0190383D01*
X0328711Y0192185D02*
X0331113Y0192185D01*
X0329912Y0193386D02*
X0329912Y0190984D01*
X0323747Y0199783D02*
X0321345Y0199783D01*
X0318862Y0200383D02*
X0318862Y0203986D01*
X0317661Y0203986D02*
X0320063Y0203986D01*
X0316380Y0203986D02*
X0316380Y0200984D01*
X0315780Y0200383D01*
X0314579Y0200383D01*
X0313978Y0200984D01*
X0313978Y0203986D01*
X0312697Y0203386D02*
X0312097Y0203986D01*
X0310896Y0203986D01*
X0310295Y0203386D01*
X0310295Y0200984D01*
X0310896Y0200383D01*
X0312097Y0200383D01*
X0312697Y0200984D01*
X0312697Y0203386D01*
X0312097Y0210383D02*
X0312697Y0210984D01*
X0312697Y0213386D01*
X0312097Y0213986D01*
X0310896Y0213986D01*
X0310295Y0213386D01*
X0310295Y0210984D01*
X0310896Y0210383D01*
X0312097Y0210383D01*
X0313978Y0210984D02*
X0314579Y0210383D01*
X0315780Y0210383D01*
X0316380Y0210984D01*
X0316380Y0213986D01*
X0317661Y0213986D02*
X0320063Y0213986D01*
X0318862Y0213986D02*
X0318862Y0210383D01*
X0321345Y0209783D02*
X0323747Y0209783D01*
X0325028Y0210383D02*
X0325028Y0213986D01*
X0326829Y0213986D01*
X0327430Y0213386D01*
X0327430Y0212185D01*
X0326829Y0211584D01*
X0325028Y0211584D01*
X0326229Y0211584D02*
X0327430Y0210383D01*
X0328711Y0212185D02*
X0331113Y0212185D01*
X0313978Y0210984D02*
X0313978Y0213986D01*
X0325028Y0203986D02*
X0326829Y0203986D01*
X0327430Y0203386D01*
X0327430Y0202185D01*
X0326829Y0201584D01*
X0325028Y0201584D01*
X0326229Y0201584D02*
X0327430Y0200383D01*
X0328711Y0202185D02*
X0331113Y0202185D01*
X0329912Y0203386D02*
X0329912Y0200984D01*
X0325028Y0200383D02*
X0325028Y0203986D01*
X0313978Y0193986D02*
X0313978Y0190984D01*
X0243364Y0162685D02*
X0240295Y0162685D01*
X0241830Y0164220D02*
X0241830Y0161150D01*
X0163895Y0176117D02*
X0163295Y0175517D01*
X0163895Y0176117D02*
X0163895Y0177318D01*
X0163295Y0177919D01*
X0162094Y0177919D01*
X0161493Y0177318D01*
X0161493Y0176718D01*
X0162094Y0175517D01*
X0160292Y0175517D01*
X0160292Y0177919D01*
X0160292Y0179200D02*
X0162694Y0179200D01*
X0163895Y0180401D01*
X0162694Y0181602D01*
X0160292Y0181602D01*
X0153895Y0177251D02*
X0153295Y0177852D01*
X0150893Y0177852D01*
X0150292Y0177251D01*
X0150292Y0175450D01*
X0153895Y0175450D01*
X0153895Y0177251D01*
X0153895Y0174169D02*
X0150292Y0174169D01*
X0150292Y0171767D02*
X0153895Y0174169D01*
X0153895Y0171767D02*
X0150292Y0171767D01*
X0150893Y0170486D02*
X0150292Y0169885D01*
X0150292Y0168684D01*
X0150893Y0168084D01*
X0153295Y0168084D01*
X0153895Y0168684D01*
X0153895Y0169885D01*
X0153295Y0170486D01*
X0152094Y0170486D01*
X0152094Y0169285D01*
X0143895Y0175517D02*
X0140292Y0175517D01*
X0140292Y0177318D01*
X0140893Y0177919D01*
X0142094Y0177919D01*
X0142694Y0177318D01*
X0142694Y0175517D01*
X0142694Y0176718D02*
X0143895Y0177919D01*
X0143895Y0179200D02*
X0140292Y0181602D01*
X0140292Y0179200D02*
X0143895Y0181602D01*
X0134196Y0180719D02*
X0134196Y0178317D01*
X0132995Y0177036D02*
X0130593Y0177036D01*
X0129992Y0176435D01*
X0129992Y0174634D01*
X0133595Y0174634D01*
X0133595Y0176435D01*
X0132995Y0177036D01*
X0133595Y0173353D02*
X0133595Y0170950D01*
X0129992Y0170950D01*
X0129992Y0173353D01*
X0131794Y0172152D02*
X0131794Y0170950D01*
X0133595Y0169669D02*
X0133595Y0167267D01*
X0129992Y0167267D01*
X0129992Y0165986D02*
X0129992Y0163584D01*
X0129992Y0164785D02*
X0133595Y0164785D01*
X0133595Y0162303D02*
X0129992Y0162303D01*
X0129992Y0159901D02*
X0133595Y0162303D01*
X0133595Y0159901D02*
X0129992Y0159901D01*
X0130593Y0158620D02*
X0129992Y0158019D01*
X0129992Y0156818D01*
X0130593Y0156218D01*
X0132995Y0156218D01*
X0133595Y0156818D01*
X0133595Y0158019D01*
X0132995Y0158620D01*
X0130593Y0158620D01*
X0130593Y0154937D02*
X0131794Y0154937D01*
X0132394Y0154336D01*
X0132394Y0152535D01*
X0132394Y0153736D02*
X0133595Y0154937D01*
X0133595Y0152535D02*
X0129992Y0152535D01*
X0129992Y0154336D01*
X0130593Y0154937D01*
X0129992Y0151254D02*
X0129992Y0148852D01*
X0133595Y0148852D01*
X0131794Y0148852D02*
X0131794Y0150053D01*
X0123595Y0148852D02*
X0119992Y0148852D01*
X0119992Y0151254D01*
X0119992Y0152535D02*
X0119992Y0154336D01*
X0120593Y0154937D01*
X0121794Y0154937D01*
X0122394Y0154336D01*
X0122394Y0152535D01*
X0122394Y0153736D02*
X0123595Y0154937D01*
X0122995Y0156218D02*
X0123595Y0156818D01*
X0123595Y0158019D01*
X0122995Y0158620D01*
X0120593Y0158620D01*
X0119992Y0158019D01*
X0119992Y0156818D01*
X0120593Y0156218D01*
X0122995Y0156218D01*
X0123595Y0159901D02*
X0119992Y0159901D01*
X0123595Y0162303D01*
X0119992Y0162303D01*
X0119992Y0163584D02*
X0119992Y0165986D01*
X0119992Y0164785D02*
X0123595Y0164785D01*
X0123595Y0167267D02*
X0123595Y0169669D01*
X0123595Y0170950D02*
X0123595Y0173353D01*
X0123595Y0174634D02*
X0123595Y0176435D01*
X0122995Y0177036D01*
X0120593Y0177036D01*
X0119992Y0176435D01*
X0119992Y0174634D01*
X0123595Y0174634D01*
X0121794Y0172152D02*
X0121794Y0170950D01*
X0123595Y0170950D02*
X0119992Y0170950D01*
X0119992Y0173353D01*
X0119992Y0167267D02*
X0123595Y0167267D01*
X0113595Y0167267D02*
X0113595Y0169669D01*
X0113595Y0170950D02*
X0113595Y0173353D01*
X0113595Y0174634D02*
X0113595Y0176435D01*
X0112995Y0177036D01*
X0110593Y0177036D01*
X0109992Y0176435D01*
X0109992Y0174634D01*
X0113595Y0174634D01*
X0111794Y0172152D02*
X0111794Y0170950D01*
X0113595Y0170950D02*
X0109992Y0170950D01*
X0109992Y0173353D01*
X0109992Y0167267D02*
X0113595Y0167267D01*
X0113595Y0164785D02*
X0109992Y0164785D01*
X0109992Y0163584D02*
X0109992Y0165986D01*
X0109992Y0162303D02*
X0113595Y0162303D01*
X0109992Y0159901D01*
X0113595Y0159901D01*
X0112995Y0158620D02*
X0110593Y0158620D01*
X0109992Y0158019D01*
X0109992Y0156818D01*
X0110593Y0156218D01*
X0112995Y0156218D01*
X0113595Y0156818D01*
X0113595Y0158019D01*
X0112995Y0158620D01*
X0113595Y0154937D02*
X0112394Y0153736D01*
X0112394Y0154336D02*
X0112394Y0152535D01*
X0113595Y0152535D02*
X0109992Y0152535D01*
X0109992Y0154336D01*
X0110593Y0154937D01*
X0111794Y0154937D01*
X0112394Y0154336D01*
X0109992Y0151254D02*
X0109992Y0148852D01*
X0113595Y0148852D01*
X0111794Y0148852D02*
X0111794Y0150053D01*
X0103595Y0148852D02*
X0099992Y0148852D01*
X0099992Y0151254D01*
X0099992Y0152535D02*
X0099992Y0154336D01*
X0100593Y0154937D01*
X0101794Y0154937D01*
X0102394Y0154336D01*
X0102394Y0152535D01*
X0102394Y0153736D02*
X0103595Y0154937D01*
X0102995Y0156218D02*
X0103595Y0156818D01*
X0103595Y0158019D01*
X0102995Y0158620D01*
X0100593Y0158620D01*
X0099992Y0158019D01*
X0099992Y0156818D01*
X0100593Y0156218D01*
X0102995Y0156218D01*
X0103595Y0159901D02*
X0099992Y0159901D01*
X0103595Y0162303D01*
X0099992Y0162303D01*
X0099992Y0163584D02*
X0099992Y0165986D01*
X0099992Y0164785D02*
X0103595Y0164785D01*
X0103595Y0167267D02*
X0103595Y0169669D01*
X0103595Y0170950D02*
X0103595Y0173353D01*
X0103595Y0174634D02*
X0103595Y0176435D01*
X0102995Y0177036D01*
X0100593Y0177036D01*
X0099992Y0176435D01*
X0099992Y0174634D01*
X0103595Y0174634D01*
X0101794Y0172152D02*
X0101794Y0170950D01*
X0103595Y0170950D02*
X0099992Y0170950D01*
X0099992Y0173353D01*
X0094196Y0174634D02*
X0094196Y0177036D01*
X0092995Y0178317D02*
X0093595Y0178917D01*
X0093595Y0180118D01*
X0092995Y0180719D01*
X0091794Y0180719D01*
X0091193Y0180118D01*
X0091193Y0179518D01*
X0091794Y0178317D01*
X0089992Y0178317D01*
X0089992Y0180719D01*
X0089992Y0182000D02*
X0092394Y0182000D01*
X0093595Y0183201D01*
X0092394Y0184402D01*
X0089992Y0184402D01*
X0079389Y0188184D02*
X0079389Y0190586D01*
X0078188Y0189385D02*
X0080590Y0189385D01*
X0076907Y0189385D02*
X0076306Y0188784D01*
X0074505Y0188784D01*
X0075706Y0188784D02*
X0076907Y0187583D01*
X0076907Y0189385D02*
X0076907Y0190586D01*
X0076306Y0191186D01*
X0074505Y0191186D01*
X0074505Y0187583D01*
X0073224Y0187583D02*
X0070822Y0187583D01*
X0070822Y0191186D01*
X0073224Y0191186D01*
X0072023Y0189385D02*
X0070822Y0189385D01*
X0069541Y0189385D02*
X0068940Y0188784D01*
X0067139Y0188784D01*
X0067139Y0187583D02*
X0067139Y0191186D01*
X0068940Y0191186D01*
X0069541Y0190586D01*
X0069541Y0189385D01*
X0065884Y0191186D02*
X0064683Y0191186D01*
X0065284Y0191186D02*
X0065284Y0187583D01*
X0065884Y0187583D02*
X0064683Y0187583D01*
X0063402Y0187583D02*
X0063402Y0191186D01*
X0061000Y0191186D02*
X0063402Y0187583D01*
X0061000Y0187583D02*
X0061000Y0191186D01*
X0059719Y0190586D02*
X0059118Y0191186D01*
X0057917Y0191186D01*
X0057317Y0190586D01*
X0057317Y0189985D01*
X0057917Y0189385D01*
X0059118Y0189385D01*
X0059719Y0188784D01*
X0059719Y0188184D01*
X0059118Y0187583D01*
X0057917Y0187583D01*
X0057317Y0188184D01*
X0056036Y0186983D02*
X0053634Y0186983D01*
X0052353Y0187583D02*
X0051152Y0188784D01*
X0051752Y0188784D02*
X0049951Y0188784D01*
X0049951Y0187583D02*
X0049951Y0191186D01*
X0051752Y0191186D01*
X0052353Y0190586D01*
X0052353Y0189385D01*
X0051752Y0188784D01*
X0048696Y0187583D02*
X0047495Y0187583D01*
X0048096Y0187583D02*
X0048096Y0191186D01*
X0048696Y0191186D02*
X0047495Y0191186D01*
X0047495Y0197583D02*
X0048696Y0197583D01*
X0048096Y0197583D02*
X0048096Y0201186D01*
X0048696Y0201186D02*
X0047495Y0201186D01*
X0049951Y0201186D02*
X0049951Y0197583D01*
X0049951Y0198784D02*
X0051752Y0198784D01*
X0052353Y0199385D01*
X0052353Y0200586D01*
X0051752Y0201186D01*
X0049951Y0201186D01*
X0051152Y0198784D02*
X0052353Y0197583D01*
X0053634Y0196983D02*
X0056036Y0196983D01*
X0057317Y0198184D02*
X0057917Y0197583D01*
X0059118Y0197583D01*
X0059719Y0198184D01*
X0059719Y0198784D01*
X0059118Y0199385D01*
X0057917Y0199385D01*
X0057317Y0199985D01*
X0057317Y0200586D01*
X0057917Y0201186D01*
X0059118Y0201186D01*
X0059719Y0200586D01*
X0061000Y0201186D02*
X0063402Y0197583D01*
X0063402Y0201186D01*
X0064683Y0201186D02*
X0065884Y0201186D01*
X0065284Y0201186D02*
X0065284Y0197583D01*
X0065884Y0197583D02*
X0064683Y0197583D01*
X0067139Y0197583D02*
X0067139Y0201186D01*
X0068940Y0201186D01*
X0069541Y0200586D01*
X0069541Y0199385D01*
X0068940Y0198784D01*
X0067139Y0198784D01*
X0070822Y0199385D02*
X0072023Y0199385D01*
X0073224Y0201186D02*
X0070822Y0201186D01*
X0070822Y0197583D01*
X0073224Y0197583D01*
X0074505Y0197583D02*
X0074505Y0201186D01*
X0076306Y0201186D01*
X0076907Y0200586D01*
X0076907Y0199385D01*
X0076306Y0198784D01*
X0074505Y0198784D01*
X0075706Y0198784D02*
X0076907Y0197583D01*
X0078188Y0199385D02*
X0080590Y0199385D01*
X0073851Y0207583D02*
X0074451Y0208184D01*
X0074451Y0209385D01*
X0073250Y0209385D01*
X0072049Y0210586D02*
X0072049Y0208184D01*
X0072650Y0207583D01*
X0073851Y0207583D01*
X0075733Y0209385D02*
X0078135Y0209385D01*
X0074451Y0210586D02*
X0073851Y0211186D01*
X0072650Y0211186D01*
X0072049Y0210586D01*
X0070768Y0211186D02*
X0068366Y0211186D01*
X0069567Y0211186D02*
X0069567Y0207583D01*
X0067085Y0208184D02*
X0067085Y0210586D01*
X0066485Y0211186D01*
X0065284Y0211186D01*
X0064683Y0210586D01*
X0064683Y0208184D01*
X0065284Y0207583D01*
X0066485Y0207583D01*
X0067085Y0208184D01*
X0063402Y0207583D02*
X0063402Y0211186D01*
X0063402Y0209385D02*
X0061000Y0209385D01*
X0059719Y0208784D02*
X0059719Y0208184D01*
X0059118Y0207583D01*
X0057917Y0207583D01*
X0057317Y0208184D01*
X0057917Y0209385D02*
X0059118Y0209385D01*
X0059719Y0208784D01*
X0061000Y0207583D02*
X0061000Y0211186D01*
X0059719Y0210586D02*
X0059118Y0211186D01*
X0057917Y0211186D01*
X0057317Y0210586D01*
X0057317Y0209985D01*
X0057917Y0209385D01*
X0056036Y0206983D02*
X0053634Y0206983D01*
X0052353Y0207583D02*
X0051152Y0208784D01*
X0051752Y0208784D02*
X0049951Y0208784D01*
X0049951Y0207583D02*
X0049951Y0211186D01*
X0051752Y0211186D01*
X0052353Y0210586D01*
X0052353Y0209385D01*
X0051752Y0208784D01*
X0048696Y0207583D02*
X0047495Y0207583D01*
X0048096Y0207583D02*
X0048096Y0211186D01*
X0048696Y0211186D02*
X0047495Y0211186D01*
X0047495Y0217583D02*
X0048696Y0217583D01*
X0048096Y0217583D02*
X0048096Y0221186D01*
X0048696Y0221186D02*
X0047495Y0221186D01*
X0049951Y0221186D02*
X0049951Y0217583D01*
X0049951Y0218784D02*
X0051752Y0218784D01*
X0052353Y0219385D01*
X0052353Y0220586D01*
X0051752Y0221186D01*
X0049951Y0221186D01*
X0051152Y0218784D02*
X0052353Y0217583D01*
X0053634Y0216983D02*
X0056036Y0216983D01*
X0057317Y0218184D02*
X0057917Y0217583D01*
X0059118Y0217583D01*
X0059719Y0218184D01*
X0059719Y0218784D01*
X0059118Y0219385D01*
X0057917Y0219385D01*
X0057317Y0219985D01*
X0057317Y0220586D01*
X0057917Y0221186D01*
X0059118Y0221186D01*
X0059719Y0220586D01*
X0061000Y0221186D02*
X0061000Y0217583D01*
X0061000Y0219385D02*
X0063402Y0219385D01*
X0064683Y0220586D02*
X0064683Y0218184D01*
X0065284Y0217583D01*
X0066485Y0217583D01*
X0067085Y0218184D01*
X0067085Y0220586D01*
X0066485Y0221186D01*
X0065284Y0221186D01*
X0064683Y0220586D01*
X0063402Y0221186D02*
X0063402Y0217583D01*
X0068366Y0221186D02*
X0070768Y0221186D01*
X0069567Y0221186D02*
X0069567Y0217583D01*
X0072049Y0218184D02*
X0072650Y0217583D01*
X0073851Y0217583D01*
X0074451Y0218184D01*
X0074451Y0219385D01*
X0073250Y0219385D01*
X0072049Y0220586D02*
X0072049Y0218184D01*
X0072049Y0220586D02*
X0072650Y0221186D01*
X0073851Y0221186D01*
X0074451Y0220586D01*
X0075733Y0219385D02*
X0078135Y0219385D01*
X0076934Y0220586D02*
X0076934Y0218184D01*
X0061000Y0201186D02*
X0061000Y0197583D01*
X0060947Y0181186D02*
X0058545Y0181186D01*
X0058545Y0177583D01*
X0060947Y0177583D01*
X0062228Y0177583D02*
X0062228Y0181186D01*
X0064029Y0181186D01*
X0064630Y0180586D01*
X0064630Y0179385D01*
X0064029Y0178784D01*
X0062228Y0178784D01*
X0063429Y0178784D02*
X0064630Y0177583D01*
X0065911Y0176983D02*
X0068313Y0176983D01*
X0069594Y0177583D02*
X0071996Y0177583D01*
X0070795Y0177583D02*
X0070795Y0181186D01*
X0069594Y0179985D01*
X0073277Y0179385D02*
X0075679Y0179385D01*
X0074478Y0180586D02*
X0074478Y0178184D01*
X0059746Y0179385D02*
X0058545Y0179385D01*
X0057263Y0178784D02*
X0057263Y0178184D01*
X0056663Y0177583D01*
X0055462Y0177583D01*
X0054861Y0178184D01*
X0055462Y0179385D02*
X0056663Y0179385D01*
X0057263Y0178784D01*
X0057263Y0180586D02*
X0056663Y0181186D01*
X0055462Y0181186D01*
X0054861Y0180586D01*
X0054861Y0179985D01*
X0055462Y0179385D01*
X0053580Y0179385D02*
X0051178Y0179385D01*
X0051178Y0179985D02*
X0052379Y0181186D01*
X0053580Y0179985D01*
X0053580Y0177583D01*
X0051178Y0177583D02*
X0051178Y0179985D01*
X0049897Y0177583D02*
X0047495Y0177583D01*
X0047495Y0181186D01*
X0047495Y0171186D02*
X0047495Y0167583D01*
X0049897Y0167583D01*
X0051178Y0167583D02*
X0051178Y0169985D01*
X0052379Y0171186D01*
X0053580Y0169985D01*
X0053580Y0167583D01*
X0054861Y0168184D02*
X0055462Y0167583D01*
X0056663Y0167583D01*
X0057263Y0168184D01*
X0057263Y0168784D01*
X0056663Y0169385D01*
X0055462Y0169385D01*
X0054861Y0169985D01*
X0054861Y0170586D01*
X0055462Y0171186D01*
X0056663Y0171186D01*
X0057263Y0170586D01*
X0058545Y0171186D02*
X0058545Y0167583D01*
X0060947Y0167583D01*
X0062228Y0167583D02*
X0062228Y0171186D01*
X0064029Y0171186D01*
X0064630Y0170586D01*
X0064630Y0169385D01*
X0064029Y0168784D01*
X0062228Y0168784D01*
X0063429Y0168784D02*
X0064630Y0167583D01*
X0065911Y0166983D02*
X0068313Y0166983D01*
X0069594Y0167583D02*
X0071996Y0169985D01*
X0071996Y0170586D01*
X0071396Y0171186D01*
X0070195Y0171186D01*
X0069594Y0170586D01*
X0069594Y0167583D02*
X0071996Y0167583D01*
X0073277Y0169385D02*
X0075679Y0169385D01*
X0074478Y0170586D02*
X0074478Y0168184D01*
X0060947Y0171186D02*
X0058545Y0171186D01*
X0058545Y0169385D02*
X0059746Y0169385D01*
X0053580Y0169385D02*
X0051178Y0169385D01*
X0052379Y0161186D02*
X0053580Y0159985D01*
X0053580Y0157583D01*
X0054861Y0158184D02*
X0055462Y0157583D01*
X0056663Y0157583D01*
X0057263Y0158184D01*
X0057263Y0158784D01*
X0056663Y0159385D01*
X0055462Y0159385D01*
X0054861Y0159985D01*
X0054861Y0160586D01*
X0055462Y0161186D01*
X0056663Y0161186D01*
X0057263Y0160586D01*
X0058545Y0161186D02*
X0058545Y0157583D01*
X0060947Y0157583D01*
X0062228Y0157583D02*
X0062228Y0161186D01*
X0064029Y0161186D01*
X0064630Y0160586D01*
X0064630Y0159385D01*
X0064029Y0158784D01*
X0062228Y0158784D01*
X0063429Y0158784D02*
X0064630Y0157583D01*
X0065911Y0156983D02*
X0068313Y0156983D01*
X0069594Y0157583D02*
X0071996Y0159985D01*
X0071996Y0160586D01*
X0071396Y0161186D01*
X0070195Y0161186D01*
X0069594Y0160586D01*
X0069594Y0157583D02*
X0071996Y0157583D01*
X0073277Y0159385D02*
X0075679Y0159385D01*
X0089992Y0159901D02*
X0089992Y0162303D01*
X0089992Y0161102D02*
X0093595Y0161102D01*
X0093595Y0158620D02*
X0089992Y0158620D01*
X0089992Y0156218D02*
X0093595Y0158620D01*
X0093595Y0156218D02*
X0089992Y0156218D01*
X0090593Y0154937D02*
X0089992Y0154336D01*
X0089992Y0153135D01*
X0090593Y0152535D01*
X0092995Y0152535D01*
X0093595Y0153135D01*
X0093595Y0154336D01*
X0092995Y0154937D01*
X0090593Y0154937D01*
X0090593Y0151254D02*
X0091794Y0151254D01*
X0092394Y0150653D01*
X0092394Y0148852D01*
X0092394Y0150053D02*
X0093595Y0151254D01*
X0093595Y0148852D02*
X0089992Y0148852D01*
X0089992Y0150653D01*
X0090593Y0151254D01*
X0089992Y0147571D02*
X0089992Y0145168D01*
X0093595Y0145168D01*
X0091794Y0145168D02*
X0091794Y0146369D01*
X0101794Y0148852D02*
X0101794Y0150053D01*
X0103595Y0152535D02*
X0099992Y0152535D01*
X0119992Y0152535D02*
X0123595Y0152535D01*
X0121794Y0150053D02*
X0121794Y0148852D01*
X0093595Y0163584D02*
X0089992Y0163584D01*
X0093595Y0163584D02*
X0093595Y0165986D01*
X0093595Y0167267D02*
X0093595Y0169669D01*
X0093595Y0170950D02*
X0093595Y0172752D01*
X0092995Y0173353D01*
X0090593Y0173353D01*
X0089992Y0172752D01*
X0089992Y0170950D01*
X0093595Y0170950D01*
X0091794Y0168468D02*
X0091794Y0167267D01*
X0093595Y0167267D02*
X0089992Y0167267D01*
X0089992Y0169669D01*
X0099992Y0167267D02*
X0103595Y0167267D01*
X0104196Y0178317D02*
X0104196Y0180719D01*
X0103595Y0182000D02*
X0102394Y0183201D01*
X0103595Y0184402D01*
X0099992Y0184402D01*
X0099992Y0182000D02*
X0103595Y0182000D01*
X0109992Y0182000D02*
X0109992Y0183801D01*
X0110593Y0184402D01*
X0111193Y0184402D01*
X0111794Y0183801D01*
X0111794Y0182000D01*
X0113595Y0182000D02*
X0113595Y0183801D01*
X0112995Y0184402D01*
X0112394Y0184402D01*
X0111794Y0183801D01*
X0113595Y0182000D02*
X0109992Y0182000D01*
X0114196Y0180719D02*
X0114196Y0178317D01*
X0119992Y0182600D02*
X0120593Y0182000D01*
X0122995Y0182000D01*
X0123595Y0182600D01*
X0123595Y0183801D01*
X0122995Y0184402D01*
X0121794Y0184402D01*
X0121794Y0183201D01*
X0120593Y0184402D02*
X0119992Y0183801D01*
X0119992Y0182600D01*
X0124196Y0180719D02*
X0124196Y0178317D01*
X0129992Y0182000D02*
X0129992Y0183801D01*
X0130593Y0184402D01*
X0131794Y0184402D01*
X0132394Y0183801D01*
X0132394Y0182000D01*
X0132394Y0183201D02*
X0133595Y0184402D01*
X0133595Y0182000D02*
X0129992Y0182000D01*
X0146496Y0201633D02*
X0146496Y0205236D01*
X0145295Y0205236D02*
X0147697Y0205236D01*
X0148978Y0204636D02*
X0148978Y0204035D01*
X0149579Y0203435D01*
X0150780Y0203435D01*
X0151380Y0202834D01*
X0151380Y0202234D01*
X0150780Y0201633D01*
X0149579Y0201633D01*
X0148978Y0202234D01*
X0148978Y0204636D02*
X0149579Y0205236D01*
X0150780Y0205236D01*
X0151380Y0204636D01*
X0152661Y0204636D02*
X0152661Y0202234D01*
X0153262Y0201633D01*
X0154463Y0201633D01*
X0155063Y0202234D01*
X0155063Y0204636D01*
X0154463Y0205236D01*
X0153262Y0205236D01*
X0152661Y0204636D01*
X0156345Y0205236D02*
X0158146Y0205236D01*
X0158747Y0204636D01*
X0158747Y0203435D01*
X0158146Y0202834D01*
X0156345Y0202834D01*
X0156345Y0201633D02*
X0156345Y0205236D01*
X0060947Y0161186D02*
X0058545Y0161186D01*
X0058545Y0159385D02*
X0059746Y0159385D01*
X0053580Y0159385D02*
X0051178Y0159385D01*
X0051178Y0159985D02*
X0052379Y0161186D01*
X0051178Y0159985D02*
X0051178Y0157583D01*
X0049897Y0157583D02*
X0047495Y0157583D01*
X0047495Y0161186D01*
X0047495Y0151186D02*
X0047495Y0147583D01*
X0049897Y0147583D01*
X0051178Y0147583D02*
X0051178Y0149985D01*
X0052379Y0151186D01*
X0053580Y0149985D01*
X0053580Y0147583D01*
X0054861Y0148184D02*
X0055462Y0147583D01*
X0056663Y0147583D01*
X0057263Y0148184D01*
X0057263Y0148784D01*
X0056663Y0149385D01*
X0055462Y0149385D01*
X0054861Y0149985D01*
X0054861Y0150586D01*
X0055462Y0151186D01*
X0056663Y0151186D01*
X0057263Y0150586D01*
X0058545Y0151186D02*
X0058545Y0147583D01*
X0060947Y0147583D01*
X0062228Y0147583D02*
X0062228Y0151186D01*
X0064029Y0151186D01*
X0064630Y0150586D01*
X0064630Y0149385D01*
X0064029Y0148784D01*
X0062228Y0148784D01*
X0063429Y0148784D02*
X0064630Y0147583D01*
X0065911Y0146983D02*
X0068313Y0146983D01*
X0069594Y0147583D02*
X0071996Y0147583D01*
X0070795Y0147583D02*
X0070795Y0151186D01*
X0069594Y0149985D01*
X0073277Y0149385D02*
X0075679Y0149385D01*
X0060947Y0151186D02*
X0058545Y0151186D01*
X0058545Y0149385D02*
X0059746Y0149385D01*
X0053580Y0149385D02*
X0051178Y0149385D01*
X0312495Y0232583D02*
X0314897Y0232583D01*
X0316178Y0232583D02*
X0316178Y0236186D01*
X0317980Y0236186D01*
X0318580Y0235586D01*
X0318580Y0233184D01*
X0317980Y0232583D01*
X0316178Y0232583D01*
X0312495Y0232583D02*
X0312495Y0236186D01*
X0312495Y0242583D02*
X0314897Y0242583D01*
X0316178Y0242583D02*
X0316178Y0246186D01*
X0317980Y0246186D01*
X0318580Y0245586D01*
X0318580Y0243184D01*
X0317980Y0242583D01*
X0316178Y0242583D01*
X0312495Y0242583D02*
X0312495Y0246186D01*
X0319861Y0246186D02*
X0319861Y0242583D01*
X0319861Y0243784D02*
X0321663Y0243784D01*
X0322263Y0244385D01*
X0322263Y0245586D01*
X0321663Y0246186D01*
X0319861Y0246186D01*
X0321062Y0243784D02*
X0322263Y0242583D01*
X0323545Y0241983D02*
X0325947Y0241983D01*
X0327228Y0242583D02*
X0329630Y0242583D01*
X0328429Y0242583D02*
X0328429Y0246186D01*
X0327228Y0244985D01*
X0327828Y0236186D02*
X0327228Y0235586D01*
X0327828Y0236186D02*
X0329029Y0236186D01*
X0329630Y0235586D01*
X0329630Y0234985D01*
X0327228Y0232583D01*
X0329630Y0232583D01*
X0325947Y0231983D02*
X0323545Y0231983D01*
X0322263Y0232583D02*
X0321062Y0233784D01*
X0321663Y0233784D02*
X0319861Y0233784D01*
X0319861Y0232583D02*
X0319861Y0236186D01*
X0321663Y0236186D01*
X0322263Y0235586D01*
X0322263Y0234385D01*
X0321663Y0233784D01*
D12*
X0297231Y0222329D02*
X0274593Y0222329D01*
X0274593Y0173037D01*
X0297231Y0173037D01*
X0297231Y0222329D01*
X0294475Y0219573D02*
X0288845Y0219573D01*
X0288845Y0175793D01*
X0277349Y0175793D01*
X0277349Y0219573D01*
X0288845Y0219573D01*
X0294475Y0219573D02*
X0294475Y0175793D01*
X0288845Y0175793D01*
X0273481Y0173037D02*
X0250843Y0173037D01*
X0250843Y0222329D01*
X0273481Y0222329D01*
X0273481Y0173037D01*
X0270725Y0175793D02*
X0265095Y0175793D01*
X0265095Y0219573D01*
X0270725Y0219573D01*
X0270725Y0175793D01*
X0265095Y0175793D02*
X0253599Y0175793D01*
X0253599Y0219573D01*
X0265095Y0219573D01*
X0248744Y0214186D02*
X0248744Y0211184D01*
X0247993Y0210433D01*
X0245741Y0210433D01*
X0245741Y0214937D01*
X0247993Y0214937D01*
X0248744Y0214186D01*
X0244140Y0214937D02*
X0244140Y0210433D01*
X0241137Y0214937D01*
X0241137Y0210433D01*
X0239536Y0211184D02*
X0239536Y0212685D01*
X0238035Y0212685D01*
X0239536Y0214186D02*
X0238785Y0214937D01*
X0237284Y0214937D01*
X0236533Y0214186D01*
X0236533Y0211184D01*
X0237284Y0210433D01*
X0238785Y0210433D01*
X0239536Y0211184D01*
X0241137Y0204937D02*
X0241137Y0202685D01*
X0242639Y0203436D01*
X0243389Y0203436D01*
X0244140Y0202685D01*
X0244140Y0201184D01*
X0243389Y0200433D01*
X0241888Y0200433D01*
X0241137Y0201184D01*
X0241137Y0204937D02*
X0244140Y0204937D01*
X0245741Y0204937D02*
X0245741Y0201934D01*
X0247242Y0200433D01*
X0248744Y0201934D01*
X0248744Y0204937D01*
X0231306Y0202437D02*
X0228303Y0202437D01*
X0229804Y0202437D02*
X0229804Y0197933D01*
X0226702Y0198684D02*
X0225951Y0197933D01*
X0224450Y0197933D01*
X0223699Y0198684D01*
X0224450Y0200185D02*
X0225951Y0200185D01*
X0226702Y0199434D01*
X0226702Y0198684D01*
X0224450Y0200185D02*
X0223699Y0200936D01*
X0223699Y0201686D01*
X0224450Y0202437D01*
X0225951Y0202437D01*
X0226702Y0201686D01*
X0222098Y0201686D02*
X0222098Y0200185D01*
X0221347Y0199434D01*
X0219095Y0199434D01*
X0219095Y0197933D02*
X0219095Y0202437D01*
X0221347Y0202437D01*
X0222098Y0201686D01*
X0220596Y0199434D02*
X0222098Y0197933D01*
X0217770Y0193937D02*
X0215518Y0193937D01*
X0215518Y0189433D01*
X0215518Y0190934D02*
X0217770Y0190934D01*
X0218521Y0191685D01*
X0218521Y0193186D01*
X0217770Y0193937D01*
X0213917Y0193186D02*
X0213166Y0193937D01*
X0211665Y0193937D01*
X0210914Y0193186D01*
X0210914Y0192436D01*
X0211665Y0191685D01*
X0213166Y0191685D01*
X0213917Y0190934D01*
X0213917Y0190184D01*
X0213166Y0189433D01*
X0211665Y0189433D01*
X0210914Y0190184D01*
X0209346Y0189433D02*
X0207845Y0189433D01*
X0208596Y0189433D02*
X0208596Y0193937D01*
X0209346Y0193937D02*
X0207845Y0193937D01*
X0204845Y0192582D02*
X0202593Y0190330D01*
X0203344Y0189579D02*
X0200341Y0192582D01*
X0200341Y0189579D02*
X0204845Y0189579D01*
X0204095Y0187978D02*
X0204845Y0187227D01*
X0204845Y0185726D01*
X0204095Y0184975D01*
X0201092Y0184975D01*
X0200341Y0185726D01*
X0200341Y0187227D01*
X0201092Y0187978D01*
X0201092Y0183374D02*
X0200341Y0182623D01*
X0200341Y0181122D01*
X0201092Y0180371D01*
X0201843Y0180371D01*
X0202593Y0181122D01*
X0202593Y0182623D01*
X0203344Y0183374D01*
X0204095Y0183374D01*
X0204845Y0182623D01*
X0204845Y0181122D01*
X0204095Y0180371D01*
X0205966Y0176662D02*
X0210470Y0176662D01*
X0210470Y0175161D02*
X0210470Y0178163D01*
X0207468Y0175161D02*
X0205966Y0176662D01*
X0211221Y0173559D02*
X0211221Y0170557D01*
X0210470Y0168955D02*
X0205966Y0168955D01*
X0205966Y0165953D02*
X0210470Y0168955D01*
X0210470Y0165953D02*
X0205966Y0165953D01*
X0206717Y0164351D02*
X0205966Y0163601D01*
X0205966Y0162099D01*
X0206717Y0161349D01*
X0209720Y0161349D01*
X0210470Y0162099D01*
X0210470Y0163601D01*
X0209720Y0164351D01*
X0206717Y0164351D01*
X0203626Y0162685D02*
X0203626Y0160433D01*
X0203626Y0162685D02*
X0202875Y0163436D01*
X0200623Y0163436D01*
X0200623Y0160433D01*
X0199022Y0161184D02*
X0199022Y0162685D01*
X0198271Y0163436D01*
X0196770Y0163436D01*
X0196019Y0162685D01*
X0196019Y0161184D01*
X0196770Y0160433D01*
X0198271Y0160433D01*
X0199022Y0161184D01*
X0194418Y0161184D02*
X0193667Y0160433D01*
X0191415Y0160433D01*
X0191415Y0158932D02*
X0191415Y0163436D01*
X0193667Y0163436D01*
X0194418Y0162685D01*
X0194418Y0161184D01*
X0189814Y0161934D02*
X0187562Y0161934D01*
X0186811Y0161184D01*
X0187562Y0160433D01*
X0189814Y0160433D01*
X0189814Y0162685D01*
X0189063Y0163436D01*
X0187562Y0163436D01*
X0185210Y0162685D02*
X0185210Y0161934D01*
X0182207Y0161934D01*
X0182207Y0161184D02*
X0182207Y0162685D01*
X0182958Y0163436D01*
X0184459Y0163436D01*
X0185210Y0162685D01*
X0184459Y0160433D02*
X0182958Y0160433D01*
X0182207Y0161184D01*
X0180606Y0160433D02*
X0180606Y0164937D01*
X0177604Y0164937D02*
X0177604Y0160433D01*
X0179105Y0161934D01*
X0180606Y0160433D01*
X0171398Y0160433D02*
X0169146Y0160433D01*
X0168396Y0161184D01*
X0168396Y0162685D01*
X0169146Y0163436D01*
X0171398Y0163436D01*
X0171398Y0159682D01*
X0170648Y0158932D01*
X0169897Y0158932D01*
X0166794Y0160433D02*
X0164542Y0160433D01*
X0163792Y0161184D01*
X0164542Y0161934D01*
X0166794Y0161934D01*
X0166794Y0162685D02*
X0166794Y0160433D01*
X0166794Y0162685D02*
X0166044Y0163436D01*
X0164542Y0163436D01*
X0162224Y0163436D02*
X0160722Y0163436D01*
X0161473Y0164186D02*
X0161473Y0161184D01*
X0162224Y0160433D01*
X0159138Y0163436D02*
X0158387Y0163436D01*
X0156886Y0161934D01*
X0156886Y0160433D02*
X0156886Y0163436D01*
X0155284Y0162685D02*
X0155284Y0161934D01*
X0152282Y0161934D01*
X0152282Y0161184D02*
X0152282Y0162685D01*
X0153033Y0163436D01*
X0154534Y0163436D01*
X0155284Y0162685D01*
X0154534Y0160433D02*
X0153033Y0160433D01*
X0152282Y0161184D01*
X0150681Y0161184D02*
X0149930Y0161934D01*
X0148429Y0161934D01*
X0147678Y0162685D01*
X0148429Y0163436D01*
X0150681Y0163436D01*
X0150681Y0161184D02*
X0149930Y0160433D01*
X0147678Y0160433D01*
X0146077Y0160433D02*
X0143825Y0160433D01*
X0143074Y0161184D01*
X0143825Y0161934D01*
X0146077Y0161934D01*
X0146077Y0162685D02*
X0146077Y0160433D01*
X0146077Y0162685D02*
X0145326Y0163436D01*
X0143825Y0163436D01*
X0141473Y0160433D02*
X0138470Y0160433D01*
X0138470Y0164937D01*
X0138470Y0155936D02*
X0139971Y0152933D01*
X0141473Y0155936D01*
X0143074Y0155936D02*
X0144575Y0157437D01*
X0144575Y0152933D01*
X0143074Y0152933D02*
X0146077Y0152933D01*
X0147678Y0152933D02*
X0148429Y0152933D01*
X0148429Y0153684D01*
X0147678Y0153684D01*
X0147678Y0152933D01*
X0149980Y0153684D02*
X0152983Y0156686D01*
X0152983Y0153684D01*
X0152232Y0152933D01*
X0150731Y0152933D01*
X0149980Y0153684D01*
X0149980Y0156686D01*
X0150731Y0157437D01*
X0152232Y0157437D01*
X0152983Y0156686D01*
X0153767Y0148436D02*
X0154517Y0147685D01*
X0154517Y0146184D01*
X0153767Y0145433D01*
X0151515Y0145433D01*
X0151515Y0143932D02*
X0151515Y0148436D01*
X0153767Y0148436D01*
X0156119Y0148436D02*
X0159121Y0148436D01*
X0156119Y0145433D01*
X0159121Y0145433D01*
X0160722Y0146184D02*
X0161473Y0145433D01*
X0162974Y0145433D01*
X0163725Y0146184D01*
X0163725Y0147685D01*
X0162974Y0148436D01*
X0161473Y0148436D01*
X0160722Y0147685D01*
X0160722Y0146184D01*
X0165326Y0145433D02*
X0165326Y0148436D01*
X0167578Y0148436D01*
X0168329Y0147685D01*
X0168329Y0145433D01*
X0169930Y0146184D02*
X0169930Y0147685D01*
X0170681Y0148436D01*
X0172182Y0148436D01*
X0172933Y0147685D01*
X0172933Y0146934D01*
X0169930Y0146934D01*
X0169930Y0146184D02*
X0170681Y0145433D01*
X0172182Y0145433D01*
X0174534Y0145433D02*
X0175285Y0145433D01*
X0175285Y0146184D01*
X0174534Y0146184D01*
X0174534Y0145433D01*
X0176836Y0145433D02*
X0176836Y0148436D01*
X0177587Y0148436D01*
X0178337Y0147685D01*
X0179088Y0148436D01*
X0179839Y0147685D01*
X0179839Y0145433D01*
X0178337Y0145433D02*
X0178337Y0147685D01*
X0181440Y0147685D02*
X0182191Y0148436D01*
X0184443Y0148436D01*
X0183692Y0146934D02*
X0182191Y0146934D01*
X0181440Y0147685D01*
X0181440Y0145433D02*
X0183692Y0145433D01*
X0184443Y0146184D01*
X0183692Y0146934D01*
X0205966Y0147537D02*
X0209720Y0147537D01*
X0210470Y0148288D01*
X0210470Y0149789D01*
X0209720Y0150540D01*
X0205966Y0150540D01*
X0205966Y0152141D02*
X0205966Y0155143D01*
X0205966Y0153642D02*
X0210470Y0153642D01*
X0205966Y0156745D02*
X0205966Y0159747D01*
X0205966Y0158246D02*
X0210470Y0158246D01*
X0215966Y0158246D02*
X0220470Y0158246D01*
X0219720Y0161349D02*
X0220470Y0162099D01*
X0220470Y0163601D01*
X0219720Y0164351D01*
X0216717Y0164351D01*
X0215966Y0163601D01*
X0215966Y0162099D01*
X0216717Y0161349D01*
X0219720Y0161349D01*
X0215966Y0159747D02*
X0215966Y0156745D01*
X0215966Y0155143D02*
X0215966Y0152141D01*
X0215966Y0153642D02*
X0220470Y0153642D01*
X0219720Y0150540D02*
X0215966Y0150540D01*
X0215966Y0147537D02*
X0219720Y0147537D01*
X0220470Y0148288D01*
X0220470Y0149789D01*
X0219720Y0150540D01*
X0225966Y0150540D02*
X0229720Y0150540D01*
X0230470Y0149789D01*
X0230470Y0148288D01*
X0229720Y0147537D01*
X0225966Y0147537D01*
X0226717Y0145936D02*
X0227468Y0145936D01*
X0228218Y0145185D01*
X0228218Y0142933D01*
X0225966Y0142933D02*
X0225966Y0145185D01*
X0226717Y0145936D01*
X0228218Y0145185D02*
X0228969Y0145936D01*
X0229720Y0145936D01*
X0230470Y0145185D01*
X0230470Y0142933D01*
X0225966Y0142933D01*
X0220470Y0142933D02*
X0220470Y0145185D01*
X0219720Y0145936D01*
X0218969Y0145936D01*
X0218218Y0145185D01*
X0218218Y0142933D01*
X0220470Y0142933D02*
X0215966Y0142933D01*
X0215966Y0145185D01*
X0216717Y0145936D01*
X0217468Y0145936D01*
X0218218Y0145185D01*
X0210470Y0145185D02*
X0210470Y0142933D01*
X0205966Y0142933D01*
X0205966Y0145185D01*
X0206717Y0145936D01*
X0207468Y0145936D01*
X0208218Y0145185D01*
X0208218Y0142933D01*
X0208218Y0145185D02*
X0208969Y0145936D01*
X0209720Y0145936D01*
X0210470Y0145185D01*
X0225966Y0152141D02*
X0225966Y0155143D01*
X0225966Y0153642D02*
X0230470Y0153642D01*
X0225966Y0156745D02*
X0225966Y0159747D01*
X0225966Y0158246D02*
X0230470Y0158246D01*
X0229720Y0161349D02*
X0230470Y0162099D01*
X0230470Y0163601D01*
X0229720Y0164351D01*
X0226717Y0164351D01*
X0225966Y0163601D01*
X0225966Y0162099D01*
X0226717Y0161349D01*
X0229720Y0161349D01*
X0230470Y0165953D02*
X0225966Y0165953D01*
X0230470Y0168955D01*
X0225966Y0168955D01*
X0221221Y0170557D02*
X0221221Y0173559D01*
X0220470Y0175161D02*
X0217468Y0178163D01*
X0216717Y0178163D01*
X0215966Y0177412D01*
X0215966Y0175911D01*
X0216717Y0175161D01*
X0220470Y0175161D02*
X0220470Y0178163D01*
X0225966Y0177412D02*
X0225966Y0175911D01*
X0226717Y0175161D01*
X0228218Y0176662D02*
X0228218Y0177412D01*
X0228969Y0178163D01*
X0229720Y0178163D01*
X0230470Y0177412D01*
X0230470Y0175911D01*
X0229720Y0175161D01*
X0231221Y0173559D02*
X0231221Y0170557D01*
X0220470Y0168955D02*
X0215966Y0168955D01*
X0215966Y0165953D02*
X0220470Y0168955D01*
X0220470Y0165953D02*
X0215966Y0165953D01*
X0225966Y0177412D02*
X0226717Y0178163D01*
X0227468Y0178163D01*
X0228218Y0177412D01*
X0236533Y0181184D02*
X0237284Y0180433D01*
X0238785Y0180433D01*
X0239536Y0181184D01*
X0239536Y0181934D01*
X0238785Y0182685D01*
X0237284Y0182685D01*
X0236533Y0183436D01*
X0236533Y0184186D01*
X0237284Y0184937D01*
X0238785Y0184937D01*
X0239536Y0184186D01*
X0241137Y0184186D02*
X0241888Y0184937D01*
X0243389Y0184937D01*
X0244140Y0184186D01*
X0245741Y0184937D02*
X0245741Y0180433D01*
X0248744Y0180433D01*
X0244140Y0181184D02*
X0243389Y0180433D01*
X0241888Y0180433D01*
X0241137Y0181184D01*
X0241137Y0184186D01*
X0241137Y0190433D02*
X0243389Y0190433D01*
X0244140Y0191184D01*
X0244140Y0194186D01*
X0243389Y0194937D01*
X0241137Y0194937D01*
X0241137Y0190433D01*
X0239536Y0191184D02*
X0238785Y0190433D01*
X0237284Y0190433D01*
X0236533Y0191184D01*
X0237284Y0192685D02*
X0238785Y0192685D01*
X0239536Y0191934D01*
X0239536Y0191184D01*
X0237284Y0192685D02*
X0236533Y0193436D01*
X0236533Y0194186D01*
X0237284Y0194937D01*
X0238785Y0194937D01*
X0239536Y0194186D01*
X0245741Y0193436D02*
X0245741Y0190433D01*
X0245741Y0192685D02*
X0248744Y0192685D01*
X0248744Y0193436D02*
X0248744Y0190433D01*
X0248744Y0193436D02*
X0247242Y0194937D01*
X0245741Y0193436D01*
X0230555Y0207933D02*
X0231306Y0208684D01*
X0231306Y0211686D01*
X0230555Y0212437D01*
X0228303Y0212437D01*
X0228303Y0207933D01*
X0230555Y0207933D01*
X0226702Y0207933D02*
X0226702Y0212437D01*
X0223699Y0212437D02*
X0226702Y0207933D01*
X0223699Y0207933D02*
X0223699Y0212437D01*
X0222098Y0211686D02*
X0221347Y0212437D01*
X0219846Y0212437D01*
X0219095Y0211686D01*
X0219095Y0208684D01*
X0219846Y0207933D01*
X0221347Y0207933D01*
X0222098Y0208684D01*
X0222098Y0210185D01*
X0220596Y0210185D01*
X0229095Y0217933D02*
X0232098Y0217933D01*
X0230596Y0217933D02*
X0230596Y0222437D01*
X0229095Y0220936D01*
X0186244Y0212437D02*
X0186244Y0209434D01*
X0184742Y0207933D01*
X0183241Y0209434D01*
X0183241Y0212437D01*
X0181640Y0211686D02*
X0181640Y0210936D01*
X0180889Y0210185D01*
X0181640Y0209434D01*
X0181640Y0208684D01*
X0180889Y0207933D01*
X0179388Y0207933D01*
X0178637Y0208684D01*
X0177086Y0208684D02*
X0177086Y0207933D01*
X0176335Y0207933D01*
X0176335Y0208684D01*
X0177086Y0208684D01*
X0174734Y0208684D02*
X0173983Y0207933D01*
X0172482Y0207933D01*
X0171731Y0208684D01*
X0173233Y0210185D02*
X0173983Y0210185D01*
X0174734Y0209434D01*
X0174734Y0208684D01*
X0173983Y0210185D02*
X0174734Y0210936D01*
X0174734Y0211686D01*
X0173983Y0212437D01*
X0172482Y0212437D01*
X0171731Y0211686D01*
X0166244Y0211561D02*
X0166244Y0212312D01*
X0166244Y0211561D02*
X0164742Y0210060D01*
X0164742Y0207808D01*
X0164742Y0210060D02*
X0163241Y0211561D01*
X0163241Y0212312D01*
X0161640Y0210811D02*
X0160139Y0212312D01*
X0158637Y0210811D01*
X0158637Y0207808D01*
X0157036Y0207808D02*
X0154033Y0207808D01*
X0154033Y0212312D01*
X0152432Y0211561D02*
X0151681Y0212312D01*
X0149429Y0212312D01*
X0149429Y0207808D01*
X0149429Y0209309D02*
X0151681Y0209309D01*
X0152432Y0210060D01*
X0152432Y0211561D01*
X0147828Y0211561D02*
X0147077Y0212312D01*
X0145576Y0212312D01*
X0144825Y0211561D01*
X0144825Y0210811D01*
X0145576Y0210060D01*
X0147077Y0210060D01*
X0147828Y0209309D01*
X0147828Y0208559D01*
X0147077Y0207808D01*
X0145576Y0207808D01*
X0144825Y0208559D01*
X0143257Y0207808D02*
X0141756Y0207808D01*
X0142507Y0207808D02*
X0142507Y0212312D01*
X0143257Y0212312D02*
X0141756Y0212312D01*
X0140155Y0211561D02*
X0139404Y0212312D01*
X0137152Y0212312D01*
X0137152Y0207808D01*
X0139404Y0207808D01*
X0140155Y0208559D01*
X0140155Y0211561D01*
X0142748Y0200452D02*
X0162433Y0200452D01*
X0164401Y0192578D01*
X0162433Y0184704D01*
X0160464Y0184704D01*
X0144716Y0184704D01*
X0142748Y0184704D01*
X0140779Y0192578D01*
X0142748Y0200452D01*
X0158637Y0210060D02*
X0161640Y0210060D01*
X0161640Y0210811D02*
X0161640Y0207808D01*
X0170964Y0202437D02*
X0172465Y0200936D01*
X0173967Y0202437D01*
X0173967Y0197933D01*
X0175568Y0197933D02*
X0177069Y0197933D01*
X0176319Y0197933D02*
X0176319Y0202437D01*
X0177069Y0202437D02*
X0175568Y0202437D01*
X0178637Y0201686D02*
X0178637Y0200936D01*
X0179388Y0200185D01*
X0180889Y0200185D01*
X0181640Y0199434D01*
X0181640Y0198684D01*
X0180889Y0197933D01*
X0179388Y0197933D01*
X0178637Y0198684D01*
X0178637Y0201686D02*
X0179388Y0202437D01*
X0180889Y0202437D01*
X0181640Y0201686D01*
X0183241Y0201686D02*
X0183241Y0198684D01*
X0183992Y0197933D01*
X0185493Y0197933D01*
X0186244Y0198684D01*
X0186244Y0201686D01*
X0185493Y0202437D01*
X0183992Y0202437D01*
X0183241Y0201686D01*
X0180889Y0210185D02*
X0180139Y0210185D01*
X0181640Y0211686D02*
X0180889Y0212437D01*
X0179388Y0212437D01*
X0178637Y0211686D01*
X0170964Y0202437D02*
X0170964Y0197933D01*
X0160464Y0184704D02*
X0160389Y0184513D01*
X0160310Y0184323D01*
X0160226Y0184135D01*
X0160137Y0183949D01*
X0160044Y0183765D01*
X0159947Y0183584D01*
X0159845Y0183405D01*
X0159738Y0183228D01*
X0159628Y0183055D01*
X0159513Y0182884D01*
X0159394Y0182716D01*
X0159271Y0182551D01*
X0159144Y0182389D01*
X0159013Y0182230D01*
X0158878Y0182074D01*
X0158740Y0181922D01*
X0158597Y0181773D01*
X0158452Y0181628D01*
X0158302Y0181486D01*
X0158149Y0181348D01*
X0157993Y0181214D01*
X0157834Y0181083D01*
X0157671Y0180957D01*
X0157506Y0180835D01*
X0157337Y0180716D01*
X0157166Y0180602D01*
X0156992Y0180492D01*
X0156815Y0180387D01*
X0156636Y0180285D01*
X0156454Y0180188D01*
X0156270Y0180096D01*
X0156084Y0180008D01*
X0155896Y0179925D01*
X0155705Y0179846D01*
X0155513Y0179772D01*
X0155319Y0179703D01*
X0155124Y0179639D01*
X0154927Y0179579D01*
X0154728Y0179524D01*
X0154528Y0179474D01*
X0154328Y0179429D01*
X0154126Y0179389D01*
X0153923Y0179354D01*
X0153719Y0179324D01*
X0153515Y0179299D01*
X0153310Y0179279D01*
X0153104Y0179264D01*
X0152899Y0179254D01*
X0152693Y0179249D01*
X0152487Y0179249D01*
X0152281Y0179254D01*
X0152076Y0179264D01*
X0151870Y0179279D01*
X0151665Y0179299D01*
X0151461Y0179324D01*
X0151257Y0179354D01*
X0151054Y0179389D01*
X0150852Y0179429D01*
X0150652Y0179474D01*
X0150452Y0179524D01*
X0150253Y0179579D01*
X0150056Y0179639D01*
X0149861Y0179703D01*
X0149667Y0179772D01*
X0149475Y0179846D01*
X0149284Y0179925D01*
X0149096Y0180008D01*
X0148910Y0180096D01*
X0148726Y0180188D01*
X0148544Y0180285D01*
X0148365Y0180387D01*
X0148188Y0180492D01*
X0148014Y0180602D01*
X0147843Y0180716D01*
X0147674Y0180835D01*
X0147509Y0180957D01*
X0147346Y0181083D01*
X0147187Y0181214D01*
X0147031Y0181348D01*
X0146878Y0181486D01*
X0146728Y0181628D01*
X0146583Y0181773D01*
X0146440Y0181922D01*
X0146302Y0182074D01*
X0146167Y0182230D01*
X0146036Y0182389D01*
X0145909Y0182551D01*
X0145786Y0182716D01*
X0145667Y0182884D01*
X0145552Y0183055D01*
X0145442Y0183228D01*
X0145335Y0183405D01*
X0145233Y0183584D01*
X0145136Y0183765D01*
X0145043Y0183949D01*
X0144954Y0184135D01*
X0144870Y0184323D01*
X0144791Y0184513D01*
X0144716Y0184704D01*
X0191595Y0189183D02*
X0194598Y0189183D01*
X0193096Y0189183D02*
X0193096Y0193687D01*
X0191595Y0192186D01*
X0246554Y0165129D02*
X0247304Y0165880D01*
X0248806Y0165880D01*
X0249556Y0165129D01*
X0251158Y0164379D02*
X0252659Y0165880D01*
X0252659Y0161376D01*
X0251158Y0161376D02*
X0254160Y0161376D01*
X0249556Y0162127D02*
X0248806Y0161376D01*
X0247304Y0161376D01*
X0246554Y0162127D01*
X0246554Y0165129D01*
X0235095Y0151433D02*
X0235101Y0151924D01*
X0235119Y0152414D01*
X0235149Y0152904D01*
X0235191Y0153393D01*
X0235245Y0153881D01*
X0235311Y0154368D01*
X0235389Y0154852D01*
X0235479Y0155335D01*
X0235581Y0155815D01*
X0235694Y0156293D01*
X0235819Y0156767D01*
X0235956Y0157239D01*
X0236104Y0157707D01*
X0236264Y0158171D01*
X0236435Y0158631D01*
X0236617Y0159087D01*
X0236811Y0159538D01*
X0237015Y0159984D01*
X0237231Y0160425D01*
X0237457Y0160861D01*
X0237693Y0161291D01*
X0237940Y0161715D01*
X0238198Y0162133D01*
X0238466Y0162544D01*
X0238743Y0162949D01*
X0239031Y0163347D01*
X0239328Y0163738D01*
X0239635Y0164121D01*
X0239951Y0164496D01*
X0240276Y0164864D01*
X0240610Y0165224D01*
X0240953Y0165575D01*
X0241304Y0165918D01*
X0241664Y0166252D01*
X0242032Y0166577D01*
X0242407Y0166893D01*
X0242790Y0167200D01*
X0243181Y0167497D01*
X0243579Y0167785D01*
X0243984Y0168062D01*
X0244395Y0168330D01*
X0244813Y0168588D01*
X0245237Y0168835D01*
X0245667Y0169071D01*
X0246103Y0169297D01*
X0246544Y0169513D01*
X0246990Y0169717D01*
X0247441Y0169911D01*
X0247897Y0170093D01*
X0248357Y0170264D01*
X0248821Y0170424D01*
X0249289Y0170572D01*
X0249761Y0170709D01*
X0250235Y0170834D01*
X0250713Y0170947D01*
X0251193Y0171049D01*
X0251676Y0171139D01*
X0252160Y0171217D01*
X0252647Y0171283D01*
X0253135Y0171337D01*
X0253624Y0171379D01*
X0254114Y0171409D01*
X0254604Y0171427D01*
X0255095Y0171433D01*
X0255586Y0171427D01*
X0256076Y0171409D01*
X0256566Y0171379D01*
X0257055Y0171337D01*
X0257543Y0171283D01*
X0258030Y0171217D01*
X0258514Y0171139D01*
X0258997Y0171049D01*
X0259477Y0170947D01*
X0259955Y0170834D01*
X0260429Y0170709D01*
X0260901Y0170572D01*
X0261369Y0170424D01*
X0261833Y0170264D01*
X0262293Y0170093D01*
X0262749Y0169911D01*
X0263200Y0169717D01*
X0263646Y0169513D01*
X0264087Y0169297D01*
X0264523Y0169071D01*
X0264953Y0168835D01*
X0265377Y0168588D01*
X0265795Y0168330D01*
X0266206Y0168062D01*
X0266611Y0167785D01*
X0267009Y0167497D01*
X0267400Y0167200D01*
X0267783Y0166893D01*
X0268158Y0166577D01*
X0268526Y0166252D01*
X0268886Y0165918D01*
X0269237Y0165575D01*
X0269580Y0165224D01*
X0269914Y0164864D01*
X0270239Y0164496D01*
X0270555Y0164121D01*
X0270862Y0163738D01*
X0271159Y0163347D01*
X0271447Y0162949D01*
X0271724Y0162544D01*
X0271992Y0162133D01*
X0272250Y0161715D01*
X0272497Y0161291D01*
X0272733Y0160861D01*
X0272959Y0160425D01*
X0273175Y0159984D01*
X0273379Y0159538D01*
X0273573Y0159087D01*
X0273755Y0158631D01*
X0273926Y0158171D01*
X0274086Y0157707D01*
X0274234Y0157239D01*
X0274371Y0156767D01*
X0274496Y0156293D01*
X0274609Y0155815D01*
X0274711Y0155335D01*
X0274801Y0154852D01*
X0274879Y0154368D01*
X0274945Y0153881D01*
X0274999Y0153393D01*
X0275041Y0152904D01*
X0275071Y0152414D01*
X0275089Y0151924D01*
X0275095Y0151433D01*
X0275089Y0150942D01*
X0275071Y0150452D01*
X0275041Y0149962D01*
X0274999Y0149473D01*
X0274945Y0148985D01*
X0274879Y0148498D01*
X0274801Y0148014D01*
X0274711Y0147531D01*
X0274609Y0147051D01*
X0274496Y0146573D01*
X0274371Y0146099D01*
X0274234Y0145627D01*
X0274086Y0145159D01*
X0273926Y0144695D01*
X0273755Y0144235D01*
X0273573Y0143779D01*
X0273379Y0143328D01*
X0273175Y0142882D01*
X0272959Y0142441D01*
X0272733Y0142005D01*
X0272497Y0141575D01*
X0272250Y0141151D01*
X0271992Y0140733D01*
X0271724Y0140322D01*
X0271447Y0139917D01*
X0271159Y0139519D01*
X0270862Y0139128D01*
X0270555Y0138745D01*
X0270239Y0138370D01*
X0269914Y0138002D01*
X0269580Y0137642D01*
X0269237Y0137291D01*
X0268886Y0136948D01*
X0268526Y0136614D01*
X0268158Y0136289D01*
X0267783Y0135973D01*
X0267400Y0135666D01*
X0267009Y0135369D01*
X0266611Y0135081D01*
X0266206Y0134804D01*
X0265795Y0134536D01*
X0265377Y0134278D01*
X0264953Y0134031D01*
X0264523Y0133795D01*
X0264087Y0133569D01*
X0263646Y0133353D01*
X0263200Y0133149D01*
X0262749Y0132955D01*
X0262293Y0132773D01*
X0261833Y0132602D01*
X0261369Y0132442D01*
X0260901Y0132294D01*
X0260429Y0132157D01*
X0259955Y0132032D01*
X0259477Y0131919D01*
X0258997Y0131817D01*
X0258514Y0131727D01*
X0258030Y0131649D01*
X0257543Y0131583D01*
X0257055Y0131529D01*
X0256566Y0131487D01*
X0256076Y0131457D01*
X0255586Y0131439D01*
X0255095Y0131433D01*
X0254604Y0131439D01*
X0254114Y0131457D01*
X0253624Y0131487D01*
X0253135Y0131529D01*
X0252647Y0131583D01*
X0252160Y0131649D01*
X0251676Y0131727D01*
X0251193Y0131817D01*
X0250713Y0131919D01*
X0250235Y0132032D01*
X0249761Y0132157D01*
X0249289Y0132294D01*
X0248821Y0132442D01*
X0248357Y0132602D01*
X0247897Y0132773D01*
X0247441Y0132955D01*
X0246990Y0133149D01*
X0246544Y0133353D01*
X0246103Y0133569D01*
X0245667Y0133795D01*
X0245237Y0134031D01*
X0244813Y0134278D01*
X0244395Y0134536D01*
X0243984Y0134804D01*
X0243579Y0135081D01*
X0243181Y0135369D01*
X0242790Y0135666D01*
X0242407Y0135973D01*
X0242032Y0136289D01*
X0241664Y0136614D01*
X0241304Y0136948D01*
X0240953Y0137291D01*
X0240610Y0137642D01*
X0240276Y0138002D01*
X0239951Y0138370D01*
X0239635Y0138745D01*
X0239328Y0139128D01*
X0239031Y0139519D01*
X0238743Y0139917D01*
X0238466Y0140322D01*
X0238198Y0140733D01*
X0237940Y0141151D01*
X0237693Y0141575D01*
X0237457Y0142005D01*
X0237231Y0142441D01*
X0237015Y0142882D01*
X0236811Y0143328D01*
X0236617Y0143779D01*
X0236435Y0144235D01*
X0236264Y0144695D01*
X0236104Y0145159D01*
X0235956Y0145627D01*
X0235819Y0146099D01*
X0235694Y0146573D01*
X0235581Y0147051D01*
X0235479Y0147531D01*
X0235389Y0148014D01*
X0235311Y0148498D01*
X0235245Y0148985D01*
X0235191Y0149473D01*
X0235149Y0149962D01*
X0235119Y0150452D01*
X0235101Y0150942D01*
X0235095Y0151433D01*
X0269716Y0130476D02*
X0270467Y0131226D01*
X0271968Y0131226D01*
X0272719Y0130476D01*
X0272719Y0128224D01*
X0274220Y0128224D02*
X0269716Y0128224D01*
X0269716Y0130476D01*
X0269716Y0126622D02*
X0274220Y0126622D01*
X0274220Y0123620D02*
X0269716Y0123620D01*
X0271218Y0125121D01*
X0269716Y0126622D01*
X0271218Y0122018D02*
X0274220Y0122018D01*
X0271968Y0122018D02*
X0271968Y0119016D01*
X0271218Y0119016D02*
X0269716Y0120517D01*
X0271218Y0122018D01*
X0271218Y0119016D02*
X0274220Y0119016D01*
X0274971Y0117415D02*
X0274971Y0114412D01*
X0274220Y0112811D02*
X0274220Y0109808D01*
X0269716Y0109808D01*
X0259160Y0100129D02*
X0258410Y0100880D01*
X0256908Y0100880D01*
X0256158Y0100129D01*
X0254556Y0100129D02*
X0253806Y0100880D01*
X0252304Y0100880D01*
X0251554Y0100129D01*
X0251554Y0097127D01*
X0252304Y0096376D01*
X0253806Y0096376D01*
X0254556Y0097127D01*
X0256158Y0096376D02*
X0259160Y0099379D01*
X0259160Y0100129D01*
X0259160Y0096376D02*
X0256158Y0096376D01*
X0240095Y0086433D02*
X0240101Y0086924D01*
X0240119Y0087414D01*
X0240149Y0087904D01*
X0240191Y0088393D01*
X0240245Y0088881D01*
X0240311Y0089368D01*
X0240389Y0089852D01*
X0240479Y0090335D01*
X0240581Y0090815D01*
X0240694Y0091293D01*
X0240819Y0091767D01*
X0240956Y0092239D01*
X0241104Y0092707D01*
X0241264Y0093171D01*
X0241435Y0093631D01*
X0241617Y0094087D01*
X0241811Y0094538D01*
X0242015Y0094984D01*
X0242231Y0095425D01*
X0242457Y0095861D01*
X0242693Y0096291D01*
X0242940Y0096715D01*
X0243198Y0097133D01*
X0243466Y0097544D01*
X0243743Y0097949D01*
X0244031Y0098347D01*
X0244328Y0098738D01*
X0244635Y0099121D01*
X0244951Y0099496D01*
X0245276Y0099864D01*
X0245610Y0100224D01*
X0245953Y0100575D01*
X0246304Y0100918D01*
X0246664Y0101252D01*
X0247032Y0101577D01*
X0247407Y0101893D01*
X0247790Y0102200D01*
X0248181Y0102497D01*
X0248579Y0102785D01*
X0248984Y0103062D01*
X0249395Y0103330D01*
X0249813Y0103588D01*
X0250237Y0103835D01*
X0250667Y0104071D01*
X0251103Y0104297D01*
X0251544Y0104513D01*
X0251990Y0104717D01*
X0252441Y0104911D01*
X0252897Y0105093D01*
X0253357Y0105264D01*
X0253821Y0105424D01*
X0254289Y0105572D01*
X0254761Y0105709D01*
X0255235Y0105834D01*
X0255713Y0105947D01*
X0256193Y0106049D01*
X0256676Y0106139D01*
X0257160Y0106217D01*
X0257647Y0106283D01*
X0258135Y0106337D01*
X0258624Y0106379D01*
X0259114Y0106409D01*
X0259604Y0106427D01*
X0260095Y0106433D01*
X0260586Y0106427D01*
X0261076Y0106409D01*
X0261566Y0106379D01*
X0262055Y0106337D01*
X0262543Y0106283D01*
X0263030Y0106217D01*
X0263514Y0106139D01*
X0263997Y0106049D01*
X0264477Y0105947D01*
X0264955Y0105834D01*
X0265429Y0105709D01*
X0265901Y0105572D01*
X0266369Y0105424D01*
X0266833Y0105264D01*
X0267293Y0105093D01*
X0267749Y0104911D01*
X0268200Y0104717D01*
X0268646Y0104513D01*
X0269087Y0104297D01*
X0269523Y0104071D01*
X0269953Y0103835D01*
X0270377Y0103588D01*
X0270795Y0103330D01*
X0271206Y0103062D01*
X0271611Y0102785D01*
X0272009Y0102497D01*
X0272400Y0102200D01*
X0272783Y0101893D01*
X0273158Y0101577D01*
X0273526Y0101252D01*
X0273886Y0100918D01*
X0274237Y0100575D01*
X0274580Y0100224D01*
X0274914Y0099864D01*
X0275239Y0099496D01*
X0275555Y0099121D01*
X0275862Y0098738D01*
X0276159Y0098347D01*
X0276447Y0097949D01*
X0276724Y0097544D01*
X0276992Y0097133D01*
X0277250Y0096715D01*
X0277497Y0096291D01*
X0277733Y0095861D01*
X0277959Y0095425D01*
X0278175Y0094984D01*
X0278379Y0094538D01*
X0278573Y0094087D01*
X0278755Y0093631D01*
X0278926Y0093171D01*
X0279086Y0092707D01*
X0279234Y0092239D01*
X0279371Y0091767D01*
X0279496Y0091293D01*
X0279609Y0090815D01*
X0279711Y0090335D01*
X0279801Y0089852D01*
X0279879Y0089368D01*
X0279945Y0088881D01*
X0279999Y0088393D01*
X0280041Y0087904D01*
X0280071Y0087414D01*
X0280089Y0086924D01*
X0280095Y0086433D01*
X0280089Y0085942D01*
X0280071Y0085452D01*
X0280041Y0084962D01*
X0279999Y0084473D01*
X0279945Y0083985D01*
X0279879Y0083498D01*
X0279801Y0083014D01*
X0279711Y0082531D01*
X0279609Y0082051D01*
X0279496Y0081573D01*
X0279371Y0081099D01*
X0279234Y0080627D01*
X0279086Y0080159D01*
X0278926Y0079695D01*
X0278755Y0079235D01*
X0278573Y0078779D01*
X0278379Y0078328D01*
X0278175Y0077882D01*
X0277959Y0077441D01*
X0277733Y0077005D01*
X0277497Y0076575D01*
X0277250Y0076151D01*
X0276992Y0075733D01*
X0276724Y0075322D01*
X0276447Y0074917D01*
X0276159Y0074519D01*
X0275862Y0074128D01*
X0275555Y0073745D01*
X0275239Y0073370D01*
X0274914Y0073002D01*
X0274580Y0072642D01*
X0274237Y0072291D01*
X0273886Y0071948D01*
X0273526Y0071614D01*
X0273158Y0071289D01*
X0272783Y0070973D01*
X0272400Y0070666D01*
X0272009Y0070369D01*
X0271611Y0070081D01*
X0271206Y0069804D01*
X0270795Y0069536D01*
X0270377Y0069278D01*
X0269953Y0069031D01*
X0269523Y0068795D01*
X0269087Y0068569D01*
X0268646Y0068353D01*
X0268200Y0068149D01*
X0267749Y0067955D01*
X0267293Y0067773D01*
X0266833Y0067602D01*
X0266369Y0067442D01*
X0265901Y0067294D01*
X0265429Y0067157D01*
X0264955Y0067032D01*
X0264477Y0066919D01*
X0263997Y0066817D01*
X0263514Y0066727D01*
X0263030Y0066649D01*
X0262543Y0066583D01*
X0262055Y0066529D01*
X0261566Y0066487D01*
X0261076Y0066457D01*
X0260586Y0066439D01*
X0260095Y0066433D01*
X0259604Y0066439D01*
X0259114Y0066457D01*
X0258624Y0066487D01*
X0258135Y0066529D01*
X0257647Y0066583D01*
X0257160Y0066649D01*
X0256676Y0066727D01*
X0256193Y0066817D01*
X0255713Y0066919D01*
X0255235Y0067032D01*
X0254761Y0067157D01*
X0254289Y0067294D01*
X0253821Y0067442D01*
X0253357Y0067602D01*
X0252897Y0067773D01*
X0252441Y0067955D01*
X0251990Y0068149D01*
X0251544Y0068353D01*
X0251103Y0068569D01*
X0250667Y0068795D01*
X0250237Y0069031D01*
X0249813Y0069278D01*
X0249395Y0069536D01*
X0248984Y0069804D01*
X0248579Y0070081D01*
X0248181Y0070369D01*
X0247790Y0070666D01*
X0247407Y0070973D01*
X0247032Y0071289D01*
X0246664Y0071614D01*
X0246304Y0071948D01*
X0245953Y0072291D01*
X0245610Y0072642D01*
X0245276Y0073002D01*
X0244951Y0073370D01*
X0244635Y0073745D01*
X0244328Y0074128D01*
X0244031Y0074519D01*
X0243743Y0074917D01*
X0243466Y0075322D01*
X0243198Y0075733D01*
X0242940Y0076151D01*
X0242693Y0076575D01*
X0242457Y0077005D01*
X0242231Y0077441D01*
X0242015Y0077882D01*
X0241811Y0078328D01*
X0241617Y0078779D01*
X0241435Y0079235D01*
X0241264Y0079695D01*
X0241104Y0080159D01*
X0240956Y0080627D01*
X0240819Y0081099D01*
X0240694Y0081573D01*
X0240581Y0082051D01*
X0240479Y0082531D01*
X0240389Y0083014D01*
X0240311Y0083498D01*
X0240245Y0083985D01*
X0240191Y0084473D01*
X0240149Y0084962D01*
X0240119Y0085452D01*
X0240101Y0085942D01*
X0240095Y0086433D01*
X0231763Y0107308D02*
X0230262Y0108809D01*
X0231013Y0108809D02*
X0228761Y0108809D01*
X0228761Y0107308D02*
X0228761Y0111812D01*
X0231013Y0111812D01*
X0231763Y0111061D01*
X0231763Y0109560D01*
X0231013Y0108809D01*
X0227159Y0107308D02*
X0225658Y0108809D01*
X0224157Y0107308D01*
X0224157Y0111812D01*
X0222556Y0111061D02*
X0221805Y0111812D01*
X0219553Y0111812D01*
X0219553Y0107308D01*
X0219553Y0108809D02*
X0221805Y0108809D01*
X0222556Y0109560D01*
X0222556Y0111061D01*
X0227159Y0111812D02*
X0227159Y0107308D01*
X0217952Y0106557D02*
X0214949Y0106557D01*
X0213348Y0107308D02*
X0210345Y0107308D01*
X0210345Y0111812D01*
X0197932Y0123187D02*
X0194929Y0123187D01*
X0196430Y0124688D02*
X0196430Y0121686D01*
X0191827Y0120935D02*
X0191827Y0125439D01*
X0193328Y0125439D02*
X0190325Y0125439D01*
X0188724Y0125439D02*
X0188724Y0121686D01*
X0187973Y0120935D01*
X0186472Y0120935D01*
X0185721Y0121686D01*
X0185721Y0125439D01*
X0184120Y0124688D02*
X0183369Y0125439D01*
X0181868Y0125439D01*
X0181117Y0124688D01*
X0181117Y0121686D01*
X0181868Y0120935D01*
X0183369Y0120935D01*
X0184120Y0121686D01*
X0184120Y0124688D01*
X0147678Y0145433D02*
X0147678Y0148436D01*
X0149179Y0148436D02*
X0149930Y0148436D01*
X0149179Y0148436D02*
X0147678Y0146934D01*
X0146077Y0146934D02*
X0143825Y0146934D01*
X0143074Y0146184D01*
X0143825Y0145433D01*
X0146077Y0145433D01*
X0146077Y0147685D01*
X0145326Y0148436D01*
X0143825Y0148436D01*
X0141473Y0148436D02*
X0141473Y0146184D01*
X0140722Y0145433D01*
X0139971Y0146184D01*
X0139221Y0145433D01*
X0138470Y0146184D01*
X0138470Y0148436D01*
X0049166Y0123187D02*
X0046163Y0123187D01*
X0047664Y0124688D02*
X0047664Y0121686D01*
X0044562Y0120935D02*
X0044562Y0125439D01*
X0041559Y0125439D02*
X0041559Y0120935D01*
X0039991Y0120935D02*
X0038490Y0120935D01*
X0039240Y0120935D02*
X0039240Y0125439D01*
X0038490Y0125439D02*
X0039991Y0125439D01*
X0041559Y0125439D02*
X0044562Y0120935D01*
X0090345Y0102437D02*
X0093348Y0097933D01*
X0094949Y0097933D02*
X0097952Y0097933D01*
X0099553Y0098684D02*
X0100304Y0097933D01*
X0101805Y0097933D01*
X0102556Y0098684D01*
X0102556Y0099434D01*
X0101805Y0100185D01*
X0099553Y0100185D01*
X0099553Y0098684D01*
X0099553Y0100185D02*
X0101054Y0101686D01*
X0102556Y0102437D01*
X0104157Y0101686D02*
X0104908Y0102437D01*
X0106409Y0102437D01*
X0107159Y0101686D01*
X0104157Y0098684D01*
X0104908Y0097933D01*
X0106409Y0097933D01*
X0107159Y0098684D01*
X0107159Y0101686D01*
X0108761Y0101686D02*
X0108761Y0098684D01*
X0111763Y0101686D01*
X0111763Y0098684D01*
X0111013Y0097933D01*
X0109511Y0097933D01*
X0108761Y0098684D01*
X0108761Y0101686D02*
X0109511Y0102437D01*
X0111013Y0102437D01*
X0111763Y0101686D01*
X0113365Y0101686D02*
X0113365Y0100936D01*
X0114115Y0100185D01*
X0116367Y0100185D01*
X0116367Y0101686D02*
X0115617Y0102437D01*
X0114115Y0102437D01*
X0113365Y0101686D01*
X0113365Y0098684D02*
X0114115Y0097933D01*
X0115617Y0097933D01*
X0116367Y0098684D01*
X0116367Y0101686D01*
X0122573Y0101686D02*
X0122573Y0100936D01*
X0123323Y0100185D01*
X0124825Y0100185D01*
X0125575Y0099434D01*
X0125575Y0098684D01*
X0124825Y0097933D01*
X0123323Y0097933D01*
X0122573Y0098684D01*
X0122573Y0101686D02*
X0123323Y0102437D01*
X0124825Y0102437D01*
X0125575Y0101686D01*
X0127177Y0100936D02*
X0128678Y0100936D01*
X0127927Y0101686D02*
X0127927Y0098684D01*
X0128678Y0097933D01*
X0130246Y0098684D02*
X0130246Y0100185D01*
X0130996Y0100936D01*
X0132498Y0100936D01*
X0133248Y0100185D01*
X0133248Y0099434D01*
X0130246Y0099434D01*
X0130246Y0098684D02*
X0130996Y0097933D01*
X0132498Y0097933D01*
X0134850Y0097933D02*
X0137102Y0097933D01*
X0137852Y0098684D01*
X0137852Y0100185D01*
X0137102Y0100936D01*
X0134850Y0100936D01*
X0134850Y0096432D01*
X0139454Y0100185D02*
X0142456Y0100185D01*
X0144058Y0098684D02*
X0144058Y0102437D01*
X0147060Y0102437D02*
X0147060Y0098684D01*
X0146310Y0097933D01*
X0144808Y0097933D01*
X0144058Y0098684D01*
X0148662Y0097933D02*
X0150913Y0097933D01*
X0151664Y0098684D01*
X0151664Y0100185D01*
X0150913Y0100936D01*
X0148662Y0100936D01*
X0148662Y0096432D01*
X0185721Y0079413D02*
X0185721Y0076410D01*
X0186472Y0075659D01*
X0187973Y0075659D01*
X0188724Y0076410D01*
X0188724Y0077911D01*
X0187223Y0077911D01*
X0188724Y0079413D02*
X0187973Y0080163D01*
X0186472Y0080163D01*
X0185721Y0079413D01*
X0190325Y0080163D02*
X0193328Y0075659D01*
X0193328Y0080163D01*
X0194929Y0080163D02*
X0197181Y0080163D01*
X0197932Y0079413D01*
X0197932Y0076410D01*
X0197181Y0075659D01*
X0194929Y0075659D01*
X0194929Y0080163D01*
X0190325Y0080163D02*
X0190325Y0075659D01*
X0104157Y0098684D02*
X0104157Y0101686D01*
X0094949Y0102437D02*
X0094949Y0097933D01*
X0090345Y0097933D02*
X0093348Y0102437D01*
X0050700Y0079413D02*
X0049950Y0080163D01*
X0047698Y0080163D01*
X0047698Y0075659D01*
X0049950Y0075659D01*
X0050700Y0076410D01*
X0050700Y0079413D01*
X0046096Y0080163D02*
X0046096Y0075659D01*
X0043094Y0080163D01*
X0043094Y0075659D01*
X0041492Y0076410D02*
X0041492Y0077911D01*
X0039991Y0077911D01*
X0038490Y0076410D02*
X0038490Y0079413D01*
X0039240Y0080163D01*
X0040742Y0080163D01*
X0041492Y0079413D01*
X0041492Y0076410D02*
X0040742Y0075659D01*
X0039240Y0075659D01*
X0038490Y0076410D01*
X0295045Y0076386D02*
X0295045Y0073384D01*
X0295796Y0072633D01*
X0297297Y0072633D01*
X0298048Y0073384D01*
X0298048Y0076386D01*
X0297297Y0077137D01*
X0295796Y0077137D01*
X0295045Y0076386D01*
X0299649Y0077137D02*
X0302652Y0072633D01*
X0302652Y0077137D01*
X0299649Y0077137D02*
X0299649Y0072633D01*
X0304253Y0071882D02*
X0307256Y0071882D01*
X0308857Y0072633D02*
X0311859Y0075636D01*
X0311859Y0076386D01*
X0311109Y0077137D01*
X0309608Y0077137D01*
X0308857Y0076386D01*
X0308857Y0072633D02*
X0311859Y0072633D01*
X0310358Y0067137D02*
X0310358Y0062633D01*
X0308857Y0062633D02*
X0311859Y0062633D01*
X0308857Y0065636D02*
X0310358Y0067137D01*
X0307256Y0061882D02*
X0304253Y0061882D01*
X0302652Y0062633D02*
X0302652Y0067137D01*
X0299649Y0067137D02*
X0302652Y0062633D01*
X0299649Y0062633D02*
X0299649Y0067137D01*
X0298048Y0066386D02*
X0298048Y0063384D01*
X0297297Y0062633D01*
X0295796Y0062633D01*
X0295045Y0063384D01*
X0295045Y0066386D01*
X0295796Y0067137D01*
X0297297Y0067137D01*
X0298048Y0066386D01*
X0297297Y0082633D02*
X0298048Y0083384D01*
X0298048Y0086386D01*
X0297297Y0087137D01*
X0295796Y0087137D01*
X0295045Y0086386D01*
X0295045Y0083384D01*
X0295796Y0082633D01*
X0297297Y0082633D01*
X0299649Y0082633D02*
X0299649Y0087137D01*
X0302652Y0087137D01*
X0304253Y0087137D02*
X0307256Y0087137D01*
X0305754Y0084885D02*
X0304253Y0084885D01*
X0304253Y0082633D02*
X0304253Y0087137D01*
X0301150Y0084885D02*
X0299649Y0084885D01*
X0308857Y0081882D02*
X0311859Y0081882D01*
X0313461Y0082633D02*
X0316463Y0082633D01*
X0314962Y0082633D02*
X0314962Y0087137D01*
X0313461Y0085636D01*
X0311859Y0091882D02*
X0308857Y0091882D01*
X0305754Y0094885D02*
X0304253Y0094885D01*
X0304253Y0092633D02*
X0304253Y0097137D01*
X0307256Y0097137D01*
X0302652Y0097137D02*
X0299649Y0097137D01*
X0299649Y0092633D01*
X0298048Y0093384D02*
X0298048Y0096386D01*
X0297297Y0097137D01*
X0295796Y0097137D01*
X0295045Y0096386D01*
X0295045Y0093384D01*
X0295796Y0092633D01*
X0297297Y0092633D01*
X0298048Y0093384D01*
X0299649Y0094885D02*
X0301150Y0094885D01*
X0313461Y0096386D02*
X0314211Y0097137D01*
X0315713Y0097137D01*
X0316463Y0096386D01*
X0316463Y0095636D01*
X0313461Y0092633D01*
X0316463Y0092633D01*
X0328093Y0134808D02*
X0326591Y0136309D01*
X0328093Y0137811D01*
X0331095Y0137811D01*
X0330345Y0139412D02*
X0331095Y0140163D01*
X0331095Y0142415D01*
X0328093Y0142415D01*
X0328843Y0144016D02*
X0328093Y0144767D01*
X0328093Y0147018D01*
X0326591Y0147018D02*
X0331095Y0147018D01*
X0331095Y0144767D01*
X0330345Y0144016D01*
X0328843Y0144016D01*
X0328093Y0148620D02*
X0328093Y0149370D01*
X0331095Y0149370D01*
X0331095Y0148620D02*
X0331095Y0150121D01*
X0330345Y0151689D02*
X0331095Y0152440D01*
X0331095Y0153941D01*
X0330345Y0154692D01*
X0328843Y0154692D01*
X0328093Y0153941D01*
X0328093Y0152440D01*
X0328843Y0151689D01*
X0330345Y0151689D01*
X0326591Y0149370D02*
X0325841Y0149370D01*
X0328093Y0139412D02*
X0330345Y0139412D01*
X0328843Y0137811D02*
X0328843Y0134808D01*
X0328093Y0134808D02*
X0331095Y0134808D01*
X0331095Y0160897D02*
X0328093Y0160897D01*
X0326591Y0162398D01*
X0328093Y0163900D01*
X0331095Y0163900D01*
X0331095Y0165501D02*
X0326591Y0165501D01*
X0328093Y0167002D01*
X0326591Y0168503D01*
X0331095Y0168503D01*
X0331095Y0170105D02*
X0326591Y0170105D01*
X0326591Y0172357D01*
X0327342Y0173107D01*
X0328843Y0173107D01*
X0329594Y0172357D01*
X0329594Y0170105D01*
X0328843Y0163900D02*
X0328843Y0160897D01*
X0323078Y0160833D02*
X0323082Y0161139D01*
X0323093Y0161444D01*
X0323112Y0161749D01*
X0323138Y0162053D01*
X0323172Y0162357D01*
X0323213Y0162660D01*
X0323261Y0162961D01*
X0323317Y0163262D01*
X0323381Y0163561D01*
X0323451Y0163858D01*
X0323529Y0164154D01*
X0323614Y0164447D01*
X0323706Y0164738D01*
X0323806Y0165027D01*
X0323912Y0165314D01*
X0324026Y0165597D01*
X0324146Y0165878D01*
X0324273Y0166156D01*
X0324407Y0166431D01*
X0324548Y0166702D01*
X0324695Y0166970D01*
X0324849Y0167234D01*
X0325010Y0167494D01*
X0325176Y0167750D01*
X0325349Y0168002D01*
X0325528Y0168249D01*
X0325713Y0168493D01*
X0325904Y0168731D01*
X0326101Y0168965D01*
X0326303Y0169194D01*
X0326511Y0169418D01*
X0326725Y0169636D01*
X0326943Y0169850D01*
X0327167Y0170058D01*
X0327396Y0170260D01*
X0327630Y0170457D01*
X0327868Y0170648D01*
X0328112Y0170833D01*
X0328359Y0171012D01*
X0328611Y0171185D01*
X0328867Y0171351D01*
X0329127Y0171512D01*
X0329391Y0171666D01*
X0329659Y0171813D01*
X0329930Y0171954D01*
X0330205Y0172088D01*
X0330483Y0172215D01*
X0330764Y0172335D01*
X0331047Y0172449D01*
X0331334Y0172555D01*
X0331623Y0172655D01*
X0331914Y0172747D01*
X0332207Y0172832D01*
X0332503Y0172910D01*
X0332800Y0172980D01*
X0333099Y0173044D01*
X0333400Y0173100D01*
X0333701Y0173148D01*
X0334004Y0173189D01*
X0334308Y0173223D01*
X0334612Y0173249D01*
X0334917Y0173268D01*
X0335222Y0173279D01*
X0335528Y0173283D01*
X0335834Y0173279D01*
X0336139Y0173268D01*
X0336444Y0173249D01*
X0336748Y0173223D01*
X0337052Y0173189D01*
X0337355Y0173148D01*
X0337656Y0173100D01*
X0337957Y0173044D01*
X0338256Y0172980D01*
X0338553Y0172910D01*
X0338849Y0172832D01*
X0339142Y0172747D01*
X0339433Y0172655D01*
X0339722Y0172555D01*
X0340009Y0172449D01*
X0340292Y0172335D01*
X0340573Y0172215D01*
X0340851Y0172088D01*
X0341126Y0171954D01*
X0341397Y0171813D01*
X0341665Y0171666D01*
X0341929Y0171512D01*
X0342189Y0171351D01*
X0342445Y0171185D01*
X0342697Y0171012D01*
X0342944Y0170833D01*
X0343188Y0170648D01*
X0343426Y0170457D01*
X0343660Y0170260D01*
X0343889Y0170058D01*
X0344113Y0169850D01*
X0344331Y0169636D01*
X0344545Y0169418D01*
X0344753Y0169194D01*
X0344955Y0168965D01*
X0345152Y0168731D01*
X0345343Y0168493D01*
X0345528Y0168249D01*
X0345707Y0168002D01*
X0345880Y0167750D01*
X0346046Y0167494D01*
X0346207Y0167234D01*
X0346361Y0166970D01*
X0346508Y0166702D01*
X0346649Y0166431D01*
X0346783Y0166156D01*
X0346910Y0165878D01*
X0347030Y0165597D01*
X0347144Y0165314D01*
X0347250Y0165027D01*
X0347350Y0164738D01*
X0347442Y0164447D01*
X0347527Y0164154D01*
X0347605Y0163858D01*
X0347675Y0163561D01*
X0347739Y0163262D01*
X0347795Y0162961D01*
X0347843Y0162660D01*
X0347884Y0162357D01*
X0347918Y0162053D01*
X0347944Y0161749D01*
X0347963Y0161444D01*
X0347974Y0161139D01*
X0347978Y0160833D01*
X0347974Y0160527D01*
X0347963Y0160222D01*
X0347944Y0159917D01*
X0347918Y0159613D01*
X0347884Y0159309D01*
X0347843Y0159006D01*
X0347795Y0158705D01*
X0347739Y0158404D01*
X0347675Y0158105D01*
X0347605Y0157808D01*
X0347527Y0157512D01*
X0347442Y0157219D01*
X0347350Y0156928D01*
X0347250Y0156639D01*
X0347144Y0156352D01*
X0347030Y0156069D01*
X0346910Y0155788D01*
X0346783Y0155510D01*
X0346649Y0155235D01*
X0346508Y0154964D01*
X0346361Y0154696D01*
X0346207Y0154432D01*
X0346046Y0154172D01*
X0345880Y0153916D01*
X0345707Y0153664D01*
X0345528Y0153417D01*
X0345343Y0153173D01*
X0345152Y0152935D01*
X0344955Y0152701D01*
X0344753Y0152472D01*
X0344545Y0152248D01*
X0344331Y0152030D01*
X0344113Y0151816D01*
X0343889Y0151608D01*
X0343660Y0151406D01*
X0343426Y0151209D01*
X0343188Y0151018D01*
X0342944Y0150833D01*
X0342697Y0150654D01*
X0342445Y0150481D01*
X0342189Y0150315D01*
X0341929Y0150154D01*
X0341665Y0150000D01*
X0341397Y0149853D01*
X0341126Y0149712D01*
X0340851Y0149578D01*
X0340573Y0149451D01*
X0340292Y0149331D01*
X0340009Y0149217D01*
X0339722Y0149111D01*
X0339433Y0149011D01*
X0339142Y0148919D01*
X0338849Y0148834D01*
X0338553Y0148756D01*
X0338256Y0148686D01*
X0337957Y0148622D01*
X0337656Y0148566D01*
X0337355Y0148518D01*
X0337052Y0148477D01*
X0336748Y0148443D01*
X0336444Y0148417D01*
X0336139Y0148398D01*
X0335834Y0148387D01*
X0335528Y0148383D01*
X0335222Y0148387D01*
X0334917Y0148398D01*
X0334612Y0148417D01*
X0334308Y0148443D01*
X0334004Y0148477D01*
X0333701Y0148518D01*
X0333400Y0148566D01*
X0333099Y0148622D01*
X0332800Y0148686D01*
X0332503Y0148756D01*
X0332207Y0148834D01*
X0331914Y0148919D01*
X0331623Y0149011D01*
X0331334Y0149111D01*
X0331047Y0149217D01*
X0330764Y0149331D01*
X0330483Y0149451D01*
X0330205Y0149578D01*
X0329930Y0149712D01*
X0329659Y0149853D01*
X0329391Y0150000D01*
X0329127Y0150154D01*
X0328867Y0150315D01*
X0328611Y0150481D01*
X0328359Y0150654D01*
X0328112Y0150833D01*
X0327868Y0151018D01*
X0327630Y0151209D01*
X0327396Y0151406D01*
X0327167Y0151608D01*
X0326943Y0151816D01*
X0326725Y0152030D01*
X0326511Y0152248D01*
X0326303Y0152472D01*
X0326101Y0152701D01*
X0325904Y0152935D01*
X0325713Y0153173D01*
X0325528Y0153417D01*
X0325349Y0153664D01*
X0325176Y0153916D01*
X0325010Y0154172D01*
X0324849Y0154432D01*
X0324695Y0154696D01*
X0324548Y0154964D01*
X0324407Y0155235D01*
X0324273Y0155510D01*
X0324146Y0155788D01*
X0324026Y0156069D01*
X0323912Y0156352D01*
X0323806Y0156639D01*
X0323706Y0156928D01*
X0323614Y0157219D01*
X0323529Y0157512D01*
X0323451Y0157808D01*
X0323381Y0158105D01*
X0323317Y0158404D01*
X0323261Y0158705D01*
X0323213Y0159006D01*
X0323172Y0159309D01*
X0323138Y0159613D01*
X0323112Y0159917D01*
X0323093Y0160222D01*
X0323082Y0160527D01*
X0323078Y0160833D01*
X0073848Y0223933D02*
X0070845Y0223933D01*
X0072346Y0223933D02*
X0072346Y0228437D01*
X0070845Y0226936D01*
D13*
X0070095Y0230183D02*
X0075095Y0230183D01*
X0077595Y0232683D01*
X0080095Y0230183D01*
X0085095Y0230183D01*
X0087595Y0232683D01*
X0090095Y0230183D01*
X0095095Y0230183D01*
X0097595Y0232683D01*
X0100095Y0230183D01*
X0105095Y0230183D01*
X0107595Y0232683D01*
X0110095Y0230183D01*
X0115095Y0230183D01*
X0117595Y0232683D01*
X0120095Y0230183D01*
X0125095Y0230183D01*
X0127595Y0232683D01*
X0130095Y0230183D01*
X0135095Y0230183D01*
X0137595Y0232683D01*
X0140095Y0230183D01*
X0145095Y0230183D01*
X0147595Y0232683D01*
X0150095Y0230183D01*
X0155095Y0230183D01*
X0157595Y0232683D01*
X0160095Y0230183D01*
X0165095Y0230183D01*
X0167595Y0232683D01*
X0170095Y0230183D01*
X0175095Y0230183D01*
X0177595Y0232683D01*
X0180095Y0230183D01*
X0185095Y0230183D01*
X0187595Y0232683D01*
X0190095Y0230183D01*
X0195095Y0230183D01*
X0197595Y0232683D01*
X0200095Y0230183D01*
X0205095Y0230183D01*
X0207595Y0232683D01*
X0210095Y0230183D01*
X0215095Y0230183D01*
X0217595Y0232683D01*
X0220095Y0230183D01*
X0225095Y0230183D01*
X0227595Y0232683D01*
X0230095Y0230183D01*
X0235095Y0230183D01*
X0237595Y0232683D01*
X0240095Y0230183D01*
X0245095Y0230183D01*
X0247595Y0232683D01*
X0250095Y0230183D01*
X0255095Y0230183D01*
X0257595Y0232683D01*
X0260095Y0230183D01*
X0265095Y0230183D01*
X0267595Y0232683D01*
X0267595Y0247683D01*
X0265095Y0250183D01*
X0260095Y0250183D01*
X0257595Y0247683D01*
X0255095Y0250183D01*
X0250095Y0250183D01*
X0247595Y0247683D01*
X0245095Y0250183D01*
X0240095Y0250183D01*
X0237595Y0247683D01*
X0235095Y0250183D01*
X0230095Y0250183D01*
X0227595Y0247683D01*
X0225095Y0250183D01*
X0220095Y0250183D01*
X0217595Y0247683D01*
X0215095Y0250183D01*
X0210095Y0250183D01*
X0207595Y0247683D01*
X0205095Y0250183D01*
X0200095Y0250183D01*
X0197595Y0247683D01*
X0195095Y0250183D01*
X0190095Y0250183D01*
X0187595Y0247683D01*
X0185095Y0250183D01*
X0180095Y0250183D01*
X0177595Y0247683D01*
X0175095Y0250183D01*
X0170095Y0250183D01*
X0167595Y0247683D01*
X0165095Y0250183D01*
X0160095Y0250183D01*
X0157595Y0247683D01*
X0155095Y0250183D01*
X0150095Y0250183D01*
X0147595Y0247683D01*
X0145095Y0250183D01*
X0140095Y0250183D01*
X0137595Y0247683D01*
X0135095Y0250183D01*
X0130095Y0250183D01*
X0127595Y0247683D01*
X0125095Y0250183D01*
X0120095Y0250183D01*
X0117595Y0247683D01*
X0115095Y0250183D01*
X0110095Y0250183D01*
X0107595Y0247683D01*
X0105095Y0250183D01*
X0100095Y0250183D01*
X0097595Y0247683D01*
X0095095Y0250183D01*
X0090095Y0250183D01*
X0087595Y0247683D01*
X0085095Y0250183D01*
X0080095Y0250183D01*
X0077595Y0247683D01*
X0075095Y0250183D01*
X0070095Y0250183D01*
X0067595Y0247683D01*
X0067595Y0232683D01*
X0070095Y0230183D01*
X0087595Y0222683D02*
X0087595Y0217683D01*
X0090095Y0215183D01*
X0095095Y0215183D01*
X0097595Y0217683D01*
X0100095Y0215183D01*
X0105095Y0215183D01*
X0107595Y0217683D01*
X0110095Y0215183D01*
X0115095Y0215183D01*
X0117595Y0217683D01*
X0120095Y0215183D01*
X0125095Y0215183D01*
X0127595Y0217683D01*
X0130095Y0215183D01*
X0135095Y0215183D01*
X0137595Y0217683D01*
X0140095Y0215183D01*
X0145095Y0215183D01*
X0147595Y0217683D01*
X0150095Y0215183D01*
X0155095Y0215183D01*
X0157595Y0217683D01*
X0160095Y0215183D01*
X0165095Y0215183D01*
X0167595Y0217683D01*
X0170095Y0215183D01*
X0175095Y0215183D01*
X0177595Y0217683D01*
X0180095Y0215183D01*
X0185095Y0215183D01*
X0187595Y0217683D01*
X0190095Y0215183D01*
X0195095Y0215183D01*
X0197595Y0217683D01*
X0200095Y0215183D01*
X0205095Y0215183D01*
X0207595Y0217683D01*
X0210095Y0215183D01*
X0215095Y0215183D01*
X0217595Y0217683D01*
X0220095Y0215183D01*
X0225095Y0215183D01*
X0227595Y0217683D01*
X0227595Y0222683D01*
X0225095Y0225183D01*
X0220095Y0225183D01*
X0217595Y0222683D01*
X0215095Y0225183D01*
X0210095Y0225183D01*
X0207595Y0222683D01*
X0205095Y0225183D01*
X0200095Y0225183D01*
X0197595Y0222683D01*
X0195095Y0225183D01*
X0190095Y0225183D01*
X0187595Y0222683D01*
X0185095Y0225183D01*
X0180095Y0225183D01*
X0177595Y0222683D01*
X0175095Y0225183D01*
X0170095Y0225183D01*
X0167595Y0222683D01*
X0165095Y0225183D01*
X0160095Y0225183D01*
X0157595Y0222683D01*
X0155095Y0225183D01*
X0150095Y0225183D01*
X0147595Y0222683D01*
X0145095Y0225183D01*
X0140095Y0225183D01*
X0137595Y0222683D01*
X0135095Y0225183D01*
X0130095Y0225183D01*
X0127595Y0222683D01*
X0125095Y0225183D01*
X0120095Y0225183D01*
X0117595Y0222683D01*
X0115095Y0225183D01*
X0110095Y0225183D01*
X0107595Y0222683D01*
X0105095Y0225183D01*
X0100095Y0225183D01*
X0097595Y0222683D01*
X0095095Y0225183D01*
X0090095Y0225183D01*
X0087595Y0222683D01*
X0039922Y0240183D02*
X0039926Y0240514D01*
X0039938Y0240845D01*
X0039959Y0241176D01*
X0039987Y0241506D01*
X0040024Y0241836D01*
X0040068Y0242164D01*
X0040121Y0242491D01*
X0040181Y0242817D01*
X0040250Y0243141D01*
X0040327Y0243463D01*
X0040411Y0243784D01*
X0040503Y0244102D01*
X0040603Y0244418D01*
X0040711Y0244731D01*
X0040827Y0245042D01*
X0040950Y0245349D01*
X0041080Y0245654D01*
X0041218Y0245955D01*
X0041363Y0246253D01*
X0041516Y0246547D01*
X0041676Y0246837D01*
X0041843Y0247123D01*
X0042016Y0247405D01*
X0042197Y0247683D01*
X0042385Y0247956D01*
X0042579Y0248225D01*
X0042779Y0248489D01*
X0042986Y0248747D01*
X0043200Y0249001D01*
X0043419Y0249249D01*
X0043645Y0249492D01*
X0043876Y0249729D01*
X0044113Y0249960D01*
X0044356Y0250186D01*
X0044604Y0250405D01*
X0044858Y0250619D01*
X0045116Y0250826D01*
X0045380Y0251026D01*
X0045649Y0251220D01*
X0045922Y0251408D01*
X0046200Y0251589D01*
X0046482Y0251762D01*
X0046768Y0251929D01*
X0047058Y0252089D01*
X0047352Y0252242D01*
X0047650Y0252387D01*
X0047951Y0252525D01*
X0048256Y0252655D01*
X0048563Y0252778D01*
X0048874Y0252894D01*
X0049187Y0253002D01*
X0049503Y0253102D01*
X0049821Y0253194D01*
X0050142Y0253278D01*
X0050464Y0253355D01*
X0050788Y0253424D01*
X0051114Y0253484D01*
X0051441Y0253537D01*
X0051769Y0253581D01*
X0052099Y0253618D01*
X0052429Y0253646D01*
X0052760Y0253667D01*
X0053091Y0253679D01*
X0053422Y0253683D01*
X0053753Y0253679D01*
X0054084Y0253667D01*
X0054415Y0253646D01*
X0054745Y0253618D01*
X0055075Y0253581D01*
X0055403Y0253537D01*
X0055730Y0253484D01*
X0056056Y0253424D01*
X0056380Y0253355D01*
X0056702Y0253278D01*
X0057023Y0253194D01*
X0057341Y0253102D01*
X0057657Y0253002D01*
X0057970Y0252894D01*
X0058281Y0252778D01*
X0058588Y0252655D01*
X0058893Y0252525D01*
X0059194Y0252387D01*
X0059492Y0252242D01*
X0059786Y0252089D01*
X0060076Y0251929D01*
X0060362Y0251762D01*
X0060644Y0251589D01*
X0060922Y0251408D01*
X0061195Y0251220D01*
X0061464Y0251026D01*
X0061728Y0250826D01*
X0061986Y0250619D01*
X0062240Y0250405D01*
X0062488Y0250186D01*
X0062731Y0249960D01*
X0062968Y0249729D01*
X0063199Y0249492D01*
X0063425Y0249249D01*
X0063644Y0249001D01*
X0063858Y0248747D01*
X0064065Y0248489D01*
X0064265Y0248225D01*
X0064459Y0247956D01*
X0064647Y0247683D01*
X0064828Y0247405D01*
X0065001Y0247123D01*
X0065168Y0246837D01*
X0065328Y0246547D01*
X0065481Y0246253D01*
X0065626Y0245955D01*
X0065764Y0245654D01*
X0065894Y0245349D01*
X0066017Y0245042D01*
X0066133Y0244731D01*
X0066241Y0244418D01*
X0066341Y0244102D01*
X0066433Y0243784D01*
X0066517Y0243463D01*
X0066594Y0243141D01*
X0066663Y0242817D01*
X0066723Y0242491D01*
X0066776Y0242164D01*
X0066820Y0241836D01*
X0066857Y0241506D01*
X0066885Y0241176D01*
X0066906Y0240845D01*
X0066918Y0240514D01*
X0066922Y0240183D01*
X0066918Y0239852D01*
X0066906Y0239521D01*
X0066885Y0239190D01*
X0066857Y0238860D01*
X0066820Y0238530D01*
X0066776Y0238202D01*
X0066723Y0237875D01*
X0066663Y0237549D01*
X0066594Y0237225D01*
X0066517Y0236903D01*
X0066433Y0236582D01*
X0066341Y0236264D01*
X0066241Y0235948D01*
X0066133Y0235635D01*
X0066017Y0235324D01*
X0065894Y0235017D01*
X0065764Y0234712D01*
X0065626Y0234411D01*
X0065481Y0234113D01*
X0065328Y0233819D01*
X0065168Y0233529D01*
X0065001Y0233243D01*
X0064828Y0232961D01*
X0064647Y0232683D01*
X0064459Y0232410D01*
X0064265Y0232141D01*
X0064065Y0231877D01*
X0063858Y0231619D01*
X0063644Y0231365D01*
X0063425Y0231117D01*
X0063199Y0230874D01*
X0062968Y0230637D01*
X0062731Y0230406D01*
X0062488Y0230180D01*
X0062240Y0229961D01*
X0061986Y0229747D01*
X0061728Y0229540D01*
X0061464Y0229340D01*
X0061195Y0229146D01*
X0060922Y0228958D01*
X0060644Y0228777D01*
X0060362Y0228604D01*
X0060076Y0228437D01*
X0059786Y0228277D01*
X0059492Y0228124D01*
X0059194Y0227979D01*
X0058893Y0227841D01*
X0058588Y0227711D01*
X0058281Y0227588D01*
X0057970Y0227472D01*
X0057657Y0227364D01*
X0057341Y0227264D01*
X0057023Y0227172D01*
X0056702Y0227088D01*
X0056380Y0227011D01*
X0056056Y0226942D01*
X0055730Y0226882D01*
X0055403Y0226829D01*
X0055075Y0226785D01*
X0054745Y0226748D01*
X0054415Y0226720D01*
X0054084Y0226699D01*
X0053753Y0226687D01*
X0053422Y0226683D01*
X0053091Y0226687D01*
X0052760Y0226699D01*
X0052429Y0226720D01*
X0052099Y0226748D01*
X0051769Y0226785D01*
X0051441Y0226829D01*
X0051114Y0226882D01*
X0050788Y0226942D01*
X0050464Y0227011D01*
X0050142Y0227088D01*
X0049821Y0227172D01*
X0049503Y0227264D01*
X0049187Y0227364D01*
X0048874Y0227472D01*
X0048563Y0227588D01*
X0048256Y0227711D01*
X0047951Y0227841D01*
X0047650Y0227979D01*
X0047352Y0228124D01*
X0047058Y0228277D01*
X0046768Y0228437D01*
X0046482Y0228604D01*
X0046200Y0228777D01*
X0045922Y0228958D01*
X0045649Y0229146D01*
X0045380Y0229340D01*
X0045116Y0229540D01*
X0044858Y0229747D01*
X0044604Y0229961D01*
X0044356Y0230180D01*
X0044113Y0230406D01*
X0043876Y0230637D01*
X0043645Y0230874D01*
X0043419Y0231117D01*
X0043200Y0231365D01*
X0042986Y0231619D01*
X0042779Y0231877D01*
X0042579Y0232141D01*
X0042385Y0232410D01*
X0042197Y0232683D01*
X0042016Y0232961D01*
X0041843Y0233243D01*
X0041676Y0233529D01*
X0041516Y0233819D01*
X0041363Y0234113D01*
X0041218Y0234411D01*
X0041080Y0234712D01*
X0040950Y0235017D01*
X0040827Y0235324D01*
X0040711Y0235635D01*
X0040603Y0235948D01*
X0040503Y0236264D01*
X0040411Y0236582D01*
X0040327Y0236903D01*
X0040250Y0237225D01*
X0040181Y0237549D01*
X0040121Y0237875D01*
X0040068Y0238202D01*
X0040024Y0238530D01*
X0039987Y0238860D01*
X0039959Y0239190D01*
X0039938Y0239521D01*
X0039926Y0239852D01*
X0039922Y0240183D01*
X0037595Y0225183D02*
X0035095Y0222683D01*
X0035095Y0217683D01*
X0037595Y0215183D01*
X0042595Y0215183D01*
X0045095Y0217683D01*
X0045095Y0222683D01*
X0042595Y0225183D01*
X0037595Y0225183D01*
X0037595Y0215183D02*
X0035095Y0212683D01*
X0035095Y0207683D01*
X0037595Y0205183D01*
X0035095Y0202683D01*
X0035095Y0197683D01*
X0037595Y0195183D01*
X0042595Y0195183D01*
X0045095Y0197683D01*
X0045095Y0202683D01*
X0042595Y0205183D01*
X0037595Y0205183D01*
X0042595Y0205183D01*
X0045095Y0207683D01*
X0045095Y0212683D01*
X0042595Y0215183D01*
X0037595Y0215183D01*
X0037595Y0195183D02*
X0035095Y0192683D01*
X0035095Y0187683D01*
X0037595Y0185183D01*
X0042595Y0185183D01*
X0045095Y0187683D01*
X0045095Y0192683D01*
X0042595Y0195183D01*
X0037595Y0195183D01*
X0037595Y0185183D02*
X0035095Y0182683D01*
X0035095Y0177683D01*
X0037595Y0175183D01*
X0035095Y0172683D01*
X0035095Y0167683D01*
X0037595Y0165183D01*
X0042595Y0165183D01*
X0045095Y0167683D01*
X0045095Y0172683D01*
X0042595Y0175183D01*
X0037595Y0175183D01*
X0042595Y0175183D01*
X0045095Y0177683D01*
X0045095Y0182683D01*
X0042595Y0185183D01*
X0037595Y0185183D01*
X0037595Y0165183D02*
X0035095Y0162683D01*
X0035095Y0157683D01*
X0037595Y0155183D01*
X0035095Y0152683D01*
X0035095Y0147683D01*
X0037595Y0145183D01*
X0042595Y0145183D01*
X0045095Y0147683D01*
X0045095Y0152683D01*
X0042595Y0155183D01*
X0037595Y0155183D01*
X0042595Y0155183D01*
X0045095Y0157683D01*
X0045095Y0162683D01*
X0042595Y0165183D01*
X0037595Y0165183D01*
X0087595Y0190183D02*
X0090095Y0187683D01*
X0095095Y0187683D01*
X0097595Y0190183D01*
X0097595Y0195183D01*
X0095095Y0197683D01*
X0090095Y0197683D01*
X0087595Y0195183D01*
X0087595Y0190183D01*
X0097595Y0190183D02*
X0097595Y0195183D01*
X0100095Y0197683D01*
X0105095Y0197683D01*
X0107595Y0195183D01*
X0110095Y0197683D01*
X0115095Y0197683D01*
X0117595Y0195183D01*
X0117595Y0190183D01*
X0115095Y0187683D01*
X0110095Y0187683D01*
X0107595Y0190183D01*
X0107595Y0195183D01*
X0107595Y0190183D01*
X0105095Y0187683D01*
X0100095Y0187683D01*
X0097595Y0190183D01*
X0117595Y0190183D02*
X0120095Y0187683D01*
X0125095Y0187683D01*
X0127595Y0190183D01*
X0127595Y0195183D01*
X0130095Y0197683D01*
X0135095Y0197683D01*
X0137595Y0195183D01*
X0137595Y0190183D01*
X0135095Y0187683D01*
X0130095Y0187683D01*
X0127595Y0190183D01*
X0127595Y0195183D01*
X0125095Y0197683D01*
X0120095Y0197683D01*
X0117595Y0195183D01*
X0117595Y0190183D01*
X0187595Y0197683D02*
X0190095Y0195183D01*
X0195095Y0195183D01*
X0197595Y0197683D01*
X0200095Y0195183D01*
X0205095Y0195183D01*
X0207595Y0197683D01*
X0210095Y0195183D01*
X0215095Y0195183D01*
X0217595Y0197683D01*
X0217595Y0212683D01*
X0215095Y0215183D01*
X0210095Y0215183D01*
X0207595Y0212683D01*
X0205095Y0215183D01*
X0200095Y0215183D01*
X0197595Y0212683D01*
X0195095Y0215183D01*
X0190095Y0215183D01*
X0187595Y0212683D01*
X0187595Y0197683D01*
X0268268Y0240183D02*
X0268272Y0240514D01*
X0268284Y0240845D01*
X0268305Y0241176D01*
X0268333Y0241506D01*
X0268370Y0241836D01*
X0268414Y0242164D01*
X0268467Y0242491D01*
X0268527Y0242817D01*
X0268596Y0243141D01*
X0268673Y0243463D01*
X0268757Y0243784D01*
X0268849Y0244102D01*
X0268949Y0244418D01*
X0269057Y0244731D01*
X0269173Y0245042D01*
X0269296Y0245349D01*
X0269426Y0245654D01*
X0269564Y0245955D01*
X0269709Y0246253D01*
X0269862Y0246547D01*
X0270022Y0246837D01*
X0270189Y0247123D01*
X0270362Y0247405D01*
X0270543Y0247683D01*
X0270731Y0247956D01*
X0270925Y0248225D01*
X0271125Y0248489D01*
X0271332Y0248747D01*
X0271546Y0249001D01*
X0271765Y0249249D01*
X0271991Y0249492D01*
X0272222Y0249729D01*
X0272459Y0249960D01*
X0272702Y0250186D01*
X0272950Y0250405D01*
X0273204Y0250619D01*
X0273462Y0250826D01*
X0273726Y0251026D01*
X0273995Y0251220D01*
X0274268Y0251408D01*
X0274546Y0251589D01*
X0274828Y0251762D01*
X0275114Y0251929D01*
X0275404Y0252089D01*
X0275698Y0252242D01*
X0275996Y0252387D01*
X0276297Y0252525D01*
X0276602Y0252655D01*
X0276909Y0252778D01*
X0277220Y0252894D01*
X0277533Y0253002D01*
X0277849Y0253102D01*
X0278167Y0253194D01*
X0278488Y0253278D01*
X0278810Y0253355D01*
X0279134Y0253424D01*
X0279460Y0253484D01*
X0279787Y0253537D01*
X0280115Y0253581D01*
X0280445Y0253618D01*
X0280775Y0253646D01*
X0281106Y0253667D01*
X0281437Y0253679D01*
X0281768Y0253683D01*
X0282099Y0253679D01*
X0282430Y0253667D01*
X0282761Y0253646D01*
X0283091Y0253618D01*
X0283421Y0253581D01*
X0283749Y0253537D01*
X0284076Y0253484D01*
X0284402Y0253424D01*
X0284726Y0253355D01*
X0285048Y0253278D01*
X0285369Y0253194D01*
X0285687Y0253102D01*
X0286003Y0253002D01*
X0286316Y0252894D01*
X0286627Y0252778D01*
X0286934Y0252655D01*
X0287239Y0252525D01*
X0287540Y0252387D01*
X0287838Y0252242D01*
X0288132Y0252089D01*
X0288422Y0251929D01*
X0288708Y0251762D01*
X0288990Y0251589D01*
X0289268Y0251408D01*
X0289541Y0251220D01*
X0289810Y0251026D01*
X0290074Y0250826D01*
X0290332Y0250619D01*
X0290586Y0250405D01*
X0290834Y0250186D01*
X0291077Y0249960D01*
X0291314Y0249729D01*
X0291545Y0249492D01*
X0291771Y0249249D01*
X0291990Y0249001D01*
X0292204Y0248747D01*
X0292411Y0248489D01*
X0292611Y0248225D01*
X0292805Y0247956D01*
X0292993Y0247683D01*
X0293174Y0247405D01*
X0293347Y0247123D01*
X0293514Y0246837D01*
X0293674Y0246547D01*
X0293827Y0246253D01*
X0293972Y0245955D01*
X0294110Y0245654D01*
X0294240Y0245349D01*
X0294363Y0245042D01*
X0294479Y0244731D01*
X0294587Y0244418D01*
X0294687Y0244102D01*
X0294779Y0243784D01*
X0294863Y0243463D01*
X0294940Y0243141D01*
X0295009Y0242817D01*
X0295069Y0242491D01*
X0295122Y0242164D01*
X0295166Y0241836D01*
X0295203Y0241506D01*
X0295231Y0241176D01*
X0295252Y0240845D01*
X0295264Y0240514D01*
X0295268Y0240183D01*
X0295264Y0239852D01*
X0295252Y0239521D01*
X0295231Y0239190D01*
X0295203Y0238860D01*
X0295166Y0238530D01*
X0295122Y0238202D01*
X0295069Y0237875D01*
X0295009Y0237549D01*
X0294940Y0237225D01*
X0294863Y0236903D01*
X0294779Y0236582D01*
X0294687Y0236264D01*
X0294587Y0235948D01*
X0294479Y0235635D01*
X0294363Y0235324D01*
X0294240Y0235017D01*
X0294110Y0234712D01*
X0293972Y0234411D01*
X0293827Y0234113D01*
X0293674Y0233819D01*
X0293514Y0233529D01*
X0293347Y0233243D01*
X0293174Y0232961D01*
X0292993Y0232683D01*
X0292805Y0232410D01*
X0292611Y0232141D01*
X0292411Y0231877D01*
X0292204Y0231619D01*
X0291990Y0231365D01*
X0291771Y0231117D01*
X0291545Y0230874D01*
X0291314Y0230637D01*
X0291077Y0230406D01*
X0290834Y0230180D01*
X0290586Y0229961D01*
X0290332Y0229747D01*
X0290074Y0229540D01*
X0289810Y0229340D01*
X0289541Y0229146D01*
X0289268Y0228958D01*
X0288990Y0228777D01*
X0288708Y0228604D01*
X0288422Y0228437D01*
X0288132Y0228277D01*
X0287838Y0228124D01*
X0287540Y0227979D01*
X0287239Y0227841D01*
X0286934Y0227711D01*
X0286627Y0227588D01*
X0286316Y0227472D01*
X0286003Y0227364D01*
X0285687Y0227264D01*
X0285369Y0227172D01*
X0285048Y0227088D01*
X0284726Y0227011D01*
X0284402Y0226942D01*
X0284076Y0226882D01*
X0283749Y0226829D01*
X0283421Y0226785D01*
X0283091Y0226748D01*
X0282761Y0226720D01*
X0282430Y0226699D01*
X0282099Y0226687D01*
X0281768Y0226683D01*
X0281437Y0226687D01*
X0281106Y0226699D01*
X0280775Y0226720D01*
X0280445Y0226748D01*
X0280115Y0226785D01*
X0279787Y0226829D01*
X0279460Y0226882D01*
X0279134Y0226942D01*
X0278810Y0227011D01*
X0278488Y0227088D01*
X0278167Y0227172D01*
X0277849Y0227264D01*
X0277533Y0227364D01*
X0277220Y0227472D01*
X0276909Y0227588D01*
X0276602Y0227711D01*
X0276297Y0227841D01*
X0275996Y0227979D01*
X0275698Y0228124D01*
X0275404Y0228277D01*
X0275114Y0228437D01*
X0274828Y0228604D01*
X0274546Y0228777D01*
X0274268Y0228958D01*
X0273995Y0229146D01*
X0273726Y0229340D01*
X0273462Y0229540D01*
X0273204Y0229747D01*
X0272950Y0229961D01*
X0272702Y0230180D01*
X0272459Y0230406D01*
X0272222Y0230637D01*
X0271991Y0230874D01*
X0271765Y0231117D01*
X0271546Y0231365D01*
X0271332Y0231619D01*
X0271125Y0231877D01*
X0270925Y0232141D01*
X0270731Y0232410D01*
X0270543Y0232683D01*
X0270362Y0232961D01*
X0270189Y0233243D01*
X0270022Y0233529D01*
X0269862Y0233819D01*
X0269709Y0234113D01*
X0269564Y0234411D01*
X0269426Y0234712D01*
X0269296Y0235017D01*
X0269173Y0235324D01*
X0269057Y0235635D01*
X0268949Y0235948D01*
X0268849Y0236264D01*
X0268757Y0236582D01*
X0268673Y0236903D01*
X0268596Y0237225D01*
X0268527Y0237549D01*
X0268467Y0237875D01*
X0268414Y0238202D01*
X0268370Y0238530D01*
X0268333Y0238860D01*
X0268305Y0239190D01*
X0268284Y0239521D01*
X0268272Y0239852D01*
X0268268Y0240183D01*
X0300095Y0237683D02*
X0300095Y0232683D01*
X0302595Y0230183D01*
X0307595Y0230183D01*
X0310095Y0232683D01*
X0310095Y0237683D01*
X0307595Y0240183D01*
X0302595Y0240183D01*
X0300095Y0242683D01*
X0300095Y0247683D01*
X0302595Y0250183D01*
X0307595Y0250183D01*
X0310095Y0247683D01*
X0310095Y0242683D01*
X0307595Y0240183D01*
X0302595Y0240183D01*
X0300095Y0237683D01*
X0231345Y0141433D02*
X0233845Y0138933D01*
X0233845Y0123933D01*
X0231345Y0121433D01*
X0226345Y0121433D01*
X0223845Y0123933D01*
X0221345Y0121433D01*
X0216345Y0121433D01*
X0213845Y0123933D01*
X0211345Y0121433D01*
X0206345Y0121433D01*
X0203845Y0123933D01*
X0203845Y0138933D01*
X0206345Y0141433D01*
X0211345Y0141433D01*
X0213845Y0138933D01*
X0216345Y0141433D01*
X0221345Y0141433D01*
X0223845Y0138933D01*
X0226345Y0141433D01*
X0231345Y0141433D01*
X0282595Y0097683D02*
X0285095Y0100183D01*
X0290095Y0100183D01*
X0292595Y0097683D01*
X0292595Y0092683D01*
X0290095Y0090183D01*
X0285095Y0090183D01*
X0282595Y0092683D01*
X0282595Y0097683D01*
X0285095Y0090183D02*
X0282595Y0087683D01*
X0282595Y0082683D01*
X0285095Y0080183D01*
X0290095Y0080183D01*
X0292595Y0082683D01*
X0292595Y0087683D01*
X0290095Y0090183D01*
X0285095Y0090183D01*
X0285095Y0080183D02*
X0282595Y0077683D01*
X0282595Y0072683D01*
X0285095Y0070183D01*
X0290095Y0070183D01*
X0292595Y0072683D01*
X0292595Y0077683D01*
X0290095Y0080183D01*
X0285095Y0080183D01*
X0285095Y0070183D02*
X0282595Y0067683D01*
X0282595Y0062683D01*
X0285095Y0060183D01*
X0290095Y0060183D01*
X0292595Y0062683D01*
X0292595Y0067683D01*
X0290095Y0070183D01*
X0285095Y0070183D01*
X0235095Y0067683D02*
X0235095Y0062683D01*
X0232595Y0060183D01*
X0227595Y0060183D01*
X0225095Y0062683D01*
X0225095Y0067683D01*
X0227595Y0070183D01*
X0232595Y0070183D01*
X0235095Y0067683D01*
X0217595Y0067683D02*
X0217595Y0062683D01*
X0215095Y0060183D01*
X0210095Y0060183D01*
X0207595Y0062683D01*
X0207595Y0067683D01*
X0210095Y0070183D01*
X0215095Y0070183D01*
X0217595Y0067683D01*
D14*
X0203220Y0058756D02*
X0203220Y0141433D01*
X0110700Y0141433D01*
X0110700Y0121748D01*
X0071330Y0121748D01*
X0071330Y0141433D01*
X0110700Y0141433D01*
X0146134Y0137496D02*
X0146134Y0125685D01*
X0169756Y0125685D01*
X0169756Y0137496D01*
X0146134Y0137496D01*
X0163850Y0117811D02*
X0124480Y0117811D01*
X0124480Y0060724D01*
X0163850Y0060724D01*
X0163850Y0117811D01*
X0169756Y0102063D02*
X0169761Y0102449D01*
X0169775Y0102836D01*
X0169799Y0103221D01*
X0169832Y0103607D01*
X0169874Y0103991D01*
X0169926Y0104374D01*
X0169988Y0104755D01*
X0170059Y0105135D01*
X0170139Y0105513D01*
X0170228Y0105889D01*
X0170326Y0106263D01*
X0170434Y0106634D01*
X0170551Y0107003D01*
X0170677Y0107368D01*
X0170811Y0107731D01*
X0170955Y0108089D01*
X0171107Y0108445D01*
X0171268Y0108796D01*
X0171438Y0109143D01*
X0171616Y0109487D01*
X0171802Y0109825D01*
X0171996Y0110159D01*
X0172199Y0110488D01*
X0172410Y0110812D01*
X0172629Y0111131D01*
X0172855Y0111444D01*
X0173089Y0111752D01*
X0173331Y0112053D01*
X0173579Y0112349D01*
X0173836Y0112639D01*
X0174099Y0112922D01*
X0174368Y0113199D01*
X0174645Y0113468D01*
X0174928Y0113731D01*
X0175218Y0113988D01*
X0175514Y0114236D01*
X0175815Y0114478D01*
X0176123Y0114712D01*
X0176436Y0114938D01*
X0176755Y0115157D01*
X0177079Y0115368D01*
X0177408Y0115571D01*
X0177742Y0115765D01*
X0178080Y0115951D01*
X0178424Y0116129D01*
X0178771Y0116299D01*
X0179122Y0116460D01*
X0179478Y0116612D01*
X0179836Y0116756D01*
X0180199Y0116890D01*
X0180564Y0117016D01*
X0180933Y0117133D01*
X0181304Y0117241D01*
X0181678Y0117339D01*
X0182054Y0117428D01*
X0182432Y0117508D01*
X0182812Y0117579D01*
X0183193Y0117641D01*
X0183576Y0117693D01*
X0183960Y0117735D01*
X0184346Y0117768D01*
X0184731Y0117792D01*
X0185118Y0117806D01*
X0185504Y0117811D01*
X0185890Y0117806D01*
X0186277Y0117792D01*
X0186662Y0117768D01*
X0187048Y0117735D01*
X0187432Y0117693D01*
X0187815Y0117641D01*
X0188196Y0117579D01*
X0188576Y0117508D01*
X0188954Y0117428D01*
X0189330Y0117339D01*
X0189704Y0117241D01*
X0190075Y0117133D01*
X0190444Y0117016D01*
X0190809Y0116890D01*
X0191172Y0116756D01*
X0191530Y0116612D01*
X0191886Y0116460D01*
X0192237Y0116299D01*
X0192584Y0116129D01*
X0192928Y0115951D01*
X0193266Y0115765D01*
X0193600Y0115571D01*
X0193929Y0115368D01*
X0194253Y0115157D01*
X0194572Y0114938D01*
X0194885Y0114712D01*
X0195193Y0114478D01*
X0195494Y0114236D01*
X0195790Y0113988D01*
X0196080Y0113731D01*
X0196363Y0113468D01*
X0196640Y0113199D01*
X0196909Y0112922D01*
X0197172Y0112639D01*
X0197429Y0112349D01*
X0197677Y0112053D01*
X0197919Y0111752D01*
X0198153Y0111444D01*
X0198379Y0111131D01*
X0198598Y0110812D01*
X0198809Y0110488D01*
X0199012Y0110159D01*
X0199206Y0109825D01*
X0199392Y0109487D01*
X0199570Y0109143D01*
X0199740Y0108796D01*
X0199901Y0108445D01*
X0200053Y0108089D01*
X0200197Y0107731D01*
X0200331Y0107368D01*
X0200457Y0107003D01*
X0200574Y0106634D01*
X0200682Y0106263D01*
X0200780Y0105889D01*
X0200869Y0105513D01*
X0200949Y0105135D01*
X0201020Y0104755D01*
X0201082Y0104374D01*
X0201134Y0103991D01*
X0201176Y0103607D01*
X0201209Y0103221D01*
X0201233Y0102836D01*
X0201247Y0102449D01*
X0201252Y0102063D01*
X0201247Y0101677D01*
X0201233Y0101290D01*
X0201209Y0100905D01*
X0201176Y0100519D01*
X0201134Y0100135D01*
X0201082Y0099752D01*
X0201020Y0099371D01*
X0200949Y0098991D01*
X0200869Y0098613D01*
X0200780Y0098237D01*
X0200682Y0097863D01*
X0200574Y0097492D01*
X0200457Y0097123D01*
X0200331Y0096758D01*
X0200197Y0096395D01*
X0200053Y0096037D01*
X0199901Y0095681D01*
X0199740Y0095330D01*
X0199570Y0094983D01*
X0199392Y0094639D01*
X0199206Y0094301D01*
X0199012Y0093967D01*
X0198809Y0093638D01*
X0198598Y0093314D01*
X0198379Y0092995D01*
X0198153Y0092682D01*
X0197919Y0092374D01*
X0197677Y0092073D01*
X0197429Y0091777D01*
X0197172Y0091487D01*
X0196909Y0091204D01*
X0196640Y0090927D01*
X0196363Y0090658D01*
X0196080Y0090395D01*
X0195790Y0090138D01*
X0195494Y0089890D01*
X0195193Y0089648D01*
X0194885Y0089414D01*
X0194572Y0089188D01*
X0194253Y0088969D01*
X0193929Y0088758D01*
X0193600Y0088555D01*
X0193266Y0088361D01*
X0192928Y0088175D01*
X0192584Y0087997D01*
X0192237Y0087827D01*
X0191886Y0087666D01*
X0191530Y0087514D01*
X0191172Y0087370D01*
X0190809Y0087236D01*
X0190444Y0087110D01*
X0190075Y0086993D01*
X0189704Y0086885D01*
X0189330Y0086787D01*
X0188954Y0086698D01*
X0188576Y0086618D01*
X0188196Y0086547D01*
X0187815Y0086485D01*
X0187432Y0086433D01*
X0187048Y0086391D01*
X0186662Y0086358D01*
X0186277Y0086334D01*
X0185890Y0086320D01*
X0185504Y0086315D01*
X0185118Y0086320D01*
X0184731Y0086334D01*
X0184346Y0086358D01*
X0183960Y0086391D01*
X0183576Y0086433D01*
X0183193Y0086485D01*
X0182812Y0086547D01*
X0182432Y0086618D01*
X0182054Y0086698D01*
X0181678Y0086787D01*
X0181304Y0086885D01*
X0180933Y0086993D01*
X0180564Y0087110D01*
X0180199Y0087236D01*
X0179836Y0087370D01*
X0179478Y0087514D01*
X0179122Y0087666D01*
X0178771Y0087827D01*
X0178424Y0087997D01*
X0178080Y0088175D01*
X0177742Y0088361D01*
X0177408Y0088555D01*
X0177079Y0088758D01*
X0176755Y0088969D01*
X0176436Y0089188D01*
X0176123Y0089414D01*
X0175815Y0089648D01*
X0175514Y0089890D01*
X0175218Y0090138D01*
X0174928Y0090395D01*
X0174645Y0090658D01*
X0174368Y0090927D01*
X0174099Y0091204D01*
X0173836Y0091487D01*
X0173579Y0091777D01*
X0173331Y0092073D01*
X0173089Y0092374D01*
X0172855Y0092682D01*
X0172629Y0092995D01*
X0172410Y0093314D01*
X0172199Y0093638D01*
X0171996Y0093967D01*
X0171802Y0094301D01*
X0171616Y0094639D01*
X0171438Y0094983D01*
X0171268Y0095330D01*
X0171107Y0095681D01*
X0170955Y0096037D01*
X0170811Y0096395D01*
X0170677Y0096758D01*
X0170551Y0097123D01*
X0170434Y0097492D01*
X0170326Y0097863D01*
X0170228Y0098237D01*
X0170139Y0098613D01*
X0170059Y0098991D01*
X0169988Y0099371D01*
X0169926Y0099752D01*
X0169874Y0100135D01*
X0169832Y0100519D01*
X0169799Y0100905D01*
X0169775Y0101290D01*
X0169761Y0101677D01*
X0169756Y0102063D01*
X0118574Y0109937D02*
X0118574Y0062693D01*
X0071330Y0062693D01*
X0071330Y0109937D01*
X0118574Y0109937D01*
X0071330Y0141433D02*
X0033929Y0141433D01*
X0033929Y0058756D01*
X0203220Y0058756D01*
X0173692Y0066630D02*
X0173694Y0066783D01*
X0173700Y0066937D01*
X0173710Y0067090D01*
X0173724Y0067242D01*
X0173742Y0067395D01*
X0173764Y0067546D01*
X0173789Y0067697D01*
X0173819Y0067848D01*
X0173853Y0067998D01*
X0173890Y0068146D01*
X0173931Y0068294D01*
X0173976Y0068440D01*
X0174025Y0068586D01*
X0174078Y0068730D01*
X0174134Y0068872D01*
X0174194Y0069013D01*
X0174258Y0069153D01*
X0174325Y0069291D01*
X0174396Y0069427D01*
X0174471Y0069561D01*
X0174548Y0069693D01*
X0174630Y0069823D01*
X0174714Y0069951D01*
X0174802Y0070077D01*
X0174893Y0070200D01*
X0174987Y0070321D01*
X0175085Y0070439D01*
X0175185Y0070555D01*
X0175289Y0070668D01*
X0175395Y0070779D01*
X0175504Y0070887D01*
X0175616Y0070992D01*
X0175730Y0071093D01*
X0175848Y0071192D01*
X0175967Y0071288D01*
X0176089Y0071381D01*
X0176214Y0071470D01*
X0176341Y0071557D01*
X0176470Y0071639D01*
X0176601Y0071719D01*
X0176734Y0071795D01*
X0176869Y0071868D01*
X0177006Y0071937D01*
X0177145Y0072002D01*
X0177285Y0072064D01*
X0177427Y0072122D01*
X0177570Y0072177D01*
X0177715Y0072228D01*
X0177861Y0072275D01*
X0178008Y0072318D01*
X0178156Y0072357D01*
X0178305Y0072393D01*
X0178455Y0072424D01*
X0178606Y0072452D01*
X0178757Y0072476D01*
X0178910Y0072496D01*
X0179062Y0072512D01*
X0179215Y0072524D01*
X0179368Y0072532D01*
X0179521Y0072536D01*
X0179675Y0072536D01*
X0179828Y0072532D01*
X0179981Y0072524D01*
X0180134Y0072512D01*
X0180286Y0072496D01*
X0180439Y0072476D01*
X0180590Y0072452D01*
X0180741Y0072424D01*
X0180891Y0072393D01*
X0181040Y0072357D01*
X0181188Y0072318D01*
X0181335Y0072275D01*
X0181481Y0072228D01*
X0181626Y0072177D01*
X0181769Y0072122D01*
X0181911Y0072064D01*
X0182051Y0072002D01*
X0182190Y0071937D01*
X0182327Y0071868D01*
X0182462Y0071795D01*
X0182595Y0071719D01*
X0182726Y0071639D01*
X0182855Y0071557D01*
X0182982Y0071470D01*
X0183107Y0071381D01*
X0183229Y0071288D01*
X0183348Y0071192D01*
X0183466Y0071093D01*
X0183580Y0070992D01*
X0183692Y0070887D01*
X0183801Y0070779D01*
X0183907Y0070668D01*
X0184011Y0070555D01*
X0184111Y0070439D01*
X0184209Y0070321D01*
X0184303Y0070200D01*
X0184394Y0070077D01*
X0184482Y0069951D01*
X0184566Y0069823D01*
X0184648Y0069693D01*
X0184725Y0069561D01*
X0184800Y0069427D01*
X0184871Y0069291D01*
X0184938Y0069153D01*
X0185002Y0069013D01*
X0185062Y0068872D01*
X0185118Y0068730D01*
X0185171Y0068586D01*
X0185220Y0068440D01*
X0185265Y0068294D01*
X0185306Y0068146D01*
X0185343Y0067998D01*
X0185377Y0067848D01*
X0185407Y0067697D01*
X0185432Y0067546D01*
X0185454Y0067395D01*
X0185472Y0067242D01*
X0185486Y0067090D01*
X0185496Y0066937D01*
X0185502Y0066783D01*
X0185504Y0066630D01*
X0185502Y0066477D01*
X0185496Y0066323D01*
X0185486Y0066170D01*
X0185472Y0066018D01*
X0185454Y0065865D01*
X0185432Y0065714D01*
X0185407Y0065563D01*
X0185377Y0065412D01*
X0185343Y0065262D01*
X0185306Y0065114D01*
X0185265Y0064966D01*
X0185220Y0064820D01*
X0185171Y0064674D01*
X0185118Y0064530D01*
X0185062Y0064388D01*
X0185002Y0064247D01*
X0184938Y0064107D01*
X0184871Y0063969D01*
X0184800Y0063833D01*
X0184725Y0063699D01*
X0184648Y0063567D01*
X0184566Y0063437D01*
X0184482Y0063309D01*
X0184394Y0063183D01*
X0184303Y0063060D01*
X0184209Y0062939D01*
X0184111Y0062821D01*
X0184011Y0062705D01*
X0183907Y0062592D01*
X0183801Y0062481D01*
X0183692Y0062373D01*
X0183580Y0062268D01*
X0183466Y0062167D01*
X0183348Y0062068D01*
X0183229Y0061972D01*
X0183107Y0061879D01*
X0182982Y0061790D01*
X0182855Y0061703D01*
X0182726Y0061621D01*
X0182595Y0061541D01*
X0182462Y0061465D01*
X0182327Y0061392D01*
X0182190Y0061323D01*
X0182051Y0061258D01*
X0181911Y0061196D01*
X0181769Y0061138D01*
X0181626Y0061083D01*
X0181481Y0061032D01*
X0181335Y0060985D01*
X0181188Y0060942D01*
X0181040Y0060903D01*
X0180891Y0060867D01*
X0180741Y0060836D01*
X0180590Y0060808D01*
X0180439Y0060784D01*
X0180286Y0060764D01*
X0180134Y0060748D01*
X0179981Y0060736D01*
X0179828Y0060728D01*
X0179675Y0060724D01*
X0179521Y0060724D01*
X0179368Y0060728D01*
X0179215Y0060736D01*
X0179062Y0060748D01*
X0178910Y0060764D01*
X0178757Y0060784D01*
X0178606Y0060808D01*
X0178455Y0060836D01*
X0178305Y0060867D01*
X0178156Y0060903D01*
X0178008Y0060942D01*
X0177861Y0060985D01*
X0177715Y0061032D01*
X0177570Y0061083D01*
X0177427Y0061138D01*
X0177285Y0061196D01*
X0177145Y0061258D01*
X0177006Y0061323D01*
X0176869Y0061392D01*
X0176734Y0061465D01*
X0176601Y0061541D01*
X0176470Y0061621D01*
X0176341Y0061703D01*
X0176214Y0061790D01*
X0176089Y0061879D01*
X0175967Y0061972D01*
X0175848Y0062068D01*
X0175730Y0062167D01*
X0175616Y0062268D01*
X0175504Y0062373D01*
X0175395Y0062481D01*
X0175289Y0062592D01*
X0175185Y0062705D01*
X0175085Y0062821D01*
X0174987Y0062939D01*
X0174893Y0063060D01*
X0174802Y0063183D01*
X0174714Y0063309D01*
X0174630Y0063437D01*
X0174548Y0063567D01*
X0174471Y0063699D01*
X0174396Y0063833D01*
X0174325Y0063969D01*
X0174258Y0064107D01*
X0174194Y0064247D01*
X0174134Y0064388D01*
X0174078Y0064530D01*
X0174025Y0064674D01*
X0173976Y0064820D01*
X0173931Y0064966D01*
X0173890Y0065114D01*
X0173853Y0065262D01*
X0173819Y0065412D01*
X0173789Y0065563D01*
X0173764Y0065714D01*
X0173742Y0065865D01*
X0173724Y0066018D01*
X0173710Y0066170D01*
X0173700Y0066323D01*
X0173694Y0066477D01*
X0173692Y0066630D01*
X0035897Y0102063D02*
X0035902Y0102449D01*
X0035916Y0102836D01*
X0035940Y0103221D01*
X0035973Y0103607D01*
X0036015Y0103991D01*
X0036067Y0104374D01*
X0036129Y0104755D01*
X0036200Y0105135D01*
X0036280Y0105513D01*
X0036369Y0105889D01*
X0036467Y0106263D01*
X0036575Y0106634D01*
X0036692Y0107003D01*
X0036818Y0107368D01*
X0036952Y0107731D01*
X0037096Y0108089D01*
X0037248Y0108445D01*
X0037409Y0108796D01*
X0037579Y0109143D01*
X0037757Y0109487D01*
X0037943Y0109825D01*
X0038137Y0110159D01*
X0038340Y0110488D01*
X0038551Y0110812D01*
X0038770Y0111131D01*
X0038996Y0111444D01*
X0039230Y0111752D01*
X0039472Y0112053D01*
X0039720Y0112349D01*
X0039977Y0112639D01*
X0040240Y0112922D01*
X0040509Y0113199D01*
X0040786Y0113468D01*
X0041069Y0113731D01*
X0041359Y0113988D01*
X0041655Y0114236D01*
X0041956Y0114478D01*
X0042264Y0114712D01*
X0042577Y0114938D01*
X0042896Y0115157D01*
X0043220Y0115368D01*
X0043549Y0115571D01*
X0043883Y0115765D01*
X0044221Y0115951D01*
X0044565Y0116129D01*
X0044912Y0116299D01*
X0045263Y0116460D01*
X0045619Y0116612D01*
X0045977Y0116756D01*
X0046340Y0116890D01*
X0046705Y0117016D01*
X0047074Y0117133D01*
X0047445Y0117241D01*
X0047819Y0117339D01*
X0048195Y0117428D01*
X0048573Y0117508D01*
X0048953Y0117579D01*
X0049334Y0117641D01*
X0049717Y0117693D01*
X0050101Y0117735D01*
X0050487Y0117768D01*
X0050872Y0117792D01*
X0051259Y0117806D01*
X0051645Y0117811D01*
X0052031Y0117806D01*
X0052418Y0117792D01*
X0052803Y0117768D01*
X0053189Y0117735D01*
X0053573Y0117693D01*
X0053956Y0117641D01*
X0054337Y0117579D01*
X0054717Y0117508D01*
X0055095Y0117428D01*
X0055471Y0117339D01*
X0055845Y0117241D01*
X0056216Y0117133D01*
X0056585Y0117016D01*
X0056950Y0116890D01*
X0057313Y0116756D01*
X0057671Y0116612D01*
X0058027Y0116460D01*
X0058378Y0116299D01*
X0058725Y0116129D01*
X0059069Y0115951D01*
X0059407Y0115765D01*
X0059741Y0115571D01*
X0060070Y0115368D01*
X0060394Y0115157D01*
X0060713Y0114938D01*
X0061026Y0114712D01*
X0061334Y0114478D01*
X0061635Y0114236D01*
X0061931Y0113988D01*
X0062221Y0113731D01*
X0062504Y0113468D01*
X0062781Y0113199D01*
X0063050Y0112922D01*
X0063313Y0112639D01*
X0063570Y0112349D01*
X0063818Y0112053D01*
X0064060Y0111752D01*
X0064294Y0111444D01*
X0064520Y0111131D01*
X0064739Y0110812D01*
X0064950Y0110488D01*
X0065153Y0110159D01*
X0065347Y0109825D01*
X0065533Y0109487D01*
X0065711Y0109143D01*
X0065881Y0108796D01*
X0066042Y0108445D01*
X0066194Y0108089D01*
X0066338Y0107731D01*
X0066472Y0107368D01*
X0066598Y0107003D01*
X0066715Y0106634D01*
X0066823Y0106263D01*
X0066921Y0105889D01*
X0067010Y0105513D01*
X0067090Y0105135D01*
X0067161Y0104755D01*
X0067223Y0104374D01*
X0067275Y0103991D01*
X0067317Y0103607D01*
X0067350Y0103221D01*
X0067374Y0102836D01*
X0067388Y0102449D01*
X0067393Y0102063D01*
X0067388Y0101677D01*
X0067374Y0101290D01*
X0067350Y0100905D01*
X0067317Y0100519D01*
X0067275Y0100135D01*
X0067223Y0099752D01*
X0067161Y0099371D01*
X0067090Y0098991D01*
X0067010Y0098613D01*
X0066921Y0098237D01*
X0066823Y0097863D01*
X0066715Y0097492D01*
X0066598Y0097123D01*
X0066472Y0096758D01*
X0066338Y0096395D01*
X0066194Y0096037D01*
X0066042Y0095681D01*
X0065881Y0095330D01*
X0065711Y0094983D01*
X0065533Y0094639D01*
X0065347Y0094301D01*
X0065153Y0093967D01*
X0064950Y0093638D01*
X0064739Y0093314D01*
X0064520Y0092995D01*
X0064294Y0092682D01*
X0064060Y0092374D01*
X0063818Y0092073D01*
X0063570Y0091777D01*
X0063313Y0091487D01*
X0063050Y0091204D01*
X0062781Y0090927D01*
X0062504Y0090658D01*
X0062221Y0090395D01*
X0061931Y0090138D01*
X0061635Y0089890D01*
X0061334Y0089648D01*
X0061026Y0089414D01*
X0060713Y0089188D01*
X0060394Y0088969D01*
X0060070Y0088758D01*
X0059741Y0088555D01*
X0059407Y0088361D01*
X0059069Y0088175D01*
X0058725Y0087997D01*
X0058378Y0087827D01*
X0058027Y0087666D01*
X0057671Y0087514D01*
X0057313Y0087370D01*
X0056950Y0087236D01*
X0056585Y0087110D01*
X0056216Y0086993D01*
X0055845Y0086885D01*
X0055471Y0086787D01*
X0055095Y0086698D01*
X0054717Y0086618D01*
X0054337Y0086547D01*
X0053956Y0086485D01*
X0053573Y0086433D01*
X0053189Y0086391D01*
X0052803Y0086358D01*
X0052418Y0086334D01*
X0052031Y0086320D01*
X0051645Y0086315D01*
X0051259Y0086320D01*
X0050872Y0086334D01*
X0050487Y0086358D01*
X0050101Y0086391D01*
X0049717Y0086433D01*
X0049334Y0086485D01*
X0048953Y0086547D01*
X0048573Y0086618D01*
X0048195Y0086698D01*
X0047819Y0086787D01*
X0047445Y0086885D01*
X0047074Y0086993D01*
X0046705Y0087110D01*
X0046340Y0087236D01*
X0045977Y0087370D01*
X0045619Y0087514D01*
X0045263Y0087666D01*
X0044912Y0087827D01*
X0044565Y0087997D01*
X0044221Y0088175D01*
X0043883Y0088361D01*
X0043549Y0088555D01*
X0043220Y0088758D01*
X0042896Y0088969D01*
X0042577Y0089188D01*
X0042264Y0089414D01*
X0041956Y0089648D01*
X0041655Y0089890D01*
X0041359Y0090138D01*
X0041069Y0090395D01*
X0040786Y0090658D01*
X0040509Y0090927D01*
X0040240Y0091204D01*
X0039977Y0091487D01*
X0039720Y0091777D01*
X0039472Y0092073D01*
X0039230Y0092374D01*
X0038996Y0092682D01*
X0038770Y0092995D01*
X0038551Y0093314D01*
X0038340Y0093638D01*
X0038137Y0093967D01*
X0037943Y0094301D01*
X0037757Y0094639D01*
X0037579Y0094983D01*
X0037409Y0095330D01*
X0037248Y0095681D01*
X0037096Y0096037D01*
X0036952Y0096395D01*
X0036818Y0096758D01*
X0036692Y0097123D01*
X0036575Y0097492D01*
X0036467Y0097863D01*
X0036369Y0098237D01*
X0036280Y0098613D01*
X0036200Y0098991D01*
X0036129Y0099371D01*
X0036067Y0099752D01*
X0036015Y0100135D01*
X0035973Y0100519D01*
X0035940Y0100905D01*
X0035916Y0101290D01*
X0035902Y0101677D01*
X0035897Y0102063D01*
X0051645Y0133559D02*
X0051647Y0133712D01*
X0051653Y0133866D01*
X0051663Y0134019D01*
X0051677Y0134171D01*
X0051695Y0134324D01*
X0051717Y0134475D01*
X0051742Y0134626D01*
X0051772Y0134777D01*
X0051806Y0134927D01*
X0051843Y0135075D01*
X0051884Y0135223D01*
X0051929Y0135369D01*
X0051978Y0135515D01*
X0052031Y0135659D01*
X0052087Y0135801D01*
X0052147Y0135942D01*
X0052211Y0136082D01*
X0052278Y0136220D01*
X0052349Y0136356D01*
X0052424Y0136490D01*
X0052501Y0136622D01*
X0052583Y0136752D01*
X0052667Y0136880D01*
X0052755Y0137006D01*
X0052846Y0137129D01*
X0052940Y0137250D01*
X0053038Y0137368D01*
X0053138Y0137484D01*
X0053242Y0137597D01*
X0053348Y0137708D01*
X0053457Y0137816D01*
X0053569Y0137921D01*
X0053683Y0138022D01*
X0053801Y0138121D01*
X0053920Y0138217D01*
X0054042Y0138310D01*
X0054167Y0138399D01*
X0054294Y0138486D01*
X0054423Y0138568D01*
X0054554Y0138648D01*
X0054687Y0138724D01*
X0054822Y0138797D01*
X0054959Y0138866D01*
X0055098Y0138931D01*
X0055238Y0138993D01*
X0055380Y0139051D01*
X0055523Y0139106D01*
X0055668Y0139157D01*
X0055814Y0139204D01*
X0055961Y0139247D01*
X0056109Y0139286D01*
X0056258Y0139322D01*
X0056408Y0139353D01*
X0056559Y0139381D01*
X0056710Y0139405D01*
X0056863Y0139425D01*
X0057015Y0139441D01*
X0057168Y0139453D01*
X0057321Y0139461D01*
X0057474Y0139465D01*
X0057628Y0139465D01*
X0057781Y0139461D01*
X0057934Y0139453D01*
X0058087Y0139441D01*
X0058239Y0139425D01*
X0058392Y0139405D01*
X0058543Y0139381D01*
X0058694Y0139353D01*
X0058844Y0139322D01*
X0058993Y0139286D01*
X0059141Y0139247D01*
X0059288Y0139204D01*
X0059434Y0139157D01*
X0059579Y0139106D01*
X0059722Y0139051D01*
X0059864Y0138993D01*
X0060004Y0138931D01*
X0060143Y0138866D01*
X0060280Y0138797D01*
X0060415Y0138724D01*
X0060548Y0138648D01*
X0060679Y0138568D01*
X0060808Y0138486D01*
X0060935Y0138399D01*
X0061060Y0138310D01*
X0061182Y0138217D01*
X0061301Y0138121D01*
X0061419Y0138022D01*
X0061533Y0137921D01*
X0061645Y0137816D01*
X0061754Y0137708D01*
X0061860Y0137597D01*
X0061964Y0137484D01*
X0062064Y0137368D01*
X0062162Y0137250D01*
X0062256Y0137129D01*
X0062347Y0137006D01*
X0062435Y0136880D01*
X0062519Y0136752D01*
X0062601Y0136622D01*
X0062678Y0136490D01*
X0062753Y0136356D01*
X0062824Y0136220D01*
X0062891Y0136082D01*
X0062955Y0135942D01*
X0063015Y0135801D01*
X0063071Y0135659D01*
X0063124Y0135515D01*
X0063173Y0135369D01*
X0063218Y0135223D01*
X0063259Y0135075D01*
X0063296Y0134927D01*
X0063330Y0134777D01*
X0063360Y0134626D01*
X0063385Y0134475D01*
X0063407Y0134324D01*
X0063425Y0134171D01*
X0063439Y0134019D01*
X0063449Y0133866D01*
X0063455Y0133712D01*
X0063457Y0133559D01*
X0063455Y0133406D01*
X0063449Y0133252D01*
X0063439Y0133099D01*
X0063425Y0132947D01*
X0063407Y0132794D01*
X0063385Y0132643D01*
X0063360Y0132492D01*
X0063330Y0132341D01*
X0063296Y0132191D01*
X0063259Y0132043D01*
X0063218Y0131895D01*
X0063173Y0131749D01*
X0063124Y0131603D01*
X0063071Y0131459D01*
X0063015Y0131317D01*
X0062955Y0131176D01*
X0062891Y0131036D01*
X0062824Y0130898D01*
X0062753Y0130762D01*
X0062678Y0130628D01*
X0062601Y0130496D01*
X0062519Y0130366D01*
X0062435Y0130238D01*
X0062347Y0130112D01*
X0062256Y0129989D01*
X0062162Y0129868D01*
X0062064Y0129750D01*
X0061964Y0129634D01*
X0061860Y0129521D01*
X0061754Y0129410D01*
X0061645Y0129302D01*
X0061533Y0129197D01*
X0061419Y0129096D01*
X0061301Y0128997D01*
X0061182Y0128901D01*
X0061060Y0128808D01*
X0060935Y0128719D01*
X0060808Y0128632D01*
X0060679Y0128550D01*
X0060548Y0128470D01*
X0060415Y0128394D01*
X0060280Y0128321D01*
X0060143Y0128252D01*
X0060004Y0128187D01*
X0059864Y0128125D01*
X0059722Y0128067D01*
X0059579Y0128012D01*
X0059434Y0127961D01*
X0059288Y0127914D01*
X0059141Y0127871D01*
X0058993Y0127832D01*
X0058844Y0127796D01*
X0058694Y0127765D01*
X0058543Y0127737D01*
X0058392Y0127713D01*
X0058239Y0127693D01*
X0058087Y0127677D01*
X0057934Y0127665D01*
X0057781Y0127657D01*
X0057628Y0127653D01*
X0057474Y0127653D01*
X0057321Y0127657D01*
X0057168Y0127665D01*
X0057015Y0127677D01*
X0056863Y0127693D01*
X0056710Y0127713D01*
X0056559Y0127737D01*
X0056408Y0127765D01*
X0056258Y0127796D01*
X0056109Y0127832D01*
X0055961Y0127871D01*
X0055814Y0127914D01*
X0055668Y0127961D01*
X0055523Y0128012D01*
X0055380Y0128067D01*
X0055238Y0128125D01*
X0055098Y0128187D01*
X0054959Y0128252D01*
X0054822Y0128321D01*
X0054687Y0128394D01*
X0054554Y0128470D01*
X0054423Y0128550D01*
X0054294Y0128632D01*
X0054167Y0128719D01*
X0054042Y0128808D01*
X0053920Y0128901D01*
X0053801Y0128997D01*
X0053683Y0129096D01*
X0053569Y0129197D01*
X0053457Y0129302D01*
X0053348Y0129410D01*
X0053242Y0129521D01*
X0053138Y0129634D01*
X0053038Y0129750D01*
X0052940Y0129868D01*
X0052846Y0129989D01*
X0052755Y0130112D01*
X0052667Y0130238D01*
X0052583Y0130366D01*
X0052501Y0130496D01*
X0052424Y0130628D01*
X0052349Y0130762D01*
X0052278Y0130898D01*
X0052211Y0131036D01*
X0052147Y0131176D01*
X0052087Y0131317D01*
X0052031Y0131459D01*
X0051978Y0131603D01*
X0051929Y0131749D01*
X0051884Y0131895D01*
X0051843Y0132043D01*
X0051806Y0132191D01*
X0051772Y0132341D01*
X0051742Y0132492D01*
X0051717Y0132643D01*
X0051695Y0132794D01*
X0051677Y0132947D01*
X0051663Y0133099D01*
X0051653Y0133252D01*
X0051647Y0133406D01*
X0051645Y0133559D01*
X0300095Y0107683D02*
X0319780Y0107683D01*
X0319780Y0147053D01*
X0378835Y0147053D01*
X0378835Y0139179D01*
X0437890Y0139179D01*
X0437890Y0115557D01*
X0378835Y0115557D01*
X0378835Y0107683D01*
X0319780Y0107683D01*
X0300095Y0107683D02*
X0300095Y0221856D01*
X0378835Y0221856D01*
X0378835Y0147053D01*
X0378835Y0139179D02*
X0378835Y0115557D01*
X0353245Y0182486D02*
X0313875Y0182486D01*
X0313875Y0206108D01*
X0353245Y0206108D01*
X0353245Y0182486D01*
D15*
X0275469Y0240183D02*
X0275471Y0240341D01*
X0275477Y0240499D01*
X0275487Y0240657D01*
X0275501Y0240815D01*
X0275519Y0240972D01*
X0275540Y0241129D01*
X0275566Y0241285D01*
X0275596Y0241441D01*
X0275629Y0241596D01*
X0275667Y0241749D01*
X0275708Y0241902D01*
X0275753Y0242054D01*
X0275802Y0242205D01*
X0275855Y0242354D01*
X0275911Y0242502D01*
X0275971Y0242648D01*
X0276035Y0242793D01*
X0276103Y0242936D01*
X0276174Y0243078D01*
X0276248Y0243218D01*
X0276326Y0243355D01*
X0276408Y0243491D01*
X0276492Y0243625D01*
X0276581Y0243756D01*
X0276672Y0243885D01*
X0276767Y0244012D01*
X0276864Y0244137D01*
X0276965Y0244259D01*
X0277069Y0244378D01*
X0277176Y0244495D01*
X0277286Y0244609D01*
X0277399Y0244720D01*
X0277514Y0244829D01*
X0277632Y0244934D01*
X0277753Y0245036D01*
X0277876Y0245136D01*
X0278002Y0245232D01*
X0278130Y0245325D01*
X0278260Y0245415D01*
X0278393Y0245501D01*
X0278528Y0245585D01*
X0278664Y0245664D01*
X0278803Y0245741D01*
X0278944Y0245813D01*
X0279086Y0245883D01*
X0279230Y0245948D01*
X0279376Y0246010D01*
X0279523Y0246068D01*
X0279672Y0246123D01*
X0279822Y0246174D01*
X0279973Y0246221D01*
X0280125Y0246264D01*
X0280278Y0246303D01*
X0280433Y0246339D01*
X0280588Y0246370D01*
X0280744Y0246398D01*
X0280900Y0246422D01*
X0281057Y0246442D01*
X0281215Y0246458D01*
X0281372Y0246470D01*
X0281531Y0246478D01*
X0281689Y0246482D01*
X0281847Y0246482D01*
X0282005Y0246478D01*
X0282164Y0246470D01*
X0282321Y0246458D01*
X0282479Y0246442D01*
X0282636Y0246422D01*
X0282792Y0246398D01*
X0282948Y0246370D01*
X0283103Y0246339D01*
X0283258Y0246303D01*
X0283411Y0246264D01*
X0283563Y0246221D01*
X0283714Y0246174D01*
X0283864Y0246123D01*
X0284013Y0246068D01*
X0284160Y0246010D01*
X0284306Y0245948D01*
X0284450Y0245883D01*
X0284592Y0245813D01*
X0284733Y0245741D01*
X0284872Y0245664D01*
X0285008Y0245585D01*
X0285143Y0245501D01*
X0285276Y0245415D01*
X0285406Y0245325D01*
X0285534Y0245232D01*
X0285660Y0245136D01*
X0285783Y0245036D01*
X0285904Y0244934D01*
X0286022Y0244829D01*
X0286137Y0244720D01*
X0286250Y0244609D01*
X0286360Y0244495D01*
X0286467Y0244378D01*
X0286571Y0244259D01*
X0286672Y0244137D01*
X0286769Y0244012D01*
X0286864Y0243885D01*
X0286955Y0243756D01*
X0287044Y0243625D01*
X0287128Y0243491D01*
X0287210Y0243355D01*
X0287288Y0243218D01*
X0287362Y0243078D01*
X0287433Y0242936D01*
X0287501Y0242793D01*
X0287565Y0242648D01*
X0287625Y0242502D01*
X0287681Y0242354D01*
X0287734Y0242205D01*
X0287783Y0242054D01*
X0287828Y0241902D01*
X0287869Y0241749D01*
X0287907Y0241596D01*
X0287940Y0241441D01*
X0287970Y0241285D01*
X0287996Y0241129D01*
X0288017Y0240972D01*
X0288035Y0240815D01*
X0288049Y0240657D01*
X0288059Y0240499D01*
X0288065Y0240341D01*
X0288067Y0240183D01*
X0288065Y0240025D01*
X0288059Y0239867D01*
X0288049Y0239709D01*
X0288035Y0239551D01*
X0288017Y0239394D01*
X0287996Y0239237D01*
X0287970Y0239081D01*
X0287940Y0238925D01*
X0287907Y0238770D01*
X0287869Y0238617D01*
X0287828Y0238464D01*
X0287783Y0238312D01*
X0287734Y0238161D01*
X0287681Y0238012D01*
X0287625Y0237864D01*
X0287565Y0237718D01*
X0287501Y0237573D01*
X0287433Y0237430D01*
X0287362Y0237288D01*
X0287288Y0237148D01*
X0287210Y0237011D01*
X0287128Y0236875D01*
X0287044Y0236741D01*
X0286955Y0236610D01*
X0286864Y0236481D01*
X0286769Y0236354D01*
X0286672Y0236229D01*
X0286571Y0236107D01*
X0286467Y0235988D01*
X0286360Y0235871D01*
X0286250Y0235757D01*
X0286137Y0235646D01*
X0286022Y0235537D01*
X0285904Y0235432D01*
X0285783Y0235330D01*
X0285660Y0235230D01*
X0285534Y0235134D01*
X0285406Y0235041D01*
X0285276Y0234951D01*
X0285143Y0234865D01*
X0285008Y0234781D01*
X0284872Y0234702D01*
X0284733Y0234625D01*
X0284592Y0234553D01*
X0284450Y0234483D01*
X0284306Y0234418D01*
X0284160Y0234356D01*
X0284013Y0234298D01*
X0283864Y0234243D01*
X0283714Y0234192D01*
X0283563Y0234145D01*
X0283411Y0234102D01*
X0283258Y0234063D01*
X0283103Y0234027D01*
X0282948Y0233996D01*
X0282792Y0233968D01*
X0282636Y0233944D01*
X0282479Y0233924D01*
X0282321Y0233908D01*
X0282164Y0233896D01*
X0282005Y0233888D01*
X0281847Y0233884D01*
X0281689Y0233884D01*
X0281531Y0233888D01*
X0281372Y0233896D01*
X0281215Y0233908D01*
X0281057Y0233924D01*
X0280900Y0233944D01*
X0280744Y0233968D01*
X0280588Y0233996D01*
X0280433Y0234027D01*
X0280278Y0234063D01*
X0280125Y0234102D01*
X0279973Y0234145D01*
X0279822Y0234192D01*
X0279672Y0234243D01*
X0279523Y0234298D01*
X0279376Y0234356D01*
X0279230Y0234418D01*
X0279086Y0234483D01*
X0278944Y0234553D01*
X0278803Y0234625D01*
X0278664Y0234702D01*
X0278528Y0234781D01*
X0278393Y0234865D01*
X0278260Y0234951D01*
X0278130Y0235041D01*
X0278002Y0235134D01*
X0277876Y0235230D01*
X0277753Y0235330D01*
X0277632Y0235432D01*
X0277514Y0235537D01*
X0277399Y0235646D01*
X0277286Y0235757D01*
X0277176Y0235871D01*
X0277069Y0235988D01*
X0276965Y0236107D01*
X0276864Y0236229D01*
X0276767Y0236354D01*
X0276672Y0236481D01*
X0276581Y0236610D01*
X0276492Y0236741D01*
X0276408Y0236875D01*
X0276326Y0237011D01*
X0276248Y0237148D01*
X0276174Y0237288D01*
X0276103Y0237430D01*
X0276035Y0237573D01*
X0275971Y0237718D01*
X0275911Y0237864D01*
X0275855Y0238012D01*
X0275802Y0238161D01*
X0275753Y0238312D01*
X0275708Y0238464D01*
X0275667Y0238617D01*
X0275629Y0238770D01*
X0275596Y0238925D01*
X0275566Y0239081D01*
X0275540Y0239237D01*
X0275519Y0239394D01*
X0275501Y0239551D01*
X0275487Y0239709D01*
X0275477Y0239867D01*
X0275471Y0240025D01*
X0275469Y0240183D01*
X0047123Y0240183D02*
X0047125Y0240341D01*
X0047131Y0240499D01*
X0047141Y0240657D01*
X0047155Y0240815D01*
X0047173Y0240972D01*
X0047194Y0241129D01*
X0047220Y0241285D01*
X0047250Y0241441D01*
X0047283Y0241596D01*
X0047321Y0241749D01*
X0047362Y0241902D01*
X0047407Y0242054D01*
X0047456Y0242205D01*
X0047509Y0242354D01*
X0047565Y0242502D01*
X0047625Y0242648D01*
X0047689Y0242793D01*
X0047757Y0242936D01*
X0047828Y0243078D01*
X0047902Y0243218D01*
X0047980Y0243355D01*
X0048062Y0243491D01*
X0048146Y0243625D01*
X0048235Y0243756D01*
X0048326Y0243885D01*
X0048421Y0244012D01*
X0048518Y0244137D01*
X0048619Y0244259D01*
X0048723Y0244378D01*
X0048830Y0244495D01*
X0048940Y0244609D01*
X0049053Y0244720D01*
X0049168Y0244829D01*
X0049286Y0244934D01*
X0049407Y0245036D01*
X0049530Y0245136D01*
X0049656Y0245232D01*
X0049784Y0245325D01*
X0049914Y0245415D01*
X0050047Y0245501D01*
X0050182Y0245585D01*
X0050318Y0245664D01*
X0050457Y0245741D01*
X0050598Y0245813D01*
X0050740Y0245883D01*
X0050884Y0245948D01*
X0051030Y0246010D01*
X0051177Y0246068D01*
X0051326Y0246123D01*
X0051476Y0246174D01*
X0051627Y0246221D01*
X0051779Y0246264D01*
X0051932Y0246303D01*
X0052087Y0246339D01*
X0052242Y0246370D01*
X0052398Y0246398D01*
X0052554Y0246422D01*
X0052711Y0246442D01*
X0052869Y0246458D01*
X0053026Y0246470D01*
X0053185Y0246478D01*
X0053343Y0246482D01*
X0053501Y0246482D01*
X0053659Y0246478D01*
X0053818Y0246470D01*
X0053975Y0246458D01*
X0054133Y0246442D01*
X0054290Y0246422D01*
X0054446Y0246398D01*
X0054602Y0246370D01*
X0054757Y0246339D01*
X0054912Y0246303D01*
X0055065Y0246264D01*
X0055217Y0246221D01*
X0055368Y0246174D01*
X0055518Y0246123D01*
X0055667Y0246068D01*
X0055814Y0246010D01*
X0055960Y0245948D01*
X0056104Y0245883D01*
X0056246Y0245813D01*
X0056387Y0245741D01*
X0056526Y0245664D01*
X0056662Y0245585D01*
X0056797Y0245501D01*
X0056930Y0245415D01*
X0057060Y0245325D01*
X0057188Y0245232D01*
X0057314Y0245136D01*
X0057437Y0245036D01*
X0057558Y0244934D01*
X0057676Y0244829D01*
X0057791Y0244720D01*
X0057904Y0244609D01*
X0058014Y0244495D01*
X0058121Y0244378D01*
X0058225Y0244259D01*
X0058326Y0244137D01*
X0058423Y0244012D01*
X0058518Y0243885D01*
X0058609Y0243756D01*
X0058698Y0243625D01*
X0058782Y0243491D01*
X0058864Y0243355D01*
X0058942Y0243218D01*
X0059016Y0243078D01*
X0059087Y0242936D01*
X0059155Y0242793D01*
X0059219Y0242648D01*
X0059279Y0242502D01*
X0059335Y0242354D01*
X0059388Y0242205D01*
X0059437Y0242054D01*
X0059482Y0241902D01*
X0059523Y0241749D01*
X0059561Y0241596D01*
X0059594Y0241441D01*
X0059624Y0241285D01*
X0059650Y0241129D01*
X0059671Y0240972D01*
X0059689Y0240815D01*
X0059703Y0240657D01*
X0059713Y0240499D01*
X0059719Y0240341D01*
X0059721Y0240183D01*
X0059719Y0240025D01*
X0059713Y0239867D01*
X0059703Y0239709D01*
X0059689Y0239551D01*
X0059671Y0239394D01*
X0059650Y0239237D01*
X0059624Y0239081D01*
X0059594Y0238925D01*
X0059561Y0238770D01*
X0059523Y0238617D01*
X0059482Y0238464D01*
X0059437Y0238312D01*
X0059388Y0238161D01*
X0059335Y0238012D01*
X0059279Y0237864D01*
X0059219Y0237718D01*
X0059155Y0237573D01*
X0059087Y0237430D01*
X0059016Y0237288D01*
X0058942Y0237148D01*
X0058864Y0237011D01*
X0058782Y0236875D01*
X0058698Y0236741D01*
X0058609Y0236610D01*
X0058518Y0236481D01*
X0058423Y0236354D01*
X0058326Y0236229D01*
X0058225Y0236107D01*
X0058121Y0235988D01*
X0058014Y0235871D01*
X0057904Y0235757D01*
X0057791Y0235646D01*
X0057676Y0235537D01*
X0057558Y0235432D01*
X0057437Y0235330D01*
X0057314Y0235230D01*
X0057188Y0235134D01*
X0057060Y0235041D01*
X0056930Y0234951D01*
X0056797Y0234865D01*
X0056662Y0234781D01*
X0056526Y0234702D01*
X0056387Y0234625D01*
X0056246Y0234553D01*
X0056104Y0234483D01*
X0055960Y0234418D01*
X0055814Y0234356D01*
X0055667Y0234298D01*
X0055518Y0234243D01*
X0055368Y0234192D01*
X0055217Y0234145D01*
X0055065Y0234102D01*
X0054912Y0234063D01*
X0054757Y0234027D01*
X0054602Y0233996D01*
X0054446Y0233968D01*
X0054290Y0233944D01*
X0054133Y0233924D01*
X0053975Y0233908D01*
X0053818Y0233896D01*
X0053659Y0233888D01*
X0053501Y0233884D01*
X0053343Y0233884D01*
X0053185Y0233888D01*
X0053026Y0233896D01*
X0052869Y0233908D01*
X0052711Y0233924D01*
X0052554Y0233944D01*
X0052398Y0233968D01*
X0052242Y0233996D01*
X0052087Y0234027D01*
X0051932Y0234063D01*
X0051779Y0234102D01*
X0051627Y0234145D01*
X0051476Y0234192D01*
X0051326Y0234243D01*
X0051177Y0234298D01*
X0051030Y0234356D01*
X0050884Y0234418D01*
X0050740Y0234483D01*
X0050598Y0234553D01*
X0050457Y0234625D01*
X0050318Y0234702D01*
X0050182Y0234781D01*
X0050047Y0234865D01*
X0049914Y0234951D01*
X0049784Y0235041D01*
X0049656Y0235134D01*
X0049530Y0235230D01*
X0049407Y0235330D01*
X0049286Y0235432D01*
X0049168Y0235537D01*
X0049053Y0235646D01*
X0048940Y0235757D01*
X0048830Y0235871D01*
X0048723Y0235988D01*
X0048619Y0236107D01*
X0048518Y0236229D01*
X0048421Y0236354D01*
X0048326Y0236481D01*
X0048235Y0236610D01*
X0048146Y0236741D01*
X0048062Y0236875D01*
X0047980Y0237011D01*
X0047902Y0237148D01*
X0047828Y0237288D01*
X0047757Y0237430D01*
X0047689Y0237573D01*
X0047625Y0237718D01*
X0047565Y0237864D01*
X0047509Y0238012D01*
X0047456Y0238161D01*
X0047407Y0238312D01*
X0047362Y0238464D01*
X0047321Y0238617D01*
X0047283Y0238770D01*
X0047250Y0238925D01*
X0047220Y0239081D01*
X0047194Y0239237D01*
X0047173Y0239394D01*
X0047155Y0239551D01*
X0047141Y0239709D01*
X0047131Y0239867D01*
X0047125Y0240025D01*
X0047123Y0240183D01*
X0262772Y0120183D02*
X0262777Y0120608D01*
X0262793Y0121033D01*
X0262819Y0121457D01*
X0262855Y0121881D01*
X0262902Y0122304D01*
X0262959Y0122725D01*
X0263027Y0123145D01*
X0263105Y0123563D01*
X0263193Y0123978D01*
X0263291Y0124392D01*
X0263400Y0124803D01*
X0263518Y0125212D01*
X0263646Y0125617D01*
X0263785Y0126019D01*
X0263933Y0126417D01*
X0264091Y0126812D01*
X0264258Y0127203D01*
X0264435Y0127590D01*
X0264622Y0127972D01*
X0264817Y0128349D01*
X0265022Y0128721D01*
X0265237Y0129089D01*
X0265460Y0129451D01*
X0265691Y0129807D01*
X0265932Y0130158D01*
X0266181Y0130502D01*
X0266438Y0130841D01*
X0266704Y0131173D01*
X0266978Y0131498D01*
X0267260Y0131816D01*
X0267549Y0132128D01*
X0267846Y0132432D01*
X0268150Y0132729D01*
X0268462Y0133018D01*
X0268780Y0133300D01*
X0269105Y0133574D01*
X0269437Y0133840D01*
X0269776Y0134097D01*
X0270120Y0134346D01*
X0270471Y0134587D01*
X0270827Y0134818D01*
X0271189Y0135041D01*
X0271557Y0135256D01*
X0271929Y0135461D01*
X0272306Y0135656D01*
X0272688Y0135843D01*
X0273075Y0136020D01*
X0273466Y0136187D01*
X0273861Y0136345D01*
X0274259Y0136493D01*
X0274661Y0136632D01*
X0275066Y0136760D01*
X0275475Y0136878D01*
X0275886Y0136987D01*
X0276300Y0137085D01*
X0276715Y0137173D01*
X0277133Y0137251D01*
X0277553Y0137319D01*
X0277974Y0137376D01*
X0278397Y0137423D01*
X0278821Y0137459D01*
X0279245Y0137485D01*
X0279670Y0137501D01*
X0280095Y0137506D01*
X0280520Y0137501D01*
X0280945Y0137485D01*
X0281369Y0137459D01*
X0281793Y0137423D01*
X0282216Y0137376D01*
X0282637Y0137319D01*
X0283057Y0137251D01*
X0283475Y0137173D01*
X0283890Y0137085D01*
X0284304Y0136987D01*
X0284715Y0136878D01*
X0285124Y0136760D01*
X0285529Y0136632D01*
X0285931Y0136493D01*
X0286329Y0136345D01*
X0286724Y0136187D01*
X0287115Y0136020D01*
X0287502Y0135843D01*
X0287884Y0135656D01*
X0288261Y0135461D01*
X0288633Y0135256D01*
X0289001Y0135041D01*
X0289363Y0134818D01*
X0289719Y0134587D01*
X0290070Y0134346D01*
X0290414Y0134097D01*
X0290753Y0133840D01*
X0291085Y0133574D01*
X0291410Y0133300D01*
X0291728Y0133018D01*
X0292040Y0132729D01*
X0292344Y0132432D01*
X0292641Y0132128D01*
X0292930Y0131816D01*
X0293212Y0131498D01*
X0293486Y0131173D01*
X0293752Y0130841D01*
X0294009Y0130502D01*
X0294258Y0130158D01*
X0294499Y0129807D01*
X0294730Y0129451D01*
X0294953Y0129089D01*
X0295168Y0128721D01*
X0295373Y0128349D01*
X0295568Y0127972D01*
X0295755Y0127590D01*
X0295932Y0127203D01*
X0296099Y0126812D01*
X0296257Y0126417D01*
X0296405Y0126019D01*
X0296544Y0125617D01*
X0296672Y0125212D01*
X0296790Y0124803D01*
X0296899Y0124392D01*
X0296997Y0123978D01*
X0297085Y0123563D01*
X0297163Y0123145D01*
X0297231Y0122725D01*
X0297288Y0122304D01*
X0297335Y0121881D01*
X0297371Y0121457D01*
X0297397Y0121033D01*
X0297413Y0120608D01*
X0297418Y0120183D01*
X0297413Y0119758D01*
X0297397Y0119333D01*
X0297371Y0118909D01*
X0297335Y0118485D01*
X0297288Y0118062D01*
X0297231Y0117641D01*
X0297163Y0117221D01*
X0297085Y0116803D01*
X0296997Y0116388D01*
X0296899Y0115974D01*
X0296790Y0115563D01*
X0296672Y0115154D01*
X0296544Y0114749D01*
X0296405Y0114347D01*
X0296257Y0113949D01*
X0296099Y0113554D01*
X0295932Y0113163D01*
X0295755Y0112776D01*
X0295568Y0112394D01*
X0295373Y0112017D01*
X0295168Y0111645D01*
X0294953Y0111277D01*
X0294730Y0110915D01*
X0294499Y0110559D01*
X0294258Y0110208D01*
X0294009Y0109864D01*
X0293752Y0109525D01*
X0293486Y0109193D01*
X0293212Y0108868D01*
X0292930Y0108550D01*
X0292641Y0108238D01*
X0292344Y0107934D01*
X0292040Y0107637D01*
X0291728Y0107348D01*
X0291410Y0107066D01*
X0291085Y0106792D01*
X0290753Y0106526D01*
X0290414Y0106269D01*
X0290070Y0106020D01*
X0289719Y0105779D01*
X0289363Y0105548D01*
X0289001Y0105325D01*
X0288633Y0105110D01*
X0288261Y0104905D01*
X0287884Y0104710D01*
X0287502Y0104523D01*
X0287115Y0104346D01*
X0286724Y0104179D01*
X0286329Y0104021D01*
X0285931Y0103873D01*
X0285529Y0103734D01*
X0285124Y0103606D01*
X0284715Y0103488D01*
X0284304Y0103379D01*
X0283890Y0103281D01*
X0283475Y0103193D01*
X0283057Y0103115D01*
X0282637Y0103047D01*
X0282216Y0102990D01*
X0281793Y0102943D01*
X0281369Y0102907D01*
X0280945Y0102881D01*
X0280520Y0102865D01*
X0280095Y0102860D01*
X0279670Y0102865D01*
X0279245Y0102881D01*
X0278821Y0102907D01*
X0278397Y0102943D01*
X0277974Y0102990D01*
X0277553Y0103047D01*
X0277133Y0103115D01*
X0276715Y0103193D01*
X0276300Y0103281D01*
X0275886Y0103379D01*
X0275475Y0103488D01*
X0275066Y0103606D01*
X0274661Y0103734D01*
X0274259Y0103873D01*
X0273861Y0104021D01*
X0273466Y0104179D01*
X0273075Y0104346D01*
X0272688Y0104523D01*
X0272306Y0104710D01*
X0271929Y0104905D01*
X0271557Y0105110D01*
X0271189Y0105325D01*
X0270827Y0105548D01*
X0270471Y0105779D01*
X0270120Y0106020D01*
X0269776Y0106269D01*
X0269437Y0106526D01*
X0269105Y0106792D01*
X0268780Y0107066D01*
X0268462Y0107348D01*
X0268150Y0107637D01*
X0267846Y0107934D01*
X0267549Y0108238D01*
X0267260Y0108550D01*
X0266978Y0108868D01*
X0266704Y0109193D01*
X0266438Y0109525D01*
X0266181Y0109864D01*
X0265932Y0110208D01*
X0265691Y0110559D01*
X0265460Y0110915D01*
X0265237Y0111277D01*
X0265022Y0111645D01*
X0264817Y0112017D01*
X0264622Y0112394D01*
X0264435Y0112776D01*
X0264258Y0113163D01*
X0264091Y0113554D01*
X0263933Y0113949D01*
X0263785Y0114347D01*
X0263646Y0114749D01*
X0263518Y0115154D01*
X0263400Y0115563D01*
X0263291Y0115974D01*
X0263193Y0116388D01*
X0263105Y0116803D01*
X0263027Y0117221D01*
X0262959Y0117641D01*
X0262902Y0118062D01*
X0262855Y0118485D01*
X0262819Y0118909D01*
X0262793Y0119333D01*
X0262777Y0119758D01*
X0262772Y0120183D01*
X0204022Y0101433D02*
X0204027Y0101858D01*
X0204043Y0102283D01*
X0204069Y0102707D01*
X0204105Y0103131D01*
X0204152Y0103554D01*
X0204209Y0103975D01*
X0204277Y0104395D01*
X0204355Y0104813D01*
X0204443Y0105228D01*
X0204541Y0105642D01*
X0204650Y0106053D01*
X0204768Y0106462D01*
X0204896Y0106867D01*
X0205035Y0107269D01*
X0205183Y0107667D01*
X0205341Y0108062D01*
X0205508Y0108453D01*
X0205685Y0108840D01*
X0205872Y0109222D01*
X0206067Y0109599D01*
X0206272Y0109971D01*
X0206487Y0110339D01*
X0206710Y0110701D01*
X0206941Y0111057D01*
X0207182Y0111408D01*
X0207431Y0111752D01*
X0207688Y0112091D01*
X0207954Y0112423D01*
X0208228Y0112748D01*
X0208510Y0113066D01*
X0208799Y0113378D01*
X0209096Y0113682D01*
X0209400Y0113979D01*
X0209712Y0114268D01*
X0210030Y0114550D01*
X0210355Y0114824D01*
X0210687Y0115090D01*
X0211026Y0115347D01*
X0211370Y0115596D01*
X0211721Y0115837D01*
X0212077Y0116068D01*
X0212439Y0116291D01*
X0212807Y0116506D01*
X0213179Y0116711D01*
X0213556Y0116906D01*
X0213938Y0117093D01*
X0214325Y0117270D01*
X0214716Y0117437D01*
X0215111Y0117595D01*
X0215509Y0117743D01*
X0215911Y0117882D01*
X0216316Y0118010D01*
X0216725Y0118128D01*
X0217136Y0118237D01*
X0217550Y0118335D01*
X0217965Y0118423D01*
X0218383Y0118501D01*
X0218803Y0118569D01*
X0219224Y0118626D01*
X0219647Y0118673D01*
X0220071Y0118709D01*
X0220495Y0118735D01*
X0220920Y0118751D01*
X0221345Y0118756D01*
X0221770Y0118751D01*
X0222195Y0118735D01*
X0222619Y0118709D01*
X0223043Y0118673D01*
X0223466Y0118626D01*
X0223887Y0118569D01*
X0224307Y0118501D01*
X0224725Y0118423D01*
X0225140Y0118335D01*
X0225554Y0118237D01*
X0225965Y0118128D01*
X0226374Y0118010D01*
X0226779Y0117882D01*
X0227181Y0117743D01*
X0227579Y0117595D01*
X0227974Y0117437D01*
X0228365Y0117270D01*
X0228752Y0117093D01*
X0229134Y0116906D01*
X0229511Y0116711D01*
X0229883Y0116506D01*
X0230251Y0116291D01*
X0230613Y0116068D01*
X0230969Y0115837D01*
X0231320Y0115596D01*
X0231664Y0115347D01*
X0232003Y0115090D01*
X0232335Y0114824D01*
X0232660Y0114550D01*
X0232978Y0114268D01*
X0233290Y0113979D01*
X0233594Y0113682D01*
X0233891Y0113378D01*
X0234180Y0113066D01*
X0234462Y0112748D01*
X0234736Y0112423D01*
X0235002Y0112091D01*
X0235259Y0111752D01*
X0235508Y0111408D01*
X0235749Y0111057D01*
X0235980Y0110701D01*
X0236203Y0110339D01*
X0236418Y0109971D01*
X0236623Y0109599D01*
X0236818Y0109222D01*
X0237005Y0108840D01*
X0237182Y0108453D01*
X0237349Y0108062D01*
X0237507Y0107667D01*
X0237655Y0107269D01*
X0237794Y0106867D01*
X0237922Y0106462D01*
X0238040Y0106053D01*
X0238149Y0105642D01*
X0238247Y0105228D01*
X0238335Y0104813D01*
X0238413Y0104395D01*
X0238481Y0103975D01*
X0238538Y0103554D01*
X0238585Y0103131D01*
X0238621Y0102707D01*
X0238647Y0102283D01*
X0238663Y0101858D01*
X0238668Y0101433D01*
X0238663Y0101008D01*
X0238647Y0100583D01*
X0238621Y0100159D01*
X0238585Y0099735D01*
X0238538Y0099312D01*
X0238481Y0098891D01*
X0238413Y0098471D01*
X0238335Y0098053D01*
X0238247Y0097638D01*
X0238149Y0097224D01*
X0238040Y0096813D01*
X0237922Y0096404D01*
X0237794Y0095999D01*
X0237655Y0095597D01*
X0237507Y0095199D01*
X0237349Y0094804D01*
X0237182Y0094413D01*
X0237005Y0094026D01*
X0236818Y0093644D01*
X0236623Y0093267D01*
X0236418Y0092895D01*
X0236203Y0092527D01*
X0235980Y0092165D01*
X0235749Y0091809D01*
X0235508Y0091458D01*
X0235259Y0091114D01*
X0235002Y0090775D01*
X0234736Y0090443D01*
X0234462Y0090118D01*
X0234180Y0089800D01*
X0233891Y0089488D01*
X0233594Y0089184D01*
X0233290Y0088887D01*
X0232978Y0088598D01*
X0232660Y0088316D01*
X0232335Y0088042D01*
X0232003Y0087776D01*
X0231664Y0087519D01*
X0231320Y0087270D01*
X0230969Y0087029D01*
X0230613Y0086798D01*
X0230251Y0086575D01*
X0229883Y0086360D01*
X0229511Y0086155D01*
X0229134Y0085960D01*
X0228752Y0085773D01*
X0228365Y0085596D01*
X0227974Y0085429D01*
X0227579Y0085271D01*
X0227181Y0085123D01*
X0226779Y0084984D01*
X0226374Y0084856D01*
X0225965Y0084738D01*
X0225554Y0084629D01*
X0225140Y0084531D01*
X0224725Y0084443D01*
X0224307Y0084365D01*
X0223887Y0084297D01*
X0223466Y0084240D01*
X0223043Y0084193D01*
X0222619Y0084157D01*
X0222195Y0084131D01*
X0221770Y0084115D01*
X0221345Y0084110D01*
X0220920Y0084115D01*
X0220495Y0084131D01*
X0220071Y0084157D01*
X0219647Y0084193D01*
X0219224Y0084240D01*
X0218803Y0084297D01*
X0218383Y0084365D01*
X0217965Y0084443D01*
X0217550Y0084531D01*
X0217136Y0084629D01*
X0216725Y0084738D01*
X0216316Y0084856D01*
X0215911Y0084984D01*
X0215509Y0085123D01*
X0215111Y0085271D01*
X0214716Y0085429D01*
X0214325Y0085596D01*
X0213938Y0085773D01*
X0213556Y0085960D01*
X0213179Y0086155D01*
X0212807Y0086360D01*
X0212439Y0086575D01*
X0212077Y0086798D01*
X0211721Y0087029D01*
X0211370Y0087270D01*
X0211026Y0087519D01*
X0210687Y0087776D01*
X0210355Y0088042D01*
X0210030Y0088316D01*
X0209712Y0088598D01*
X0209400Y0088887D01*
X0209096Y0089184D01*
X0208799Y0089488D01*
X0208510Y0089800D01*
X0208228Y0090118D01*
X0207954Y0090443D01*
X0207688Y0090775D01*
X0207431Y0091114D01*
X0207182Y0091458D01*
X0206941Y0091809D01*
X0206710Y0092165D01*
X0206487Y0092527D01*
X0206272Y0092895D01*
X0206067Y0093267D01*
X0205872Y0093644D01*
X0205685Y0094026D01*
X0205508Y0094413D01*
X0205341Y0094804D01*
X0205183Y0095199D01*
X0205035Y0095597D01*
X0204896Y0095999D01*
X0204768Y0096404D01*
X0204650Y0096813D01*
X0204541Y0097224D01*
X0204443Y0097638D01*
X0204355Y0098053D01*
X0204277Y0098471D01*
X0204209Y0098891D01*
X0204152Y0099312D01*
X0204105Y0099735D01*
X0204069Y0100159D01*
X0204043Y0100583D01*
X0204027Y0101008D01*
X0204022Y0101433D01*
D16*
X0279839Y0147248D02*
X0281535Y0145552D01*
X0284009Y0147570D01*
X0285005Y0147056D01*
X0286418Y0150466D01*
X0285886Y0150751D01*
X0285420Y0151133D01*
X0285038Y0151599D01*
X0284753Y0152131D01*
X0284578Y0152708D01*
X0284519Y0153308D01*
X0284584Y0153936D01*
X0284776Y0154538D01*
X0285086Y0155088D01*
X0285503Y0155563D01*
X0286008Y0155943D01*
X0286579Y0156211D01*
X0287194Y0156358D01*
X0287825Y0156375D01*
X0288447Y0156264D01*
X0289032Y0156028D01*
X0289557Y0155677D01*
X0290000Y0155226D01*
X0290341Y0154694D01*
X0290566Y0154104D01*
X0290666Y0153481D01*
X0290637Y0152850D01*
X0290479Y0152238D01*
X0290200Y0151672D01*
X0289810Y0151174D01*
X0289328Y0150767D01*
X0288772Y0150466D01*
X0290185Y0147056D01*
X0291181Y0147570D01*
X0293655Y0145552D01*
X0295351Y0147248D01*
X0293334Y0149722D01*
X0293847Y0150719D01*
X0294188Y0151786D01*
X0297364Y0152108D01*
X0297364Y0154508D01*
X0294188Y0154830D01*
X0293847Y0155898D01*
X0293334Y0156894D01*
X0295351Y0159368D01*
X0293655Y0161064D01*
X0291181Y0159047D01*
X0290185Y0159560D01*
X0289117Y0159901D01*
X0288795Y0163077D01*
X0286396Y0163077D01*
X0286073Y0159901D01*
X0285006Y0159560D01*
X0284009Y0159047D01*
X0281535Y0161064D01*
X0279839Y0159368D01*
X0281857Y0156894D01*
X0281343Y0155898D01*
X0281002Y0154830D01*
X0277826Y0154508D01*
X0277826Y0152108D01*
X0281002Y0151786D01*
X0281343Y0150719D01*
X0281857Y0149722D01*
X0279839Y0147248D01*
X0279867Y0147221D02*
X0283581Y0147221D01*
X0282859Y0146632D02*
X0280456Y0146632D01*
X0281045Y0146042D02*
X0282137Y0146042D01*
X0280297Y0147810D02*
X0285318Y0147810D01*
X0285562Y0148399D02*
X0280777Y0148399D01*
X0281258Y0148988D02*
X0285806Y0148988D01*
X0286050Y0149577D02*
X0281738Y0149577D01*
X0281628Y0150166D02*
X0286294Y0150166D01*
X0285881Y0150755D02*
X0281332Y0150755D01*
X0281143Y0151344D02*
X0285247Y0151344D01*
X0284859Y0151933D02*
X0279553Y0151933D01*
X0277826Y0152522D02*
X0284635Y0152522D01*
X0284539Y0153111D02*
X0277826Y0153111D01*
X0277826Y0153700D02*
X0284560Y0153700D01*
X0284697Y0154289D02*
X0277826Y0154289D01*
X0281017Y0154878D02*
X0284968Y0154878D01*
X0285419Y0155467D02*
X0281206Y0155467D01*
X0281425Y0156057D02*
X0286250Y0156057D01*
X0288961Y0156057D02*
X0293765Y0156057D01*
X0293984Y0155467D02*
X0289763Y0155467D01*
X0290223Y0154878D02*
X0294173Y0154878D01*
X0293462Y0156646D02*
X0281729Y0156646D01*
X0281579Y0157235D02*
X0293612Y0157235D01*
X0294092Y0157824D02*
X0281098Y0157824D01*
X0280618Y0158413D02*
X0294572Y0158413D01*
X0295053Y0159002D02*
X0280138Y0159002D01*
X0280062Y0159591D02*
X0283342Y0159591D01*
X0282619Y0160180D02*
X0280651Y0160180D01*
X0281240Y0160769D02*
X0281897Y0160769D01*
X0285103Y0159591D02*
X0290087Y0159591D01*
X0289089Y0160180D02*
X0286101Y0160180D01*
X0286161Y0160769D02*
X0289029Y0160769D01*
X0288969Y0161358D02*
X0286221Y0161358D01*
X0286281Y0161947D02*
X0288910Y0161947D01*
X0288850Y0162536D02*
X0286341Y0162536D01*
X0291848Y0159591D02*
X0295128Y0159591D01*
X0294539Y0160180D02*
X0292571Y0160180D01*
X0293293Y0160769D02*
X0293950Y0160769D01*
X0297364Y0154289D02*
X0290496Y0154289D01*
X0290631Y0153700D02*
X0297364Y0153700D01*
X0297364Y0153111D02*
X0290649Y0153111D01*
X0290552Y0152522D02*
X0297364Y0152522D01*
X0295637Y0151933D02*
X0290329Y0151933D01*
X0289943Y0151344D02*
X0294047Y0151344D01*
X0293858Y0150755D02*
X0289306Y0150755D01*
X0288897Y0150166D02*
X0293562Y0150166D01*
X0293452Y0149577D02*
X0289141Y0149577D01*
X0289385Y0148988D02*
X0293933Y0148988D01*
X0294413Y0148399D02*
X0289629Y0148399D01*
X0289873Y0147810D02*
X0294893Y0147810D01*
X0295323Y0147221D02*
X0291609Y0147221D01*
X0292331Y0146632D02*
X0294734Y0146632D01*
X0294145Y0146042D02*
X0293054Y0146042D01*
X0290504Y0147221D02*
X0290117Y0147221D01*
X0285074Y0147221D02*
X0284686Y0147221D01*
M02*
