G75*
%MOIN*%
%OFA0B0*%
%FSLAX25Y25*%
%IPPOS*%
%LPD*%
%AMOC8*
5,1,8,0,0,1.08239X$1,22.5*
%
%ADD10C,0.01000*%
%ADD11C,0.06400*%
%ADD12OC8,0.06400*%
%ADD13C,0.06400*%
%ADD14OC8,0.09400*%
%ADD15R,0.15900X0.15900*%
%ADD16C,0.10400*%
%ADD17C,0.07400*%
%ADD18C,0.06000*%
%ADD19C,0.23400*%
D10*
X0037595Y0057683D02*
X0032595Y0062683D01*
X0032595Y0247683D01*
X0037595Y0252683D01*
X0330095Y0252683D01*
X0335095Y0247683D01*
X0335095Y0062683D01*
X0330095Y0057683D01*
X0037595Y0057683D01*
D11*
X0208845Y0126433D03*
X0192595Y0200183D03*
D12*
X0202595Y0200183D03*
X0212595Y0200183D03*
X0212595Y0210183D03*
X0202595Y0210183D03*
X0192595Y0210183D03*
X0192595Y0235183D03*
X0202595Y0235183D03*
X0212595Y0235183D03*
X0222595Y0235183D03*
X0232595Y0235183D03*
X0232595Y0245183D03*
X0222595Y0245183D03*
X0212595Y0245183D03*
X0202595Y0245183D03*
X0192595Y0245183D03*
X0182595Y0245183D03*
X0172595Y0245183D03*
X0162595Y0245183D03*
X0152595Y0245183D03*
X0142595Y0245183D03*
X0132595Y0245183D03*
X0122595Y0245183D03*
X0112595Y0245183D03*
X0102595Y0245183D03*
X0092595Y0245183D03*
X0082595Y0245183D03*
X0072595Y0245183D03*
X0072595Y0235183D03*
X0082595Y0235183D03*
X0092595Y0235183D03*
X0102595Y0235183D03*
X0112595Y0235183D03*
X0122595Y0235183D03*
X0132595Y0235183D03*
X0142595Y0235183D03*
X0152595Y0235183D03*
X0162595Y0235183D03*
X0172595Y0235183D03*
X0182595Y0235183D03*
X0242595Y0235183D03*
X0252595Y0235183D03*
X0262595Y0235183D03*
X0262595Y0245183D03*
X0252595Y0245183D03*
X0242595Y0245183D03*
X0228845Y0136433D03*
X0218845Y0136433D03*
X0208845Y0136433D03*
X0218845Y0126433D03*
X0228845Y0126433D03*
D13*
X0284595Y0095183D02*
X0290595Y0095183D01*
X0290595Y0085183D02*
X0284595Y0085183D01*
X0284595Y0075183D02*
X0290595Y0075183D01*
X0290595Y0065183D02*
X0284595Y0065183D01*
X0043095Y0150183D02*
X0037095Y0150183D01*
X0037095Y0160183D02*
X0043095Y0160183D01*
X0043095Y0170183D02*
X0037095Y0170183D01*
X0037095Y0180183D02*
X0043095Y0180183D01*
X0043095Y0190183D02*
X0037095Y0190183D01*
X0037095Y0200183D02*
X0043095Y0200183D01*
X0043095Y0210183D02*
X0037095Y0210183D01*
X0037095Y0220183D02*
X0043095Y0220183D01*
X0092595Y0223183D02*
X0092595Y0217183D01*
X0102595Y0217183D02*
X0102595Y0223183D01*
X0112595Y0223183D02*
X0112595Y0217183D01*
X0122595Y0217183D02*
X0122595Y0223183D01*
X0132595Y0223183D02*
X0132595Y0217183D01*
X0142595Y0217183D02*
X0142595Y0223183D01*
X0152595Y0223183D02*
X0152595Y0217183D01*
X0162595Y0217183D02*
X0162595Y0223183D01*
X0172595Y0223183D02*
X0172595Y0217183D01*
X0182595Y0217183D02*
X0182595Y0223183D01*
X0192595Y0223183D02*
X0192595Y0217183D01*
X0202595Y0217183D02*
X0202595Y0223183D01*
X0212595Y0223183D02*
X0212595Y0217183D01*
X0222595Y0217183D02*
X0222595Y0223183D01*
X0257095Y0212683D02*
X0263095Y0212683D01*
X0280845Y0212683D02*
X0286845Y0212683D01*
X0286845Y0202683D02*
X0280845Y0202683D01*
X0280845Y0192683D02*
X0286845Y0192683D01*
X0286845Y0182683D02*
X0280845Y0182683D01*
X0263095Y0182683D02*
X0257095Y0182683D01*
X0257095Y0192683D02*
X0263095Y0192683D01*
X0263095Y0202683D02*
X0257095Y0202683D01*
X0302095Y0235183D02*
X0308095Y0235183D01*
X0308095Y0245183D02*
X0302095Y0245183D01*
X0162433Y0195578D02*
X0162433Y0189578D01*
X0152590Y0189578D02*
X0152590Y0195578D01*
X0142748Y0195578D02*
X0142748Y0189578D01*
X0132595Y0189683D02*
X0132595Y0195683D01*
X0122595Y0195683D02*
X0122595Y0189683D01*
X0112595Y0189683D02*
X0112595Y0195683D01*
X0102595Y0195683D02*
X0102595Y0189683D01*
X0092595Y0189683D02*
X0092595Y0195683D01*
D14*
X0212595Y0065183D03*
X0230095Y0065183D03*
D15*
X0251345Y0086433D03*
X0268845Y0086433D03*
X0263845Y0151433D03*
X0246345Y0151433D03*
D16*
X0196134Y0134346D03*
X0196134Y0065843D03*
X0041015Y0065843D03*
X0041015Y0134346D03*
D17*
X0305095Y0132683D03*
X0305095Y0122683D03*
X0305095Y0112683D03*
X0305095Y0152683D03*
X0305095Y0162683D03*
X0305095Y0182683D03*
X0305095Y0192683D03*
X0305095Y0202683D03*
X0305095Y0212683D03*
D18*
X0280095Y0130026D03*
X0280095Y0110341D03*
X0231188Y0101433D03*
X0211503Y0101433D03*
D19*
X0281768Y0240183D03*
X0053422Y0240183D03*
M02*
