%
M48
M72
T01C0.01575
T02C0.03150
T03C0.03543
T04C0.04000
T05C0.05906
T06C0.11811
%
T01
X91970Y122058
X202595Y240183
X177595Y235183
X213845Y176433
X221345Y195183
X75095Y240183
X87595Y230183
X117595Y226433
X40095Y227683
X62595Y227683
X65095Y210183
X85095Y207683
X77595Y195183
X97595Y182683
X107595Y186433
X96345Y212683
X55095Y203308
X46345Y195808
X50095Y178308
X50095Y165808
X50095Y155183
X50095Y133933
X45095Y123933
X75095Y123933
X75095Y133933
X72595Y163933
X87595Y182683
X106970Y117683
X106970Y133933
X39470Y98308
X63845Y63933
X88845Y63933
X106970Y91433
X132595Y85183
X132595Y63933
X163845Y63933
X218845Y83933
X208845Y76433
X241345Y63933
X244470Y96433
X244470Y106433
X254470Y101433
X292595Y70183
X288845Y129558
X288845Y115808
X281970Y136433
X287595Y153308
X281970Y167683
X295095Y182683
X295095Y197683
X231970Y187683
X304470Y225183
X296970Y247683
X167595Y220183
X127595Y220183
X182595Y228933
X197595Y213933
X172595Y207683
X180095Y200183
X188845Y191433
X138845Y182683
X127595Y145183
X145095Y127683
X132595Y117683
X171970Y107683
X171970Y117683
X254470Y125808
X255095Y167683
X315095Y114558
X315095Y185183
X66970Y247683
X202595Y176433
X170095Y187683
X235095Y215183
X87595Y166433
X157595Y235183
X85095Y143933
X250095Y68933
X110095Y162683
X117595Y186433
X65720Y182683
X46345Y205183
X40095Y247683
X327595Y245183
X327595Y65183
X148220Y102058
X195095Y106433
X190095Y121433
X230095Y148933
X242595Y162683
X221345Y162058
X235720Y155183
X92595Y133933
X213845Y107683
X228845Y92683
X198845Y142058
X327595Y95183
X327595Y125183
X327595Y155183
X327595Y185183
X327595Y215183
X160095Y92058
X140095Y165808
X238220Y163933
X229470Y198933
X170095Y183308
X181970Y192683
X235095Y160183
X212595Y191433
X81345Y165183
X81345Y122058
X81345Y140183
X229470Y144558
X215720Y144558
X167595Y235183
X123845Y150183
X140720Y155183
X118845Y155183
X140095Y159558
X185095Y205183
X195720Y147683
X215095Y155970
X213845Y170183
X156345Y208933
X216345Y166433
X157595Y178308
X139470Y203308
X140095Y208933
X225720Y157683
X179470Y125183
X117595Y135183
X90720Y162058
X213220Y159558
X203220Y159558
X158845Y128933
X243845Y131433
X216345Y173308
X167595Y202683
X156970Y202683
X63220Y196433
X115095Y158933
X220095Y176433
X118845Y95183
X185095Y132683
X225095Y176433
T02
X173220Y156433
X167595Y156433
X167595Y150808
X173220Y150808
X173220Y145183
X167595Y145183
X157595Y150808
X157595Y156433
X157595Y173308
X157595Y167683
X167595Y167683
X167595Y173308
X173220Y173308
X173220Y167683
T03
X211503Y101433
X231188Y101433
X280095Y130026
X280095Y110341
T04
X192595Y200183
X202595Y200183
X212595Y200183
X192595Y210183
X202595Y210183
X212595Y210183
X40095Y160183
X40095Y150183
X40095Y180183
X40095Y170183
X122595Y192683
X132595Y192683
X102595Y192683
X112595Y192683
X40095Y190183
X92595Y192683
X40095Y210183
X251345Y86433
X268845Y86433
X283845Y212683
X283845Y202683
X283845Y192683
X283845Y182683
X152590Y192578
X162433Y192578
X142748Y192578
X196134Y65843
X196134Y134346
X41015Y134346
X41015Y65843
X305095Y112683
X305095Y122683
X305095Y132683
X305095Y152683
X305095Y162683
X305095Y182683
X305095Y192683
X305095Y202683
X305095Y212683
X222595Y220183
X212595Y220183
X202595Y220183
X192595Y220183
X182595Y220183
X172595Y220183
X162595Y220183
X152595Y220183
X142595Y220183
X132595Y220183
X122595Y220183
X112595Y220183
X102595Y220183
X92595Y220183
X305095Y235183
X305095Y245183
X40095Y220183
X40095Y200183
X72595Y235183
X82595Y235183
X92595Y235183
X102595Y235183
X112595Y235183
X122595Y235183
X72595Y245183
X82595Y245183
X92595Y245183
X102595Y245183
X112595Y245183
X122595Y245183
X132595Y235183
X132595Y245183
X142595Y235183
X152595Y235183
X162595Y235183
X172595Y235183
X182595Y235183
X192595Y235183
X142595Y245183
X152595Y245183
X162595Y245183
X172595Y245183
X182595Y245183
X192595Y245183
X202595Y235183
X202595Y245183
X212595Y235183
X222595Y235183
X232595Y235183
X242595Y235183
X252595Y235183
X262595Y235183
X212595Y245183
X222595Y245183
X232595Y245183
X242595Y245183
X252595Y245183
X262595Y245183
X287595Y65183
X287595Y75183
X287595Y85183
X287595Y95183
X260095Y212683
X260095Y202683
X260095Y192683
X260095Y182683
X246345Y151433
X263845Y151433
X208845Y126433
X218845Y126433
X228845Y126433
X208845Y136433
X218845Y136433
X228845Y136433
T05
X212595Y65183
X230095Y65183
T06
X281768Y240183
X53422Y240183
M30
